<!-- Generated by IcoMoon.io -->
<svg version="1.1" xmlns="http://www.w3.org/2000/svg" width="32" height="32" viewBox="0 0 32 32">
<title>alarm</title>
<path d="M16 30v0c-6.627 0-12-5.373-12-12s5.373-12 12-12v0c6.627 0 12 5.373 12 12s-5.373 12-12 12zM16 32c7.732 0 14-6.268 14-14s-6.268-14-14-14v0c-7.732 0-14 6.268-14 14s6.268 14 14 14v0z"></path>
<path d="M16 9c0.552 0 1 0.448 1 1v0 8c0 0.163-0.039 0.317-0.109 0.454l0.003-0.006-3 6c-0.167 0.334-0.506 0.559-0.897 0.559-0.552 0-1-0.448-1-1 0-0.166 0.040-0.323 0.112-0.46l-0.003 0.006 2.894-5.788v-7.764c0-0.552 0.448-1 1-1v0z"></path>
<path d="M1.72 10.774c-1.055-0.922-1.718-2.27-1.718-3.772 0-2.761 2.239-5 5-5 1.503 0 2.851 0.663 3.767 1.713l0.005 0.006c-3.054 1.573-5.481 4-7.012 6.964l-0.042 0.090zM23.226 3.72c0.922-1.055 2.27-1.719 3.773-1.719 2.761 0 5 2.239 5 5 0 1.503-0.663 2.851-1.713 3.767l-0.006 0.005c-1.573-3.054-4-5.481-6.964-7.012l-0.090-0.042z"></path>
<path d="M23.292 28.292c0.181-0.181 0.431-0.294 0.708-0.294s0.527 0.112 0.708 0.294l2 2c0.181 0.181 0.293 0.431 0.293 0.708 0 0.553-0.448 1.001-1.001 1.001-0.276 0-0.527-0.112-0.708-0.293v0l-2-2c-0.181-0.181-0.294-0.431-0.294-0.708s0.112-0.527 0.294-0.708l0-0zM8.708 28.292c-0.181-0.181-0.431-0.294-0.708-0.294s-0.527 0.112-0.708 0.294l-2 2c-0.181 0.181-0.293 0.431-0.293 0.708 0 0.553 0.448 1.001 1.001 1.001 0.277 0 0.527-0.112 0.708-0.293v0l2-2c0.181-0.181 0.294-0.431 0.294-0.708s-0.112-0.527-0.294-0.708l-0-0zM11 1c0-0.552 0.448-1 1-1v0h8c0.552 0 1 0.448 1 1s-0.448 1-1 1v0h-8c-0.552 0-1-0.448-1-1v0z"></path>
<path d="M14 2h4v4h-4v-4z"></path>
</svg>
