<!-- Generated by IcoMoon.io -->
<svg version="1.1" xmlns="http://www.w3.org/2000/svg" width="32" height="32" viewBox="0 0 32 32">
<title>archive</title>
<path d="M4 10v15c0 1.728 1.284 3 2.714 3h18.572c1.43 0 2.714-1.272 2.714-3v-15h2v15c0 2.69-2.042 5-4.714 5h-18.572c-2.672 0-4.714-2.31-4.714-5v-15h2z"></path>
<path d="M11 15v0c0 0.552 0.448 1 1 1h8c0.552 0 1-0.448 1-1s-0.448-1-1-1h-8c-0.552 0-1 0.448-1 1zM30 4v4h-28v-4h28zM2 2c-1.105 0-2 0.895-2 2v0 4c0 1.105 0.895 2 2 2v0h28c1.105 0 2-0.895 2-2v0-4c0-1.105-0.895-2-2-2v0h-28z"></path>
</svg>
