<!-- Generated by IcoMoon.io -->
<svg version="1.1" xmlns="http://www.w3.org/2000/svg" width="32" height="32" viewBox="0 0 32 32">
<title>arrow-down-left-square-fill</title>
<path d="M4 0c-2.209 0-4 1.791-4 4v0 24c0 2.209 1.791 4 4 4v0h24c2.209 0 4-1.791 4-4v0-24c0-2.209-1.791-4-4-4v0h-24zM19 22h-8c-0.552 0-1-0.448-1-1v0-8c0-0.552 0.448-1 1-1s1 0.448 1 1v0 5.586l8.292-8.294c0.181-0.181 0.431-0.293 0.708-0.293 0.553 0 1.001 0.448 1.001 1.001 0 0.277-0.112 0.527-0.293 0.708v0l-8.294 8.292h5.586c0.552 0 1 0.448 1 1s-0.448 1-1 1v0z"></path>
</svg>
