<!-- Generated by IcoMoon.io -->
<svg version="1.1" xmlns="http://www.w3.org/2000/svg" width="32" height="32" viewBox="0 0 32 32">
<title>arrow-repeat</title>
<path d="M5.708 14.292c-0.181-0.181-0.431-0.294-0.708-0.294s-0.527 0.112-0.708 0.294l-4 4c-0.181 0.181-0.293 0.431-0.293 0.708 0 0.553 0.448 1.001 1.001 1.001 0.276 0 0.527-0.112 0.708-0.293l3.292-3.294 3.292 3.294c0.181 0.181 0.431 0.293 0.708 0.293 0.553 0 1.001-0.448 1.001-1.001 0-0.276-0.112-0.527-0.293-0.708v0l-4-4zM31.708 12.292c-0.181-0.181-0.431-0.294-0.708-0.294s-0.527 0.112-0.708 0.294l-3.292 3.294-3.292-3.294c-0.181-0.181-0.431-0.293-0.708-0.293-0.553 0-1.001 0.448-1.001 1.001 0 0.277 0.112 0.527 0.293 0.708v0l4 4c0.181 0.181 0.431 0.294 0.708 0.294s0.527-0.112 0.708-0.294l4-4c0.181-0.181 0.294-0.431 0.294-0.708s-0.112-0.527-0.294-0.708l-0-0z"></path>
<path d="M16 6c-0.002 0-0.005 0-0.008 0-3.493 0-6.567 1.793-8.353 4.508l-0.023 0.038c-0.183 0.258-0.481 0.424-0.817 0.424-0.552 0-1-0.448-1-1 0-0.19 0.053-0.368 0.146-0.52l-0.003 0.004c2.173-3.304 5.865-5.455 10.058-5.455 6.627 0 12 5.373 12 12 0 0 0 0.001 0 0.001v-0c0 0.553-0.448 1.001-1.001 1.001s-1.001-0.448-1.001-1.001v0c0-5.523-4.477-10-10-10v0zM5 15c0.552 0 1 0.448 1 1v0c0 0.001 0 0.002 0 0.003 0 5.523 4.477 10 10 10 3.496 0 6.573-1.794 8.361-4.512l0.023-0.038c0.178-0.292 0.495-0.484 0.857-0.484 0.552 0 1 0.448 1 1 0 0.216-0.068 0.416-0.185 0.579l0.002-0.003c-2.173 3.304-5.865 5.455-10.058 5.455-6.627 0-12-5.373-12-12 0-0 0-0.001 0-0.001v0c0 0 0 0 0 0 0-0.552 0.448-1 1-1 0.001 0 0.001 0 0.002 0h-0z"></path>
</svg>
