<!-- Generated by IcoMoon.io -->
<svg version="1.1" xmlns="http://www.w3.org/2000/svg" width="32" height="32" viewBox="0 0 32 32">
<title>arrows-angle-expand</title>
<path d="M3 20.072c0.552 0 1 0.448 1 1v0 7h7c0.552 0 1 0.448 1 1s-0.448 1-1 1v0h-8c-0.552 0-1-0.448-1-1v0-8c0-0.552 0.448-1 1-1v0z"></path>
<path d="M12.708 19.292c0.181 0.181 0.294 0.431 0.294 0.708s-0.112 0.527-0.294 0.708l-9 9c-0.181 0.181-0.431 0.293-0.708 0.293-0.553 0-1.001-0.448-1.001-1.001 0-0.276 0.112-0.527 0.293-0.708l9-9c0.181-0.181 0.431-0.294 0.708-0.294s0.527 0.112 0.708 0.294l0 0zM29.708 2.292c0.181 0.181 0.294 0.431 0.294 0.708s-0.112 0.527-0.294 0.708l-9 9c-0.181 0.181-0.431 0.293-0.708 0.293-0.553 0-1.001-0.448-1.001-1.001 0-0.277 0.112-0.527 0.293-0.708v0l9-9c0.181-0.181 0.431-0.294 0.708-0.294s0.527 0.112 0.708 0.294l0 0z"></path>
<path d="M20.072 3c0-0.552 0.448-1 1-1v0h8c0.552 0 1 0.448 1 1v0 8c0 0.552-0.448 1-1 1s-1-0.448-1-1v0-7h-7c-0.552 0-1-0.448-1-1v0z"></path>
</svg>
