<!-- Generated by IcoMoon.io -->
<svg version="1.1" xmlns="http://www.w3.org/2000/svg" width="32" height="32" viewBox="0 0 32 32">
<title>arrow-90deg-left</title>
<path d="M12.208 4.792c0.181 0.181 0.294 0.431 0.294 0.708s-0.112 0.527-0.294 0.708l-5.294 5.292 5.294 5.292c0.181 0.181 0.293 0.431 0.293 0.708 0 0.553-0.448 1.001-1.001 1.001-0.277 0-0.527-0.112-0.708-0.293v0l-6-6c-0.181-0.181-0.294-0.431-0.294-0.708s0.112-0.527 0.294-0.708l6-6c0.181-0.181 0.431-0.294 0.708-0.294s0.527 0.112 0.708 0.294l0 0z"></path>
<path d="M5.5 11.5c0-0.552 0.448-1 1-1v0h13c2.761 0 5 2.239 5 5v0 11c0 0.552-0.448 1-1 1s-1-0.448-1-1v0-11c0-1.657-1.343-3-3-3v0h-13c-0.552 0-1-0.448-1-1v0z"></path>
</svg>
