<!-- Generated by IcoMoon.io -->
<svg version="1.1" xmlns="http://www.w3.org/2000/svg" width="32" height="32" viewBox="0 0 32 32">
<title>aspect-ratio-fill</title>
<path d="M3 4h26c1.657 0 3 1.343 3 3v18c0 1.657-1.343 3-3 3h-26c-1.657 0-3-1.343-3-3v-18c0-1.657 1.343-3 3-3zM5 8c-0.552 0-1 0.448-1 1v0 6c0 0.552 0.448 1 1 1s1-0.448 1-1v0-5h5c0.552 0 1-0.448 1-1s-0.448-1-1-1v0h-6zM27 24c0.552 0 1-0.448 1-1v0-6c0-0.552-0.448-1-1-1s-1 0.448-1 1v0 5h-5c-0.552 0-1 0.448-1 1s0.448 1 1 1v0h6z"></path>
</svg>
