<!-- Generated by IcoMoon.io -->
<svg version="1.1" xmlns="http://www.w3.org/2000/svg" width="32" height="32" viewBox="0 0 32 32">
<title>aspect-ratio</title>
<path d="M0 7c0-1.657 1.343-3 3-3v0h26c1.657 0 3 1.343 3 3v0 18c0 1.657-1.343 3-3 3v0h-26c-1.657 0-3-1.343-3-3v0-18zM3 6c-0.552 0-1 0.448-1 1v0 18c0 0.552 0.448 1 1 1v0h26c0.552 0 1-0.448 1-1v0-18c0-0.552-0.448-1-1-1v0h-26z"></path>
<path d="M4 9c0-0.552 0.448-1 1-1v0h6c0.552 0 1 0.448 1 1s-0.448 1-1 1v0h-5v5c0 0.552-0.448 1-1 1s-1-0.448-1-1v0-6zM28 23c0 0.552-0.448 1-1 1v0h-6c-0.552 0-1-0.448-1-1s0.448-1 1-1v0h5v-5c0-0.552 0.448-1 1-1s1 0.448 1 1v0 6z"></path>
</svg>
