<!-- Generated by IcoMoon.io -->
<svg version="1.1" xmlns="http://www.w3.org/2000/svg" width="32" height="32" viewBox="0 0 32 32">
<title>asterisk</title>
<path d="M16 0c1.105 0 2 0.895 2 2v0 10.536l9.124-5.268c0.29-0.173 0.639-0.275 1.012-0.275 1.105 0 2 0.895 2 2 0 0.741-0.403 1.388-1.002 1.733l-0.010 0.005-9.124 5.268 9.124 5.268c0.608 0.351 1.012 0.998 1.012 1.739 0 1.105-0.895 2-2 2-0.373 0-0.722-0.102-1.021-0.28l0.009 0.005-9.124-5.268v10.536c0 1.105-0.895 2-2 2s-2-0.895-2-2v0-10.536l-9.124 5.268c-0.29 0.173-0.639 0.275-1.011 0.275-1.105 0-2-0.895-2-2 0-0.741 0.403-1.388 1.002-1.733l0.010-0.005 9.124-5.268-9.124-5.268c-0.596-0.354-0.989-0.994-0.989-1.725 0-1.105 0.895-2 2-2 0.364 0 0.704 0.097 0.998 0.266l-0.010-0.005 9.124 5.268v-10.536c0-1.105 0.895-2 2-2v0z"></path>
</svg>
