<!-- Generated by IcoMoon.io -->
<svg version="1.1" xmlns="http://www.w3.org/2000/svg" width="32" height="32" viewBox="0 0 32 32">
<title>award-fill</title>
<path d="M16 0l3.338 1.728 3.716 0.564 1.684 3.36 2.674 2.64-0.612 3.708 0.612 3.708-2.674 2.64-1.684 3.36-3.716 0.564-3.338 1.728-3.338-1.728-3.716-0.564-1.684-3.36-2.674-2.64 0.612-3.708-0.612-3.708 2.674-2.64 1.684-3.36 3.716-0.564 3.338-1.728z"></path>
<path d="M8 23.588v8.412l8-2 8 2v-8.412l-4.036 0.612-3.964 2.052-3.964-2.052-4.036-0.612z"></path>
</svg>
