<!-- Generated by IcoMoon.io -->
<svg version="1.1" xmlns="http://www.w3.org/2000/svg" width="32" height="32" viewBox="0 0 32 32">
<title>award</title>
<path d="M19.338 1.728l3.716 0.564 1.684 3.36 2.674 2.64-0.612 3.708 0.612 3.708-2.674 2.64-1.684 3.36-3.716 0.564-3.338 1.728-3.338-1.728-3.716-0.564-1.684-3.36-2.674-2.64 0.612-3.708-0.612-3.708 2.674-2.64 1.684-3.36 3.716-0.564 3.338-1.728 3.338 1.728zM21.73 4.114l-3.020-0.458-2.71-1.404-2.71 1.404-3.020 0.458-1.368 2.73-2.172 2.144 0.498 3.012-0.5 3.012 2.174 2.144 1.368 2.73 3.020 0.458 2.71 1.404 2.712-1.404 3.018-0.458 1.368-2.73 2.172-2.144-0.496-3.012 0.496-3.012-2.172-2.144-1.368-2.73z"></path>
<path d="M8 23.588v8.412l8-2 8 2v-8.412l-4.036 0.612-3.964 2.052-3.964-2.052-4.036-0.612z"></path>
</svg>
