<!-- Generated by IcoMoon.io -->
<svg version="1.1" xmlns="http://www.w3.org/2000/svg" width="32" height="32" viewBox="0 0 32 32">
<title>bag-check</title>
<path d="M28 10v18c0 1.105-0.895 2-2 2h-20c-1.105 0-2-0.895-2-2v-18h24zM2 8v20c0 2.209 1.791 4 4 4v0h20c2.209 0 4-1.791 4-4v0-20h-28z"></path>
<path d="M16 3c-2.761 0-5 2.239-5 5v0h-2c0-3.866 3.134-7 7-7s7 3.134 7 7v0h-2c0-2.761-2.239-5-5-5v0z"></path>
<path d="M21.708 15.292c0.181 0.181 0.294 0.431 0.294 0.708s-0.112 0.527-0.294 0.708l-6 6c-0.181 0.181-0.431 0.294-0.708 0.294s-0.527-0.112-0.708-0.294l-3-3c-0.181-0.181-0.293-0.431-0.293-0.708 0-0.553 0.448-1.001 1.001-1.001 0.277 0 0.527 0.112 0.708 0.293v0l2.292 2.294 5.292-5.294c0.181-0.181 0.431-0.294 0.708-0.294s0.527 0.112 0.708 0.294l0 0z"></path>
</svg>
