<!-- Generated by IcoMoon.io -->
<svg version="1.1" xmlns="http://www.w3.org/2000/svg" width="32" height="32" viewBox="0 0 32 32">
<title>basket-fill</title>
<path d="M10.142 2.486c0.178-0.293 0.495-0.486 0.858-0.486 0.552 0 1 0.448 1 1 0 0.19-0.053 0.367-0.145 0.518l0.002-0.004-5.092 8.486h18.468l-5.094-8.486c-0.089-0.147-0.142-0.324-0.142-0.514 0-0.552 0.448-1 1-1 0.363 0 0.68 0.193 0.855 0.482l0.003 0.004 5.71 9.514h3.434c0.552 0 1 0.448 1 1v0 4c0 0.552-0.448 1-1 1v0h-1v10c0 2.209-1.791 4-4 4v0h-20c-2.209 0-4-1.791-4-4v0-10h-1c-0.552 0-1-0.448-1-1v0-4c0-0.552 0.448-1 1-1v0h3.434l5.706-9.514zM7 21c0-0.552-0.448-1-1-1s-1 0.448-1 1v0 6c0 0.552 0.448 1 1 1s1-0.448 1-1v0-6zM12 21c0-0.552-0.448-1-1-1s-1 0.448-1 1v0 6c0 0.552 0.448 1 1 1s1-0.448 1-1v0-6zM17 21c0-0.552-0.448-1-1-1s-1 0.448-1 1v0 6c0 0.552 0.448 1 1 1s1-0.448 1-1v0-6zM22 21c0-0.552-0.448-1-1-1s-1 0.448-1 1v0 6c0 0.552 0.448 1 1 1s1-0.448 1-1v0-6zM27 21c0-0.552-0.448-1-1-1s-1 0.448-1 1v0 6c0 0.552 0.448 1 1 1s1-0.448 1-1v0-6z"></path>
</svg>
