<!-- Generated by IcoMoon.io -->
<svg version="1.1" xmlns="http://www.w3.org/2000/svg" width="32" height="32" viewBox="0 0 32 32">
<title>basket3-fill</title>
<path d="M20.486 2.142c0.147-0.089 0.324-0.142 0.514-0.142 0.363 0 0.68 0.193 0.855 0.482l0.003 0.004 6 10c0.089 0.147 0.142 0.324 0.142 0.514 0 0.552-0.448 1-1 1-0.363 0-0.68-0.193-0.855-0.482l-0.003-0.004-6-10c-0.089-0.147-0.142-0.324-0.142-0.514 0-0.363 0.193-0.68 0.482-0.855l0.004-0.002zM11.514 2.142c-0.147-0.089-0.324-0.142-0.514-0.142-0.363 0-0.68 0.193-0.855 0.482l-0.002 0.004-6 10c-0.089 0.147-0.142 0.324-0.142 0.514 0 0.552 0.448 1 1 1 0.363 0 0.68-0.193 0.856-0.482l0.003-0.004 6-10c0.089-0.147 0.142-0.324 0.142-0.514 0-0.363-0.193-0.68-0.482-0.855l-0.004-0.002z"></path>
<path d="M26.978 29.21c-0.1 0.455-0.5 0.79-0.978 0.79-0 0-0 0-0 0h-20c-0 0-0 0-0 0-0.478 0-0.877-0.335-0.976-0.783l-0.001-0.007-2.4-11.21h26.758l-2.402 11.21z"></path>
<path d="M1 12h30c0.552 0 1 0.448 1 1v2c0 0.552-0.448 1-1 1h-30c-0.552 0-1-0.448-1-1v-2c0-0.552 0.448-1 1-1z"></path>
</svg>
