<!-- Generated by IcoMoon.io -->
<svg version="1.1" xmlns="http://www.w3.org/2000/svg" width="32" height="32" viewBox="0 0 32 32">
<title>basket2</title>
<path d="M2.222 14.372c0.185-0.228 0.465-0.372 0.778-0.372h26c0 0 0 0 0 0 0.552 0 1 0.448 1 1 0 0.074-0.008 0.147-0.024 0.217l0.001-0.007-3 14c-0.1 0.455-0.5 0.79-0.978 0.79-0 0-0 0-0 0h-20c-0 0-0 0-0 0-0.478 0-0.877-0.335-0.976-0.783l-0.001-0.007-3-14c-0.014-0.063-0.023-0.136-0.023-0.211 0-0.239 0.084-0.459 0.224-0.631l-0.001 0.002zM4.236 16l2.572 12h18.384l2.572-12h-23.528z"></path>
<path d="M22.628 2.072c0.11-0.045 0.238-0.072 0.372-0.072 0.418 0 0.776 0.257 0.926 0.621l0.002 0.007 4 10c0.050 0.115 0.080 0.25 0.080 0.391 0 0.552-0.448 1-1 1-0.426 0-0.789-0.266-0.933-0.64l-0.002-0.007-4-10c-0.045-0.11-0.072-0.238-0.072-0.372 0-0.418 0.257-0.776 0.621-0.926l0.007-0.002zM9.372 2.072c-0.11-0.045-0.238-0.072-0.372-0.072-0.418 0-0.776 0.257-0.926 0.621l-0.002 0.007-4 10c-0.050 0.115-0.080 0.25-0.080 0.391 0 0.552 0.448 1 1 1 0.426 0 0.789-0.266 0.933-0.64l0.002-0.007 4-10c0.045-0.11 0.072-0.238 0.072-0.372 0-0.418-0.257-0.776-0.621-0.926l-0.007-0.002z"></path>
<path d="M8 20c0-1.105 0.895-2 2-2s2 0.895 2 2v0 4c0 1.105-0.895 2-2 2s-2-0.895-2-2v0-4zM14 20c0-1.105 0.895-2 2-2s2 0.895 2 2v0 4c0 1.105-0.895 2-2 2s-2-0.895-2-2v0-4zM20 20c0-1.105 0.895-2 2-2s2 0.895 2 2v0 4c0 1.105-0.895 2-2 2s-2-0.895-2-2v0-4zM0 13c0-0.552 0.448-1 1-1v0h30c0.552 0 1 0.448 1 1v0 2c0 0.552-0.448 1-1 1v0h-30c-0.552 0-1-0.448-1-1v0-2z"></path>
</svg>
