<!-- Generated by IcoMoon.io -->
<svg version="1.1" xmlns="http://www.w3.org/2000/svg" width="32" height="32" viewBox="0 0 32 32">
<title>battery-charging</title>
<path d="M29 19c1.657 0 3-1.343 3-3s-1.343-3-3-3v0 6z"></path>
<path d="M19.17 5.136c0.299 0.177 0.497 0.497 0.497 0.864 0 0.106-0.016 0.207-0.047 0.303l0.002-0.007-2.268 7.368h3.98c0 0 0 0 0 0 0.552 0 1 0.448 1 1 0 0.266-0.104 0.507-0.273 0.686l0-0-10.668 11.334c-0.183 0.194-0.442 0.315-0.728 0.315-0.552 0-1-0.448-1-1 0-0.105 0.016-0.207 0.046-0.302l-0.002 0.007 2.27-7.37h-3.98c-0 0-0 0-0 0-0.552 0-1-0.448-1-1 0-0.266 0.104-0.507 0.273-0.686l-0 0 10.666-11.334c0.183-0.194 0.442-0.316 0.729-0.316 0.185 0 0.359 0.050 0.508 0.138l-0.005-0.003z"></path>
<path d="M12.664 8h-8.664c-2.209 0-4 1.791-4 4v0 8c0 2.209 1.791 4 4 4v0h4.144l0.614-2h-4.758c-1.105 0-2-0.895-2-2v0-8c0-1.105 0.895-2 2-2v0h6.782l1.882-2zM8.9 12h-4.9v8h2.626c-0.973-0.509-1.625-1.512-1.625-2.666 0-0.796 0.31-1.52 0.816-2.057l-0.001 0.002 3.084-3.278zM10.852 22l-0.616 2h3.684l0.42-0.448h0.002l1.46-1.552h-2.742l-0.17 0.18 0.056-0.18h-2.094zM13.56 20h-2.094l0.514-1.666h-3.98c-0 0-0 0-0 0-0.552 0-1-0.448-1-1 0-0.266 0.104-0.507 0.273-0.686l-0 0 4.374-4.648h2.746l-4.078 4.334h3.020c0 0 0 0 0 0 0.552 0 1 0.448 1 1 0 0.105-0.016 0.206-0.046 0.301l0.002-0.007-0.73 2.372zM14.94 20h2.748l4.374-4.648c0.169-0.179 0.272-0.42 0.272-0.686 0-0.552-0.448-1-1-1-0 0-0 0-0 0h-3.98l0.512-1.666h-2.092l-0.332 1.080-0.398 1.292c-0.028 0.088-0.044 0.189-0.044 0.294 0 0.552 0.448 1 1 1 0 0 0 0 0 0h3.020l-4.080 4.334zM16.39 10h2.090l0.616-2h-3.684l-1.884 2h2.748l0.17-0.18-0.056 0.18zM21.19 8l-0.616 2h3.426c1.105 0 2 0.895 2 2v0 8c0 1.105-0.895 2-2 2v0h-5.448l-1.884 2h7.332c2.209 0 4-1.791 4-4v0-8c0-2.209-1.791-4-4-4v0h-2.81zM20.434 20h3.566v-3.96c-0.136 0.261-0.296 0.485-0.483 0.683l0.001-0.002-3.084 3.278zM24 13.292v-1.292h-1.292c0.557 0.291 1.001 0.735 1.284 1.276l0.008 0.016z"></path>
</svg>
