<!-- Generated by IcoMoon.io -->
<svg version="1.1" xmlns="http://www.w3.org/2000/svg" width="32" height="32" viewBox="0 0 32 32">
<title>bicycle</title>
<path d="M6 24v0c-2.209 0-4-1.791-4-4s1.791-4 4-4v0c2.209 0 4 1.791 4 4s-1.791 4-4 4zM6 26c3.314 0 6-2.686 6-6s-2.686-6-6-6v0c-3.314 0-6 2.686-6 6s2.686 6 6 6v0zM26 24v0c-2.209 0-4-1.791-4-4s1.791-4 4-4v0c2.209 0 4 1.791 4 4s-1.791 4-4 4zM26 26c3.314 0 6-2.686 6-6s-2.686-6-6-6v0c-3.314 0-6 2.686-6 6s2.686 6 6 6v0z"></path>
<path d="M8 9c0-0.552 0.448-1 1-1v0h3c0.552 0 1 0.448 1 1s-0.448 1-1 1v0 1h8.28l0.772-2.316c0.136-0.401 0.509-0.684 0.948-0.684h2c0.552 0 1 0.448 1 1s-0.448 1-1 1v0h-1.28l-0.622 1.87 4.75 7.6c0.095 0.15 0.152 0.334 0.152 0.53 0 0.552-0.448 1-1 1-0.356 0-0.668-0.186-0.846-0.466l-0.002-0.004-4.152-6.644-4.152 6.644c-0.18 0.284-0.492 0.47-0.848 0.47 0 0 0 0 0 0h-10c0 0 0 0 0 0-0.552 0-1-0.448-1-1 0-0.196 0.057-0.38 0.154-0.534l-0.002 0.004 4.848-7.756v-1.714h-1c-0.552 0-1-0.448-1-1v0zM11 13.886l-3.196 5.114h6.392l-3.196-5.114zM16 18.114l3.196-5.114h-6.392l3.196 5.114z"></path>
</svg>
