<!-- Generated by IcoMoon.io -->
<svg version="1.1" xmlns="http://www.w3.org/2000/svg" width="32" height="32" viewBox="0 0 32 32">
<title>book-fill</title>
<path d="M30.522 27.332c0.69 0.28 1.478-0.21 1.478-0.954v-21.378c0-0.004 0-0.009 0-0.014 0-0.38-0.225-0.708-0.548-0.857l-0.006-0.002c-2.252-1.006-10.84-4.38-15.446 0.258-4.608-4.634-13.194-1.264-15.446-0.258-0.33 0.152-0.554 0.48-0.554 0.86 0 0.006 0 0.013 0 0.019v-0.001 21.376c0 0.744 0.788 1.236 1.478 0.954 3.998-1.63 10.772-3.108 14.522 0.666 3.75-3.774 10.524-2.296 14.522-0.668z"></path>
</svg>
