<!-- Generated by IcoMoon.io -->
<svg version="1.1" xmlns="http://www.w3.org/2000/svg" width="32" height="32" viewBox="0 0 32 32">
<title>border-style</title>
<path d="M2 7c0-0.552 0.448-1 1-1v0h26c0.552 0 1 0.448 1 1v0 2c0 0.552-0.448 1-1 1v0h-26c-0.552 0-1-0.448-1-1v0-2zM2 15c0-0.552 0.448-1 1-1v0h10c0.552 0 1 0.448 1 1v0 2c0 0.552-0.448 1-1 1v0h-10c-0.552 0-1-0.448-1-1v0-2zM2 23c0-0.552 0.448-1 1-1v0h2c0.552 0 1 0.448 1 1v0 2c0 0.552-0.448 1-1 1v0h-2c-0.552 0-1-0.448-1-1v0-2zM18 23c0-0.552 0.448-1 1-1v0h2c0.552 0 1 0.448 1 1v0 2c0 0.552-0.448 1-1 1v0h-2c-0.552 0-1-0.448-1-1v0-2zM10 23c0-0.552 0.448-1 1-1v0h2c0.552 0 1 0.448 1 1v0 2c0 0.552-0.448 1-1 1v0h-2c-0.552 0-1-0.448-1-1v0-2zM26 23c0-0.552 0.448-1 1-1v0h2c0.552 0 1 0.448 1 1v0 2c0 0.552-0.448 1-1 1v0h-2c-0.552 0-1-0.448-1-1v0-2zM18 15c0-0.552 0.448-1 1-1v0h10c0.552 0 1 0.448 1 1v0 2c0 0.552-0.448 1-1 1v0h-10c-0.552 0-1-0.448-1-1v0-2z"></path>
</svg>
