<!-- Generated by IcoMoon.io -->
<svg version="1.1" xmlns="http://www.w3.org/2000/svg" width="32" height="32" viewBox="0 0 32 32">
<title>box-seam</title>
<path d="M16.372 2.226c-0.11-0.045-0.238-0.072-0.372-0.072s-0.262 0.026-0.379 0.074l0.007-0.002-11.936 4.774 4.808 1.922 12.308-4.922-4.436-1.774zM23.5 5.078l-12.308 4.922 4.808 1.922 12.308-4.922-4.808-1.922zM30 8.478l-13 5.2v15.844l13-5.2v-15.842zM15 29.524v-15.848l-13-5.198v15.846l13 5.2zM14.886 0.368c0.33-0.136 0.713-0.214 1.114-0.214s0.784 0.079 1.134 0.222l-0.020-0.007 14.258 5.704c0.371 0.152 0.628 0.51 0.628 0.928v0 17.324c-0.001 0.837-0.515 1.553-1.245 1.851l-0.013 0.005-14.37 5.748c-0.11 0.045-0.238 0.072-0.372 0.072s-0.262-0.026-0.379-0.074l0.007 0.002-14.368-5.748c-0.744-0.302-1.259-1.019-1.26-1.856v-17.324c0-0.418 0.257-0.776 0.621-0.926l0.007-0.002 14.258-5.704z"></path>
</svg>
