<!-- Generated by IcoMoon.io -->
<svg version="1.1" xmlns="http://www.w3.org/2000/svg" width="32" height="32" viewBox="0 0 32 32">
<title>box-arrow-down-right</title>
<path d="M6 3c-1.657 0-3 1.343-3 3v0 16c0 1.657 1.343 3 3 3v0h8c0.552 0 1-0.448 1-1s-0.448-1-1-1v0h-8c-0.552 0-1-0.448-1-1v0-16c0-0.552 0.448-1 1-1v0h16c0.552 0 1 0.448 1 1v0 8c0 0.552 0.448 1 1 1s1-0.448 1-1v0-8c0-1.657-1.343-3-3-3v0h-16zM28 17c0.552 0 1 0.448 1 1v0 10c0 0.552-0.448 1-1 1v0h-10c-0.552 0-1-0.448-1-1s0.448-1 1-1v0h9v-9c0-0.552 0.448-1 1-1v0z"></path>
<path d="M28.708 28.708c-0.181 0.181-0.431 0.294-0.708 0.294s-0.527-0.112-0.708-0.294l-16-16c-0.181-0.181-0.293-0.431-0.293-0.708 0-0.553 0.448-1.001 1.001-1.001 0.277 0 0.527 0.112 0.708 0.293v0l16 16c0.181 0.181 0.294 0.431 0.294 0.708s-0.112 0.527-0.294 0.708l-0 0z"></path>
</svg>
