<!-- Generated by IcoMoon.io -->
<svg version="1.1" xmlns="http://www.w3.org/2000/svg" width="32" height="32" viewBox="0 0 32 32">
<title>braces</title>
<path d="M4.228 16.126v-0.326c2.010-0.204 2.994-1.23 2.994-3.2v-3.594c0-2.188 0.78-3.076 2.708-3.076h0.546v-1.93h-0.752c-3.224 0-4.744 1.518-4.744 4.704v3.048c0 2.188-0.752 2.912-2.98 2.912v2.598c2.228 0 2.98 0.724 2.98 2.912v3.048c0 3.186 1.518 4.704 4.744 4.704h0.752v-1.928h-0.546c-1.928 0-2.708-0.888-2.708-3.076v-3.596c0-1.968-0.984-2.994-2.994-3.2zM27.772 15.8v0.326c-2.010 0.206-2.994 1.232-2.994 3.2v3.596c0 2.188-0.78 3.076-2.708 3.076h-0.546v1.928h0.752c3.226 0 4.744-1.518 4.744-4.704v-3.048c0-2.188 0.752-2.912 2.98-2.912v-2.598c-2.228 0-2.98-0.724-2.98-2.912v-3.048c0-3.186-1.52-4.704-4.744-4.704h-0.752v1.928h0.546c1.928 0 2.708 0.888 2.708 3.076v3.596c0 1.968 0.984 2.994 2.994 3.2z"></path>
</svg>
