<!-- Generated by IcoMoon.io -->
<svg version="1.1" xmlns="http://www.w3.org/2000/svg" width="32" height="32" viewBox="0 0 32 32">
<title>bricks</title>
<path d="M30 26v4h-28v-4h28zM2 24c-1.105 0-2 0.895-2 2v0 4c0 1.105 0.895 2 2 2v0h28c1.105 0 2-0.895 2-2v0-4c0-1.105-0.895-2-2-2v0h-28zM30 14v4h-28v-4h28zM2 12c-1.105 0-2 0.895-2 2v0 4c0 1.105 0.895 2 2 2v0h28c1.105 0 2-0.895 2-2v0-4c0-1.105-0.895-2-2-2v0h-28z"></path>
<path d="M26 20v4h-20v-4h20zM6 18c-1.105 0-2 0.895-2 2v0 4c0 1.105 0.895 2 2 2v0h20c1.105 0 2-0.895 2-2v0-4c0-1.105-0.895-2-2-2v0h-20zM26 8v4h-20v-4h20zM6 6c-1.105 0-2 0.895-2 2v0 4c0 1.105 0.895 2 2 2v0h20c1.105 0 2-0.895 2-2v0-4c0-1.105-0.895-2-2-2v0h-20z"></path>
<path d="M30 2v4h-28v-4h28zM2 0c-1.105 0-2 0.895-2 2v0 4c0 1.105 0.895 2 2 2v0h28c1.105 0 2-0.895 2-2v0-4c0-1.105-0.895-2-2-2v0h-28z"></path>
<path d="M11 2v4h-2v-4h2zM23 2v4h-2v-4h2zM15 12v-4h2v4h-2zM11 14v4h-2v-4h2zM23 14v4h-2v-4h2zM15 24v-4h2v4h-2zM9 30v-4h2v4h-2zM21 30v-4h2v4h-2z"></path>
</svg>
