<!-- Generated by IcoMoon.io -->
<svg version="1.1" xmlns="http://www.w3.org/2000/svg" width="32" height="32" viewBox="0 0 32 32">
<title>calculator-fill</title>
<path d="M24 2v0c1.105 0 2 0.895 2 2v24c0 1.105-0.895 2-2 2h-16c-1.105 0-2-0.895-2-2v-24c0-1.105 0.895-2 2-2h16zM8 0c-2.209 0-4 1.791-4 4v0 24c0 2.209 1.791 4 4 4v0h16c2.209 0 4-1.791 4-4v0-24c0-2.209-1.791-4-4-4v0h-16z"></path>
<path d="M8 5c0-0.552 0.448-1 1-1v0h14c0.552 0 1 0.448 1 1v0 4c0 0.552-0.448 1-1 1v0h-14c-0.552 0-1-0.448-1-1v0-4zM8 13c0-0.552 0.448-1 1-1v0h2c0.552 0 1 0.448 1 1v0 2c0 0.552-0.448 1-1 1v0h-2c-0.552 0-1-0.448-1-1v0-2zM8 19c0-0.552 0.448-1 1-1v0h2c0.552 0 1 0.448 1 1v0 2c0 0.552-0.448 1-1 1v0h-2c-0.552 0-1-0.448-1-1v0-2zM8 25c0-0.552 0.448-1 1-1v0h2c0.552 0 1 0.448 1 1v0 2c0 0.552-0.448 1-1 1v0h-2c-0.552 0-1-0.448-1-1v0-2zM14 13c0-0.552 0.448-1 1-1v0h2c0.552 0 1 0.448 1 1v0 2c0 0.552-0.448 1-1 1v0h-2c-0.552 0-1-0.448-1-1v0-2zM14 19c0-0.552 0.448-1 1-1v0h2c0.552 0 1 0.448 1 1v0 2c0 0.552-0.448 1-1 1v0h-2c-0.552 0-1-0.448-1-1v0-2zM14 25c0-0.552 0.448-1 1-1v0h2c0.552 0 1 0.448 1 1v0 2c0 0.552-0.448 1-1 1v0h-2c-0.552 0-1-0.448-1-1v0-2zM20 13c0-0.552 0.448-1 1-1v0h2c0.552 0 1 0.448 1 1v0 2c0 0.552-0.448 1-1 1v0h-2c-0.552 0-1-0.448-1-1v0-2zM20 19c0-0.552 0.448-1 1-1v0h2c0.552 0 1 0.448 1 1v0 8c0 0.552-0.448 1-1 1v0h-2c-0.552 0-1-0.448-1-1v0-8z"></path>
</svg>
