<!-- Generated by IcoMoon.io -->
<svg version="1.1" xmlns="http://www.w3.org/2000/svg" width="32" height="32" viewBox="0 0 32 32">
<title>calendar-fill</title>
<path d="M7 0c0.552 0 1 0.448 1 1v0 1c0 0.552-0.448 1-1 1s-1-0.448-1-1v0-1c0-0.552 0.448-1 1-1v0zM25 0c0.552 0 1 0.448 1 1v0 1c0 0.552-0.448 1-1 1s-1-0.448-1-1v0-1c0-0.552 0.448-1 1-1v0z"></path>
<path d="M4 2c-2.209 0-4 1.791-4 4v0 2h32v-2c0-2.209-1.791-4-4-4v0h-24zM32 10h-32v18c0 2.209 1.791 4 4 4v0h24c2.209 0 4-1.791 4-4v0-18z"></path>
</svg>
