<!-- Generated by IcoMoon.io -->
<svg version="1.1" xmlns="http://www.w3.org/2000/svg" width="32" height="32" viewBox="0 0 32 32">
<title>calendar-plus</title>
<path d="M16 14c0.552 0 1 0.448 1 1v0 4c0 0.552-0.448 1-1 1v0h-4c-0.552 0-1-0.448-1-1s0.448-1 1-1v0h3v-3c0-0.552 0.448-1 1-1v0z"></path>
<path d="M15 19c0-0.552 0.448-1 1-1v0h4c0.552 0 1 0.448 1 1s-0.448 1-1 1v0h-3v3c0 0.552-0.448 1-1 1s-1-0.448-1-1v0-4z"></path>
<path d="M2 8h28v20c0 1.105-0.895 2-2 2h-24c-1.105 0-2-0.895-2-2v-20zM4 2c-2.209 0-4 1.791-4 4v0 22c0 2.209 1.791 4 4 4v0h24c2.209 0 4-1.791 4-4v0-22c0-2.209-1.791-4-4-4v0h-24z"></path>
<path d="M7 0c0.552 0 1 0.448 1 1v0 1c0 0.552-0.448 1-1 1s-1-0.448-1-1v0-1c0-0.552 0.448-1 1-1v0zM25 0c0.552 0 1 0.448 1 1v0 1c0 0.552-0.448 1-1 1s-1-0.448-1-1v0-1c0-0.552 0.448-1 1-1v0z"></path>
</svg>
