<!-- Generated by IcoMoon.io -->
<svg version="1.1" xmlns="http://www.w3.org/2000/svg" width="32" height="32" viewBox="0 0 32 32">
<title>calendar2-month</title>
<path d="M5.12 24.664l1.080-3.204h3.968l1.080 3.204h1.436l-3.796-10.664h-1.392l-3.796 10.664h1.42zM8.208 15.61l1.592 4.75h-3.232l1.6-4.75h0.040zM19.7 16.454h-1.352v5.086c0 1.304-0.828 2.046-2.008 2.046-1.078 0-1.96-0.492-1.96-2.024v-5.108h-1.352v5.492c0 1.882 1.212 2.85 2.906 2.85 1.312 0 2.086-0.56 2.376-1.21h0.054v1.078h1.336v-8.21zM24.216 26.546c-1.126 0-1.82-0.608-1.97-1.272h-1.374c0.188 1.366 1.25 2.398 3.336 2.398 1.86 0 3.492-1.054 3.492-3.156v-8.062h-1.298v1.156h-0.038c-0.382-0.696-1.274-1.28-2.39-1.28-1.93 0-3.28 1.358-3.28 3.772v0.68c0 2.46 1.366 3.804 3.28 3.804 1.116 0 2.016-0.586 2.344-1.296h0.040v1.21c0 1.29-0.846 2.046-2.142 2.046zM24.232 17.486c1.296 0 2.124 1.054 2.124 2.718v0.506c0 1.696-0.78 2.728-2.124 2.728-1.384 0-2.196-1.024-2.196-2.728v-0.506c0-1.736 0.812-2.72 2.196-2.72z"></path>
<path d="M28 4v0c1.105 0 2 0.895 2 2v22c0 1.105-0.895 2-2 2h-24c-1.105 0-2-0.895-2-2v-22c0-1.105 0.895-2 2-2h24zM4 2c-2.209 0-4 1.791-4 4v0 22c0 2.209 1.791 4 4 4v0h24c2.209 0 4-1.791 4-4v0-22c0-2.209-1.791-4-4-4v0h-24z"></path>
<path d="M7 0c0.552 0 1 0.448 1 1v0 1c0 0.552-0.448 1-1 1s-1-0.448-1-1v0-1c0-0.552 0.448-1 1-1v0zM25 0c0.552 0 1 0.448 1 1v0 1c0 0.552-0.448 1-1 1s-1-0.448-1-1v0-1c0-0.552 0.448-1 1-1v0z"></path>
<path d="M5 8c0-0.552 0.448-1 1-1v0h20c0.552 0 1 0.448 1 1v0 2c0 0.552-0.448 1-1 1v0h-20c-0.552 0-1-0.448-1-1v0-2z"></path>
</svg>
