<!-- Generated by IcoMoon.io -->
<svg version="1.1" xmlns="http://www.w3.org/2000/svg" width="32" height="32" viewBox="0 0 32 32">
<title>calendar-week</title>
<path d="M2 8h28v20c0 1.105-0.895 2-2 2h-24c-1.105 0-2-0.895-2-2v-20zM4 2c-2.209 0-4 1.791-4 4v0 22c0 2.209 1.791 4 4 4v0h24c2.209 0 4-1.791 4-4v0-22c0-2.209-1.791-4-4-4v0h-24z"></path>
<path d="M7 0c0.552 0 1 0.448 1 1v0 1c0 0.552-0.448 1-1 1s-1-0.448-1-1v0-1c0-0.552 0.448-1 1-1v0zM25 0c0.552 0 1 0.448 1 1v0 1c0 0.552-0.448 1-1 1s-1-0.448-1-1v0-1c0-0.552 0.448-1 1-1v0z"></path>
<path d="M22 13c0-0.552 0.448-1 1-1v0h2c0.552 0 1 0.448 1 1v0 2c0 0.552-0.448 1-1 1v0h-2c-0.552 0-1-0.448-1-1v0-2zM16 13c0-0.552 0.448-1 1-1v0h2c0.552 0 1 0.448 1 1v0 2c0 0.552-0.448 1-1 1v0h-2c-0.552 0-1-0.448-1-1v0-2zM6 19c0-0.552 0.448-1 1-1v0h2c0.552 0 1 0.448 1 1v0 2c0 0.552-0.448 1-1 1v0h-2c-0.552 0-1-0.448-1-1v0-2zM12 19c0-0.552 0.448-1 1-1v0h2c0.552 0 1 0.448 1 1v0 2c0 0.552-0.448 1-1 1v0h-2c-0.552 0-1-0.448-1-1v0-2z"></path>
</svg>
