<!-- Generated by IcoMoon.io -->
<svg version="1.1" xmlns="http://www.w3.org/2000/svg" width="32" height="32" viewBox="0 0 32 32">
<title>camera-video</title>
<path d="M5.334 7c-1.29 0-2.334 1.044-2.334 2.334v13.332c0 1.29 1.044 2.334 2.334 2.334h13.332c1.29 0 2.334-1.044 2.334-2.334v-13.332c0-1.29-1.044-2.334-2.334-2.334h-13.332zM1 9.334c0-2.394 1.94-4.334 4.334-4.334h13.332c2.394 0 4.334 1.94 4.334 4.334v13.332c0 2.394-1.94 4.334-4.334 4.334h-13.332c-2.394 0-4.334-1.94-4.334-4.334v0-13.332z"></path>
<path d="M22.5 11.3l5.536-3.21c0.094-0.057 0.207-0.091 0.328-0.091 0.345 0 0.625 0.274 0.636 0.616l0 0.001v14.768c0 0.456-0.52 0.786-0.964 0.528l-5.534-3.21-1.004 1.73 5.534 3.21c1.718 0.996 3.968-0.19 3.968-2.258v-14.768c0-2.066-2.25-3.252-3.968-2.256l-5.532 3.21 1.004 1.73z"></path>
</svg>
