<!-- Generated by IcoMoon.io -->
<svg version="1.1" xmlns="http://www.w3.org/2000/svg" width="32" height="32" viewBox="0 0 32 32">
<title>card-image</title>
<path d="M29 6v0c0.552 0 1 0.448 1 1v18c0 0.552-0.448 1-1 1h-26c-0.552 0-1-0.448-1-1v-18c0-0.552 0.448-1 1-1h26zM3 4c-1.657 0-3 1.343-3 3v0 18c0 1.657 1.343 3 3 3v0h26c1.657 0 3-1.343 3-3v0-18c0-1.657-1.343-3-3-3v0h-26z"></path>
<path d="M21.296 15.292c0.181-0.18 0.43-0.292 0.706-0.292 0.163 0 0.317 0.039 0.454 0.109l-0.006-0.003 7.554 3.894v7h-28v-2l5.292-4.708c0.181-0.18 0.43-0.292 0.706-0.292 0.207 0 0.398 0.063 0.558 0.17l-0.004-0.002 5.32 3.546 7.42-7.42z"></path>
<path d="M9.004 14c1.657 0 3-1.343 3-3s-1.343-3-3-3v0c-1.657 0-3 1.343-3 3s1.343 3 3 3v0z"></path>
</svg>
