<!-- Generated by IcoMoon.io -->
<svg version="1.1" xmlns="http://www.w3.org/2000/svg" width="32" height="32" viewBox="0 0 32 32">
<title>caret-right-square</title>
<path d="M28 2v0c1.105 0 2 0.895 2 2v24c0 1.105-0.895 2-2 2h-24c-1.105 0-2-0.895-2-2v-24c0-1.105 0.895-2 2-2h24zM4 0c-2.209 0-4 1.791-4 4v0 24c0 2.209 1.791 4 4 4v0h24c2.209 0 4-1.791 4-4v0-24c0-2.209-1.791-4-4-4v0h-24z"></path>
<path d="M11.59 24.912c-0.351-0.16-0.59-0.508-0.59-0.912v0-16c0-0 0-0 0-0 0-0.552 0.448-1 1-1 0.255 0 0.488 0.096 0.665 0.253l-0.001-0.001 9 8c0.207 0.184 0.336 0.451 0.336 0.748s-0.13 0.564-0.335 0.747l-0.001 0.001-9 8c-0.176 0.156-0.409 0.252-0.664 0.252-0.149 0-0.29-0.032-0.416-0.091l0.006 0.003z"></path>
</svg>
