<!-- Generated by IcoMoon.io -->
<svg version="1.1" xmlns="http://www.w3.org/2000/svg" width="32" height="32" viewBox="0 0 32 32">
<title>cash-stack</title>
<path d="M28 6h-26c0-1.105 0.895-2 2-2v0h24c1.105 0 2 0.895 2 2v0h-2z"></path>
<path d="M30 10v16h-28v-16h28zM2 8c-1.105 0-2 0.895-2 2v0 16c0 1.105 0.895 2 2 2v0h28c1.105 0 2-0.895 2-2v0-16c0-1.105-0.895-2-2-2v0h-28z"></path>
<path d="M26 10c0 2.209 1.791 4 4 4v0-4h-4zM6 10c0 2.209-1.791 4-4 4v0-4h4zM26 26c0-2.209 1.791-4 4-4v0 4h-4zM6 26c0-2.209-1.791-4-4-4v0 4h4zM20 18c0 2.209-1.791 4-4 4s-4-1.791-4-4v0c0-2.209 1.791-4 4-4s4 1.791 4 4v0z"></path>
</svg>
