<!-- Generated by IcoMoon.io -->
<svg version="1.1" xmlns="http://www.w3.org/2000/svg" width="32" height="32" viewBox="0 0 32 32">
<title>cast</title>
<path d="M15.292 18.708l-7.584 7.584c-0.181 0.181-0.294 0.431-0.294 0.708 0 0.552 0.448 1 1 1h15.172c0.001 0 0.001 0 0.002 0 0.552 0 1-0.448 1-1 0-0.277-0.112-0.527-0.294-0.708l-7.586-7.584c-0.181-0.181-0.431-0.294-0.708-0.294s-0.527 0.112-0.708 0.294l-0 0z"></path>
<path d="M22.828 22h6.172c0.552 0 1-0.448 1-1v0-14c0-0.552-0.448-1-1-1v0h-26c-0.552 0-1 0.448-1 1v0 14c0 0.552 0.448 1 1 1v0h6.172l-2 2h-4.172c-1.657 0-3-1.343-3-3v0-14c0-1.657 1.343-3 3-3v0h26c1.657 0 3 1.343 3 3v0 14c0 1.657-1.343 3-3 3v0h-4.172l-2-2z"></path>
</svg>
