<!-- Generated by IcoMoon.io -->
<svg version="1.1" xmlns="http://www.w3.org/2000/svg" width="32" height="32" viewBox="0 0 32 32">
<title>chat-left-text-fill</title>
<path d="M0 4c0-2.209 1.791-4 4-4v0h24c2.209 0 4 1.791 4 4v0 16c0 2.209-1.791 4-4 4v0h-19.172c-0.552 0-1.052 0.224-1.414 0.586l-5.706 5.706c-0.181 0.181-0.431 0.294-0.708 0.294-0.552 0-1-0.448-1-1v0-25.586zM7 6c-0.552 0-1 0.448-1 1s0.448 1 1 1v0h18c0.552 0 1-0.448 1-1s-0.448-1-1-1v0h-18zM7 11c-0.552 0-1 0.448-1 1s0.448 1 1 1v0h18c0.552 0 1-0.448 1-1s-0.448-1-1-1v0h-18zM7 16c-0.552 0-1 0.448-1 1s0.448 1 1 1v0h10c0.552 0 1-0.448 1-1s-0.448-1-1-1v0h-10z"></path>
</svg>
