<!-- Generated by IcoMoon.io -->
<svg version="1.1" xmlns="http://www.w3.org/2000/svg" width="32" height="32" viewBox="0 0 32 32">
<title>chat-square-dots-fill</title>
<path d="M0 4c0-2.209 1.791-4 4-4v0h24c2.209 0 4 1.791 4 4v0 16c0 2.209-1.791 4-4 4v0h-5c-0.652 0-1.231 0.312-1.596 0.795l-0.004 0.005-3.8 5.066c-0.369 0.488-0.948 0.8-1.6 0.8s-1.231-0.312-1.596-0.795l-0.004-0.005-3.8-5.066c-0.369-0.488-0.948-0.8-1.6-0.8v0h-5c-2.209 0-4-1.791-4-4v0-16zM10 12c0 1.105-0.895 2-2 2s-2-0.895-2-2v0c0-1.105 0.895-2 2-2s2 0.895 2 2v0zM18 12c0 1.105-0.895 2-2 2s-2-0.895-2-2v0c0-1.105 0.895-2 2-2s2 0.895 2 2v0zM24 14c1.105 0 2-0.895 2-2s-0.895-2-2-2v0c-1.105 0-2 0.895-2 2s0.895 2 2 2v0z"></path>
</svg>
