<!-- Generated by IcoMoon.io -->
<svg version="1.1" xmlns="http://www.w3.org/2000/svg" width="32" height="32" viewBox="0 0 32 32">
<title>check2-circle</title>
<path d="M30.708 5.292c0.181 0.181 0.294 0.431 0.294 0.708s-0.112 0.527-0.294 0.708l-14 14c-0.181 0.181-0.431 0.294-0.708 0.294s-0.527-0.112-0.708-0.294l-6-6c-0.181-0.181-0.293-0.431-0.293-0.708 0-0.553 0.448-1.001 1.001-1.001 0.277 0 0.527 0.112 0.708 0.293v0l5.292 5.294 13.292-13.294c0.181-0.181 0.431-0.294 0.708-0.294s0.527 0.112 0.708 0.294l0 0z"></path>
<path d="M16 5c-6.075 0-11 4.925-11 11s4.925 11 11 11c6.075 0 11-4.925 11-11v0c0-0.552 0.448-1 1-1s1 0.448 1 1v0c-0.001 7.179-5.821 12.998-13 12.998s-13-5.82-13-13 5.82-13 13-13c2.393 0 4.635 0.647 6.561 1.775l-0.061-0.033c0.321 0.171 0.536 0.503 0.536 0.886 0 0.552-0.448 1-1 1-0.199 0-0.385-0.058-0.54-0.158l0.004 0.002c-1.571-0.924-3.461-1.47-5.479-1.47-0.008 0-0.015 0-0.023 0h0.001z"></path>
</svg>
