<!-- Generated by IcoMoon.io -->
<svg version="1.1" xmlns="http://www.w3.org/2000/svg" width="32" height="32" viewBox="0 0 32 32">
<title>chevron-bar-up</title>
<path d="M7.292 23.708c0.181 0.181 0.431 0.294 0.708 0.294s0.527-0.112 0.708-0.294l7.292-7.294 7.292 7.294c0.181 0.181 0.431 0.293 0.708 0.293 0.553 0 1.001-0.448 1.001-1.001 0-0.276-0.112-0.527-0.293-0.708v0l-8-8c-0.181-0.181-0.431-0.294-0.708-0.294s-0.527 0.112-0.708 0.294l-8 8c-0.181 0.181-0.294 0.431-0.294 0.708s0.112 0.527 0.294 0.708l0 0zM4.8 10.4c0 0.44 0.36 0.8 0.8 0.8h20.8c0.442 0 0.8-0.358 0.8-0.8s-0.358-0.8-0.8-0.8h-20.8c-0.442 0-0.8 0.358-0.8 0.8v0z"></path>
</svg>
