<!-- Generated by IcoMoon.io -->
<svg version="1.1" xmlns="http://www.w3.org/2000/svg" width="32" height="32" viewBox="0 0 32 32">
<title>circle-square</title>
<path d="M0 12c0-6.627 5.373-12 12-12s12 5.373 12 12v0c0 6.627-5.373 12-12 12s-12-5.373-12-12v0z"></path>
<path d="M25.86 10h3.14c0.552 0 1 0.448 1 1v0 18c0 0.552-0.448 1-1 1v0h-18c-0.552 0-1-0.448-1-1v0-3.14c-0.768-0.112-1.444-0.265-2.098-0.466l0.098 0.026v3.58c0 1.657 1.343 3 3 3v0h18c1.657 0 3-1.343 3-3v0-18c0-1.657-1.343-3-3-3v0h-3.58c0.194 0.648 0.34 1.316 0.44 2z"></path>
</svg>
