<!-- Generated by IcoMoon.io -->
<svg version="1.1" xmlns="http://www.w3.org/2000/svg" width="32" height="32" viewBox="0 0 32 32">
<title>clock</title>
<path d="M16 30c7.732 0 14-6.268 14-14s-6.268-14-14-14v0c-7.732 0-14 6.268-14 14s6.268 14 14 14v0zM32 16c0 8.837-7.163 16-16 16s-16-7.163-16-16v0c0-8.837 7.163-16 16-16s16 7.163 16 16v0z"></path>
<path d="M15 6c0.552 0 1 0.448 1 1v0 10.42l6.496 3.712c0.292 0.178 0.483 0.495 0.483 0.856 0 0.552-0.448 1-1 1-0.174 0-0.338-0.045-0.481-0.123l0.005 0.003-7-4c-0.303-0.176-0.504-0.498-0.504-0.868v-11c0-0.552 0.448-1 1-1v0z"></path>
</svg>
