<!-- Generated by IcoMoon.io -->
<svg version="1.1" xmlns="http://www.w3.org/2000/svg" width="32" height="32" viewBox="0 0 32 32">
<title>cloud-slash</title>
<path d="M6.224 10.224c-0.142 0.35-0.26 0.762-0.335 1.189l-0.005 0.037c-3.352 0.74-5.884 3.66-5.884 7.186 0 4.096 3.416 7.364 7.562 7.364h14.438l-2-2h-12.438c-3.1 0-5.562-2.43-5.562-5.364 0-2.73 2.128-5.026 4.92-5.332l0.892-0.1v-0.894c0-0.15 0.012-0.304 0.036-0.462l-1.624-1.624zM11.324 7.324l-1.45-1.45c1.719-1.17 3.841-1.869 6.125-1.874h0.001c5.38 0 9.846 4 10.332 9.158 3.184 0.45 5.668 3.116 5.668 6.388-0.007 2.28-1.206 4.278-3.005 5.406l-0.027 0.016-1.466-1.466c1.494-0.746 2.498-2.25 2.498-3.956 0-2.432-2.040-4.456-4.626-4.456h-1v-1c0.002-4.44-3.718-8.090-8.374-8.090-1.75 0-3.356 0.52-4.678 1.322zM27.292 28.708l-24-24 1.416-1.416 24 24-1.414 1.414z"></path>
</svg>
