<!-- Generated by IcoMoon.io -->
<svg version="1.1" xmlns="http://www.w3.org/2000/svg" width="32" height="32" viewBox="0 0 32 32">
<title>cloud</title>
<path d="M8.812 6.684c1.917-1.66 4.433-2.675 7.186-2.684h0.002c5.38 0 9.846 4 10.332 9.158 3.184 0.45 5.668 3.116 5.668 6.388 0 3.592-2.996 6.454-6.626 6.454h-17.812c-4.146 0-7.562-3.268-7.562-7.364 0-3.526 2.532-6.446 5.884-7.186 0.286-1.726 1.396-3.446 2.928-4.766zM10.118 8.198c-1.514 1.306-2.306 2.88-2.306 4.112v0.896l-0.89 0.098c-2.794 0.306-4.922 2.6-4.922 5.332 0 2.934 2.46 5.364 5.562 5.364h17.812c2.586 0 4.626-2.024 4.626-4.454 0-2.432-2.040-4.456-4.626-4.456h-1v-1c0.002-4.44-3.718-8.090-8.374-8.090-2.255 0.009-4.313 0.841-5.893 2.21l0.011-0.010z"></path>
</svg>
