<!-- Generated by IcoMoon.io -->
<svg version="1.1" xmlns="http://www.w3.org/2000/svg" width="32" height="32" viewBox="0 0 32 32">
<title>cloud-slash-fill</title>
<path d="M6.224 10.224c-0.142 0.35-0.26 0.762-0.335 1.189l-0.005 0.037c-3.352 0.74-5.884 3.66-5.884 7.186 0 4.096 3.416 7.364 7.562 7.364h14.438l-15.776-15.776zM28.968 24.968l-19.094-19.094c1.719-1.17 3.841-1.869 6.125-1.874h0.001c5.38 0 9.846 4 10.332 9.158 3.184 0.45 5.668 3.116 5.668 6.388-0.007 2.28-1.206 4.278-3.005 5.406l-0.027 0.016zM27.292 28.708l-24-24 1.416-1.416 24 24-1.414 1.414z"></path>
</svg>
