<!-- Generated by IcoMoon.io -->
<svg version="1.1" xmlns="http://www.w3.org/2000/svg" width="32" height="32" viewBox="0 0 32 32">
<title>code</title>
<path d="M11.708 8.292c0.181 0.181 0.294 0.431 0.294 0.708s-0.112 0.527-0.294 0.708l-6.294 6.292 6.294 6.292c0.181 0.181 0.293 0.431 0.293 0.708 0 0.553-0.448 1.001-1.001 1.001-0.277 0-0.527-0.112-0.708-0.293v0l-7-7c-0.181-0.181-0.294-0.431-0.294-0.708s0.112-0.527 0.294-0.708l7-7c0.181-0.181 0.431-0.294 0.708-0.294s0.527 0.112 0.708 0.294l0 0zM20.292 8.292c-0.181 0.181-0.294 0.431-0.294 0.708s0.112 0.527 0.294 0.708l6.294 6.292-6.294 6.292c-0.181 0.181-0.293 0.431-0.293 0.708 0 0.553 0.448 1.001 1.001 1.001 0.276 0 0.527-0.112 0.708-0.293v0l7-7c0.181-0.181 0.294-0.431 0.294-0.708s-0.112-0.527-0.294-0.708l-7-7c-0.181-0.181-0.431-0.294-0.708-0.294s-0.527 0.112-0.708 0.294l-0 0z"></path>
</svg>
