<!-- Generated by IcoMoon.io -->
<svg version="1.1" xmlns="http://www.w3.org/2000/svg" width="32" height="32" viewBox="0 0 32 32">
<title>collection-play</title>
<path d="M29 27v0c0.552 0 1-0.448 1-1v-14c0-0.552-0.448-1-1-1h-26c-0.552 0-1 0.448-1 1v14c0 0.552 0.448 1 1 1h26zM3 29c-1.657 0-3-1.343-3-3v0-14c0-1.657 1.343-3 3-3v0h26c1.657 0 3 1.343 3 3v0 14c0 1.657-1.343 3-3 3v0h-26zM4 6v0c0-0.552 0.448-1 1-1h22c0.552 0 1 0.448 1 1s-0.448 1-1 1h-22c-0.552 0-1-0.448-1-1zM8 2v0c0-0.552 0.448-1 1-1h14c0.552 0 1 0.448 1 1s-0.448 1-1 1h-14c-0.552 0-1-0.448-1-1z"></path>
<path d="M12.516 13.126c0.14-0.079 0.307-0.125 0.485-0.125 0.196 0 0.379 0.056 0.533 0.154l-0.004-0.002 8 5c0.284 0.18 0.47 0.492 0.47 0.848s-0.186 0.668-0.466 0.846l-0.004 0.002-8 5c-0.15 0.095-0.334 0.152-0.53 0.152-0.552 0-1-0.448-1-1 0 0 0 0 0 0v0-10c0-0.374 0.206-0.7 0.511-0.871l0.005-0.003z"></path>
</svg>
