<!-- Generated by IcoMoon.io -->
<svg version="1.1" xmlns="http://www.w3.org/2000/svg" width="32" height="32" viewBox="0 0 32 32">
<title>columns-gap</title>
<path d="M12 2v6h-10v-6h10zM2 0c-1.105 0-2 0.895-2 2v0 6c0 1.105 0.895 2 2 2v0h10c1.105 0 2-0.895 2-2v0-6c0-1.105-0.895-2-2-2v0h-10zM30 24v6h-10v-6h10zM20 22c-1.105 0-2 0.895-2 2v0 6c0 1.105 0.895 2 2 2v0h10c1.105 0 2-0.895 2-2v0-6c0-1.105-0.895-2-2-2v0h-10zM12 16v14h-10v-14h10zM2 14c-1.105 0-2 0.895-2 2v0 14c0 1.105 0.895 2 2 2v0h10c1.105 0 2-0.895 2-2v0-14c0-1.105-0.895-2-2-2v0h-10zM30 2v14h-10v-14h10zM20 0c-1.105 0-2 0.895-2 2v0 14c0 1.105 0.895 2 2 2v0h10c1.105 0 2-0.895 2-2v0-14c0-1.105-0.895-2-2-2v0h-10z"></path>
</svg>
