<!-- Generated by IcoMoon.io -->
<svg version="1.1" xmlns="http://www.w3.org/2000/svg" width="32" height="32" viewBox="0 0 32 32">
<title>crop</title>
<path d="M7 1c0.552 0 1 0.448 1 1v0 26h26c0.552 0 1 0.448 1 1s-0.448 1-1 1v0h-27c-0.552 0-1-0.448-1-1v0-27c0-0.552 0.448-1 1-1v0z"></path>
<path d="M1 7c0-0.552 0.448-1 1-1v0h5c0.552 0 1 0.448 1 1s-0.448 1-1 1v0h-5c-0.552 0-1-0.448-1-1v0zM12 7c0-0.552 0.448-1 1-1v0h16c0.552 0 1 0.448 1 1v0 16c0 0.552-0.448 1-1 1s-1-0.448-1-1v0-15h-15c-0.552 0-1-0.448-1-1v0zM29 28c0.552 0 1 0.448 1 1v0 5c0 0.552-0.448 1-1 1s-1-0.448-1-1v0-5c0-0.552 0.448-1 1-1v0z"></path>
</svg>
