<!-- Generated by IcoMoon.io -->
<svg version="1.1" xmlns="http://www.w3.org/2000/svg" width="32" height="32" viewBox="0 0 32 32">
<title>diagram-2-fill</title>
<path d="M6 23c0-1.657 1.343-3 3-3v0h2c1.657 0 3 1.343 3 3v0 2c0 1.657-1.343 3-3 3v0h-2c-1.657 0-3-1.343-3-3v0-2zM18 23c0-1.657 1.343-3 3-3v0h2c1.657 0 3 1.343 3 3v0 2c0 1.657-1.343 3-3 3v0h-2c-1.657 0-3-1.343-3-3v0-2zM12 7c0-1.657 1.343-3 3-3v0h2c1.657 0 3 1.343 3 3v0 2c0 1.657-1.343 3-3 3v0h-2c-1.657 0-3-1.343-3-3v0-2z"></path>
<path d="M16 10c0.552 0 1 0.448 1 1v0 3h5c0.552 0 1 0.448 1 1v0 2c0 0.552-0.448 1-1 1s-1-0.448-1-1v0-1h-10v1c0 0.552-0.448 1-1 1s-1-0.448-1-1v0-2c0-0.552 0.448-1 1-1v0h5v-3c0-0.552 0.448-1 1-1v0z"></path>
</svg>
