<!-- Generated by IcoMoon.io -->
<svg version="1.1" xmlns="http://www.w3.org/2000/svg" width="32" height="32" viewBox="0 0 32 32">
<title>dice-2</title>
<path d="M26 2v0c2.209 0 4 1.791 4 4v20c0 2.209-1.791 4-4 4h-20c-2.209 0-4-1.791-4-4v-20c0-2.209 1.791-4 4-4h20zM6 0c-3.314 0-6 2.686-6 6v0 20c0 3.314 2.686 6 6 6v0h20c3.314 0 6-2.686 6-6v0-20c0-3.314-2.686-6-6-6v0h-20z"></path>
<path d="M11 8c0 1.657-1.343 3-3 3s-3-1.343-3-3c0-1.657 1.343-3 3-3s3 1.343 3 3z"></path>
<path d="M27 24c0 1.657-1.343 3-3 3s-3-1.343-3-3c0-1.657 1.343-3 3-3s3 1.343 3 3z"></path>
</svg>
