<!-- Generated by IcoMoon.io -->
<svg version="1.1" xmlns="http://www.w3.org/2000/svg" width="32" height="32" viewBox="0 0 32 32">
<title>display</title>
<path d="M11.5 27c0.334-0.666 0.5-1.666 0.5-3h8c0 1.334 0.166 2.334 0.5 3h1.5c0.552 0 1 0.448 1 1s-0.448 1-1 1v0h-12c-0.552 0-1-0.448-1-1s0.448-1 1-1v0h1.5z"></path>
<path d="M27.98 6l0.007 0c0.406 0.021 0.79 0.125 1.119 0.288l0.009 0.004c0.238 0.113 0.442 0.286 0.595 0.504 0.134 0.2 0.29 0.554 0.29 1.204v11.98l-0.002 0.050-0.001 0.009c-0.027 0.387-0.13 0.753-0.285 1.067l-0.004 0.009c-0.113 0.238-0.286 0.442-0.504 0.595-0.2 0.134-0.554 0.29-1.204 0.29l-24.039-0.003c-0.387-0.027-0.753-0.13-1.067-0.285-0.264-0.132-0.464-0.298-0.604-0.508-0.134-0.2-0.29-0.554-0.29-1.204v-11.98l0-0.007c0.021-0.406 0.125-0.79 0.288-1.119l0.004-0.009c0.113-0.238 0.286-0.442 0.504-0.595 0.2-0.134 0.554-0.29 1.204-0.29h23.982zM28 4h-24c-4 0-4 4-4 4v12c0 4 4 4 4 4h24c4 0 4-4 4-4v-12c0-4-4-4-4-4z"></path>
</svg>
