<!-- Generated by IcoMoon.io -->
<svg version="1.1" xmlns="http://www.w3.org/2000/svg" width="32" height="32" viewBox="0 0 32 32">
<title>download</title>
<path d="M1 16c0.552 0 1 0.448 1 1v0 7c0 1.105 0.895 2 2 2v0h24c1.105 0 2-0.895 2-2v0-7c0-0.552 0.448-1 1-1s1 0.448 1 1v0 7c0 2.209-1.791 4-4 4v0h-24c-2.209 0-4-1.791-4-4v0-7c0-0.552 0.448-1 1-1v0z"></path>
<path d="M10 15c0.181-0.181 0.431-0.293 0.707-0.293s0.526 0.112 0.707 0.293l4.586 4.586 4.586-4.586c0.182-0.188 0.437-0.305 0.719-0.305 0.552 0 1 0.448 1 1 0 0.282-0.117 0.537-0.305 0.719l-5.292 5.294c-0.181 0.181-0.431 0.294-0.708 0.294s-0.527-0.112-0.708-0.294l-5.292-5.294c-0.181-0.181-0.293-0.431-0.293-0.707s0.112-0.526 0.293-0.707v0z"></path>
<path d="M16 2c0.552 0 1 0.448 1 1v0 16c0 0.552-0.448 1-1 1s-1-0.448-1-1v0-16c0-0.552 0.448-1 1-1v0z"></path>
</svg>
