<!-- Generated by IcoMoon.io -->
<svg version="1.1" xmlns="http://www.w3.org/2000/svg" width="32" height="32" viewBox="0 0 32 32">
<title>easel</title>
<path d="M16.946 0.674c-0.139-0.397-0.51-0.676-0.946-0.676s-0.807 0.279-0.944 0.669l-0.002 0.007-1.146 3.326h4.184l-1.146-3.326zM24.3 22h-2.116l2.87 8.326c0.139 0.396 0.51 0.675 0.946 0.675 0.553 0 1.001-0.448 1.001-1.001 0-0.117-0.020-0.229-0.057-0.333l0.002 0.007-2.646-7.674zM17 22h-2v5c0 0.552 0.448 1 1 1s1-0.448 1-1v0-5zM9.816 22h-2.116l-2.646 7.674c-0.035 0.097-0.055 0.209-0.055 0.326 0 0.553 0.448 1.001 1.001 1.001 0.436 0 0.807-0.279 0.944-0.668l0.002-0.007 2.87-8.326z"></path>
<path d="M28 6v14h-24v-14h24zM4 4c-1.105 0-2 0.895-2 2v0 14c0 1.105 0.895 2 2 2v0h24c1.105 0 2-0.895 2-2v0-14c0-1.105-0.895-2-2-2v0h-24z"></path>
</svg>
