<!-- Generated by IcoMoon.io -->
<svg version="1.1" xmlns="http://www.w3.org/2000/svg" width="32" height="32" viewBox="0 0 32 32">
<title>egg-fried</title>
<path d="M27.33 12.226c-0.784-0.282-1.335-1.020-1.335-1.886 0-0.024 0-0.048 0.001-0.071l-0 0.003 0.004-0.272c-0-4.418-3.582-8-8-8-1.884 0-3.615 0.651-4.982 1.74l0.016-0.012c-0.338 0.269-0.771 0.432-1.242 0.432-0.127 0-0.25-0.012-0.37-0.034l0.012 0.002c-0.432-0.083-0.93-0.13-1.438-0.13-4.418 0-8 3.582-8 8 0 2.061 0.779 3.939 2.059 5.357l-0.006-0.007c0.318 0.353 0.513 0.822 0.513 1.337 0 0.237-0.041 0.465-0.117 0.677l0.004-0.014c-0.288 0.792-0.455 1.706-0.455 2.658 0 4.418 3.582 8 8 8 2.278 0 4.335-0.953 5.792-2.481l0.003-0.003c0.365-0.382 0.878-0.619 1.447-0.619 0.4 0 0.773 0.117 1.085 0.32l-0.008-0.005c0.761 0.493 1.692 0.786 2.692 0.786 2.761 0 5-2.239 5-5 0-0.571-0.096-1.12-0.272-1.631l0.011 0.035c-0.066-0.19-0.104-0.409-0.104-0.637 0-0.646 0.306-1.22 0.781-1.586l0.005-0.003c0.962-0.739 1.575-1.889 1.575-3.182 0-1.733-1.101-3.208-2.642-3.765l-0.028-0.009zM28 10c0 0.114 0 0.226-0.006 0.34 2.353 0.848 4.005 3.061 4.005 5.66 0 1.939-0.92 3.664-2.347 4.761l-0.014 0.010c0.231 0.665 0.365 1.432 0.365 2.23 0 3.866-3.134 7-7 7-1.398 0-2.701-0.41-3.794-1.116l0.027 0.017c-1.825 1.912-4.393 3.101-7.239 3.101-5.523 0-10-4.477-10-10 0-1.189 0.208-2.33 0.589-3.388l-0.022 0.070c-1.591-1.764-2.564-4.111-2.564-6.686 0-5.523 4.477-10 10-10 0.633 0 1.253 0.059 1.854 0.171l-0.062-0.010c1.688-1.346 3.853-2.16 6.208-2.16 5.523 0 10 4.477 10 10 0 0 0 0 0 0v-0z"></path>
<path d="M22 16c0 3.314-2.686 6-6 6s-6-2.686-6-6c0-3.314 2.686-6 6-6s6 2.686 6 6z"></path>
</svg>
