<!-- Generated by IcoMoon.io -->
<svg version="1.1" xmlns="http://www.w3.org/2000/svg" width="32" height="32" viewBox="0 0 32 32">
<title>emoji-laughing</title>
<path d="M16 30v0c-7.732 0-14-6.268-14-14s6.268-14 14-14v0c7.732 0 14 6.268 14 14s-6.268 14-14 14zM16 32c8.837 0 16-7.163 16-16s-7.163-16-16-16v0c-8.837 0-16 7.163-16 16s7.163 16 16 16v0z"></path>
<path d="M24.662 19c0.168 0.287 0.268 0.632 0.268 1s-0.099 0.713-0.273 1.009l0.005-0.009c-1.76 3.010-4.977 5-8.658 5-0.001 0-0.003 0-0.004 0h0c-0.001 0-0.001 0-0.002 0-3.681 0-6.898-1.99-8.632-4.953l-0.026-0.047c-0.168-0.287-0.268-0.632-0.268-1 0-1.104 0.894-1.999 1.998-2h13.86c0.736 0 1.38 0.398 1.727 0.991l0.005 0.009z"></path>
<path d="M14 13c0 1.656-0.896 0-2 0s-2 1.656-2 0 0.896-3 2-3 2 1.344 2 3zM22 13c0 1.656-0.896 0-2 0s-2 1.656-2 0 0.896-3 2-3 2 1.344 2 3z"></path>
</svg>
