<!-- Generated by IcoMoon.io -->
<svg version="1.1" xmlns="http://www.w3.org/2000/svg" width="32" height="32" viewBox="0 0 32 32">
<title>emoji-sunglasses</title>
<path d="M16 30v0c-7.732 0-14-6.268-14-14s6.268-14 14-14v0c7.732 0 14 6.268 14 14s-6.268 14-14 14zM16 32c8.837 0 16-7.163 16-16s-7.163-16-16-16v0c-8.837 0-16 7.163-16 16s7.163 16 16 16v0z"></path>
<path d="M8.57 19.134c0.143-0.084 0.316-0.134 0.5-0.134 0.368 0 0.69 0.199 0.863 0.495l0.003 0.005c1.232 2.107 3.483 3.5 6.060 3.5 0.001 0 0.003 0 0.004 0h-0c0.001 0 0.003 0 0.004 0 2.577 0 4.828-1.393 6.042-3.467l0.018-0.033c0.175-0.304 0.499-0.506 0.869-0.506 0.552 0 1 0.448 1 1 0 0.186-0.051 0.361-0.14 0.51l0.003-0.005c-1.584 2.709-4.479 4.5-7.792 4.5-0.001 0-0.003 0-0.004 0h0c-0.001 0-0.003 0-0.004 0-3.313 0-6.208-1.791-7.769-4.457l-0.023-0.043c-0.084-0.143-0.134-0.316-0.134-0.5 0-0.368 0.199-0.69 0.495-0.863l0.005-0.003zM13 12.994v0.006h-2c0-1.136 0.894-1.894 1.724-2.308 0.89-0.446 2.050-0.692 3.276-0.692s2.386 0.246 3.276 0.692c0.83 0.414 1.724 1.172 1.724 2.308h-2v-0.006l-0.006-0.020c-0.020-0.041-0.044-0.076-0.072-0.106l0 0c-0.15-0.16-0.329-0.29-0.529-0.384l-0.011-0.004c-0.562-0.28-1.402-0.48-2.382-0.48-0.982 0-1.824 0.2-2.38 0.48-0.211 0.097-0.391 0.228-0.541 0.387l-0.001 0.001c-0.028 0.031-0.053 0.067-0.071 0.105l-0.001 0.003-0.006 0.020z"></path>
<path d="M4.62 10.486c-0.038-0.146-0.060-0.313-0.060-0.486 0-1.105 0.895-2 2-2h5.44c1.105 0 2 0.895 2 2v0 2c0 2.209-1.791 4-4 4v0h-0.876c-1.864-0-3.431-1.276-3.874-3.002l-0.006-0.028-0.624-2.484zM18 10c0-1.105 0.895-2 2-2v0h5.44c1.105 0 2 0.895 2 2 0 0.173-0.022 0.34-0.063 0.5l0.003-0.014-0.622 2.484c-0.449 1.754-2.016 3.030-3.88 3.030h-0.878c-2.209 0-4-1.791-4-4v0-2z"></path>
</svg>
