<!-- Generated by IcoMoon.io -->
<svg version="1.1" xmlns="http://www.w3.org/2000/svg" width="32" height="32" viewBox="0 0 32 32">
<title>emoji-neutral</title>
<path d="M16 30v0c-7.732 0-14-6.268-14-14s6.268-14 14-14v0c7.732 0 14 6.268 14 14s-6.268 14-14 14zM16 32c8.837 0 16-7.163 16-16s-7.163-16-16-16v0c-8.837 0-16 7.163-16 16s7.163 16 16 16v0z"></path>
<path d="M8 21c0-0.552 0.448-1 1-1v0h14c0.552 0 1 0.448 1 1s-0.448 1-1 1v0h-14c-0.552 0-1-0.448-1-1v0z"></path>
<path d="M14 13c0 1.656-0.896 3-2 3s-2-1.344-2-3 0.896-3 2-3 2 1.344 2 3zM22 13c0 1.656-0.896 3-2 3s-2-1.344-2-3 0.896-3 2-3 2 1.344 2 3z"></path>
</svg>
