<!-- Generated by IcoMoon.io -->
<svg version="1.1" xmlns="http://www.w3.org/2000/svg" width="32" height="32" viewBox="0 0 32 32">
<title>exclamation-square-fill</title>
<path d="M4 0h24c2.209 0 4 1.791 4 4v24c0 2.209-1.791 4-4 4h-24c-2.209 0-4-1.791-4-4v-24c0-2.209 1.791-4 4-4zM16 8c-0.999 0.001-1.809 0.811-1.809 1.81 0 0.063 0.003 0.126 0.010 0.188l-0.001-0.008 0.7 7.014c0.050 0.568 0.523 1.010 1.1 1.010s1.050-0.442 1.1-1.006l0-0.004 0.7-7.014c0.006-0.054 0.009-0.117 0.009-0.18 0-0.999-0.81-1.809-1.809-1.81h-0zM16.004 20c-1.105 0-2 0.895-2 2s0.895 2 2 2v0c1.105 0 2-0.895 2-2s-0.895-2-2-2v0z"></path>
</svg>
