<!-- Generated by IcoMoon.io -->
<svg version="1.1" xmlns="http://www.w3.org/2000/svg" width="32" height="32" viewBox="0 0 32 32">
<title>exclamation-triangle</title>
<path d="M15.876 4.032l-0.001 0.001c0.037-0.021 0.080-0.033 0.126-0.033 0.001 0 0.002 0 0.003 0h-0c0.001 0 0.002-0 0.003-0 0.046 0 0.089 0.012 0.125 0.032l0.001 0.001c0.044 0.027 0.081 0.066 0.107 0.113l13.711 23.333c0.035 0.055 0.055 0.12 0.055 0.189 0 0.066-0.018 0.127-0.048 0.178l-0.001 0.002c-0.026 0.048-0.063 0.088-0.109 0.118l0.001-0.001c-0.036 0.022-0.079 0.035-0.124 0.035-0.003 0-0.006-0-0.009-0h-27.426c-0.064 0-0.102-0.014-0.132-0.034-0.034-0.020-0.076-0.060-0.108-0.12l0.001 0.002c-0.032-0.053-0.050-0.115-0.050-0.181 0-0.069 0.020-0.133 0.053-0.186l13.715-23.336c0.025-0.046 0.061-0.085 0.107-0.112zM17.964 3.132c-0.397-0.683-1.126-1.135-1.96-1.135s-1.563 0.452-1.954 1.124l-0.006 0.011-13.714 23.334c-0.914 1.556 0.182 3.534 1.96 3.534h27.426c1.778 0 2.876-1.98 1.96-3.534l-13.712-23.334z"></path>
<path d="M14.004 24c0-1.105 0.895-2 2-2s2 0.895 2 2v0c0 1.105-0.895 2-2 2s-2-0.895-2-2v0zM14.2 11.99c-0.006-0.057-0.010-0.123-0.010-0.19 0-1 0.81-1.81 1.81-1.81s1.81 0.81 1.81 1.81c0 0.067-0.004 0.133-0.011 0.198l0.001-0.008-0.7 7.014c-0.050 0.568-0.523 1.010-1.1 1.010s-1.050-0.442-1.1-1.006l-0-0.004-0.7-7.014z"></path>
</svg>
