<!-- Generated by IcoMoon.io -->
<svg version="1.1" xmlns="http://www.w3.org/2000/svg" width="32" height="32" viewBox="0 0 32 32">
<title>eye</title>
<path d="M32 16c0 0-6 11-16 11s-16-11-16-11c0 0 6-11 16-11s-16-5 16 11zM2.346 16c1.016 1.532 2.109 2.869 3.321 4.087l-0.001-0.001c2.574 2.578 6.094 4.914 10.334 4.914s7.758-2.336 10.336-4.914c1.211-1.217 2.304-2.554 3.26-3.99l0.060-0.096c-1.016-1.532-2.109-2.869-3.321-4.087l0.001 0.001c-2.578-2.578-6.098-4.914-10.336-4.914-4.24 0-7.758 2.336-10.336 4.914-1.211 1.217-2.304 2.554-3.26 3.99l-0.060 0.096z"></path>
<path d="M16 11c-2.761 0-5 2.239-5 5s2.239 5 5 5v0c2.761 0 5-2.239 5-5s-2.239-5-5-5v0zM9 16c0-3.866 3.134-7 7-7s7 3.134 7 7v0c0 3.866-3.134 7-7 7s-7-3.134-7-7v0z"></path>
</svg>
