<!-- Generated by IcoMoon.io -->
<svg version="1.1" xmlns="http://www.w3.org/2000/svg" width="32" height="32" viewBox="0 0 32 32">
<title>file-zip</title>
<path d="M8 2h16c2.209 0 4 1.791 4 4v0 20c0 2.209-1.791 4-4 4v0h-16c-2.209 0-4-1.791-4-4v0-20c0-2.209 1.791-4 4-4v0zM8 4c-1.105 0-2 0.895-2 2v0 20c0 1.105 0.895 2 2 2v0h16c1.105 0 2-0.895 2-2v0-20c0-1.105-0.895-2-2-2v0h-16z"></path>
<path d="M13 17c0-1.105 0.895-2 2-2v0h2c1.105 0 2 0.895 2 2v0 1.876l0.8 3.198c0.038 0.145 0.059 0.312 0.059 0.483 0 0.691-0.351 1.301-0.884 1.66l-0.007 0.005-1.86 1.24c-0.312 0.21-0.696 0.336-1.109 0.336s-0.797-0.125-1.116-0.34l0.007 0.005-1.86-1.24c-0.54-0.364-0.89-0.973-0.89-1.663 0-0.172 0.022-0.339 0.063-0.498l-0.003 0.014 0.8-3.198v-1.876zM17 17h-2v1.876c-0 0.173-0.022 0.34-0.063 0.5l0.003-0.014-0.8 3.196 1.86 1.24 1.86-1.24-0.8-3.196c-0.038-0.146-0.060-0.313-0.060-0.486v0-1.876z"></path>
<path d="M15 4h3v2h-3zM13 6h3v2h-3zM15 8h3v2h-3zM13 10h3v2h-3zM15 12h3v2h-3v-2z"></path>
</svg>
