<!-- Generated by IcoMoon.io -->
<svg version="1.1" xmlns="http://www.w3.org/2000/svg" width="32" height="32" viewBox="0 0 32 32">
<title>file-earmark-text-fill</title>
<path d="M4 6v20c0 2.209 1.791 4 4 4h16c2.209 0 4-1.791 4-4v-14.586c-0-0.552-0.224-1.052-0.586-1.414l-7.414-7.414c-0.362-0.362-0.862-0.586-1.414-0.586h-10.586c-2.209 0-4 1.791-4 4zM18 10v-6l8 8h-6c-1.105 0-2-0.895-2-2v0zM9 16h14c0.552 0 1 0.448 1 1s-0.448 1-1 1h-14c-0.552 0-1-0.448-1-1s0.448-1 1-1zM8 21c0-0.552 0.448-1 1-1v0h14c0.552 0 1 0.448 1 1s-0.448 1-1 1v0h-14c-0.552 0-1-0.448-1-1v0zM8 25c0-0.552 0.448-1 1-1v0h8c0.552 0 1 0.448 1 1s-0.448 1-1 1v0h-8c-0.552 0-1-0.448-1-1v0z"></path>
</svg>
