<!-- Generated by IcoMoon.io -->
<svg version="1.1" xmlns="http://www.w3.org/2000/svg" width="32" height="32" viewBox="0 0 32 32">
<title>file-music</title>
<path d="M8 2h16c2.209 0 4 1.791 4 4v0 20c0 2.209-1.791 4-4 4v0h-16c-2.209 0-4-1.791-4-4v0-20c0-2.209 1.791-4 4-4v0zM8 4c-1.105 0-2 0.895-2 2v0 20c0 1.105 0.895 2 2 2v0h16c1.105 0 2-0.895 2-2v0-20c0-1.105-0.895-2-2-2v0h-16z"></path>
<path d="M18 23c0 1.656-1.79 3-4 3s-4-1.344-4-3 1.79-3 4-3 4 1.344 4 3z"></path>
<path d="M18 10v13h-2v-13h2z"></path>
<path d="M16 9.508c0-0.908 0.606-1.675 1.436-1.918l0.014-0.004 3-0.858c0.165-0.049 0.354-0.077 0.55-0.077 1.105 0 2 0.895 2 2 0 0 0 0.001 0 0.001v-0 3.348l-7 2v-4.492z"></path>
</svg>
