<!-- Generated by IcoMoon.io -->
<svg version="1.1" xmlns="http://www.w3.org/2000/svg" width="32" height="32" viewBox="0 0 32 32">
<title>file-binary</title>
<path d="M8 2h16c2.209 0 4 1.791 4 4v0 20c0 2.209-1.791 4-4 4v0h-16c-2.209 0-4-1.791-4-4v0-20c0-2.209 1.791-4 4-4v0zM8 4c-1.105 0-2 0.895-2 2v0 20c0 1.105 0.895 2 2 2v0h16c1.105 0 2-0.895 2-2v0-20c0-1.105-0.895-2-2-2v0h-16z"></path>
<path d="M11.052 26.18c1.952 0 3.048-1.58 3.048-4.41 0-2.824-1.096-4.406-3.048-4.406-1.956 0-3.052 1.58-3.052 4.406 0 2.83 1.096 4.412 3.052 4.412zM9.388 21.77c0-2.1 0.58-3.224 1.664-3.224 0.716 0 1.214 0.494 1.466 1.442l-3.118 2.286c-0.007-0.147-0.011-0.323-0.012-0.5v-0.004zM11.052 24.998c-0.72 0-1.212-0.492-1.464-1.436l3.112-2.29c0.006 0.158 0.010 0.328 0.010 0.498 0 2.104-0.58 3.228-1.658 3.228zM21.71 26v-1.19h-2.25v-7.266h-1.38l-2.38 1.572v1.376l2.272-1.492h0.1v5.812h-2.36v1.188h6z"></path>
</svg>
