<!-- Generated by IcoMoon.io -->
<svg version="1.1" xmlns="http://www.w3.org/2000/svg" width="32" height="32" viewBox="0 0 32 32">
<title>file-medical-fill</title>
<path d="M24 2v0c2.209 0 4 1.791 4 4v20c0 2.209-1.791 4-4 4h-16c-2.209 0-4-1.791-4-4v-20c0-2.209 1.791-4 4-4h16zM17 9c0-0.552-0.448-1-1-1s-1 0.448-1 1v0 1.268l-1.098-0.634c-0.145-0.086-0.319-0.137-0.506-0.137-0.552 0-1 0.448-1 1 0 0.371 0.201 0.694 0.501 0.867l0.005 0.003 1.098 0.634-1.098 0.634c-0.304 0.175-0.506 0.499-0.506 0.869 0 0.552 0.448 1 1 1 0.186 0 0.361-0.051 0.51-0.14l-0.005 0.003 1.098-0.634v1.268c0 0.552 0.448 1 1 1s1-0.448 1-1v0-1.268l1.098 0.634c0.145 0.086 0.319 0.137 0.506 0.137 0.552 0 1-0.448 1-1 0-0.371-0.201-0.694-0.501-0.867l-0.005-0.003-1.098-0.634 1.098-0.634c0.304-0.175 0.506-0.499 0.506-0.869 0-0.552-0.448-1-1-1-0.186 0-0.361 0.051-0.51 0.14l0.005-0.003-1.098 0.634v-1.268zM11 18c-0.552 0-1 0.448-1 1s0.448 1 1 1v0h10c0.552 0 1-0.448 1-1s-0.448-1-1-1v0h-10zM11 22c-0.552 0-1 0.448-1 1s0.448 1 1 1v0h10c0.552 0 1-0.448 1-1s-0.448-1-1-1v0h-10z"></path>
</svg>
