<!-- Generated by IcoMoon.io -->
<svg version="1.1" xmlns="http://www.w3.org/2000/svg" width="32" height="32" viewBox="0 0 32 32">
<title>file-break</title>
<path d="M0 21c0-0.552 0.448-1 1-1v0h30c0.552 0 1 0.448 1 1s-0.448 1-1 1v0h-30c-0.552 0-1-0.448-1-1v0z"></path>
<path d="M24 2h-16c-2.209 0-4 1.791-4 4v0 12h2v-12c0-1.105 0.895-2 2-2v0h16c1.105 0 2 0.895 2 2v0 12h2v-12c0-2.209-1.791-4-4-4v0zM28 24h-2v2c0 1.105-0.895 2-2 2v0h-16c-1.105 0-2-0.895-2-2v0-2h-2v2c0 2.209 1.791 4 4 4v0h16c2.209 0 4-1.791 4-4v0-2z"></path>
</svg>
