<!-- Generated by IcoMoon.io -->
<svg version="1.1" xmlns="http://www.w3.org/2000/svg" width="32" height="32" viewBox="0 0 32 32">
<title>file-text-fill</title>
<path d="M24 2v0c2.209 0 4 1.791 4 4v20c0 2.209-1.791 4-4 4h-16c-2.209 0-4-1.791-4-4v-20c0-2.209 1.791-4 4-4h16zM10 8c-0.552 0-1 0.448-1 1s0.448 1 1 1v0h12c0.552 0 1-0.448 1-1s-0.448-1-1-1v0h-12zM9 13v0c0 0.552 0.448 1 1 1h12c0.552 0 1-0.448 1-1s-0.448-1-1-1h-12c-0.552 0-1 0.448-1 1zM10 16c-0.552 0-1 0.448-1 1s0.448 1 1 1v0h12c0.552 0 1-0.448 1-1s-0.448-1-1-1v0h-12zM10 20c-0.552 0-1 0.448-1 1s0.448 1 1 1v0h6c0.552 0 1-0.448 1-1s-0.448-1-1-1v0h-6z"></path>
</svg>
