<!-- Generated by IcoMoon.io -->
<svg version="1.1" xmlns="http://www.w3.org/2000/svg" width="32" height="32" viewBox="0 0 32 32">
<title>file-earmark-check-fill</title>
<path d="M4 6c0-2.209 1.791-4 4-4v0h10.586c0.552 0 1.052 0.224 1.414 0.586l7.414 7.414c0.362 0.362 0.586 0.862 0.586 1.414v14.586c0 2.209-1.791 4-4 4v0h-16c-2.209 0-4-1.791-4-4v0-20zM18 10v-6l8 8h-6c-1.105 0-2-0.895-2-2v0zM21.708 15.708c0.181-0.181 0.293-0.431 0.293-0.708 0-0.553-0.448-1.001-1.001-1.001-0.276 0-0.527 0.112-0.708 0.293v0l-5.292 5.294-2.292-2.294c-0.181-0.181-0.431-0.293-0.708-0.293-0.553 0-1.001 0.448-1.001 1.001 0 0.276 0.112 0.527 0.293 0.708v0l3 3c0.181 0.181 0.431 0.294 0.708 0.294s0.527-0.112 0.708-0.294l6-6z"></path>
</svg>
