<!-- Generated by IcoMoon.io -->
<svg version="1.1" xmlns="http://www.w3.org/2000/svg" width="32" height="32" viewBox="0 0 32 32">
<title>file-earmark-zip-fill</title>
<path d="M4 6c0-2.209 1.791-4 4-4v0h1v2h2v2h-2v2h2v2h-2v2h2v2h3v-2h-2v-2h2v-2h-2v-2h2v-2h-2v-2h6.586c0.552 0 1.052 0.224 1.414 0.586l7.414 7.414c0.362 0.362 0.586 0.862 0.586 1.414v14.586c0 2.209-1.791 4-4 4v0h-16c-2.209 0-4-1.791-4-4v0-20zM18 10v-6l8 8h-6c-1.105 0-2-0.895-2-2v0zM11 15c-1.105 0-2 0.895-2 2v0 1.876l-0.8 3.198c-0.038 0.145-0.059 0.312-0.059 0.483 0 0.691 0.351 1.301 0.884 1.66l0.007 0.005 1.86 1.24c0.312 0.21 0.696 0.336 1.109 0.336s0.797-0.125 1.116-0.34l-0.007 0.005 1.86-1.24c0.54-0.364 0.89-0.973 0.89-1.663 0-0.172-0.022-0.339-0.063-0.498l0.003 0.014-0.8-3.198v-1.876c0-1.105-0.895-2-2-2v0h-2zM11 18.876v-1.876h2v1.876c0 0.173 0.022 0.34 0.063 0.5l-0.003-0.014 0.8 3.196-1.86 1.24-1.86-1.24 0.8-3.196c0.038-0.146 0.060-0.313 0.060-0.486v0z"></path>
</svg>
