<!-- Generated by IcoMoon.io -->
<svg version="1.1" xmlns="http://www.w3.org/2000/svg" width="32" height="32" viewBox="0 0 32 32">
<title>file-text</title>
<path d="M8 2h16c2.209 0 4 1.791 4 4v0 20c0 2.209-1.791 4-4 4v0h-16c-2.209 0-4-1.791-4-4v0-20c0-2.209 1.791-4 4-4v0zM8 4c-1.105 0-2 0.895-2 2v0 20c0 1.105 0.895 2 2 2v0h16c1.105 0 2-0.895 2-2v0-20c0-1.105-0.895-2-2-2v0h-16z"></path>
<path d="M9 21c0-0.552 0.448-1 1-1v0h6c0.552 0 1 0.448 1 1s-0.448 1-1 1v0h-6c-0.552 0-1-0.448-1-1v0zM9 17c0-0.552 0.448-1 1-1v0h12c0.552 0 1 0.448 1 1s-0.448 1-1 1v0h-12c-0.552 0-1-0.448-1-1v0zM9 13c0-0.552 0.448-1 1-1v0h12c0.552 0 1 0.448 1 1s-0.448 1-1 1v0h-12c-0.552 0-1-0.448-1-1v0zM9 9c0-0.552 0.448-1 1-1v0h12c0.552 0 1 0.448 1 1s-0.448 1-1 1v0h-12c-0.552 0-1-0.448-1-1v0z"></path>
</svg>
