<!-- Generated by IcoMoon.io -->
<svg version="1.1" xmlns="http://www.w3.org/2000/svg" width="32" height="32" viewBox="0 0 32 32">
<title>file-earmark-medical-fill</title>
<path d="M4 6c0-2.209 1.791-4 4-4v0h10.586c0.552 0 1.052 0.224 1.414 0.586l7.414 7.414c0.362 0.362 0.586 0.862 0.586 1.414v14.586c0 2.209-1.791 4-4 4v0h-16c-2.209 0-4-1.791-4-4v0-20zM18 10v-6l8 8h-6c-1.105 0-2-0.895-2-2v0zM13 11c0-0.552-0.448-1-1-1s-1 0.448-1 1v0 1.268l-1.098-0.634c-0.145-0.086-0.319-0.137-0.506-0.137-0.552 0-1 0.448-1 1 0 0.371 0.201 0.694 0.501 0.867l0.005 0.003 1.098 0.634-1.098 0.634c-0.304 0.175-0.506 0.499-0.506 0.869 0 0.552 0.448 1 1 1 0.186 0 0.361-0.051 0.51-0.14l-0.005 0.003 1.098-0.634v1.268c0 0.552 0.448 1 1 1s1-0.448 1-1v0-1.268l1.098 0.634c0.145 0.086 0.319 0.137 0.506 0.137 0.552 0 1-0.448 1-1 0-0.371-0.201-0.694-0.501-0.867l-0.005-0.003-1.098-0.634 1.098-0.634c0.304-0.175 0.506-0.499 0.506-0.869 0-0.552-0.448-1-1-1-0.186 0-0.361 0.051-0.51 0.14l0.005-0.003-1.098 0.634v-1.268zM9 20c-0.552 0-1 0.448-1 1s0.448 1 1 1v0h10c0.552 0 1-0.448 1-1s-0.448-1-1-1v0h-10zM9 24c-0.552 0-1 0.448-1 1s0.448 1 1 1v0h10c0.552 0 1-0.448 1-1s-0.448-1-1-1v0h-10z"></path>
</svg>
