<!-- Generated by IcoMoon.io -->
<svg version="1.1" xmlns="http://www.w3.org/2000/svg" width="32" height="32" viewBox="0 0 32 32">
<title>file-earmark-zip</title>
<path d="M8 2h10v2h-10c-1.105 0-2 0.895-2 2v0 20c0 1.105 0.895 2 2 2v0h16c1.105 0 2-0.895 2-2v0-14h2v14c0 2.209-1.791 4-4 4v0h-16c-2.209 0-4-1.791-4-4v0-20c0-2.209 1.791-4 4-4v0z"></path>
<path d="M18 9v-7l10 10h-7c-1.657 0-3-1.343-3-3v0z"></path>
<path d="M10 17c0-1.105 0.895-2 2-2v0h2c1.105 0 2 0.895 2 2v0 1.876l0.8 3.198c0.038 0.145 0.059 0.312 0.059 0.483 0 0.691-0.351 1.301-0.884 1.66l-0.007 0.005-1.86 1.24c-0.312 0.211-0.696 0.336-1.11 0.336s-0.798-0.126-1.117-0.341l0.007 0.005-1.858-1.24c-0.54-0.364-0.89-0.973-0.89-1.663 0-0.172 0.022-0.339 0.063-0.498l-0.003 0.014 0.8-3.198v-1.876zM14 17h-2v1.876c-0 0.173-0.022 0.34-0.063 0.5l0.003-0.014-0.8 3.196 1.86 1.24 1.858-1.24-0.8-3.196c-0.037-0.144-0.058-0.308-0.058-0.478 0-0.003 0-0.005 0-0.008v0-1.876z"></path>
<path d="M12 4h3v2h-3zM10 6h3v2h-3zM12 8h3v2h-3zM10 10h3v2h-3zM12 12h3v2h-3v-2z"></path>
</svg>
