<!-- Generated by IcoMoon.io -->
<svg version="1.1" xmlns="http://www.w3.org/2000/svg" width="32" height="32" viewBox="0 0 32 32">
<title>folder-plus</title>
<path d="M19.656 8h-15.276c-0 0-0 0-0 0-1.105 0-2 0.895-2 2 0 0.063 0.003 0.126 0.009 0.188l-0.001-0.008 1.274 14c0.095 1.024 0.95 1.819 1.99 1.82h12.348v2h-12.348c-2.081-0.001-3.79-1.591-3.981-3.622l-0.001-0.016-1.274-14c-0.011-0.109-0.017-0.236-0.017-0.365 0-0.843 0.262-1.625 0.709-2.268l-0.009 0.013-0.080-1.742c0-2.209 1.791-4 4-4v0h7.344c1.104 0 2.104 0.448 2.828 1.172l1.656 1.656c0.724 0.724 1.724 1.172 2.828 1.172h7.964c0 0 0 0 0 0 2.209 0 4 1.791 4 4 0 0.127-0.006 0.254-0.018 0.378l0.001-0.016-0.512 5.638h-2.012l0.53-5.82c0.005-0.054 0.008-0.117 0.008-0.18 0-1.104-0.894-1.999-1.998-2h-7.964zM13.756 4.586l1.418 1.414h-10.794c-0.48 0-0.94 0.084-1.368 0.24l-0.012-0.28c0.022-1.087 0.909-1.96 2-1.96 0 0 0 0 0 0h7.344c0.552 0 1.052 0.224 1.414 0.586v0z"></path>
<path d="M27 20c0.552 0 1 0.448 1 1v0 4c0 0.552-0.448 1-1 1v0h-4c-0.552 0-1-0.448-1-1s0.448-1 1-1v0h3v-3c0-0.552 0.448-1 1-1v0z"></path>
<path d="M26 25c0-0.552 0.448-1 1-1v0h4c0.552 0 1 0.448 1 1s-0.448 1-1 1v0h-3v3c0 0.552-0.448 1-1 1s-1-0.448-1-1v0-4z"></path>
</svg>
