<!-- Generated by IcoMoon.io -->
<svg version="1.1" xmlns="http://www.w3.org/2000/svg" width="32" height="32" viewBox="0 0 32 32">
<title>folder2-open</title>
<path d="M2 7c0-1.657 1.343-3 3-3v0h5.528c1.916 0 3.52 1.12 4.622 2.368 0.82 0.928 1.81 1.632 2.85 1.632h9c1.657 0 3 1.343 3 3v0 1.28c1.14 0.53 1.88 1.752 1.712 3.092l-1.28 10.248c-0.319 2.482-2.419 4.38-4.961 4.38-0.002 0-0.003 0-0.005 0h-18.934c-0 0-0 0-0.001 0-2.543 0-4.642-1.898-4.959-4.355l-0.003-0.025-1.28-10.248c-0.015-0.112-0.023-0.241-0.023-0.373 0-1.197 0.701-2.23 1.715-2.712l0.018-0.008v-5.28zM4 12h24v-1c0-0.552-0.448-1-1-1v0h-9c-1.928 0-3.42-1.258-4.348-2.308-0.904-1.024-2.012-1.692-3.124-1.692h-5.528c-0.552 0-1 0.448-1 1v0 5zM3.266 14c-0.552 0-1 0.448-1 1 0 0.044 0.003 0.087 0.008 0.129l-0.001-0.005 1.28 10.248c0.191 1.489 1.451 2.628 2.977 2.628 0 0 0.001 0 0.001 0h18.936c0 0 0.001 0 0.001 0 1.526 0 2.785-1.139 2.975-2.613l0.002-0.015 1.28-10.248c0.005-0.037 0.008-0.080 0.008-0.124 0-0.552-0.448-1-1-1h-25.468z"></path>
</svg>
