<!-- Generated by IcoMoon.io -->
<svg version="1.1" xmlns="http://www.w3.org/2000/svg" width="32" height="32" viewBox="0 0 32 32">
<title>folder-symlink-fill</title>
<path d="M27.62 6h-7.964c-1.104-0-2.104-0.448-2.828-1.172l-1.656-1.656c-0.724-0.724-1.724-1.172-2.828-1.172h-7.344c-2.209 0-4 1.791-4 4v0l0.080 1.74c-0.439 0.631-0.701 1.412-0.701 2.256 0 0.129 0.006 0.257 0.018 0.382l-0.001-0.016 1.274 14c0.192 2.047 1.901 3.637 3.982 3.638h20.696c2.081-0.001 3.79-1.591 3.981-3.622l0.001-0.016 1.274-14c0.010-0.108 0.016-0.235 0.016-0.362 0-2.209-1.791-4-4-4-0 0-0 0-0 0h0zM4.38 6c-0.48 0-0.94 0.084-1.368 0.24l-0.012-0.28c0.022-1.087 0.909-1.96 2-1.96 0 0 0 0 0 0h7.344c0.552 0 1.052 0.224 1.414 0.586l1.414 1.414h-10.792zM23.596 16.542l-6.364 3.94c-0.54 0.332-1.232-0.072-1.232-0.744v-1.538s-5.142-0.6-8 4.8c1.142-9.6 6.286-9.6 8-9.6v-1.538c0-0.672 0.692-1.076 1.232-0.742l6.364 3.938c0.54 0.332 0.54 1.152 0 1.484z"></path>
</svg>
