<!-- Generated by IcoMoon.io -->
<svg version="1.1" xmlns="http://www.w3.org/2000/svg" width="32" height="32" viewBox="0 0 32 32">
<title>folder-fill</title>
<path d="M19.656 6h7.964c0 0 0 0 0 0 2.209 0 4 1.791 4 4 0 0.127-0.006 0.254-0.018 0.378l0.001-0.016-1.274 14c-0.192 2.047-1.901 3.637-3.982 3.638h-20.696c-2.081-0.001-3.79-1.591-3.981-3.622l-0.001-0.016-1.274-14c-0.011-0.109-0.017-0.236-0.017-0.365 0-0.843 0.262-1.625 0.709-2.268l-0.009 0.013-0.080-1.742c0-2.209 1.791-4 4-4v0h7.344c1.104 0 2.104 0.448 2.828 1.172l1.656 1.656c0.724 0.724 1.724 1.172 2.828 1.172h0zM3.012 6.24c0.428-0.156 0.888-0.24 1.368-0.24h10.792l-1.414-1.414c-0.362-0.362-0.862-0.586-1.414-0.586h-7.344c-0 0-0 0-0 0-1.091 0-1.978 0.874-2 1.96l-0 0.002 0.012 0.278z"></path>
</svg>
