<!-- Generated by IcoMoon.io -->
<svg version="1.1" xmlns="http://www.w3.org/2000/svg" width="32" height="32" viewBox="0 0 32 32">
<title>folder-symlink</title>
<path d="M19.656 8c-1.656-0.001-3.155-0.673-4.24-1.758l-0-0-1.66-1.656c-0.361-0.361-0.859-0.585-1.41-0.586h-7.346c-0 0-0 0-0 0-1.091 0-1.978 0.874-2 1.96l-0 0.002 0.092 2.038h-2l-0.092-2c0-2.209 1.791-4 4-4v0h7.344c1.104 0 2.104 0.448 2.828 1.172l1.656 1.656c0.724 0.724 1.724 1.172 2.828 1.172h0v2z"></path>
<path d="M27.62 8v0c0 0 0 0 0 0 1.105 0 2 0.895 2 2 0 0.063-0.003 0.126-0.008 0.18l-1.274 14-0.001 0.008c-0.095 1.016-0.949 1.811-1.989 1.812h-20.696c-1.040-0.001-1.895-0.796-1.99-1.82l-1.274-14 0.001 0.008c-0.006-0.062-0.009-0.125-0.009-0.188 0-1.105 0.895-2 2-2 0 0 0 0 0 0h23.24zM4.38 6c-0 0-0 0-0 0-2.209 0-4 1.791-4 4 0 0.127 0.006 0.254 0.018 0.378l-0.001-0.016 1.274 14c0.192 2.047 1.901 3.637 3.982 3.638h20.696c2.081-0.001 3.79-1.591 3.981-3.622l0.001-0.016 1.274-14c0.010-0.108 0.016-0.235 0.016-0.362 0-2.209-1.791-4-4-4-0 0-0 0-0 0h-23.24z"></path>
<path d="M17.232 20.48l6.364-3.938c0.243-0.161 0.402-0.433 0.402-0.742s-0.158-0.581-0.398-0.74l-0.003-0.002-6.364-3.94c-0.54-0.332-1.232 0.072-1.232 0.744v1.538c-1.714 0-6.858 0-8 9.6 2.858-5.4 8-4.8 8-4.8v1.538c0 0.672 0.692 1.076 1.232 0.742z"></path>
</svg>
