<!-- Generated by IcoMoon.io -->
<svg version="1.1" xmlns="http://www.w3.org/2000/svg" width="32" height="32" viewBox="0 0 32 32">
<title>forward</title>
<path d="M19.004 11.026c-0.034-0.015-0.074-0.024-0.116-0.024-0.159 0-0.288 0.129-0.288 0.288 0 0.002 0 0.003 0 0.005v-0 2.006c0 0.552-0.448 1-1 1v0h-12.6v5.8h12.6c0.552 0 1 0.448 1 1v0 2.006c0 0.216 0.22 0.352 0.404 0.268l7.968-5.866c0.024-0.018 0.051-0.036 0.079-0.053l0.005-0.003c0.086-0.052 0.143-0.146 0.143-0.252s-0.057-0.2-0.141-0.251l-0.001-0.001c-0.033-0.020-0.060-0.038-0.087-0.058l0.003 0.002-7.968-5.866zM16.6 11.294c0-0 0-0.001 0-0.001 0-1.264 1.024-2.288 2.288-2.288 0.463 0 0.894 0.138 1.255 0.374l-0.009-0.005 7.988 5.88c0.652 0.412 1.079 1.129 1.079 1.946s-0.427 1.534-1.070 1.94l-0.009 0.006-7.988 5.88c-0.352 0.231-0.783 0.369-1.246 0.369-1.264 0-2.288-1.024-2.288-2.288 0-0 0-0.001 0-0.001v0-1.006h-12.6c-0.552 0-1-0.448-1-1v0-7.8c0-0.552 0.448-1 1-1v0h12.6v-1.006z"></path>
</svg>
