<!-- Generated by IcoMoon.io -->
<svg version="1.1" xmlns="http://www.w3.org/2000/svg" width="32" height="32" viewBox="0 0 32 32">
<title>geo</title>
<path d="M22 8c0 3.314-2.686 6-6 6s-6-2.686-6-6v0c0-3.314 2.686-6 6-6s6 2.686 6 6v0z"></path>
<path d="M15 8h2v18c0 0.552-0.448 1-1 1s-1-0.448-1-1v0-18z"></path>
<path d="M12.978 24.19c0.014 0.063 0.022 0.136 0.022 0.211 0 0.477-0.334 0.877-0.782 0.976l-0.007 0.001c-1.13 0.246-2.006 0.584-2.572 0.944-0.604 0.384-0.64 0.642-0.64 0.678 0 0.026 0.010 0.17 0.292 0.42 0.28 0.248 0.744 0.52 1.402 0.764 1.31 0.492 3.186 0.816 5.306 0.816s3.996-0.324 5.306-0.816c0.658-0.246 1.12-0.516 1.402-0.764 0.28-0.25 0.292-0.394 0.292-0.42 0-0.036-0.036-0.294-0.64-0.678-0.566-0.36-1.442-0.7-2.572-0.944-0.465-0.092-0.81-0.497-0.81-0.982 0-0.552 0.448-1 1-1 0.083 0 0.164 0.010 0.241 0.029l-0.007-0.001c1.26 0.274 2.386 0.68 3.22 1.212 0.8 0.506 1.568 1.29 1.568 2.364 0 0.804-0.438 1.448-0.966 1.916-0.528 0.47-1.236 0.846-2.026 1.14-1.586 0.596-3.71 0.944-6.008 0.944s-4.42-0.348-6.008-0.942c-0.79-0.296-1.498-0.672-2.026-1.142-0.528-0.468-0.966-1.112-0.966-1.916 0-1.074 0.768-1.858 1.566-2.364 0.836-0.532 1.96-0.94 3.222-1.212 0.064-0.015 0.137-0.023 0.213-0.023 0.477 0 0.877 0.335 0.976 0.782l0.001 0.007z"></path>
</svg>
