<!-- Generated by IcoMoon.io -->
<svg version="1.1" xmlns="http://www.w3.org/2000/svg" width="32" height="32" viewBox="0 0 32 32">
<title>grid-3x3-gap-fill</title>
<path d="M2 4c0-1.105 0.895-2 2-2v0h4c1.105 0 2 0.895 2 2v0 4c0 1.105-0.895 2-2 2v0h-4c-1.105 0-2-0.895-2-2v0-4zM12 4c0-1.105 0.895-2 2-2v0h4c1.105 0 2 0.895 2 2v0 4c0 1.105-0.895 2-2 2v0h-4c-1.105 0-2-0.895-2-2v0-4zM22 4c0-1.105 0.895-2 2-2v0h4c1.105 0 2 0.895 2 2v0 4c0 1.105-0.895 2-2 2v0h-4c-1.105 0-2-0.895-2-2v0-4zM2 14c0-1.105 0.895-2 2-2v0h4c1.105 0 2 0.895 2 2v0 4c0 1.105-0.895 2-2 2v0h-4c-1.105 0-2-0.895-2-2v0-4zM12 14c0-1.105 0.895-2 2-2v0h4c1.105 0 2 0.895 2 2v0 4c0 1.105-0.895 2-2 2v0h-4c-1.105 0-2-0.895-2-2v0-4zM22 14c0-1.105 0.895-2 2-2v0h4c1.105 0 2 0.895 2 2v0 4c0 1.105-0.895 2-2 2v0h-4c-1.105 0-2-0.895-2-2v0-4zM2 24c0-1.105 0.895-2 2-2v0h4c1.105 0 2 0.895 2 2v0 4c0 1.105-0.895 2-2 2v0h-4c-1.105 0-2-0.895-2-2v0-4zM12 24c0-1.105 0.895-2 2-2v0h4c1.105 0 2 0.895 2 2v0 4c0 1.105-0.895 2-2 2v0h-4c-1.105 0-2-0.895-2-2v0-4zM22 24c0-1.105 0.895-2 2-2v0h4c1.105 0 2 0.895 2 2v0 4c0 1.105-0.895 2-2 2v0h-4c-1.105 0-2-0.895-2-2v0-4z"></path>
</svg>
