<!-- Generated by IcoMoon.io -->
<svg version="1.1" xmlns="http://www.w3.org/2000/svg" width="32" height="32" viewBox="0 0 32 32">
<title>handbag</title>
<path d="M16 2c-2.209 0-4 1.791-4 4v0 9c0 0.552-0.448 1-1 1s-1-0.448-1-1v0-9c0-3.314 2.686-6 6-6s6 2.686 6 6v0 9c0 0.552-0.448 1-1 1s-1-0.448-1-1v0-9c0-2.209-1.791-4-4-4v0z"></path>
<path d="M6.81 12c-0 0-0.001 0-0.001 0-0.517 0-0.942 0.392-0.995 0.896l-0 0.004-1.824 13.8c-0.010 0.090-0.015 0.194-0.015 0.3 0 1.657 1.343 3 3 3 0 0 0.001 0 0.001 0h18.048c0 0 0.001 0 0.001 0 1.657 0 3-1.343 3-3 0-0.106-0.005-0.21-0.016-0.313l0.001 0.013-1.826-13.8c-0.052-0.507-0.477-0.899-0.994-0.9h-18.38zM3.824 12.7c0.158-1.523 1.434-2.7 2.985-2.7 0 0 0.001 0 0.001 0h18.38c0 0 0.001 0 0.001 0 1.551 0 2.827 1.177 2.984 2.687l0.001 0.013 1.824 13.804c0.016 0.149 0.025 0.321 0.025 0.496 0 2.761-2.239 5-5 5-0 0-0 0-0.001 0h-18.048c-0 0-0.001 0-0.001 0-2.761 0-5-2.239-5-5 0-0.175 0.009-0.349 0.027-0.519l-0.002 0.021 1.824-13.8z"></path>
</svg>
