<!-- Generated by IcoMoon.io -->
<svg version="1.1" xmlns="http://www.w3.org/2000/svg" width="32" height="32" viewBox="0 0 32 32">
<title>hand-index</title>
<path d="M13.5 2v0c0.828 0 1.5 0.672 1.5 1.5v12.5c0 0.552 0.448 1 1 1s1-0.448 1-1v-5.066l0.172-0.008c0.632-0.026 1.274-0.016 1.632 0.054l0.023 0.005c0.317 0.079 0.615 0.204 0.873 0.359 0.154 0.084 0.3 0.294 0.3 0.628v4.028c0 0.552 0.448 1 1 1s1-0.448 1-1v-3.13l-0.043 0.004c0.073-0.008 0.146-0.015 0.255-0.024 0.632-0.048 1.168-0.022 1.416 0.078 0.236 0.094 0.598 0.416 0.972 0.86l-0.011-0.013c0.137 0.164 0.269 0.333 0.411 0.533v2.692c0 0.552 0.448 1 1 1s1-0.448 1-1v-2h0.686c0 0 0 0 0 0 1.105 0 2 0.895 2 2 0 0.070-0.004 0.14-0.010 0.2l-0.544 5.43-0.002 0.021c-0.074 0.717-0.3 1.39-0.632 1.961l-2.793 4.889c-0.173 0.298-0.496 0.499-0.865 0.499h-12.77c-0.346-0-0.65-0.176-0.832-0.446l-2.859-4.289c-0.262-0.388-0.435-0.841-0.493-1.343l-0.69-6.205c-0.004-0.038-0.007-0.077-0.007-0.116 0-0.483 0.342-0.886 0.804-0.981l2.006-0.4v1.78c0 0.552 0.448 1 1 1s1-0.448 1-1v-14.5c0-0.828 0.672-1.5 1.5-1.5zM17 8.932v-5.432c0-1.933-1.567-3.5-3.5-3.5s-3.5 1.567-3.5 3.5v0 10.68l-2.398 0.48c-1.385 0.284-2.412 1.493-2.412 2.942 0 0.116 0.007 0.231 0.019 0.344l-0.001-0.014 0.69 6.212c0.096 0.837 0.385 1.591 0.821 2.238l-0.011-0.018 2.866 4.3c0.546 0.81 1.459 1.336 2.496 1.336h12.77c1.109-0 2.077-0.602 2.596-1.498l0.008-0.014 2.79-4.882c0.466-0.8 0.782-1.742 0.886-2.748l0.003-0.030 0.544-5.43c0.013-0.119 0.020-0.258 0.020-0.398 0-2.209-1.791-4-4-4h-1.164c-0.143-0.193-0.27-0.354-0.403-0.512l0.013 0.016c-0.382-0.458-1.020-1.136-1.76-1.432-0.728-0.292-1.692-0.264-2.316-0.216l-0.264 0.024c-0.22-0.552-0.611-0.996-1.107-1.277l-0.013-0.007c-0.425-0.25-0.918-0.448-1.441-0.569l-0.035-0.007c-0.62-0.124-1.478-0.116-2.1-0.092l-0.096 0.004z"></path>
</svg>
