<!-- Generated by IcoMoon.io -->
<svg version="1.1" xmlns="http://www.w3.org/2000/svg" width="32" height="32" viewBox="0 0 32 32">
<title>hand-thumbs-down</title>
<path d="M13.912 29.068c0.13 1.872 1.904 3.318 3.816 2.84l0.522-0.13c0.979-0.234 1.744-0.968 2.019-1.911l0.005-0.019c0.44-1.632 1.066-5.024 0.124-9.020 0.272 0.040 0.57 0.074 0.886 0.102 1.426 0.13 3.338 0.142 5.032-0.422 1.036-0.346 1.988-1.36 2.4-2.544 0.142-0.382 0.224-0.823 0.224-1.284 0-0.818-0.259-1.576-0.7-2.196l0.008 0.012c0.116-0.236 0.206-0.484 0.276-0.724 0.154-0.54 0.226-1.136 0.226-1.714 0-0.576-0.072-1.17-0.226-1.712-0.088-0.309-0.197-0.576-0.331-0.829l0.011 0.023c0.338-0.774 0.214-1.64-0.006-2.298-0.243-0.689-0.574-1.285-0.987-1.814l0.011 0.014c0.108-0.306 0.152-0.626 0.152-0.93-0.009-0.673-0.196-1.301-0.515-1.841l0.009 0.017c-0.668-1.174-1.994-2.128-3.868-2.128v2c1.126 0 1.802 0.544 2.132 1.12 0.172 0.3 0.242 0.6 0.242 0.832 0 0.24-0.070 0.33-0.080 0.34l-0.708 0.706 0.706 0.708c0.404 0.404 0.814 1.024 1.010 1.61 0.208 0.624 0.086 0.88-0.010 0.976l-0.706 0.706 0.706 0.708c0.086 0.086 0.21 0.282 0.308 0.63 0.096 0.334 0.15 0.74 0.15 1.162 0 0.424-0.054 0.83-0.15 1.164-0.1 0.348-0.222 0.544-0.308 0.63l-0.706 0.706 0.706 0.708c0.706 0.704 0.746 1.428 0.534 2.042-0.244 0.7-0.792 1.186-1.142 1.302-1.306 0.436-2.894 0.448-4.22 0.328-0.832-0.078-1.578-0.198-2.307-0.363l0.119 0.023-0.028-0.008h-0.008c-0.072-0.019-0.155-0.029-0.241-0.029-0.552 0-1 0.448-1 1 0 0.113 0.019 0.221 0.053 0.323l-0.002-0.007c0.53 1.557 0.836 3.351 0.836 5.216 0 1.505-0.199 2.964-0.573 4.351l0.027-0.117c-0.060 0.224-0.256 0.43-0.576 0.51l-0.524 0.132c-0.612 0.152-1.284-0.312-1.334-1.038-0.15-2.162-0.478-4.3-0.964-5.7-0.348-1.004-1.206-2.534-2.476-3.954-1.272-1.424-3.036-2.816-5.226-3.416-0.788-0.214-1.24-0.792-1.24-1.3v-8.002c0-0.52 0.44-1.030 1.106-1.1 2.586-0.276 3.872-1.060 4.982-1.738l0.080-0.048c0.54-0.33 0.99-0.592 1.552-0.786 0.554-0.192 1.26-0.326 2.28-0.326h7v-2h-7c-1.21 0-2.14 0.16-2.932 0.434-0.742 0.275-1.382 0.602-1.976 0.992l0.036-0.022-0.096 0.058c-1.008 0.616-1.998 1.22-4.136 1.446-1.532 0.162-2.896 1.4-2.896 3.090v8c0 1.702 1.37 2.866 2.714 3.232 1.698 0.464 3.148 1.574 4.264 2.82 1.12 1.252 1.828 2.56 2.078 3.276 0.398 1.15 0.712 3.080 0.856 5.182z"></path>
</svg>
