<!-- Generated by IcoMoon.io -->
<svg version="1.1" xmlns="http://www.w3.org/2000/svg" width="32" height="32" viewBox="0 0 32 32">
<title>hand-thumbs-up</title>
<path d="M13.912 3.49c0.13-1.87 1.904-3.316 3.816-2.84l0.522 0.132c0.926 0.232 1.748 0.912 2.024 1.93 0.44 1.632 1.066 5.022 0.124 9.020 0.197-0.031 0.501-0.067 0.807-0.096l0.079-0.006c1.426-0.13 3.338-0.144 5.032 0.42 1.036 0.346 1.988 1.362 2.4 2.546 0.368 1.064 0.32 2.324-0.468 3.466 0.116 0.238 0.206 0.484 0.276 0.726 0.154 0.54 0.226 1.134 0.226 1.712s-0.072 1.172-0.226 1.712c-0.078 0.27-0.18 0.546-0.32 0.808 0.338 0.774 0.214 1.638-0.006 2.296-0.243 0.689-0.573 1.287-0.987 1.816l0.011-0.014c0.108 0.304 0.152 0.624 0.152 0.93 0 0.61-0.178 1.25-0.506 1.824-0.668 1.172-1.994 2.128-3.868 2.128v-2c1.126 0 1.802-0.544 2.132-1.12 0.144-0.238 0.233-0.524 0.242-0.829l0-0.003c0-0.24-0.070-0.33-0.080-0.34l-0.708-0.708 0.706-0.708c0.404-0.402 0.814-1.022 1.010-1.608 0.208-0.624 0.086-0.882-0.010-0.976l-0.706-0.708 0.706-0.708c0.086-0.084 0.21-0.28 0.308-0.63 0.096-0.334 0.15-0.74 0.15-1.162s-0.054-0.828-0.15-1.162c-0.1-0.348-0.222-0.546-0.308-0.63l-0.706-0.708 0.706-0.708c0.706-0.704 0.746-1.426 0.534-2.040-0.244-0.7-0.792-1.186-1.142-1.304-1.306-0.434-2.894-0.448-4.22-0.328-0.832 0.079-1.578 0.199-2.307 0.365l0.119-0.023-0.028 0.006-0.006 0.002c-0.072 0.019-0.155 0.030-0.241 0.030-0.552 0-1-0.448-1-1 0-0.113 0.019-0.221 0.053-0.323l-0.002 0.007c0.53-1.557 0.837-3.351 0.837-5.217 0-1.506-0.2-2.965-0.573-4.352l0.027 0.117c-0.060-0.222-0.256-0.43-0.576-0.51l-0.524-0.13c-0.612-0.154-1.284 0.312-1.334 1.036-0.15 2.164-0.478 4.3-0.964 5.7-0.348 1.004-1.206 2.536-2.476 3.954-1.274 1.424-3.038 2.82-5.228 3.416-0.788 0.216-1.24 0.792-1.24 1.3v8.004c0 0.52 0.44 1.030 1.106 1.1 2.586 0.274 3.872 1.060 4.982 1.736l0.080 0.050c0.54 0.328 0.99 0.592 1.552 0.786 0.554 0.19 1.26 0.326 2.28 0.326h7v2h-7c-1.21 0-2.14-0.162-2.932-0.436-0.742-0.274-1.382-0.6-1.977-0.991l0.037 0.023-0.096-0.060c-1.008-0.614-1.998-1.218-4.136-1.444-1.532-0.164-2.896-1.4-2.896-3.092v-8c0-1.7 1.37-2.864 2.714-3.23 1.698-0.464 3.148-1.574 4.264-2.82 1.12-1.254 1.828-2.56 2.078-3.278 0.398-1.15 0.712-3.078 0.856-5.18z"></path>
</svg>
