<!-- Generated by IcoMoon.io -->
<svg version="1.1" xmlns="http://www.w3.org/2000/svg" width="32" height="32" viewBox="0 0 32 32">
<title>hash</title>
<path d="M16.78 25.296c-0.017 0.107-0.028 0.231-0.030 0.358l-0 0.002c0 0.61 0.42 1.016 1 1.016 0.532 0 0.984-0.344 1.11-0.954l1.108-5.406h2.408c0.842 0 1.234-0.468 1.234-1.094 0-0.624-0.376-1.060-1.234-1.060h-1.97l1.032-5.048h2.53c0.86 0 1.236-0.454 1.236-1.094 0-0.626-0.376-1.048-1.236-1.048h-2.092l0.952-4.608c0.018-0.097 0.030-0.21 0.032-0.326l0-0.002c0-0.004 0-0.008 0-0.012 0-0.563-0.457-1.020-1.020-1.020-0.004 0-0.008 0-0.013 0h0.001c-0.006-0-0.013-0-0.021-0-0.519 0-0.952 0.366-1.056 0.853l-0.001 0.007-1.046 5.108h-4.47l0.954-4.608c0.016-0.080 0.030-0.236 0.030-0.328 0-0.002 0-0.005 0-0.008 0-0.566-0.458-1.024-1.024-1.024-0.008 0-0.015 0-0.023 0l0.001-0c-0.002 0-0.004-0-0.006-0-0.518 0-0.951 0.366-1.054 0.853l-0.001 0.007-1.050 5.108h-2.232c-0.86 0-1.234 0.44-1.234 1.064s0.374 1.078 1.234 1.078h1.812l-1.030 5.046h-2.392c-0.842 0-1.218 0.438-1.218 1.062 0 0.626 0.376 1.094 1.22 1.094h1.952l-1.032 4.984c-0.016 0.080-0.030 0.25-0.030 0.36 0 0.61 0.42 1.016 1 1.016 0.53 0 0.984-0.344 1.108-0.954l1.11-5.406h4.484l-1.030 4.984zM14.78 13.078h4.532l-1.030 5.126h-4.564l1.064-5.126z"></path>
</svg>
