<!-- Generated by IcoMoon.io -->
<svg version="1.1" xmlns="http://www.w3.org/2000/svg" width="32" height="32" viewBox="0 0 32 32">
<title>hdd-network-fill</title>
<path d="M4 4c-2.209 0-4 1.791-4 4v0 2c0 2.209 1.791 4 4 4v0h11v6c-1.657 0-3 1.343-3 3v0h-11c-0.552 0-1 0.448-1 1s0.448 1 1 1v0h11c0 1.657 1.343 3 3 3v0h2c1.657 0 3-1.343 3-3v0h11c0.552 0 1-0.448 1-1s-0.448-1-1-1v0h-11c0-1.657-1.343-3-3-3v0-6h11c2.209 0 4-1.791 4-4v0-2c0-2.209-1.791-4-4-4v0h-24zM5 10c0.552 0 1-0.448 1-1s-0.448-1-1-1v0c-0.552 0-1 0.448-1 1s0.448 1 1 1v0zM9 10c0.552 0 1-0.448 1-1s-0.448-1-1-1v0c-0.552 0-1 0.448-1 1s0.448 1 1 1v0z"></path>
</svg>
