<!-- Generated by IcoMoon.io -->
<svg version="1.1" xmlns="http://www.w3.org/2000/svg" width="32" height="32" viewBox="0 0 32 32">
<title>headset</title>
<path d="M16 2c-5.523 0-10 4.477-10 10v0 9h-2v-9c0-6.627 5.373-12 12-12s12 5.373 12 12v0 9h-2v-9c0-5.523-4.477-10-10-10v0z"></path>
<path d="M22 16c0-1.105 0.895-2 2-2v0h4v8c0 1.105-0.895 2-2 2v0h-2c-1.105 0-2-0.895-2-2v0-6zM10 16c0-1.105-0.895-2-2-2v0h-4v8c0 1.105 0.895 2 2 2v0h2c1.105 0 2-0.895 2-2v0-6z"></path>
<path d="M27 17c0.552 0 1 0.448 1 1v0 6c0 2.761-2.239 5-5 5v0h-7c-0.552 0-1-0.448-1-1s0.448-1 1-1v0h7c1.657 0 3-1.343 3-3v0-6c0-0.552 0.448-1 1-1v0z"></path>
<path d="M13 28c0-1.105 0.895-2 2-2v0h2c1.105 0 2 0.895 2 2s-0.895 2-2 2v0h-2c-1.105 0-2-0.895-2-2v0z"></path>
</svg>
