<!-- Generated by IcoMoon.io -->
<svg version="1.1" xmlns="http://www.w3.org/2000/svg" width="32" height="32" viewBox="0 0 32 32">
<title>house-door</title>
<path d="M15.292 2.292c0.181-0.181 0.431-0.294 0.708-0.294s0.527 0.112 0.708 0.294l12 12c0.18 0.181 0.292 0.431 0.292 0.706 0 0.001 0 0.001 0 0.002v-0 14c0 0.552-0.448 1-1 1v0h-9c-0.552 0-1-0.448-1-1v0-8h-4v8c0 0.552-0.448 1-1 1v0h-9c-0.552 0-1-0.448-1-1v0-14c0-0.001 0-0.001 0-0.002 0-0.276 0.112-0.525 0.292-0.706l12-12zM5 15.414v12.586h7v-8c0-0.552 0.448-1 1-1v0h6c0.552 0 1 0.448 1 1v0 8h7v-12.586l-11-11-11 11z"></path>
<path d="M26 5v7l-4-4v-3c0-0.552 0.448-1 1-1v0h2c0.552 0 1 0.448 1 1v0z"></path>
</svg>
