<!-- Generated by IcoMoon.io -->
<svg version="1.1" xmlns="http://www.w3.org/2000/svg" width="32" height="32" viewBox="0 0 32 32">
<title>images</title>
<path d="M24.004 8v0c1.105 0 2 0.895 2 2v16c0 1.105-0.895 2-2 2h-20c-1.105 0-2-0.895-2-2v-16c0-1.105 0.895-2 2-2h20zM4.004 6c-2.209 0-4 1.791-4 4v0 16c0 2.209 1.791 4 4 4v0h20c2.209 0 4-1.791 4-4v0-16c0-2.209-1.791-4-4-4v0h-20z"></path>
<path d="M21.296 17.292c0.181-0.18 0.43-0.292 0.706-0.292 0.163 0 0.317 0.039 0.454 0.109l-0.006-0.003 3.554 3.894v7h-24v-2l5.292-4.708c0.181-0.18 0.43-0.292 0.706-0.292 0.207 0 0.398 0.063 0.558 0.17l-0.004-0.002 5.32 3.546 7.42-7.42z"></path>
<path d="M9.004 18c1.657 0 3-1.343 3-3s-1.343-3-3-3v0c-1.657 0-3 1.343-3 3s1.343 3 3 3v0zM8 4h20c1.105 0 2 0.895 2 2v0 16c0 1.105-0.895 2-2 2v0 2c2.209 0 4-1.791 4-4v0-16c0-2.209-1.791-4-4-4v0h-20c-2.209 0-4 1.791-4 4v0h2c0-1.105 0.895-2 2-2v0z"></path>
</svg>
