<!-- Generated by IcoMoon.io -->
<svg version="1.1" xmlns="http://www.w3.org/2000/svg" width="32" height="32" viewBox="0 0 32 32">
<title>layers-half</title>
<path d="M6.376 16l-5.848 3.118c-0.317 0.172-0.529 0.502-0.529 0.882s0.212 0.71 0.523 0.879l0.005 0.003 15 8c0.136 0.074 0.298 0.117 0.47 0.117s0.334-0.043 0.475-0.12l-0.005 0.003 15-8c0.317-0.172 0.529-0.502 0.529-0.882s-0.212-0.71-0.523-0.879l-0.005-0.003-5.842-3.118-9.156 4.882c-0.136 0.074-0.298 0.117-0.47 0.117s-0.334-0.043-0.475-0.12l0.005 0.003-9.154-4.882z"></path>
<path d="M15.53 3.118c0.136-0.074 0.298-0.117 0.47-0.117s0.334 0.043 0.475 0.12l-0.005-0.003 15 8c0.317 0.172 0.529 0.502 0.529 0.882s-0.212 0.71-0.523 0.879l-0.005 0.003-15 8c-0.136 0.074-0.298 0.117-0.47 0.117s-0.334-0.043-0.475-0.12l0.005 0.003-15-8c-0.317-0.172-0.529-0.502-0.529-0.882s0.212-0.71 0.523-0.879l0.005-0.003 15-8zM3.126 12l12.874 6.866 12.876-6.866-12.876-6.866-12.876 6.866z"></path>
</svg>
