<!-- Generated by IcoMoon.io -->
<svg version="1.1" xmlns="http://www.w3.org/2000/svg" width="32" height="32" viewBox="0 0 32 32">
<title>layout-wtf</title>
<path d="M10 2v16h-8v-16h8zM2 0c-1.105 0-2 0.895-2 2v0 16c0 1.105 0.895 2 2 2v0h8c1.105 0 2-0.895 2-2v0-16c0-1.105-0.895-2-2-2v0h-8zM28 4v10h-10v-10h10zM18 2c-1.105 0-2 0.895-2 2v0 10c0 1.105 0.895 2 2 2v0h10c1.105 0 2-0.895 2-2v0-10c0-1.105-0.895-2-2-2v0h-10zM10 26v4h-4v-4h4zM6 24c-1.105 0-2 0.895-2 2v0 4c0 1.105 0.895 2 2 2v0h4c1.105 0 2-0.895 2-2v0-4c0-1.105-0.895-2-2-2v0h-4zM30 22v4h-12v-4h12zM18 20c-1.105 0-2 0.895-2 2v0 4c0 1.105 0.895 2 2 2v0h12c1.105 0 2-0.895 2-2v0-4c0-1.105-0.895-2-2-2v0h-12z"></path>
</svg>
