<!-- Generated by IcoMoon.io -->
<svg version="1.1" xmlns="http://www.w3.org/2000/svg" width="32" height="32" viewBox="0 0 32 32">
<title>layout-text-window-reverse</title>
<path d="M4 2v0c-1.105 0-2 0.895-2 2v24c0 1.105 0.895 2 2 2h24c1.105 0 2-0.895 2-2v-24c0-1.105-0.895-2-2-2h-24zM28 0c2.209 0 4 1.791 4 4v0 24c0 2.209-1.791 4-4 4v0h-24c-2.209 0-4-1.791-4-4v0-24c0-2.209 1.791-4 4-4v0h24z"></path>
<path d="M10 30v-22h-2v22h2zM1 8h30v-2h-30v2zM26 13c0-0.552-0.448-1-1-1v0h-10c-0.552 0-1 0.448-1 1s0.448 1 1 1v0h10c0.552 0 1-0.448 1-1v0zM26 19c0-0.552-0.448-1-1-1v0h-10c-0.552 0-1 0.448-1 1s0.448 1 1 1v0h10c0.552 0 1-0.448 1-1v0zM26 25c0-0.552-0.448-1-1-1v0h-10c-0.552 0-1 0.448-1 1s0.448 1 1 1v0h10c0.552 0 1-0.448 1-1v0z"></path>
</svg>
