<!-- Generated by IcoMoon.io -->
<svg version="1.1" xmlns="http://www.w3.org/2000/svg" width="32" height="32" viewBox="0 0 32 32">
<title>layout-sidebar-inset-reverse</title>
<path d="M4 4v0c-1.105 0-2 0.895-2 2v20c0 1.105 0.895 2 2 2h24c1.105 0 2-0.895 2-2v-20c0-1.105-0.895-2-2-2h-24zM28 2c2.209 0 4 1.791 4 4v0 20c0 2.209-1.791 4-4 4v0h-24c-2.209 0-4-1.791-4-4v0-20c0-2.209 1.791-4 4-4v0h24z"></path>
<path d="M26 8c0-1.105-0.895-2-2-2v0h-4c-1.105 0-2 0.895-2 2v0 16c0 1.105 0.895 2 2 2v0h4c1.105 0 2-0.895 2-2v0-16z"></path>
</svg>
