<!-- Generated by IcoMoon.io -->
<svg version="1.1" xmlns="http://www.w3.org/2000/svg" width="32" height="32" viewBox="0 0 32 32">
<title>list-ol</title>
<path d="M10 23c0-0.552 0.448-1 1-1v0h18c0.552 0 1 0.448 1 1s-0.448 1-1 1v0h-18c-0.552 0-1-0.448-1-1v0zM10 15c0-0.552 0.448-1 1-1v0h18c0.552 0 1 0.448 1 1s-0.448 1-1 1v0h-18c-0.552 0-1-0.448-1-1v0zM10 7c0-0.552 0.448-1 1-1v0h18c0.552 0 1 0.448 1 1s-0.448 1-1 1v0h-18c-0.552 0-1-0.448-1-1v0z"></path>
<path d="M3.426 23.73v-0.948h0.574c0.434 0 0.726-0.274 0.726-0.634 0-0.37-0.316-0.62-0.722-0.62-0.446 0-0.734 0.304-0.746 0.62h-1.18c0.032-0.934 0.746-1.574 1.972-1.574 1.176-0.004 1.908 0.582 1.914 1.406 0 0.005 0 0.010 0 0.016 0 0.584-0.421 1.070-0.977 1.171l-0.007 0.001v0.066c0.639 0.049 1.138 0.579 1.138 1.227 0 0.012-0 0.025-0.001 0.037l0-0.002c0.006 1.066-1.004 1.6-2.102 1.6-1.312 0-2-0.74-2.016-1.588h1.164c0.016 0.356 0.372 0.612 0.844 0.618 0.508 0 0.848-0.29 0.844-0.7-0.004-0.39-0.31-0.696-0.828-0.696h-0.6zM3.418 14.332h-1.208v-0.070c0-0.816 0.59-1.688 1.916-1.688 1.166 0 1.92 0.652 1.92 1.512 0 0.778-0.514 1.234-0.952 1.696l-1.074 1.144v0.060h2.108v1.014h-3.842v-0.79l1.914-1.98c0.276-0.284 0.586-0.608 0.586-1.016 0-0.36-0.294-0.64-0.684-0.64-0.007-0-0.016-0-0.024-0-0.365 0-0.66 0.296-0.66 0.66 0 0.006 0 0.012 0 0.017l-0-0.001v0.082zM5.128 10h-1.27v-4.152h-0.062l-1.196 0.84v-1.134l1.258-0.886h1.27v5.332z"></path>
</svg>
