<!-- Generated by IcoMoon.io -->
<svg version="1.1" xmlns="http://www.w3.org/2000/svg" width="32" height="32" viewBox="0 0 32 32">
<title>list-stars</title>
<path d="M10 23c0-0.552 0.448-1 1-1v0h18c0.552 0 1 0.448 1 1s-0.448 1-1 1v0h-18c-0.552 0-1-0.448-1-1v0zM10 15c0-0.552 0.448-1 1-1v0h18c0.552 0 1 0.448 1 1s-0.448 1-1 1v0h-18c-0.552 0-1-0.448-1-1v0zM10 7c0-0.552 0.448-1 1-1v0h18c0.552 0 1 0.448 1 1s-0.448 1-1 1v0h-18c-0.552 0-1-0.448-1-1v0z"></path>
<path d="M4.484 4.388c0.070-0.222 0.275-0.381 0.516-0.381s0.446 0.158 0.515 0.377l0.001 0.004 0.324 1.060c0.070 0.23 0.28 0.388 0.516 0.388h1.102c0.518 0 0.74 0.666 0.328 0.986l-0.936 0.726c-0.13 0.102-0.213 0.26-0.213 0.436 0 0.058 0.009 0.115 0.026 0.168l-0.001-0.004 0.346 1.138c0.156 0.512-0.426 0.924-0.846 0.6l-0.834-0.648c-0.090-0.070-0.204-0.113-0.328-0.113s-0.238 0.042-0.329 0.114l0.001-0.001-0.834 0.646c-0.42 0.326-1-0.086-0.846-0.598l0.346-1.14c0.015-0.048 0.024-0.104 0.024-0.162 0-0.176-0.083-0.334-0.211-0.435l-0.001-0.001-0.936-0.726c-0.412-0.32-0.19-0.986 0.328-0.986h1.1c0.244-0.001 0.45-0.162 0.517-0.384l0.001-0.004 0.324-1.060zM4.484 12.388c0.070-0.222 0.275-0.381 0.516-0.381s0.446 0.158 0.515 0.377l0.001 0.004 0.324 1.060c0.070 0.23 0.28 0.388 0.516 0.388h1.102c0.518 0 0.74 0.666 0.328 0.986l-0.936 0.726c-0.13 0.102-0.213 0.26-0.213 0.436 0 0.058 0.009 0.115 0.026 0.168l-0.001-0.004 0.346 1.138c0.156 0.51-0.426 0.924-0.846 0.6l-0.834-0.648c-0.090-0.070-0.204-0.113-0.328-0.113s-0.238 0.042-0.329 0.113l0.001-0.001-0.834 0.646c-0.42 0.326-1-0.086-0.846-0.598l0.346-1.14c0.015-0.048 0.024-0.104 0.024-0.162 0-0.176-0.083-0.334-0.211-0.435l-0.001-0.001-0.936-0.726c-0.412-0.32-0.19-0.986 0.328-0.986h1.1c0.244-0.001 0.45-0.162 0.517-0.384l0.001-0.004 0.324-1.060zM4.484 20.388c0.070-0.222 0.275-0.381 0.516-0.381s0.446 0.158 0.515 0.377l0.001 0.004 0.324 1.060c0.070 0.23 0.28 0.388 0.516 0.388h1.102c0.518 0 0.74 0.666 0.328 0.986l-0.936 0.726c-0.13 0.102-0.213 0.26-0.213 0.436 0 0.058 0.009 0.115 0.026 0.168l-0.001-0.004 0.346 1.138c0.156 0.51-0.426 0.924-0.846 0.6l-0.834-0.648c-0.090-0.070-0.204-0.113-0.328-0.113s-0.238 0.042-0.329 0.113l0.001-0.001-0.834 0.646c-0.42 0.326-1-0.086-0.846-0.598l0.346-1.14c0.015-0.048 0.024-0.104 0.024-0.162 0-0.176-0.083-0.334-0.211-0.435l-0.001-0.001-0.936-0.726c-0.412-0.32-0.19-0.986 0.328-0.986h1.1c0.244-0.001 0.45-0.162 0.517-0.384l0.001-0.004 0.324-1.060z"></path>
</svg>
