<!-- Generated by IcoMoon.io -->
<svg version="1.1" xmlns="http://www.w3.org/2000/svg" width="32" height="32" viewBox="0 0 32 32">
<title>mic</title>
<path d="M7 13c0.552 0 1 0.448 1 1v0 2c0 4.418 3.582 8 8 8s8-3.582 8-8v0-2c0-0.552 0.448-1 1-1s1 0.448 1 1v0 2c0 0 0 0 0 0 0 5.171-3.924 9.425-8.957 9.946l-0.043 0.004v4.050h6c0.552 0 1 0.448 1 1s-0.448 1-1 1v0h-14c-0.552 0-1-0.448-1-1s0.448-1 1-1v0h6v-4.050c-5.076-0.525-9-4.779-9-9.95 0-0 0-0 0-0v0-2c0-0.552 0.448-1 1-1v0z"></path>
<path d="M20 16v0c0 2.209-1.791 4-4 4s-4-1.791-4-4v-10c0-2.209 1.791-4 4-4s4 1.791 4 4v10zM16 0c-3.314 0-6 2.686-6 6v0 10c0 3.314 2.686 6 6 6s6-2.686 6-6v0-10c0-3.314-2.686-6-6-6v0z"></path>
</svg>
