<!-- Generated by IcoMoon.io -->
<svg version="1.1" xmlns="http://www.w3.org/2000/svg" width="32" height="32" viewBox="0 0 32 32">
<title>minecart-loaded</title>
<path d="M8 30c1.105 0 2-0.895 2-2s-0.895-2-2-2v0c-1.105 0-2 0.895-2 2s0.895 2 2 2v0zM8 32c2.209 0 4-1.791 4-4s-1.791-4-4-4v0c-2.209 0-4 1.791-4 4s1.791 4 4 4v0zM24 30c1.105 0 2-0.895 2-2s-0.895-2-2-2v0c-1.105 0-2 0.895-2 2s0.895 2 2 2v0zM24 32c2.209 0 4-1.791 4-4s-1.791-4-4-4v0c-2.209 0-4 1.791-4 4s1.791 4 4 4v0zM0.23 6.36c0.185-0.221 0.46-0.36 0.768-0.36 0.001 0 0.001 0 0.002 0h30c0.552 0.001 0.999 0.448 0.999 1 0 0.065-0.006 0.129-0.018 0.19l0.001-0.006-3 16c-0.090 0.467-0.495 0.816-0.982 0.816h-24c-0.487-0-0.892-0.349-0.981-0.81l-0.001-0.006-3-16c-0.011-0.056-0.017-0.12-0.017-0.185 0-0.243 0.087-0.466 0.231-0.639l-0.001 0.002zM2.204 8l2.626 14h22.34l2.626-14h-27.592z"></path>
<path d="M12 3c0.921-1.221 2.369-2.003 4-2.003s3.079 0.781 3.991 1.99l0.009 0.013c1.636 0 3.090 0.788 4 2 1.34 0 2.56 0.53 3.458 1.388l-1.384 1.444c-0.536-0.515-1.265-0.832-2.068-0.832-0.002 0-0.004 0-0.006 0h0c-0.628 0-1.222-0.3-1.6-0.8-0.548-0.73-1.42-1.2-2.4-1.2-0.628 0-1.222-0.3-1.6-0.8-0.552-0.734-1.421-1.204-2.4-1.204s-1.848 0.47-2.394 1.196l-0.006 0.008c-0.378 0.5-0.972 0.8-1.6 0.8-1.014 0-1.91 0.502-2.456 1.276-0.353 0.495-0.773 0.915-1.252 1.257l-0.016 0.011c-0.198 0.141-0.37 0.296-0.523 0.469l-0.003 0.003-1.5-1.324c0.259-0.292 0.545-0.549 0.859-0.772l0.016-0.010c0.307-0.218 0.568-0.479 0.779-0.776l0.007-0.010c0.916-1.291 2.405-2.124 4.088-2.124 0.001 0 0.001 0 0.002 0h-0z"></path>
</svg>
