<!-- Generated by IcoMoon.io -->
<svg version="1.1" xmlns="http://www.w3.org/2000/svg" width="32" height="32" viewBox="0 0 32 32">
<title>node-minus-fill</title>
<path d="M32 16c0 0 0 0.001 0 0.001 0 5.523-4.477 10-10 10-5.171 0-9.425-3.925-9.946-8.958l-0.004-0.043h-4.050c0 1.657-1.343 3-3 3v0h-2c-1.657 0-3-1.343-3-3v0-2c0-1.657 1.343-3 3-3v0h2c1.657 0 3 1.343 3 3v0h4.050c0.525-5.076 4.779-9.001 9.95-9.001 5.523 0 10 4.477 10 10 0 0 0 0.001 0 0.001v-0zM28 16c0-0.552-0.448-1-1-1v0h-10c-0.552 0-1 0.448-1 1s0.448 1 1 1v0h10c0.552 0 1-0.448 1-1v0z"></path>
</svg>
