<!-- Generated by IcoMoon.io -->
<svg version="1.1" xmlns="http://www.w3.org/2000/svg" width="32" height="32" viewBox="0 0 32 32">
<title>node-plus-fill</title>
<path d="M22 26v0c-0 0-0 0-0 0-5.171 0-9.425-3.924-9.95-9h-4.050c0 1.657-1.343 3-3 3h-2c-1.657 0-3-1.343-3-3v-2c0-1.657 1.343-3 3-3h2c1.657 0 3 1.343 3 3h4.050l0.004-0.043c0.522-5.033 4.776-8.957 9.946-8.957 5.523 0 10 4.477 10 10s-4.477 10-10 10zM23 11c0-0.552-0.448-1-1-1s-1 0.448-1 1v0 4h-4c-0.552 0-1 0.448-1 1s0.448 1 1 1v0h4v4c0 0.552 0.448 1 1 1s1-0.448 1-1v0-4h4c0.552 0 1-0.448 1-1s-0.448-1-1-1v0h-4v-4z"></path>
</svg>
