<!-- Generated by IcoMoon.io -->
<svg version="1.1" xmlns="http://www.w3.org/2000/svg" width="32" height="32" viewBox="0 0 32 32">
<title>patch-check-fll</title>
<path d="M20.134 1.74c-1.050-1.074-2.514-1.74-4.134-1.74s-3.084 0.666-4.133 1.739l-1.245 1.277-1.78-0.022c-0.020-0-0.044-0-0.068-0-3.192 0-5.78 2.588-5.78 5.78 0 0.024 0 0.048 0 0.072l-0-0.004 0.020 1.78-1.272 1.244c-1.074 1.050-1.74 2.514-1.74 4.134s0.666 3.084 1.739 4.133l0.001 0.001 1.274 1.244-0.022 1.78c-0 0.020-0 0.044-0 0.068 0 3.192 2.588 5.78 5.78 5.78 0.024 0 0.048-0 0.072-0l-0.004 0 1.78-0.020 1.244 1.272c1.050 1.074 2.514 1.74 4.134 1.74s3.084-0.666 4.133-1.739l0.001-0.001 1.244-1.274 1.78 0.022c0.020 0 0.044 0 0.068 0 3.192 0 5.78-2.588 5.78-5.78 0-0.024-0-0.048-0-0.072l0 0.004-0.020-1.78 1.272-1.244c1.074-1.050 1.74-2.514 1.74-4.134s-0.666-3.084-1.739-4.133l-0.001-0.001-1.274-1.244 0.022-1.78c0-0.020 0-0.044 0-0.068 0-3.192-2.588-5.78-5.78-5.78-0.024 0-0.048 0-0.072 0l0.004-0-1.78 0.020-1.244-1.272zM20.708 13.708c0.181-0.181 0.293-0.431 0.293-0.708 0-0.553-0.448-1.001-1.001-1.001-0.276 0-0.527 0.112-0.708 0.293v0l-5.292 5.294-2.292-2.294c-0.181-0.181-0.431-0.293-0.708-0.293-0.553 0-1.001 0.448-1.001 1.001 0 0.277 0.112 0.527 0.293 0.708l3 3c0.181 0.181 0.431 0.294 0.708 0.294s0.527-0.112 0.708-0.294l6-6z"></path>
</svg>
