<!-- Generated by IcoMoon.io -->
<svg version="1.1" xmlns="http://www.w3.org/2000/svg" width="32" height="32" viewBox="0 0 32 32">
<title>patch-question-fll</title>
<path d="M11.866 1.74c1.050-1.074 2.514-1.74 4.134-1.74s3.084 0.666 4.133 1.739l1.245 1.277 1.78-0.022c0.020-0 0.044-0 0.068-0 3.192 0 5.78 2.588 5.78 5.78 0 0.024-0 0.048-0 0.072l0-0.004-0.020 1.78 1.272 1.244c1.074 1.050 1.74 2.514 1.74 4.134s-0.666 3.084-1.739 4.133l-0.001 0.001-1.274 1.244 0.022 1.78c0 0.020 0 0.044 0 0.068 0 3.192-2.588 5.78-5.78 5.78-0.024 0-0.048-0-0.072-0l0.004 0-1.78-0.020-1.244 1.272c-1.050 1.074-2.514 1.74-4.134 1.74s-3.084-0.666-4.133-1.739l-0.001-0.001-1.244-1.274-1.78 0.022c-0.020 0-0.044 0-0.068 0-3.192 0-5.78-2.588-5.78-5.78 0-0.024 0-0.048 0-0.072l-0 0.004 0.020-1.78-1.272-1.244c-1.074-1.050-1.74-2.514-1.74-4.134s0.666-3.084 1.739-4.133l0.001-0.001 1.274-1.244-0.022-1.78c-0-0.020-0-0.044-0-0.068 0-3.192 2.588-5.78 5.78-5.78 0.024 0 0.048 0 0.072 0l-0.004-0 1.78 0.020 1.244-1.272zM14.004 22c0-1.105 0.895-2 2-2s2 0.895 2 2v0c0 1.105-0.895 2-2 2s-2-0.895-2-2v0zM17.208 17.946c-0.1 0.772-0.436 1.254-1.108 1.254-0.754 0-1.17-0.634-1.17-1.49v-0.22c0-1.454 0.614-2.416 1.852-3.282 1.228-0.88 1.644-1.524 1.644-2.65 0-1.276-0.84-2.168-2.060-2.168-1.1 0-1.832 0.646-2.148 1.828-0.218 0.728-0.584 1.020-1.128 1.020-0.684 0.002-1.090-0.492-1.090-1.278 0-0.502 0.090-0.936 0.278-1.38 0.614-1.596 2.158-2.58 4.198-2.58 2.682 0 4.524 1.804 4.524 4.454 0 1.792-0.752 3.022-2.1 3.972-1.296 0.89-1.612 1.452-1.692 2.52z"></path>
</svg>
