<!-- Generated by IcoMoon.io -->
<svg version="1.1" xmlns="http://www.w3.org/2000/svg" width="32" height="32" viewBox="0 0 32 32">
<title>patch-minus</title>
<path d="M11 16c0-0.552 0.448-1 1-1v0h8c0.552 0 1 0.448 1 1s-0.448 1-1 1v0h-8c-0.552 0-1-0.448-1-1v0z"></path>
<path d="M20.546 5.026l-1.842-1.888 1.43-1.396 1.244 1.274 1.78-0.022c0.020-0 0.044-0 0.068-0 3.192 0 5.78 2.588 5.78 5.78 0 0.024-0 0.048-0 0.072l0-0.004-0.020 1.78 1.272 1.244c1.074 1.050 1.74 2.514 1.74 4.134s-0.666 3.084-1.739 4.133l-0.001 0.001-1.274 1.244 0.022 1.78c0 0.020 0 0.044 0 0.068 0 3.192-2.588 5.78-5.78 5.78-0.024 0-0.048-0-0.072-0l0.004 0-1.78-0.020-1.244 1.272c-1.050 1.074-2.514 1.74-4.134 1.74s-3.084-0.666-4.133-1.739l-0.001-0.001-1.244-1.274-1.78 0.022c-0.020 0-0.044 0-0.068 0-3.192 0-5.78-2.588-5.78-5.78 0-0.024 0-0.048 0-0.072l-0 0.004 0.020-1.78-1.272-1.244c-1.074-1.050-1.74-2.514-1.74-4.134s0.666-3.084 1.739-4.133l0.001-0.001 1.274-1.244-0.022-1.78c-0-0.020-0-0.044-0-0.068 0-3.192 2.588-5.78 5.78-5.78 0.024 0 0.048 0 0.072 0l-0.004-0 1.78 0.020 1.244-1.272c1.050-1.074 2.514-1.74 4.134-1.74s3.084 0.666 4.133 1.739l0.001 0.001-1.43 1.396c-0.687-0.703-1.645-1.139-2.704-1.139s-2.017 0.436-2.703 1.138l-1.841 1.889-2.64-0.032c-0.013-0-0.027-0-0.042-0-2.088 0-3.78 1.692-3.78 3.78 0 0.016 0 0.031 0 0.047l-0-0.002 0.032 2.636-1.888 1.842c-0.703 0.687-1.139 1.645-1.139 2.704s0.436 2.017 1.138 2.703l1.889 1.841-0.032 2.64c-0 0.013-0 0.027-0 0.042 0 2.088 1.692 3.78 3.78 3.78 0.016 0 0.031-0 0.047-0l-0.002 0 2.636-0.032 1.842 1.888c0.687 0.703 1.645 1.139 2.704 1.139s2.017-0.436 2.703-1.138l1.841-1.889 2.64 0.032c0.013 0 0.027 0 0.042 0 2.088 0 3.78-1.692 3.78-3.78 0-0.016-0-0.031-0-0.047l0 0.002-0.032-2.636 1.888-1.842c0.703-0.687 1.139-1.645 1.139-2.704s-0.436-2.017-1.138-2.703l-1.889-1.841 0.032-2.64c0-0.013 0-0.027 0-0.042 0-2.088-1.692-3.78-3.78-3.78-0.016 0-0.031 0-0.047 0l0.002-0-2.636 0.032z"></path>
</svg>
