<!-- Generated by IcoMoon.io -->
<svg version="1.1" xmlns="http://www.w3.org/2000/svg" width="32" height="32" viewBox="0 0 32 32">
<title>pencil-square</title>
<path d="M31.004 3.88c0.18 0.181 0.292 0.43 0.292 0.706s-0.111 0.525-0.292 0.706l-2.086 2.088-4-4 2.086-2.088c0.181-0.181 0.431-0.293 0.707-0.293s0.526 0.112 0.707 0.293l2.586 2.586zM27.504 8.792l-4-4-13.626 13.628c-0.107 0.107-0.19 0.238-0.24 0.385l-0.002 0.007-1.61 4.828c-0.016 0.047-0.025 0.101-0.025 0.157 0 0.276 0.224 0.5 0.5 0.5 0.056 0 0.11-0.009 0.161-0.026l-0.004 0.001 4.828-1.61c0.153-0.051 0.285-0.134 0.392-0.24l13.626-13.628z"></path>
<path d="M2 27c0 1.657 1.343 3 3 3v0h22c1.657 0 3-1.343 3-3v0-12c0-0.552-0.448-1-1-1s-1 0.448-1 1v0 12c0 0.552-0.448 1-1 1v0h-22c-0.552 0-1-0.448-1-1v0-22c0-0.552 0.448-1 1-1v0h13c0.552 0 1-0.448 1-1s-0.448-1-1-1v0h-13c-1.657 0-3 1.343-3 3v0 22z"></path>
</svg>
