<!-- Generated by IcoMoon.io -->
<svg version="1.1" xmlns="http://www.w3.org/2000/svg" width="32" height="32" viewBox="0 0 32 32">
<title>people</title>
<path d="M30 28s2 0 2-2-2-8-10-8-10 6-10 8 2 2 2 2h16zM14.010 26.112v0zM14.044 26h15.912c0.012-0.001 0.022-0.003 0.031-0.004l-0.003 0 0.016-0.004c-0.004-0.528-0.334-2.060-1.52-3.44-1.104-1.294-3.044-2.552-6.48-2.552-3.434 0-5.374 1.26-6.48 2.552-1.186 1.38-1.518 2.914-1.52 3.44 0.002 0.001 0.016 0.004 0.031 0.006l0.013 0.002zM29.99 26.112v0zM22 14c2.209 0 4-1.791 4-4s-1.791-4-4-4v0c-2.209 0-4 1.791-4 4s1.791 4 4 4v0zM28 10c0 3.314-2.686 6-6 6s-6-2.686-6-6v0c0-3.314 2.686-6 6-6s6 2.686 6 6v0zM13.872 18.56c-0.715-0.234-1.55-0.409-2.413-0.49l-0.047-0.004c-0.417-0.042-0.902-0.066-1.392-0.066-0.007 0-0.014 0-0.022 0h0.001c-8 0-10 6-10 8 0 1.334 0.666 2 2 2h8.432c-0.273-0.562-0.433-1.222-0.433-1.92 0-0.028 0-0.056 0.001-0.084l-0 0.004c0-2.020 0.754-4.084 2.18-5.808 0.486-0.588 1.052-1.138 1.692-1.632zM9.84 20c-3.336 0.040-5.23 1.28-6.32 2.552-1.194 1.388-1.52 2.926-1.52 3.448h6c0-2.090 0.646-4.172 1.84-6zM3 11c0-3.314 2.686-6 6-6s6 2.686 6 6v0c0 3.314-2.686 6-6 6s-6-2.686-6-6v0zM9 7c-2.209 0-4 1.791-4 4s1.791 4 4 4v0c2.209 0 4-1.791 4-4s-1.791-4-4-4v0z"></path>
</svg>
