<!-- Generated by IcoMoon.io -->
<svg version="1.1" xmlns="http://www.w3.org/2000/svg" width="32" height="32" viewBox="0 0 32 32">
<title>people-fill</title>
<path d="M14 28s-2 0-2-2 2-8 10-8 10 6 10 8-2 2-2 2h-16zM22 16c3.314 0 6-2.686 6-6s-2.686-6-6-6v0c-3.314 0-6 2.686-6 6s2.686 6 6 6v0zM10.432 28c-0.273-0.562-0.433-1.222-0.433-1.92 0-0.028 0-0.056 0.001-0.084l-0 0.004c0-2.71 1.36-5.5 3.872-7.44-1.114-0.356-2.396-0.561-3.725-0.561-0.052 0-0.103 0-0.155 0.001l0.008-0c-8 0-10 6-10 8s2 2 2 2h8.432zM9 16c2.761 0 5-2.239 5-5s-2.239-5-5-5v0c-2.761 0-5 2.239-5 5s2.239 5 5 5v0z"></path>
</svg>
