<!-- Generated by IcoMoon.io -->
<svg version="1.1" xmlns="http://www.w3.org/2000/svg" width="32" height="32" viewBox="0 0 32 32">
<title>person-check</title>
<path d="M22 28s2 0 2-2-2-8-12-8-12 6-12 8 2 2 2 2h20zM2.010 26.112v0zM2.044 26l-0.013-0.002c-0.015-0.003-0.030-0.005-0.031-0.006 0.004-0.492 0.308-1.972 1.664-3.328 1.304-1.304 3.756-2.664 8.336-2.664 4.578 0 7.032 1.36 8.336 2.664 1.356 1.356 1.662 2.836 1.664 3.328l-0.016 0.004 0.003-0c-0.009 0.002-0.019 0.003-0.031 0.004h-19.912zM21.992 26.112v0zM12 14c2.209 0 4-1.791 4-4s-1.791-4-4-4v0c-2.209 0-4 1.791-4 4s1.791 4 4 4v0zM18 10c0 3.314-2.686 6-6 6s-6-2.686-6-6v0c0-3.314 2.686-6 6-6s6 2.686 6 6v0zM31.708 10.292l-0-0c-0.181-0.181-0.431-0.294-0.708-0.294s-0.527 0.112-0.708 0.294l-5.292 5.294-2.292-2.294c-0.181-0.181-0.431-0.293-0.708-0.293-0.553 0-1.001 0.448-1.001 1.001 0 0.277 0.112 0.527 0.293 0.708l3 3c0.181 0.181 0.431 0.294 0.708 0.294s0.527-0.112 0.708-0.294l6-6c0.181-0.181 0.294-0.431 0.294-0.708s-0.112-0.527-0.294-0.708z"></path>
</svg>
