<!-- Generated by IcoMoon.io -->
<svg version="1.1" xmlns="http://www.w3.org/2000/svg" width="32" height="32" viewBox="0 0 32 32">
<title>person-plus-fill</title>
<path d="M2 28s-2 0-2-2 2-8 12-8 12 6 12 8-2 2-2 2h-20zM12 16c3.314 0 6-2.686 6-6s-2.686-6-6-6v0c-3.314 0-6 2.686-6 6s2.686 6 6 6v0zM27 10c0.552 0 1 0.448 1 1v0 4c0 0.552-0.448 1-1 1v0h-4c-0.552 0-1-0.448-1-1s0.448-1 1-1v0h3v-3c0-0.552 0.448-1 1-1v0z"></path>
<path d="M26 15c0-0.552 0.448-1 1-1v0h4c0.552 0 1 0.448 1 1s-0.448 1-1 1v0h-3v3c0 0.552-0.448 1-1 1s-1-0.448-1-1v0-4z"></path>
</svg>
