<!-- Generated by IcoMoon.io -->
<svg version="1.1" xmlns="http://www.w3.org/2000/svg" width="32" height="32" viewBox="0 0 32 32">
<title>plus-circle</title>
<path d="M16 7c0.552 0 1 0.448 1 1v0 8c0 0.552-0.448 1-1 1v0h-8c-0.552 0-1-0.448-1-1s0.448-1 1-1v0h7v-7c0-0.552 0.448-1 1-1v0z"></path>
<path d="M15 16c0-0.552 0.448-1 1-1v0h8c0.552 0 1 0.448 1 1s-0.448 1-1 1v0h-7v7c0 0.552-0.448 1-1 1s-1-0.448-1-1v0-8z"></path>
<path d="M16 30v0c-7.732 0-14-6.268-14-14s6.268-14 14-14v0c7.732 0 14 6.268 14 14s-6.268 14-14 14zM16 32c8.837 0 16-7.163 16-16s-7.163-16-16-16v0c-8.837 0-16 7.163-16 16s7.163 16 16 16v0z"></path>
</svg>
