<!-- Generated by IcoMoon.io -->
<svg version="1.1" xmlns="http://www.w3.org/2000/svg" width="32" height="32" viewBox="0 0 32 32">
<title>plus-square</title>
<path d="M16 7c0.552 0 1 0.448 1 1v0 8c0 0.552-0.448 1-1 1v0h-8c-0.552 0-1-0.448-1-1s0.448-1 1-1v0h7v-7c0-0.552 0.448-1 1-1v0z"></path>
<path d="M15 16c0-0.552 0.448-1 1-1v0h8c0.552 0 1 0.448 1 1s-0.448 1-1 1v0h-7v7c0 0.552-0.448 1-1 1s-1-0.448-1-1v0-8z"></path>
<path d="M28 2v0c1.105 0 2 0.895 2 2v24c0 1.105-0.895 2-2 2h-24c-1.105 0-2-0.895-2-2v-24c0-1.105 0.895-2 2-2h24zM4 0c-2.209 0-4 1.791-4 4v0 24c0 2.209 1.791 4 4 4v0h24c2.209 0 4-1.791 4-4v0-24c0-2.209-1.791-4-4-4v0h-24z"></path>
</svg>
