<!-- Generated by IcoMoon.io -->
<svg version="1.1" xmlns="http://www.w3.org/2000/svg" width="32" height="32" viewBox="0 0 32 32">
<title>printer</title>
<path d="M22 4h-12c-1.105 0-2 0.895-2 2v0 4h-2v-4c0-2.209 1.791-4 4-4v0h12c2.209 0 4 1.791 4 4v0 4h-2v-4c0-1.105-0.895-2-2-2v0zM28 12h-24c-1.105 0-2 0.895-2 2v0 6c0 1.105 0.895 2 2 2v0h2v2h-2c-2.209 0-4-1.791-4-4v0-6c0-2.209 1.791-4 4-4v0h24c2.209 0 4 1.791 4 4v0 6c0 2.209-1.791 4-4 4v0h-2v-2h2c1.105 0 2-0.895 2-2v0-6c0-1.105-0.895-2-2-2v0z"></path>
<path d="M22 18v0c1.105 0 2 0.895 2 2v6c0 1.105-0.895 2-2 2h-12c-1.105 0-2-0.895-2-2v-6c0-1.105 0.895-2 2-2h12zM10 16c-2.209 0-4 1.791-4 4v0 6c0 2.209 1.791 4 4 4v0h12c2.209 0 4-1.791 4-4v0-6c0-2.209-1.791-4-4-4v0h-12z"></path>
<path d="M6 15c0 0.552-0.448 1-1 1s-1-0.448-1-1v0c0-0.552 0.448-1 1-1s1 0.448 1 1v0z"></path>
</svg>
