<!-- Generated by IcoMoon.io -->
<svg version="1.1" xmlns="http://www.w3.org/2000/svg" width="32" height="32" viewBox="0 0 32 32">
<title>puzzle</title>
<path d="M9.21 5v0zM7.22 7.2l0.996-0.086v-0.014l-0.996 0.1zM14 5h1c0-0.552-0.448-1-1-1v0 1zM12.648 7.908v0zM19.352 7.908v0zM18 5v-1c-0.552 0-1 0.448-1 1v0h1zM24.78 7.2l-0.996-0.1v0.014l0.996 0.086zM24.2 14l-0.996-0.086c-0.002 0.026-0.004 0.056-0.004 0.086 0 0.552 0.448 1 1 1h0v-1zM27.908 12.648v0zM27.908 19.352v0zM24.2 18v-1c-0.552 0-1 0.448-1 1 0 0.030 0.001 0.059 0.004 0.088l-0-0.004 0.996-0.084zM24.78 24.8l-0.996 0.086v0.014l0.996-0.1zM18 27h-1c0 0.552 0.448 1 1 1v0-1zM19.352 24.092v0zM12.648 24.092v0zM14 27v1c0.552 0 1-0.448 1-1v0h-1zM9.21 27v0zM7.22 24.8l0.996 0.1v-0.014l-0.996-0.086zM7.8 18l0.996 0.084c0.002-0.025 0.004-0.054 0.004-0.084 0-0.552-0.447-1-1-1h-0v1zM4.092 19.352v0zM4.092 12.648v0zM7.8 14v1c0.552-0 1-0.448 1-1 0-0.030-0.001-0.060-0.004-0.090l0 0.004-0.996 0.086zM9.21 4c-0 0-0.001 0-0.001 0-1.657 0-3 1.343-3 3 0 0.106 0.005 0.21 0.016 0.313l-0.001-0.013 1.99-0.2c-0.003-0.030-0.005-0.065-0.005-0.1 0-0.552 0.448-1 1-1 0 0 0.001 0 0.001 0h-0v-2zM14 4h-4.79v2h4.79v-2zM15 5.764v-0.764h-2v0.764h2zM13.256 8.702c0.75-0.574 1.744-1.546 1.744-2.938h-2c0 0.39-0.294 0.84-0.96 1.35l1.216 1.588zM13 9l0.002-0.012c0.007-0.019 0.015-0.036 0.025-0.051l-0.001 0.001c0.063-0.093 0.139-0.171 0.227-0.234l0.003-0.002-1.216-1.588c-0.548 0.42-1.040 1.056-1.040 1.886h2zM16 10c-0.982 0-1.824-0.2-2.38-0.48-0.211-0.097-0.391-0.228-0.541-0.387l-0.001-0.001c-0.032-0.036-0.058-0.077-0.077-0.123l-0.001-0.003v-0.006h-2c0 1.136 0.894 1.894 1.724 2.308 0.89 0.446 2.050 0.692 3.276 0.692v-2zM19 9v0.006c-0.019 0.049-0.046 0.092-0.078 0.128l0-0c-0.15 0.159-0.329 0.289-0.529 0.382l-0.011 0.004c-0.562 0.28-1.402 0.48-2.382 0.48v2c1.226 0 2.386-0.246 3.276-0.692 0.83-0.414 1.724-1.172 1.724-2.308h-2zM18.744 8.7c0.13 0.1 0.198 0.184 0.23 0.238 0.016 0.026 0.020 0.042 0.024 0.050l0.002 0.012h2c0-0.83-0.492-1.466-1.040-1.886l-1.216 1.588zM17 5.766c0 1.392 0.994 2.364 1.744 2.938l1.216-1.588c-0.666-0.51-0.96-0.96-0.96-1.35h-2zM17 5.002v0.764h2v-0.766h-2zM22.79 4.002h-4.79v2h4.79v-2.002zM25.776 7.302c0.010-0.091 0.015-0.196 0.015-0.302 0-1.657-1.343-3-3-3-0 0-0.001 0-0.001 0h0v2c0 0 0.001 0 0.001 0 0.552 0 1 0.448 1 1 0 0.035-0.002 0.070-0.005 0.104l0-0.004 1.99 0.2zM25.196 14.086l0.58-6.8-1.992-0.17-0.58 6.8 1.992 0.17zM25.764 13.002h-1.564v2h1.564v-2zM27.114 12.042c-0.51 0.666-0.96 0.96-1.35 0.96v2c1.392 0 2.364-0.994 2.938-1.744l-1.588-1.216zM29 11.002c-0.83 0-1.466 0.492-1.886 1.040l1.588 1.216c0.065-0.091 0.143-0.167 0.233-0.228l0.003-0.002c0.014-0.009 0.031-0.018 0.048-0.024l0.002-0 0.012-0.004v-2zM32 16c0-1.226-0.246-2.386-0.692-3.276-0.414-0.83-1.172-1.724-2.308-1.724v2h0.006l0.020 0.006c0.040 0.020 0.075 0.044 0.106 0.072l-0-0c0.16 0.15 0.29 0.329 0.384 0.529l0.004 0.011c0.28 0.56 0.48 1.4 0.48 2.382h2zM29 21c1.136 0 1.894-0.894 2.308-1.724 0.446-0.89 0.692-2.050 0.692-3.276h-2c0 0.982-0.2 1.824-0.48 2.38-0.097 0.211-0.228 0.391-0.387 0.541l-0.001 0.001c-0.036 0.032-0.077 0.058-0.123 0.077l-0.003 0.001h-0.006v2zM27.114 19.96c0.42 0.548 1.056 1.040 1.886 1.040v-2l-0.012-0.002c-0.019-0.006-0.036-0.015-0.051-0.025l0.001 0.001c-0.093-0.063-0.171-0.139-0.234-0.227l-0.002-0.003-1.588 1.216zM25.764 19c0.39 0 0.84 0.294 1.35 0.96l1.588-1.216c-0.574-0.75-1.546-1.744-2.938-1.744v2zM24.2 19h1.564v-2h-1.564v2zM25.776 24.716l-0.58-6.8-1.992 0.168 0.58 6.802 1.992-0.17zM22.79 28c0 0 0.001 0 0.001 0 1.657 0 3-1.343 3-3 0-0.106-0.005-0.21-0.016-0.313l0.001 0.013-1.99 0.2c0.003 0.030 0.005 0.065 0.005 0.1 0 0.552-0.448 1-1 1-0 0-0.001 0-0.001 0h0v2zM18 28h4.79v-2h-4.79v2zM19 27v-0.764h-2v0.764h2zM19 26.236c0-0.39 0.294-0.84 0.96-1.35l-1.216-1.588c-0.75 0.574-1.744 1.546-1.744 2.938h2zM19.96 24.886c0.548-0.42 1.040-1.056 1.040-1.886h-2l-0.002 0.012c-0.006 0.019-0.015 0.036-0.025 0.051l0.001-0.001c-0.063 0.093-0.139 0.171-0.227 0.234l-0.003 0.002 1.216 1.588zM21 23c0-1.136-0.894-1.894-1.724-2.308-0.89-0.446-2.050-0.692-3.276-0.692v2c0.984 0 1.824 0.2 2.38 0.48 0.28 0.14 0.452 0.28 0.542 0.388 0.032 0.036 0.058 0.077 0.077 0.123l0.001 0.003v0.006h2zM16 20c-1.226 0-2.386 0.246-3.276 0.692-0.83 0.414-1.724 1.172-1.724 2.308h2v-0.006l0.006-0.020c0.020-0.041 0.044-0.076 0.072-0.106l-0 0c0.15-0.16 0.329-0.29 0.529-0.384l0.011-0.004c0.562-0.28 1.402-0.48 2.382-0.48v-2zM11 23c0 0.83 0.492 1.466 1.040 1.886l1.216-1.588c-0.091-0.065-0.167-0.143-0.228-0.233l-0.002-0.003c-0.009-0.014-0.018-0.031-0.024-0.048l-0-0.002-0.002-0.012h-2zM12.040 24.886c0.666 0.51 0.96 0.96 0.96 1.35h2c0-1.392-0.994-2.364-1.744-2.938l-1.216 1.588zM13 26.236v0.764h2v-0.764h-2zM9.21 28h4.79v-2h-4.79v2zM6.224 24.7c-0.010 0.090-0.015 0.194-0.015 0.3 0 1.657 1.343 3 3 3 0 0 0.001 0 0.001 0h-0v-2c-0 0-0.001 0-0.001 0-0.552 0-1-0.448-1-1 0-0.035 0.002-0.070 0.005-0.104l-0 0.004-1.99-0.2zM6.804 17.914l-0.58 6.802 1.992 0.17 0.58-6.8-1.992-0.172zM6.236 19h1.564v-2h-1.564v2zM4.886 19.96c0.51-0.666 0.96-0.96 1.35-0.96v-2c-1.392 0-2.364 0.994-2.938 1.744l1.588 1.216zM3 21c0.83 0 1.466-0.492 1.886-1.040l-1.588-1.216c-0.065 0.091-0.143 0.167-0.233 0.228l-0.003 0.002c-0.014 0.009-0.031 0.018-0.048 0.024l-0.002 0-0.012 0.002v2zM0 16c0 1.226 0.246 2.386 0.692 3.276 0.414 0.83 1.172 1.724 2.308 1.724v-2h-0.006c-0.049-0.019-0.092-0.046-0.128-0.078l0 0c-0.159-0.15-0.289-0.329-0.382-0.529l-0.004-0.011c-0.28-0.562-0.48-1.402-0.48-2.382h-2zM3 11c-1.136 0-1.894 0.894-2.308 1.724-0.446 0.89-0.692 2.050-0.692 3.276h2c0-0.984 0.2-1.824 0.48-2.38 0.097-0.211 0.228-0.391 0.387-0.541l0.001-0.001c0.036-0.032 0.077-0.058 0.123-0.077l0.003-0.001h0.006v-2zM4.886 12.040c-0.42-0.548-1.056-1.040-1.886-1.040v2l0.012 0.002c0.019 0.006 0.036 0.015 0.051 0.025l-0.001-0.001c0.054 0.032 0.136 0.1 0.236 0.23l1.588-1.216zM6.236 13c-0.39 0-0.84-0.294-1.35-0.96l-1.588 1.216c0.574 0.75 1.546 1.744 2.938 1.744v-2zM7.8 13h-1.564v2h1.564v-2zM6.224 7.284l0.58 6.8 1.992-0.17-0.58-6.8-1.992 0.17z"></path>
</svg>
