<!-- Generated by IcoMoon.io -->
<svg version="1.1" xmlns="http://www.w3.org/2000/svg" width="32" height="32" viewBox="0 0 32 32">
<title>question-square</title>
<path d="M28 2v0c1.105 0 2 0.895 2 2v24c0 1.105-0.895 2-2 2h-24c-1.105 0-2-0.895-2-2v-24c0-1.105 0.895-2 2-2h24zM4 0c-2.209 0-4 1.791-4 4v0 24c0 2.209 1.791 4 4 4v0h24c2.209 0 4-1.791 4-4v0-24c0-2.209-1.791-4-4-4v0h-24z"></path>
<path d="M10.5 12.066h2.64c0-1.562 0.916-2.768 2.72-2.768 1.37 0 2.626 0.686 2.626 2.336 0 1.27-0.748 1.854-1.93 2.742-1.346 0.978-2.412 2.12-2.336 3.974l0.014 0.926h2.614v-0.71c0-1.436 0.546-1.854 2.020-2.972 1.218-0.926 2.488-1.954 2.488-4.112 0-3.022-2.552-4.482-5.346-4.482-2.652 0-5.572 1.294-5.508 5.066zM13.624 23.098c0 1.066 0.85 1.854 2.020 1.854 1.218 0 2.056-0.788 2.056-1.854 0-1.104-0.84-1.88-2.058-1.88-1.168 0-2.018 0.776-2.018 1.88z"></path>
</svg>
