<!-- Generated by IcoMoon.io -->
<svg version="1.1" xmlns="http://www.w3.org/2000/svg" width="32" height="32" viewBox="0 0 32 32">
<title>question-circle-fill</title>
<path d="M32 16c0 8.837-7.163 16-16 16s-16-7.163-16-16v0c0-8.837 7.163-16 16-16s16 7.163 16 16v0zM13.14 12.066h-2.64c-0.060-3.772 2.86-5.066 5.512-5.066 2.794 0 5.346 1.46 5.346 4.48 0 2.16-1.27 3.188-2.488 4.114-1.474 1.118-2.020 1.536-2.020 2.972v0.71h-2.616l-0.014-0.926c-0.076-1.854 0.99-2.996 2.336-3.974 1.18-0.888 1.93-1.472 1.93-2.742 0-1.65-1.256-2.336-2.628-2.336-1.802 0-2.716 1.206-2.716 2.768zM15.642 24.952c-1.168 0-2.018-0.788-2.018-1.854 0-1.104 0.85-1.88 2.020-1.88 1.218 0 2.056 0.776 2.056 1.88 0 1.066-0.84 1.854-2.058 1.854z"></path>
</svg>
