<!-- Generated by IcoMoon.io -->
<svg version="1.1" xmlns="http://www.w3.org/2000/svg" width="32" height="32" viewBox="0 0 32 32">
<title>reply</title>
<path d="M19.004 10.026c-0.034-0.015-0.074-0.024-0.116-0.024-0.159 0-0.288 0.129-0.288 0.288 0 0.002 0 0.003 0 0.005v-0 2.306c0 0.552-0.448 1-1 1v0c-1.334 0-4.026 0.010-6.6 1.644-1.968 1.248-3.98 3.52-5.19 7.752 2.040-1.966 4.37-3.032 6.41-3.596 1.133-0.326 2.448-0.546 3.802-0.61l0.040-0.002c0.194-0.009 0.421-0.014 0.65-0.014 0.333 0 0.663 0.011 0.991 0.033l-0.044-0.002h0.026l0.010 0.002h0.002l-0.096 0.994 0.1-0.996c0.508 0.052 0.9 0.478 0.9 0.995 0 0 0 0.001 0 0.001v-0 2.306c0 0.216 0.22 0.352 0.404 0.268l7.968-5.866c0.024-0.018 0.051-0.036 0.080-0.054l0.004-0.002c0.086-0.052 0.143-0.146 0.143-0.252s-0.057-0.2-0.141-0.251l-0.001-0.001c-0.033-0.020-0.060-0.038-0.087-0.058l0.003 0.002-7.968-5.866zM16.6 20.772c-1.378 0.025-2.699 0.225-3.955 0.58l0.109-0.026c-2.652 0.736-5.792 2.402-7.88 6.16-0.174 0.309-0.5 0.513-0.874 0.513-0.552 0-1-0.448-1-1 0-0.044 0.003-0.086 0.008-0.128l-0.001 0.005c0.928-7.42 3.772-11.324 6.92-13.32 2.49-1.58 5.054-1.884 6.672-1.942v-1.32c0-0 0-0.001 0-0.001 0-1.264 1.024-2.288 2.288-2.288 0.463 0 0.894 0.138 1.255 0.374l-0.009-0.005 7.988 5.88c0.652 0.412 1.079 1.129 1.079 1.946s-0.427 1.534-1.070 1.94l-0.009 0.006-7.988 5.88c-0.352 0.231-0.783 0.369-1.246 0.369-1.264 0-2.288-1.024-2.288-2.288 0-0 0-0.001 0-0.001v0-1.334z"></path>
</svg>
