<!-- Generated by IcoMoon.io -->
<svg version="1.1" xmlns="http://www.w3.org/2000/svg" width="32" height="32" viewBox="0 0 32 32">
<title>server</title>
<path d="M6 8h20v16h-20v-16z"></path>
<path d="M26 24c0 2.209-4.477 4-10 4s-10-1.791-10-4c0-2.209 4.477-4 10-4s10 1.791 10 4z"></path>
<path d="M26 8c0 2.21-4.478 4-10 4s-10-1.79-10-4 4.478-4 10-4 10 1.79 10 4z"></path>
<path d="M23.814 14.686c-2.1 0.84-4.864 1.314-7.814 1.314s-5.714-0.474-7.814-1.314c-0.835-0.327-1.555-0.726-2.214-1.205l0.028 0.019v-3.5c0 2.21 4.478 4 10 4s10-1.79 10-4v3.5c-0.644 0.48-1.396 0.87-2.186 1.186zM23.814 22.686c-2.1 0.84-4.864 1.314-7.814 1.314s-5.714-0.474-7.814-1.314c-0.835-0.327-1.555-0.726-2.214-1.205l0.028 0.019v-3.5c0 2.21 4.478 4 10 4s10-1.79 10-4v3.5c-0.644 0.48-1.396 0.87-2.186 1.186z"></path>
</svg>
