<!-- Generated by IcoMoon.io -->
<svg version="1.1" xmlns="http://www.w3.org/2000/svg" width="32" height="32" viewBox="0 0 32 32">
<title>share-fill</title>
<path d="M24.048 7.594l-15.050 7.526-0.896-1.79 15.050-7.524 0.896 1.788zM23.152 26.194l-15.050-7.524 0.898-1.79 15.050 7.526-0.896 1.788z"></path>
<path d="M27 10c2.761 0 5-2.239 5-5s-2.239-5-5-5v0c-2.761 0-5 2.239-5 5s2.239 5 5 5v0zM27 32c2.761 0 5-2.239 5-5s-2.239-5-5-5v0c-2.761 0-5 2.239-5 5s2.239 5 5 5v0zM5 21c2.761 0 5-2.239 5-5s-2.239-5-5-5v0c-2.761 0-5 2.239-5 5s2.239 5 5 5v0z"></path>
</svg>
