<!-- Generated by IcoMoon.io -->
<svg version="1.1" xmlns="http://www.w3.org/2000/svg" width="32" height="32" viewBox="0 0 32 32">
<title>shield-fill-check</title>
<path d="M16 1c-1.324 0-3.54 0.498-5.626 1.050-2.726 0.717-4.577 1.275-6.408 1.875l0.864-0.245c-1.060 0.341-1.844 1.246-2.004 2.352l-0.002 0.016c-1.146 8.394 1.512 14.614 4.736 18.73 1.384 1.77 2.977 3.289 4.764 4.553l0.070 0.047c0.742 0.512 1.43 0.902 2.014 1.172 0.54 0.248 1.116 0.45 1.592 0.45s1.054-0.202 1.592-0.45c0.584-0.27 1.272-0.66 2.014-1.172 1.858-1.311 3.452-2.83 4.799-4.551l0.037-0.049c3.222-4.116 5.88-10.336 4.734-18.73-0.162-1.122-0.946-2.027-1.985-2.362l-0.021-0.006c-0.967-0.355-2.818-0.913-4.686-1.428l-0.858-0.202c-2.086-0.552-4.3-1.050-5.626-1.050zM21.708 13.708c0.181-0.181 0.293-0.431 0.293-0.708 0-0.553-0.448-1.001-1.001-1.001-0.276 0-0.527 0.112-0.708 0.293v0l-5.292 5.294-2.292-2.294c-0.181-0.181-0.431-0.293-0.708-0.293-0.553 0-1.001 0.448-1.001 1.001 0 0.277 0.112 0.527 0.293 0.708l3 3c0.181 0.181 0.431 0.294 0.708 0.294s0.527-0.112 0.708-0.294l6-6z"></path>
</svg>
