<!-- Generated by IcoMoon.io -->
<svg version="1.1" xmlns="http://www.w3.org/2000/svg" width="32" height="32" viewBox="0 0 32 32">
<title>shift</title>
<path d="M14.54 4.094c0.366-0.39 0.885-0.633 1.46-0.633s1.094 0.243 1.459 0.632l0.001 0.001 12.69 13.54c1.2 1.276 0.292 3.366-1.46 3.366h-5.69v6c0 1.105-0.895 2-2 2v0h-10c-1.105 0-2-0.895-2-2v0-6h-5.692c-1.748 0-2.656-2.090-1.46-3.368l12.692-13.538zM28.692 19l-12.692-13.538-12.692 13.538h5.692c1.105 0 2 0.895 2 2v0 6h10v-6c0-1.105 0.895-2 2-2v0h5.692z"></path>
</svg>
