<!-- Generated by IcoMoon.io -->
<svg version="1.1" xmlns="http://www.w3.org/2000/svg" width="32" height="32" viewBox="0 0 32 32">
<title>shop-window</title>
<path d="M6.24 2.35c0.184-0.215 0.456-0.35 0.76-0.35 0 0 0 0 0 0h18c0 0 0 0 0 0 0.303 0 0.575 0.135 0.759 0.349l5.519 6.439c0.449 0.521 0.722 1.205 0.722 1.952v0 0.26h-2v-0.26c0-0 0-0 0-0 0-0.249-0.091-0.476-0.241-0.651l0.001 0.001-5.22-6.090h-17.080l-5.22 6.090c-0.149 0.174-0.24 0.401-0.24 0.65 0 0 0 0 0 0v0 0.26h-2v-0.26c0-0.747 0.273-1.431 0.725-1.956l-0.003 0.004 5.52-6.44z"></path>
<path d="M4.75 13.75c1.52 0 2.75-1.232 2.75-2.75h2c0 1.519 1.231 2.75 2.75 2.75s2.75-1.231 2.75-2.75v0h2c0 1.519 1.231 2.75 2.75 2.75s2.75-1.231 2.75-2.75v0h2c0 1.519 1.231 2.75 2.75 2.75s2.75-1.231 2.75-2.75v0h2c0 0 0 0 0 0.001 0 2.623-2.127 4.75-4.75 4.75-1.52 0-2.873-0.714-3.742-1.824l-0.008-0.010c-0.876 1.12-2.227 1.834-3.746 1.834-0.002 0-0.003 0-0.005 0h0c-0.002 0-0.003 0-0.005 0-1.518 0-2.869-0.714-3.737-1.824l-0.008-0.010c-0.875 1.12-2.227 1.834-3.745 1.834-0.002 0-0.004 0-0.006 0h0c-0.002 0-0.003 0-0.005 0-1.518 0-2.869-0.714-3.737-1.824l-0.008-0.010c-0.877 1.121-2.23 1.835-3.75 1.835-2.623 0-4.75-2.127-4.75-4.75 0-0 0-0 0-0.001v0h2c0 1.52 1.232 2.75 2.75 2.75z"></path>
<path d="M9.5 11c0 0.552-0.448 1-1 1s-1-0.448-1-1v0c0-0.552 0.448-1 1-1s1 0.448 1 1v0zM17 11c0 0.552-0.448 1-1 1s-1-0.448-1-1v0c0-0.552 0.448-1 1-1s1 0.448 1 1v0zM24.5 11c0 0.552-0.448 1-1 1s-1-0.448-1-1v0c0-0.552 0.448-1 1-1s1 0.448 1 1v0zM4 17.708v12.292h24v-12.292c0.741-0.083 1.417-0.273 2.042-0.557l-0.042 0.017v12.832h1c0.552 0 1 0.448 1 1s-0.448 1-1 1v0h-30c-0.552 0-1-0.448-1-1s0.448-1 1-1v0h1v-12.834c0.622 0.28 1.294 0.464 2 0.542zM4 15.692v-1.692h-2v0.874c0.582 0.414 1.264 0.7 2 0.818zM30 14.874c-0.582 0.414-1.264 0.7-2 0.818v-1.692h2v0.874z"></path>
<path d="M8 26v-8h-2v8c0 1.105 0.895 2 2 2v0h16c1.105 0 2-0.895 2-2v0-8h-2v8h-16z"></path>
</svg>
