<!-- Generated by IcoMoon.io -->
<svg version="1.1" xmlns="http://www.w3.org/2000/svg" width="32" height="32" viewBox="0 0 32 32">
<title>signpost</title>
<path d="M14 2.828v5.172h4v-5.172c0-1.105-0.895-2-2-2s-2 0.895-2 2v0z"></path>
<path d="M25.064 10l3.332 4-3.332 4h-21.064v-8h21.064zM4 8c-1.105 0-2 0.895-2 2v0 8c0 1.105 0.895 2 2 2v0h21.064c0.616-0 1.167-0.279 1.533-0.717l0.003-0.003 3.866-4.64c0.144-0.172 0.232-0.396 0.232-0.64s-0.088-0.468-0.233-0.642l0.001 0.002-3.866-4.64c-0.369-0.441-0.92-0.72-1.536-0.72h-21.064z"></path>
<path d="M14 20h4v12h-4v-12z"></path>
</svg>
