<!-- Generated by IcoMoon.io -->
<svg version="1.1" xmlns="http://www.w3.org/2000/svg" width="32" height="32" viewBox="0 0 32 32">
<title>sim-fill</title>
<path d="M7 0h14.172c0 0 0.001 0 0.001 0 0.828 0 1.578 0.336 2.121 0.878l3.826 3.83c0.543 0.542 0.879 1.292 0.88 2.12v22.172c0 1.657-1.343 3-3 3h-18c-1.657 0-3-1.343-3-3v-26c0-1.657 1.343-3 3-3zM10 9v3h5v-4h-4c-0.552 0-1 0.448-1 1zM17 12h5v-3c0-0.552-0.448-1-1-1h-4v4zM10 14v4h12v-4h-12zM17 20v4h4c0.552 0 1-0.448 1-1v-3h-5zM15 20h-5v3c0 0.552 0.448 1 1 1h4v-4zM11 6c-1.657 0-3 1.343-3 3v0 14c0 1.657 1.343 3 3 3v0h10c1.657 0 3-1.343 3-3v0-14c0-1.657-1.343-3-3-3v0h-10z"></path>
</svg>
