<!-- Generated by IcoMoon.io -->
<svg version="1.1" xmlns="http://www.w3.org/2000/svg" width="32" height="32" viewBox="0 0 32 32">
<title>skip-backward-fill</title>
<path d="M1 7c-0.552 0-1 0.448-1 1v0 16c0 0.552 0.448 1 1 1s1-0.448 1-1v0-16c0-0.552-0.448-1-1-1v0z"></path>
<path d="M1.808 17.394l12.726 7.384c1.080 0.626 2.466-0.132 2.466-1.394v-14.768c0-1.26-1.384-2.020-2.466-1.392l-12.726 7.384c-0.487 0.282-0.809 0.8-0.809 1.393s0.322 1.111 0.801 1.389l0.008 0.004z"></path>
<path d="M16.808 17.394l12.726 7.384c1.080 0.626 2.466-0.132 2.466-1.394v-14.768c0-1.26-1.386-2.020-2.466-1.392l-12.726 7.384c-0.487 0.282-0.809 0.8-0.809 1.393s0.322 1.111 0.801 1.389l0.008 0.004z"></path>
</svg>
