<!-- Generated by IcoMoon.io -->
<svg version="1.1" xmlns="http://www.w3.org/2000/svg" width="32" height="32" viewBox="0 0 32 32">
<title>sticky-fill</title>
<path d="M5 2h22c1.657 0 3 1.343 3 3v12.172c-0 0.828-0.336 1.577-0.878 2.12l-9.83 9.828c-0.542 0.543-1.292 0.879-2.12 0.88h-12.172c-1.657 0-3-1.343-3-3v-22c0-1.657 1.343-3 3-3zM17 19v8.792c0 0.446 0.54 0.67 0.854 0.354l10.292-10.292c0.091-0.091 0.147-0.216 0.147-0.354 0-0.276-0.224-0.5-0.5-0.5-0 0-0.001 0-0.001 0h-8.792c-1.105 0-2 0.895-2 2v0z"></path>
</svg>
