<!-- Generated by IcoMoon.io -->
<svg version="1.1" xmlns="http://www.w3.org/2000/svg" width="32" height="32" viewBox="0 0 32 32">
<title>suit-club</title>
<path d="M16 2c-3.59 0-6.5 2.91-6.5 6.5v0c0 0.372 0 0.58 0.032 0.82 0.028 0.24 0.090 0.54 0.24 1.054l0.38 1.33-1.384-0.056c-0.080-0.004-0.174-0.006-0.269-0.006-3.59 0-6.5 2.91-6.5 6.5s2.91 6.5 6.5 6.5c1.996 0 3.783-0.9 4.975-2.317l0.008-0.010c0.185-0.223 0.462-0.363 0.771-0.363 0.552 0 1 0.448 1 1 0 0.145-0.031 0.282-0.086 0.406l0.003-0.006-0.006 0.010-0.012 0.030-0.048 0.11c-0.391 0.886-0.684 1.49-0.991 2.086l0.115-0.246c-0.878 1.739-1.719 3.176-2.636 4.56l0.104-0.166c-0.026 0.036-0.040 0.1 0.002 0.18 0.020 0.040 0.042 0.060 0.060 0.072 0.011 0.008 0.025 0.012 0.040 0.012 0.001 0 0.002 0 0.002-0h8.4c0.020 0 0.032-0.004 0.044-0.012 0.025-0.018 0.044-0.042 0.058-0.069l0-0.001c0.040-0.080 0.028-0.146 0.002-0.182-1.175-1.77-2.313-3.816-3.291-5.949l-0.117-0.285-0.048-0.108-0.012-0.030-0.004-0.008c-0.051-0.116-0.081-0.252-0.081-0.395 0-0.552 0.448-1 1-1 0.302 0 0.573 0.134 0.756 0.346l0.001 0.001c1.202 1.4 3.032 2.336 4.992 2.336 3.565-0.032 6.443-2.93 6.443-6.5 0-3.59-2.91-6.5-6.5-6.5-0.078 0-0.155 0.001-0.232 0.004l0.011-0-1.398 0.060 0.398-1.342c0.28-0.94 0.28-1.49 0.278-1.854v-0.012c0-3.59-2.91-6.5-6.5-6.5v0zM20.414 26.048c0.45 0.81 0.974 1.696 1.56 2.588 0.9 1.364-0.024 3.364-1.774 3.364h-8.4c-1.752 0-2.676-2-1.774-3.366 0.582-0.884 1.104-1.76 1.552-2.566-0.91 0.363-1.965 0.573-3.069 0.573-4.694 0-8.5-3.806-8.5-8.5 0-4.361 3.285-7.956 7.515-8.444l0.039-0.004c-0.003-0.012-0.009-0.056-0.015-0.1l-0.003-0.028c-0.046-0.374-0.046-0.696-0.046-1.040v-0.026c0-4.694 3.806-8.5 8.5-8.5s8.5 3.806 8.5 8.5v0c0 0.28 0 0.666-0.080 1.192 4.29 0.471 7.598 4.075 7.598 8.452 0 4.694-3.806 8.5-8.5 8.5-0.006 0-0.013 0-0.019-0h0.001c-1.112-0.002-2.172-0.221-3.142-0.616l0.056 0.020z"></path>
</svg>
