<!-- Generated by IcoMoon.io -->
<svg version="1.1" xmlns="http://www.w3.org/2000/svg" width="32" height="32" viewBox="0 0 32 32">
<title>suit-club-fill</title>
<path d="M23 9c0 3.866-3.134 7-7 7s-7-3.134-7-7v0c0-3.866 3.134-7 7-7s7 3.134 7 7v0z"></path>
<path d="M16 18c0 3.866-3.134 7-7 7s-7-3.134-7-7v0c0-3.866 3.134-7 7-7s7 3.134 7 7v0zM30 18c0 3.866-3.134 7-7 7s-7-3.134-7-7v0c0-3.866 3.134-7 7-7s7 3.134 7 7v0z"></path>
<path d="M11.204 28.306c1-1.516 2.448-3.96 3.66-6.996 0.374-0.934 1.898-0.934 2.272 0 1.091 2.686 2.318 4.988 3.751 7.142l-0.091-0.146c0.462 0.7-0.040 1.694-0.876 1.694h-7.84c-0.838 0-1.34-0.994-0.876-1.694z"></path>
<path d="M14 14h4v8h-4v-8z"></path>
</svg>
