<!-- Generated by IcoMoon.io -->
<svg version="1.1" xmlns="http://www.w3.org/2000/svg" width="32" height="32" viewBox="0 0 32 32">
<title>tags-fill</title>
<path d="M6 2c-1.105 0-2 0.895-2 2v0 9.172c0 0.552 0.224 1.052 0.586 1.414l14 14c0.362 0.362 0.862 0.586 1.414 0.586s1.052-0.224 1.414-0.586l9.172-9.172c0.362-0.362 0.586-0.862 0.586-1.414s-0.224-1.052-0.586-1.414l-14-14c-0.362-0.362-0.862-0.586-1.414-0.586h-9.172zM14 9c0 1.657-1.343 3-3 3s-3-1.343-3-3v0c0-1.657 1.343-3 3-3s3 1.343 3 3v0z"></path>
<path d="M2 14.172c0 0.552 0.224 1.052 0.586 1.414l14.914 14.914-0.086 0.086c-0.362 0.362-0.862 0.586-1.414 0.586s-1.052-0.224-1.414-0.586l-14-14c-0.362-0.362-0.586-0.862-0.586-1.414v-9.172c0-1.105 0.895-2 2-2v0 10.172z"></path>
</svg>
