<!-- Generated by IcoMoon.io -->
<svg version="1.1" xmlns="http://www.w3.org/2000/svg" width="32" height="32" viewBox="0 0 32 32">
<title>type-h3</title>
<path d="M15.274 26v-18.662h-2.516v7.902h-9.242v-7.9h-2.516v18.66h2.516v-8.544h9.24v8.544h2.518zM22.524 17.456h2.036c2.284 0 3.87 1.34 3.898 3.348 0.026 2.010-1.56 3.474-4.020 3.46-2.16-0.014-3.706-1.176-3.87-2.64h-2.352c0.138 2.654 2.448 4.772 6.166 4.772 3.87 0 6.686-2.31 6.618-5.578-0.054-3.020-2.502-4.32-4.074-4.498v-0.136c1.408-0.246 3.528-1.82 3.446-4.458-0.070-2.706-2.352-4.8-5.908-4.77-3.746 0.012-5.714 2.324-5.796 4.716h2.392c0.124-1.38 1.422-2.598 3.392-2.598 1.996 0 3.39 1.244 3.39 3.050 0.014 1.844-1.436 3.184-3.39 3.184h-1.928v2.148z"></path>
</svg>
