<!-- Generated by IcoMoon.io -->
<svg version="1.1" xmlns="http://www.w3.org/2000/svg" width="32" height="32" viewBox="0 0 32 32">
<title>type-strikethrough</title>
<path d="M17.054 26.328c-4.306 0-7.178-2.214-7.41-5.62h2.46c0.288 2.12 2.258 3.406 5.088 3.406 2.68 0 4.62-1.41 4.62-3.35 0-1.654-1.094-2.748-3.828-3.35l-1.892-0.414h6.9c0.936 0.874 1.35 1.988 1.35 3.394 0 3.652-2.872 5.934-7.288 5.934zM13.204 13h-2.87c-0.126-0.441-0.198-0.947-0.198-1.47 0-0.017 0-0.035 0-0.052l-0 0.003c0-3.254 2.872-5.536 6.96-5.536 3.938 0 6.78 2.35 6.89 5.7h-2.46c-0.22-2.16-1.928-3.486-4.5-3.486-2.46 0-4.36 1.204-4.36 3.214 0 0.62 0.166 1.162 0.54 1.628z"></path>
<path d="M30 17h-28v-2h28v2z"></path>
</svg>
