<!-- Generated by IcoMoon.io -->
<svg version="1.1" xmlns="http://www.w3.org/2000/svg" width="32" height="32" viewBox="0 0 32 32">
<title>ui-checks</title>
<path d="M14 5c0-0.552 0.448-1 1-1v0h14c0.552 0 1 0.448 1 1v0 2c0 0.552-0.448 1-1 1v0h-14c-0.552 0-1-0.448-1-1v0-2z"></path>
<path d="M4 2c-2.209 0-4 1.791-4 4v0 4c0 2.209 1.791 4 4 4v0h4c2.209 0 4-1.791 4-4v0-4c0-2.209-1.791-4-4-4v0h-4zM4 18c-2.209 0-4 1.791-4 4v0 4c0 2.209 1.791 4 4 4v0h4c2.209 0 4-1.791 4-4v0-4c0-2.209-1.791-4-4-4v0h-4zM5.708 10.708l4-4c0.181-0.181 0.293-0.431 0.293-0.708 0-0.553-0.448-1.001-1.001-1.001-0.277 0-0.527 0.112-0.708 0.293v0l-3.292 3.294-1.292-1.294c-0.181-0.181-0.431-0.293-0.708-0.293-0.553 0-1.001 0.448-1.001 1.001 0 0.276 0.112 0.527 0.293 0.708l2 2c0.181 0.181 0.431 0.294 0.708 0.294s0.527-0.112 0.708-0.294l0-0zM5.708 26.708l4-4c0.181-0.181 0.293-0.431 0.293-0.708 0-0.553-0.448-1.001-1.001-1.001-0.277 0-0.527 0.112-0.708 0.293v0l-3.292 3.294-1.292-1.294c-0.181-0.181-0.431-0.293-0.708-0.293-0.553 0-1.001 0.448-1.001 1.001 0 0.276 0.112 0.527 0.293 0.708l2 2c0.181 0.181 0.431 0.294 0.708 0.294s0.527-0.112 0.708-0.294l0-0z"></path>
<path d="M14 21c0-0.552 0.448-1 1-1v0h14c0.552 0 1 0.448 1 1v0 2c0 0.552-0.448 1-1 1v0h-14c-0.552 0-1-0.448-1-1v0-2z"></path>
<path d="M14 11c0-0.552 0.448-1 1-1v0h10c0.552 0 1 0.448 1 1s-0.448 1-1 1v0h-10c-0.552 0-1-0.448-1-1v0zM14 27c0-0.552 0.448-1 1-1v0h10c0.552 0 1 0.448 1 1s-0.448 1-1 1v0h-10c-0.552 0-1-0.448-1-1v0z"></path>
</svg>
