<!-- Generated by IcoMoon.io -->
<svg version="1.1" xmlns="http://www.w3.org/2000/svg" width="32" height="32" viewBox="0 0 32 32">
<title>volume-mute</title>
<path d="M13.434 7.1c0.337 0.165 0.566 0.506 0.566 0.9v16c-0.001 0.552-0.448 0.999-1 0.999-0.237 0-0.455-0.082-0.626-0.22l0.002 0.002-4.726-3.78h-4.65c-0.552 0-1-0.448-1-1v0-8c0-0.552 0.448-1 1-1v0h4.65l4.726-3.78c0.169-0.136 0.387-0.219 0.624-0.219 0.158 0 0.307 0.037 0.44 0.101l-0.006-0.003zM12 10.080l-3.376 2.7c-0.169 0.137-0.387 0.22-0.624 0.22h-4v6h4c0.237 0 0.455 0.083 0.626 0.221l-0.002-0.002 3.376 2.7v-11.84zM27.708 11.292c0.181 0.181 0.294 0.431 0.294 0.708s-0.112 0.527-0.294 0.708l-8 8c-0.181 0.181-0.431 0.293-0.708 0.293-0.553 0-1.001-0.448-1.001-1.001 0-0.276 0.112-0.527 0.293-0.708v0l8-8c0.181-0.181 0.431-0.294 0.708-0.294s0.527 0.112 0.708 0.294l0 0z"></path>
<path d="M18.292 11.292c-0.181 0.181-0.294 0.431-0.294 0.708s0.112 0.527 0.294 0.708l8 8c0.181 0.181 0.431 0.293 0.708 0.293 0.553 0 1.001-0.448 1.001-1.001 0-0.276-0.112-0.527-0.293-0.708v0l-8-8c-0.181-0.181-0.431-0.294-0.708-0.294s-0.527 0.112-0.708 0.294l-0 0z"></path>
</svg>
