<!-- Generated by IcoMoon.io -->
<svg version="1.1" xmlns="http://www.w3.org/2000/svg" width="32" height="32" viewBox="0 0 32 32">
<title>wifi-off</title>
<path d="M21.412 6.588c-1.623-0.374-3.486-0.588-5.4-0.588-0.004 0-0.008 0-0.013 0h0.001c-0.012-0-0.027-0-0.041-0-5.5 0-10.583 1.785-14.702 4.807l0.070-0.049c-0.237 0.179-0.389 0.46-0.389 0.777 0 0.272 0.112 0.519 0.293 0.695l0 0c0.187 0.184 0.444 0.298 0.727 0.298 0.229 0 0.44-0.074 0.612-0.2l-0.003 0.002c3.713-2.706 8.367-4.33 13.399-4.33 0.012 0 0.025 0 0.037 0h-0.002c1.26 0 2.498 0.1 3.704 0.296l1.708-1.708zM16 12c-3.81 0-7.36 1.12-10.332 3.052-0.257 0.175-0.423 0.466-0.423 0.796 0 0.273 0.114 0.519 0.297 0.694l0 0c0.189 0.185 0.448 0.299 0.733 0.299 0.212 0 0.41-0.063 0.575-0.171l-0.004 0.002c2.001-1.3 4.379-2.202 6.936-2.531l0.084-0.009 2.134-2.132zM21.192 14.808l1.57-1.57c1.26 0.48 2.456 1.090 3.57 1.814 0.255 0.176 0.421 0.467 0.421 0.796 0 0.272-0.113 0.518-0.294 0.693l-0 0c-0.189 0.185-0.448 0.299-0.733 0.299-0.212 0-0.41-0.063-0.575-0.171l0.004 0.002c-1.139-0.741-2.45-1.373-3.84-1.83l-0.12-0.034zM16 20l1.868-1.866c1.502 0.22 2.858 0.667 4.096 1.308l-0.072-0.034c0.57 0.29 0.652 1.048 0.2 1.5l-0.030 0.030c-0.191 0.184-0.451 0.297-0.737 0.297-0.177 0-0.344-0.043-0.491-0.12l0.006 0.003c-1.407-0.705-3.066-1.118-4.822-1.118-0.006 0-0.013 0-0.019 0h0.001zM25.81 10.19l1.494-1.494c1.18 0.6 2.306 1.29 3.37 2.060 0.238 0.179 0.39 0.461 0.39 0.778 0 0.273-0.113 0.52-0.294 0.696l-0 0c-0.187 0.184-0.444 0.298-0.727 0.298-0.229 0-0.44-0.074-0.612-0.2l0.003 0.002c-1.047-0.765-2.235-1.477-3.486-2.080l-0.138-0.060zM18.040 23.56c0.476 0.28 0.472 0.928 0.080 1.32l-1.412 1.412c-0.181 0.181-0.431 0.294-0.708 0.294s-0.527-0.112-0.708-0.294l-1.414-1.414c-0.39-0.39-0.394-1.036 0.080-1.32 0.581-0.351 1.282-0.558 2.032-0.558 0.003 0 0.007 0 0.010 0h-0.001c0.746 0 1.444 0.204 2.040 0.56zM26.75 3.75c0.192-0.192 0.457-0.311 0.75-0.311 0.586 0 1.061 0.475 1.061 1.061 0 0.293-0.119 0.558-0.311 0.75l-21.5 21.5c-0.192 0.192-0.457 0.311-0.75 0.311-0.586 0-1.061-0.475-1.061-1.061 0-0.293 0.119-0.558 0.311-0.75l21.5-21.5z"></path>
</svg>
