<!-- Generated by IcoMoon.io -->
<svg version="1.1" xmlns="http://www.w3.org/2000/svg" width="32" height="32" viewBox="0 0 32 32">
<title>wrench</title>
<path d="M0.204 4.446c-0.128 0.463-0.202 0.995-0.202 1.543 0 3.318 2.69 6.008 6.008 6.008 0.551 0 1.085-0.074 1.592-0.213l-0.042 0.010 12.682 12.504c-0.155 0.508-0.244 1.091-0.244 1.696 0 3.316 2.687 6.004 6.002 6.006h0c3.31-0.005 5.992-2.689 5.992-6 0-3.314-2.686-6-6-6-0.604 0-1.187 0.089-1.736 0.255l0.043-0.011-12.504-12.682c0.13-0.467 0.205-1.003 0.205-1.556 0-3.318-2.69-6.008-6.008-6.008-0.549 0-1.082 0.074-1.587 0.212l0.042-0.010 4.282 4.284-0.728 3.516-3.514 0.728-4.282-4.282zM26.944 22.484l-0.944-0.484-0.942 0.484-1.058 0.052-0.574 0.89-0.89 0.574-0.052 1.058-0.484 0.942 0.484 0.942 0.052 1.058 0.89 0.574 0.574 0.89 1.058 0.052 0.942 0.484 0.942-0.484 1.058-0.052 0.574-0.89 0.89-0.574 0.052-1.058 0.484-0.942-0.484-0.942-0.052-1.058-0.89-0.574-0.574-0.89-1.058-0.052z"></path>
</svg>
