<!-- Generated by IcoMoon.io -->
<svg version="1.1" xmlns="http://www.w3.org/2000/svg" width="32" height="32" viewBox="0 0 32 32">
<title>x-diamond</title>
<path d="M16.722 2.34c-0.185-0.185-0.44-0.3-0.722-0.3s-0.537 0.114-0.722 0.3l-5.746 5.748 6.468 6.468 6.468-6.468-5.746-5.748zM23.912 9.532l-6.468 6.468 6.468 6.468 5.746-5.746c0.4-0.4 0.4-1.046 0-1.444l-5.746-5.746zM22.468 23.912l-6.468-6.468-6.468 6.468 5.746 5.746c0.4 0.4 1.046 0.4 1.444 0l5.746-5.746zM8.088 22.468l6.468-6.468-6.468-6.468-5.748 5.746c-0.185 0.185-0.299 0.44-0.299 0.722s0.114 0.537 0.299 0.722v0l5.748 5.746zM13.834 0.9c0.554-0.555 1.32-0.898 2.166-0.898s1.612 0.343 2.166 0.898l12.938 12.936c0.554 0.554 0.897 1.32 0.897 2.166s-0.343 1.612-0.897 2.166l-12.94 12.938c-0.554 0.554-1.32 0.896-2.165 0.896s-1.611-0.342-2.165-0.896l-12.934-12.942c-0.554-0.554-0.897-1.32-0.897-2.165s0.343-1.611 0.897-2.165l12.934-12.934z"></path>
</svg>
