<!-- Generated by IcoMoon.io -->
<svg version="1.1" xmlns="http://www.w3.org/2000/svg" width="32" height="32" viewBox="0 0 32 32">
<title>x-square-fill</title>
<path d="M4 0h24c2.209 0 4 1.791 4 4v24c0 2.209-1.791 4-4 4h-24c-2.209 0-4-1.791-4-4v-24c0-2.209 1.791-4 4-4zM23.708 9.708c0.181-0.181 0.293-0.431 0.293-0.708 0-0.553-0.448-1.001-1.001-1.001-0.276 0-0.527 0.112-0.708 0.293v0l-6.292 6.294-6.292-6.294c-0.181-0.181-0.431-0.293-0.708-0.293-0.553 0-1.001 0.448-1.001 1.001 0 0.277 0.112 0.527 0.293 0.708v0l6.294 6.292-6.294 6.292c-0.181 0.181-0.293 0.431-0.293 0.708 0 0.553 0.448 1.001 1.001 1.001 0.277 0 0.527-0.112 0.708-0.293v0l6.292-6.294 6.292 6.294c0.181 0.181 0.431 0.293 0.708 0.293 0.553 0 1.001-0.448 1.001-1.001 0-0.276-0.112-0.527-0.293-0.708v0l-6.294-6.292 6.294-6.292z"></path>
</svg>
