<!-- Generated by IcoMoon.io -->
<svg version="1.1" xmlns="http://www.w3.org/2000/svg" width="32" height="32" viewBox="0 0 32 32">
<title>alarm-fill</title>
<path d="M11 1c0-0.552 0.448-1 1-1v0h8c0.552 0 1 0.448 1 1s-0.448 1-1 1v0h-2v2.14c6.823 1.016 11.997 6.833 11.997 13.859 0 4.26-1.902 8.076-4.904 10.645l-0.019 0.016 1.634 1.632c0.181 0.181 0.293 0.431 0.293 0.708 0 0.553-0.448 1.001-1.001 1.001-0.276 0-0.527-0.112-0.708-0.293v0l-1.848-1.85c-2.105 1.344-4.671 2.142-7.423 2.142-0.007 0-0.015 0-0.022-0h0.001c-0.007 0-0.015 0-0.024 0-2.751 0-5.316-0.797-7.476-2.174l0.056 0.034-1.848 1.848c-0.181 0.181-0.431 0.293-0.708 0.293-0.553 0-1.001-0.448-1.001-1.001 0-0.276 0.112-0.527 0.293-0.708v0l1.634-1.632c-3.021-2.584-4.923-6.4-4.923-10.661 0-7.026 5.174-12.844 11.92-13.85l0.077-0.009v-2.14h-2.002c-0.552 0-1-0.448-1-1v0zM1.72 10.774c-1.055-0.922-1.718-2.27-1.718-3.772 0-2.761 2.239-5 5-5 1.503 0 2.851 0.663 3.767 1.713l0.005 0.006c-3.054 1.573-5.481 4-7.012 6.964l-0.042 0.090zM27 2c-1.506 0-2.858 0.666-3.774 1.72 3.054 1.573 5.481 4 7.012 6.964l0.042 0.090c1.056-0.922 1.72-2.27 1.72-3.774 0-2.761-2.239-5-5-5-0 0-0 0-0 0v0zM17 10c0-0.552-0.448-1-1-1s-1 0.448-1 1v0 7.764l-2.894 5.788c-0.069 0.132-0.109 0.289-0.109 0.455 0 0.552 0.448 1 1 1 0.392 0 0.731-0.225 0.895-0.553l0.003-0.006 3-6c0.067-0.131 0.106-0.285 0.106-0.448v0-8z"></path>
</svg>
