<!-- Generated by IcoMoon.io -->
<svg version="1.1" xmlns="http://www.w3.org/2000/svg" width="32" height="32" viewBox="0 0 32 32">
<title>arrows-collapse</title>
<path d="M4 16c0-0.552 0.448-1 1-1v0h22c0.552 0 1 0.448 1 1s-0.448 1-1 1v0h-22c-0.552 0-1-0.448-1-1v0zM16 2c0.552 0 1 0.448 1 1v0 9c0 0.552-0.448 1-1 1s-1-0.448-1-1v0-9c0-0.552 0.448-1 1-1v0z"></path>
<path d="M20.708 7.292c0.181 0.181 0.294 0.431 0.294 0.708s-0.112 0.527-0.294 0.708l-4 4c-0.181 0.181-0.431 0.294-0.708 0.294s-0.527-0.112-0.708-0.294l-4-4c-0.181-0.181-0.293-0.431-0.293-0.708 0-0.553 0.448-1.001 1.001-1.001 0.277 0 0.527 0.112 0.708 0.293v0l3.292 3.294 3.292-3.294c0.181-0.181 0.431-0.294 0.708-0.294s0.527 0.112 0.708 0.294l0 0zM16 30c0.552 0 1-0.448 1-1v0-9c0-0.552-0.448-1-1-1s-1 0.448-1 1v0 9c0 0.552 0.448 1 1 1v0z"></path>
<path d="M20.708 24.708c0.181-0.181 0.294-0.431 0.294-0.708s-0.112-0.527-0.294-0.708l-4-4c-0.181-0.181-0.431-0.294-0.708-0.294s-0.527 0.112-0.708 0.294l-4 4c-0.181 0.181-0.293 0.431-0.293 0.708 0 0.553 0.448 1.001 1.001 1.001 0.277 0 0.527-0.112 0.708-0.293v0l3.292-3.294 3.292 3.294c0.181 0.181 0.431 0.294 0.708 0.294s0.527-0.112 0.708-0.294l0-0z"></path>
</svg>
