<!-- Generated by IcoMoon.io -->
<svg version="1.1" xmlns="http://www.w3.org/2000/svg" width="32" height="32" viewBox="0 0 32 32">
<title>arrow-90deg-up</title>
<path d="M5.292 13.708c0.181 0.181 0.431 0.294 0.708 0.294s0.527-0.112 0.708-0.294l5.292-5.294 5.292 5.294c0.181 0.181 0.431 0.293 0.708 0.293 0.553 0 1.001-0.448 1.001-1.001 0-0.277-0.112-0.527-0.293-0.708v0l-6-6c-0.181-0.181-0.431-0.294-0.708-0.294s-0.527 0.112-0.708 0.294l-6 6c-0.181 0.181-0.294 0.431-0.294 0.708s0.112 0.527 0.294 0.708l0 0z"></path>
<path d="M12 7c-0.552 0-1 0.448-1 1v0 13c0 2.761 2.239 5 5 5v0h11c0.552 0 1-0.448 1-1s-0.448-1-1-1v0h-11c-1.657 0-3-1.343-3-3v0-13c0-0.552-0.448-1-1-1v0z"></path>
</svg>
