<!-- Generated by IcoMoon.io -->
<svg version="1.1" xmlns="http://www.w3.org/2000/svg" width="32" height="32" viewBox="0 0 32 32">
<title>arrow-up-left-circle-fill</title>
<path d="M32 16c0 8.837-7.163 16-16 16s-16-7.163-16-16v0c0-8.837 7.163-16 16-16s16 7.163 16 16v0zM19 10h-8c-0.552 0-1 0.448-1 1v0 8c0 0.552 0.448 1 1 1s1-0.448 1-1v0-5.586l8.292 8.294c0.181 0.181 0.431 0.293 0.708 0.293 0.553 0 1.001-0.448 1.001-1.001 0-0.276-0.112-0.527-0.293-0.708v0l-8.294-8.292h5.586c0.552 0 1-0.448 1-1s-0.448-1-1-1v0z"></path>
</svg>
