<!-- Generated by IcoMoon.io -->
<svg version="1.1" xmlns="http://www.w3.org/2000/svg" width="32" height="32" viewBox="0 0 32 32">
<title>arrow-left-circle</title>
<path d="M16 30v0c-7.732 0-14-6.268-14-14s6.268-14 14-14v0c7.732 0 14 6.268 14 14s-6.268 14-14 14zM16 32c8.837 0 16-7.163 16-16s-7.163-16-16-16v0c-8.837 0-16 7.163-16 16s7.163 16 16 16v0z"></path>
<path d="M16.708 22.708c0.181-0.181 0.294-0.431 0.294-0.708s-0.112-0.527-0.294-0.708l-5.294-5.292 5.294-5.292c0.181-0.181 0.293-0.431 0.293-0.708 0-0.553-0.448-1.001-1.001-1.001-0.277 0-0.527 0.112-0.708 0.293v0l-6 6c-0.181 0.181-0.294 0.431-0.294 0.708s0.112 0.527 0.294 0.708l6 6c0.181 0.181 0.431 0.294 0.708 0.294s0.527-0.112 0.708-0.294l0-0z"></path>
<path d="M23 16c0-0.552-0.448-1-1-1v0h-10c-0.552 0-1 0.448-1 1s0.448 1 1 1v0h10c0.552 0 1-0.448 1-1v0z"></path>
</svg>
