<!-- Generated by IcoMoon.io -->
<svg version="1.1" xmlns="http://www.w3.org/2000/svg" width="32" height="32" viewBox="0 0 32 32">
<title>arrow-bar-right</title>
<path d="M20.292 9.292c0.181-0.181 0.431-0.294 0.708-0.294s0.527 0.112 0.708 0.294l6 6c0.181 0.181 0.294 0.431 0.294 0.708s-0.112 0.527-0.294 0.708l-6 6c-0.181 0.181-0.431 0.293-0.708 0.293-0.553 0-1.001-0.448-1.001-1.001 0-0.276 0.112-0.527 0.293-0.708v0l5.294-5.292-5.294-5.292c-0.181-0.181-0.294-0.431-0.294-0.708s0.112-0.527 0.294-0.708l0-0z"></path>
<path d="M12 16c0-0.552 0.448-1 1-1v0h13c0.552 0 1 0.448 1 1s-0.448 1-1 1v0h-13c-0.552 0-1-0.448-1-1v0zM7 28c-0.552 0-1-0.448-1-1v0-22c0-0.552 0.448-1 1-1s1 0.448 1 1v0 22c0 0.552-0.448 1-1 1v0z"></path>
</svg>
