<!-- Generated by IcoMoon.io -->
<svg version="1.1" xmlns="http://www.w3.org/2000/svg" width="32" height="32" viewBox="0 0 32 32">
<title>arrow-right-square-fill</title>
<path d="M4 0h24c2.209 0 4 1.791 4 4v24c0 2.209-1.791 4-4 4h-24c-2.209 0-4-1.791-4-4v-24c0-2.209 1.791-4 4-4zM15.292 21.292c-0.181 0.181-0.293 0.431-0.293 0.708 0 0.553 0.448 1.001 1.001 1.001 0.276 0 0.527-0.112 0.708-0.293l6-6c0.181-0.181 0.294-0.431 0.294-0.708s-0.112-0.527-0.294-0.708l-6-6c-0.181-0.181-0.431-0.293-0.708-0.293-0.553 0-1.001 0.448-1.001 1.001 0 0.277 0.112 0.527 0.293 0.708v0l4.294 4.292h-9.586c-0.552 0-1 0.448-1 1s0.448 1 1 1v0h9.586l-4.294 4.292z"></path>
</svg>
