<!-- Generated by IcoMoon.io -->
<svg version="1.1" xmlns="http://www.w3.org/2000/svg" width="32" height="32" viewBox="0 0 32 32">
<title>arrows-move</title>
<path d="M13 16c0-0.552-0.448-1-1-1v0h-9c-0.552 0-1 0.448-1 1s0.448 1 1 1v0h9c0.552 0 1-0.448 1-1v0z"></path>
<path d="M7.708 11.292c-0.181-0.181-0.431-0.294-0.708-0.294s-0.527 0.112-0.708 0.294l-4 4c-0.181 0.181-0.294 0.431-0.294 0.708s0.112 0.527 0.294 0.708l4 4c0.181 0.181 0.431 0.293 0.708 0.293 0.553 0 1.001-0.448 1.001-1.001 0-0.276-0.112-0.527-0.293-0.708v0l-3.294-3.292 3.294-3.292c0.181-0.181 0.294-0.431 0.294-0.708s-0.112-0.527-0.294-0.708l-0-0zM19 16c0-0.552 0.448-1 1-1v0h9c0.552 0 1 0.448 1 1s-0.448 1-1 1v0h-9c-0.552 0-1-0.448-1-1v0z"></path>
<path d="M24.292 11.292c0.181-0.181 0.431-0.294 0.708-0.294s0.527 0.112 0.708 0.294l4 4c0.181 0.181 0.294 0.431 0.294 0.708s-0.112 0.527-0.294 0.708l-4 4c-0.181 0.181-0.431 0.293-0.708 0.293-0.553 0-1.001-0.448-1.001-1.001 0-0.276 0.112-0.527 0.293-0.708v0l3.294-3.292-3.294-3.292c-0.181-0.181-0.294-0.431-0.294-0.708s0.112-0.527 0.294-0.708l0-0zM16 19c-0.552 0-1 0.448-1 1v0 9c0 0.552 0.448 1 1 1s1-0.448 1-1v0-9c0-0.552-0.448-1-1-1v0z"></path>
<path d="M11.292 24.292c-0.181 0.181-0.294 0.431-0.294 0.708s0.112 0.527 0.294 0.708l4 4c0.181 0.181 0.431 0.294 0.708 0.294s0.527-0.112 0.708-0.294l4-4c0.181-0.181 0.293-0.431 0.293-0.708 0-0.553-0.448-1.001-1.001-1.001-0.276 0-0.527 0.112-0.708 0.293v0l-3.292 3.294-3.292-3.294c-0.181-0.181-0.431-0.294-0.708-0.294s-0.527 0.112-0.708 0.294l-0 0zM16 13c-0.552 0-1-0.448-1-1v0-9c0-0.552 0.448-1 1-1s1 0.448 1 1v0 9c0 0.552-0.448 1-1 1v0z"></path>
<path d="M11.292 7.708c-0.181-0.181-0.294-0.431-0.294-0.708s0.112-0.527 0.294-0.708l4-4c0.181-0.181 0.431-0.294 0.708-0.294s0.527 0.112 0.708 0.294l4 4c0.181 0.181 0.293 0.431 0.293 0.708 0 0.553-0.448 1.001-1.001 1.001-0.276 0-0.527-0.112-0.708-0.293v0l-3.292-3.294-3.292 3.294c-0.181 0.181-0.431 0.294-0.708 0.294s-0.527-0.112-0.708-0.294l-0-0z"></path>
</svg>
