<!-- Generated by IcoMoon.io -->
<svg version="1.1" xmlns="http://www.w3.org/2000/svg" width="32" height="32" viewBox="0 0 32 32">
<title>backspace-reverse</title>
<path d="M18.16 4h0c0.606 0.001 1.149 0.271 1.518 0.7l9.686 11.3-9.686 11.303c-0.367 0.427-0.911 0.697-1.518 0.697-0 0-0 0-0 0h-14.16c-1.105 0-2-0.895-2-2v-20c0-1.105 0.895-2 2-2h14.16zM4 2c-2.209 0-4 1.791-4 4v0 20c0 2.209 1.791 4 4 4v0h14.16c0 0 0.001 0 0.002 0 1.212 0 2.298-0.539 3.032-1.391l0.004-0.005 9.686-11.302c0.299-0.348 0.482-0.803 0.482-1.302s-0.182-0.954-0.484-1.305l0.002 0.003-9.684-11.298c-0.738-0.859-1.826-1.4-3.040-1.4-0 0-0 0-0 0h-14.16z"></path>
<path d="M19.708 10.292c0.181 0.181 0.294 0.431 0.294 0.708s-0.112 0.527-0.294 0.708l-10 10c-0.181 0.181-0.431 0.293-0.708 0.293-0.553 0-1.001-0.448-1.001-1.001 0-0.276 0.112-0.527 0.293-0.708v0l10-10c0.181-0.181 0.431-0.294 0.708-0.294s0.527 0.112 0.708 0.294l0 0z"></path>
<path d="M8.292 10.292c-0.181 0.181-0.294 0.431-0.294 0.708s0.112 0.527 0.294 0.708l10 10c0.181 0.181 0.431 0.293 0.708 0.293 0.553 0 1.001-0.448 1.001-1.001 0-0.276-0.112-0.527-0.293-0.708v0l-10-10c-0.181-0.181-0.431-0.294-0.708-0.294s-0.527 0.112-0.708 0.294l-0 0z"></path>
</svg>
