<!-- Generated by IcoMoon.io -->
<svg version="1.1" xmlns="http://www.w3.org/2000/svg" width="32" height="32" viewBox="0 0 32 32">
<title>bar-chart</title>
<path d="M8 22h-4v6h4v-6zM18 14h-4v14h4v-14zM28 4v24h-4v-24h4zM24 2c-1.105 0-2 0.895-2 2v0 24c0 1.105 0.895 2 2 2v0h4c1.105 0 2-0.895 2-2v0-24c0-1.105-0.895-2-2-2v0h-4zM12 14c0-1.105 0.895-2 2-2v0h4c1.105 0 2 0.895 2 2v0 14c0 1.105-0.895 2-2 2v0h-4c-1.105 0-2-0.895-2-2v0-14zM2 22c0-1.105 0.895-2 2-2v0h4c1.105 0 2 0.895 2 2v0 6c0 1.105-0.895 2-2 2v0h-4c-1.105 0-2-0.895-2-2v0-6z"></path>
</svg>
