<!-- Generated by IcoMoon.io -->
<svg version="1.1" xmlns="http://www.w3.org/2000/svg" width="32" height="32" viewBox="0 0 32 32">
<title>bar-chart-steps</title>
<path d="M1 0c0.552 0 1 0.448 1 1v0 30c0 0.552-0.448 1-1 1s-1-0.448-1-1v0-30c0-0.552 0.448-1 1-1v0z"></path>
<path d="M5 2h8c0.552 0 1 0.448 1 1v2c0 0.552-0.448 1-1 1h-8c-0.552 0-1-0.448-1-1v-2c0-0.552 0.448-1 1-1z"></path>
<path d="M9 10h14c0.552 0 1 0.448 1 1v2c0 0.552-0.448 1-1 1h-14c-0.552 0-1-0.448-1-1v-2c0-0.552 0.448-1 1-1z"></path>
<path d="M12 19c0-0.552 0.448-1 1-1v0h12c0.552 0 1 0.448 1 1v0 2c0 0.552-0.448 1-1 1v0h-12c-0.552 0-1-0.448-1-1v0-2zM16 27c0-0.552 0.448-1 1-1v0h14c0.552 0 1 0.448 1 1v0 2c0 0.552-0.448 1-1 1v0h-14c-0.552 0-1-0.448-1-1v0-2z"></path>
</svg>
