<!-- Generated by IcoMoon.io -->
<svg version="1.1" xmlns="http://www.w3.org/2000/svg" width="32" height="32" viewBox="0 0 32 32">
<title>bar-chart-line-fill</title>
<path d="M4 20h4c1.105 0 2 0.895 2 2v6c0 1.105-0.895 2-2 2h-4c-1.105 0-2-0.895-2-2v-6c0-1.105 0.895-2 2-2z"></path>
<path d="M14 12h4c1.105 0 2 0.895 2 2v14c0 1.105-0.895 2-2 2h-4c-1.105 0-2-0.895-2-2v-14c0-1.105 0.895-2 2-2z"></path>
<path d="M24 2h4c1.105 0 2 0.895 2 2v24c0 1.105-0.895 2-2 2h-4c-1.105 0-2-0.895-2-2v-24c0-1.105 0.895-2 2-2z"></path>
<path d="M0 29c0-0.552 0.448-1 1-1v0h30c0.552 0 1 0.448 1 1s-0.448 1-1 1v0h-30c-0.552 0-1-0.448-1-1v0z"></path>
</svg>
