<!-- Generated by IcoMoon.io -->
<svg version="1.1" xmlns="http://www.w3.org/2000/svg" width="32" height="32" viewBox="0 0 32 32">
<title>basket3</title>
<path d="M20.486 2.142c0.147-0.089 0.324-0.142 0.514-0.142 0.363 0 0.68 0.193 0.855 0.482l0.003 0.004 6 10c0.089 0.147 0.142 0.324 0.142 0.514 0 0.552-0.448 1-1 1-0.363 0-0.68-0.193-0.855-0.482l-0.003-0.004-6-10c-0.089-0.147-0.142-0.324-0.142-0.514 0-0.363 0.193-0.68 0.482-0.855l0.004-0.002zM11.514 2.142c-0.147-0.089-0.324-0.142-0.514-0.142-0.363 0-0.68 0.193-0.855 0.482l-0.002 0.004-6 10c-0.089 0.147-0.142 0.324-0.142 0.514 0 0.552 0.448 1 1 1 0.363 0 0.68-0.193 0.856-0.482l0.003-0.004 6-10c0.089-0.147 0.142-0.324 0.142-0.514 0-0.363-0.193-0.68-0.482-0.855l-0.004-0.002z"></path>
<path d="M0 13c0-0.552 0.448-1 1-1v0h30c0.552 0 1 0.448 1 1v0 2c0 0.552-0.448 1-1 1v0h-30c-0.552 0-1-0.448-1-1v0-2zM1.62 18c0 0.070 0.008 0.14 0.022 0.21l2.402 11.208c0.2 0.911 0.999 1.582 1.956 1.582 0 0 0 0 0 0h20c0 0 0 0 0.001 0 0.956 0 1.755-0.67 1.953-1.567l0.002-0.013 2.4-11.21c0.015-0.063 0.023-0.135 0.024-0.21v-0h-2.022l-2.358 11h-20l-2.358-11h-2.022z"></path>
</svg>
