<!-- Generated by IcoMoon.io -->
<svg version="1.1" xmlns="http://www.w3.org/2000/svg" width="32" height="32" viewBox="0 0 32 32">
<title>binoculars</title>
<path d="M6 5c0-1.657 1.343-3 3-3v0h2c1.657 0 3 1.343 3 3v0 5h4v-5c0-1.657 1.343-3 3-3v0h2c1.657 0 3 1.343 3 3v0 4.764c0 0.389 0.222 0.726 0.546 0.891l0.006 0.003 1.79 0.894c0.991 0.504 1.658 1.515 1.658 2.683 0 0 0 0.001 0 0.001v-0 14.764c0 1.657-1.343 3-3 3v0h-6c-1.657 0-3-1.343-3-3v0-6c0-0.001 0-0.001 0-0.002 0-0.276 0.112-0.525 0.292-0.706l-0 0 1.708-1.706v-1.586c0-0.552-0.448-1-1-1v0h-6c-0.552 0-1 0.448-1 1v0 1.586l1.708 1.706c0.18 0.181 0.292 0.43 0.292 0.706 0 0.001 0 0.001 0 0.002v-0 6c0 1.657-1.343 3-3 3v0h-6c-1.657 0-3-1.343-3-3v0-14.764c0-1.168 0.668-2.181 1.643-2.676l0.017-0.008 1.788-0.894c0.33-0.168 0.552-0.505 0.552-0.894v0-4.764zM9 4c-0.552 0-1 0.448-1 1v0 1h4v-1c0-0.552-0.448-1-1-1v0h-2zM12 8h-4v1.764c-0 1.168-0.668 2.181-1.643 2.676l-0.017 0.008-1.788 0.894c-0.33 0.168-0.552 0.505-0.552 0.894v0 11.764h8v-2.586l-1.708-1.706c-0.18-0.181-0.292-0.43-0.292-0.706 0-0.001 0-0.001 0-0.002v0-2c0-1.657 1.343-3 3-3v0h6c1.657 0 3 1.343 3 3v0 2c0 0.001 0 0.001 0 0.002 0 0.276-0.112 0.525-0.292 0.706l0-0-1.708 1.706v2.586h8v-11.764c0-0.389-0.222-0.726-0.546-0.891l-0.006-0.003-1.79-0.894c-0.991-0.504-1.658-1.515-1.658-2.683 0-0 0-0.001 0-0.001v0-1.764h-4v3c0 0.552-0.448 1-1 1v0h-6c-0.552 0-1-0.448-1-1v0-3zM20 6h4v-1c0-0.552-0.448-1-1-1v0h-2c-0.552 0-1 0.448-1 1v0 1zM28 28h-8v1c0 0.552 0.448 1 1 1v0h6c0.552 0 1-0.448 1-1v0-1zM12 28h-8v1c0 0.552 0.448 1 1 1v0h6c0.552 0 1-0.448 1-1v0-1z"></path>
</svg>
