<!-- Generated by IcoMoon.io -->
<svg version="1.1" xmlns="http://www.w3.org/2000/svg" width="32" height="32" viewBox="0 0 32 32">
<title>bootstrap-reboot</title>
<path d="M2.322 16c0 7.555 6.125 13.68 13.68 13.68s13.68-6.125 13.68-13.68c0-7.554-6.122-13.678-13.676-13.68h-0c-0.641 0-1.16-0.519-1.16-1.16s0.519-1.16 1.16-1.16v0c8.835 0.003 15.995 7.165 15.995 16 0 8.837-7.163 16-16 16s-16-7.163-16-16c0-3.436 1.083-6.619 2.926-9.226l-0.034 0.050-1.326-1.154c-0.245-0.214-0.399-0.527-0.399-0.875 0-0.531 0.357-0.979 0.845-1.117l0.008-0.002 5.040-1.38c0.092-0.026 0.197-0.041 0.305-0.041 0.641 0 1.16 0.519 1.16 1.16 0 0.052-0.003 0.103-0.010 0.153l0.001-0.006-0.664 5.184c-0.076 0.574-0.562 1.013-1.151 1.013-0.292 0-0.559-0.108-0.763-0.286l0.001 0.001-1.286-1.12c-1.463 2.139-2.336 4.782-2.336 7.629 0 0.006 0 0.012 0 0.018v-0.001zM13.282 15.842v-5.288h3.14c1.762 0 2.832 0.998 2.832 2.64 0 1.68-1.008 2.648-2.772 2.648h-3.2zM13.282 23.342v-5.656h3.14l2.996 5.656h2.628l-3.292-6.012c1.794-0.6 2.854-2.212 2.854-4.2 0-2.74-1.886-4.492-4.912-4.492h-5.696v14.704h2.282z"></path>
</svg>
