<!-- Generated by IcoMoon.io -->
<svg version="1.1" xmlns="http://www.w3.org/2000/svg" width="32" height="32" viewBox="0 0 32 32">
<title>box-arrow-in-down-right</title>
<path d="M29 26c0 1.657-1.343 3-3 3v0h-20c-1.657 0-3-1.343-3-3v0-10c0-0.552 0.448-1 1-1s1 0.448 1 1v0 10c0 0.552 0.448 1 1 1v0h20c0.552 0 1-0.448 1-1v0-20c0-0.552-0.448-1-1-1v0h-8c-0.552 0-1-0.448-1-1s0.448-1 1-1v0h8c1.657 0 3 1.343 3 3v0 20z"></path>
<path d="M9 20c0 0.552 0.448 1 1 1v0h10c0.552 0 1-0.448 1-1v0-10c0-0.552-0.448-1-1-1s-1 0.448-1 1v0 9h-9c-0.552 0-1 0.448-1 1v0z"></path>
<path d="M20.708 20.708c0.181-0.181 0.294-0.431 0.294-0.708s-0.112-0.527-0.294-0.708l-16-16c-0.181-0.181-0.431-0.293-0.708-0.293-0.553 0-1.001 0.448-1.001 1.001 0 0.277 0.112 0.527 0.293 0.708l16 16c0.181 0.181 0.431 0.294 0.708 0.294s0.527-0.112 0.708-0.294l0-0z"></path>
</svg>
