<!-- Generated by IcoMoon.io -->
<svg version="1.1" xmlns="http://www.w3.org/2000/svg" width="32" height="32" viewBox="0 0 32 32">
<title>broadcast-pin</title>
<path d="M6.1 6.1c-2.534 2.534-4.101 6.034-4.101 9.9s1.567 7.366 4.101 9.9v0c0.174 0.18 0.281 0.425 0.281 0.695 0 0.552-0.448 1-1 1-0.27 0-0.515-0.107-0.695-0.281l0 0c-2.896-2.895-4.687-6.896-4.687-11.314s1.791-8.419 4.687-11.314v0c0.18-0.174 0.425-0.281 0.695-0.281 0.552 0 1 0.448 1 1 0 0.27-0.107 0.515-0.281 0.695l0-0zM10.344 10.344c-1.447 1.448-2.342 3.447-2.342 5.656s0.895 4.208 2.342 5.656l-0-0c0.181 0.181 0.293 0.431 0.293 0.708 0 0.553-0.448 1.001-1.001 1.001-0.277 0-0.527-0.112-0.708-0.293v0c-1.81-1.81-2.93-4.31-2.93-7.072s1.12-5.262 2.93-7.072l0-0c0.181-0.181 0.431-0.293 0.708-0.293 0.553 0 1.001 0.448 1.001 1.001 0 0.277-0.112 0.527-0.293 0.708v0zM21.656 8.928c0.181-0.181 0.431-0.294 0.708-0.294s0.527 0.112 0.708 0.294l0 0c1.81 1.81 2.93 4.31 2.93 7.072s-1.12 5.262-2.93 7.072l-0 0c-0.181 0.181-0.431 0.293-0.708 0.293-0.553 0-1.001-0.448-1.001-1.001 0-0.276 0.112-0.527 0.293-0.708v0c1.447-1.448 2.342-3.447 2.342-5.656s-0.895-4.208-2.342-5.656l0 0c-0.181-0.181-0.294-0.431-0.294-0.708s0.112-0.527 0.294-0.708l0-0zM25.9 4.688c0.181-0.181 0.431-0.293 0.707-0.293s0.526 0.112 0.707 0.293v0c2.895 2.895 4.686 6.895 4.686 11.313s-1.791 8.418-4.686 11.313v0c-0.18 0.174-0.425 0.281-0.695 0.281-0.552 0-1-0.448-1-1 0-0.27 0.107-0.515 0.281-0.695l-0 0c2.534-2.534 4.101-6.034 4.101-9.9s-1.567-7.366-4.101-9.9v0c-0.181-0.181-0.293-0.431-0.293-0.707s0.112-0.526 0.293-0.707v0z"></path>
<path d="M20 16c0 2.209-1.791 4-4 4s-4-1.791-4-4v0c0-2.209 1.791-4 4-4s4 1.791 4 4v0z"></path>
<path d="M16 17c0.552 0 1 0.448 1 1v0 13c0 0.552-0.448 1-1 1s-1-0.448-1-1v0-13c0-0.552 0.448-1 1-1v0z"></path>
</svg>
