<!-- Generated by IcoMoon.io -->
<svg version="1.1" xmlns="http://www.w3.org/2000/svg" width="32" height="32" viewBox="0 0 32 32">
<title>bug</title>
<path d="M8.71 1.044c0.087-0.027 0.186-0.043 0.289-0.043 0.448 0 0.828 0.295 0.955 0.702l0.002 0.007 0.582 1.912c1.536-1.017 3.421-1.622 5.447-1.622 0.005 0 0.010 0 0.015 0h-0.001c2.014 0 3.892 0.596 5.462 1.622l0.58-1.912c0.126-0.418 0.508-0.717 0.959-0.717 0.552 0 1 0.448 1 1 0 0.106-0.016 0.208-0.047 0.304l0.002-0.007-0.82 2.704c1.771 1.798 2.864 4.268 2.864 6.993 0 0.004 0 0.009 0 0.013v-0.001h1c0.552 0 1-0.448 1-1v0-1c0-0.552 0.448-1 1-1s1 0.448 1 1v0 1c0 1.657-1.343 3-3 3v0h-1v2h3c0.552 0 1 0.448 1 1s-0.448 1-1 1v0h-3v2h1c1.657 0 3 1.343 3 3v0 1c0 0.552-0.448 1-1 1s-1-0.448-1-1v0-1c0-0.552-0.448-1-1-1v0h-1c0 5.523-4.477 10-10 10s-10-4.477-10-10v0h-1c-0.552 0-1 0.448-1 1v0 1c0 0.552-0.448 1-1 1s-1-0.448-1-1v0-1c0-1.657 1.343-3 3-3v0h1v-2h-3c-0.552 0-1-0.448-1-1s0.448-1 1-1v0h3v-2h-1c-1.657 0-3-1.343-3-3v0-1c0-0.552 0.448-1 1-1s1 0.448 1 1v0 1c0 0.552 0.448 1 1 1v0h1c0-2.728 1.094-5.202 2.864-7.006l-0.82-2.704c-0.027-0.087-0.043-0.186-0.043-0.289 0-0.448 0.295-0.828 0.702-0.955l0.007-0.002zM8 14v8c0 0.001 0 0.002 0 0.003 0 4.066 3.033 7.423 6.96 7.933l0.040 0.004v-15.94h-7zM17 14v15.94c3.967-0.514 7-3.872 7-7.937 0-0.001 0-0.002 0-0.003v0-8h-7zM24 12v0.001c0-0.003 0-0.007 0-0.010 0-2.363-1.028-4.487-2.668-5.954-1.414-1.266-3.282-2.036-5.332-2.036h0.001c-0.005 0-0.011 0-0.016 0-2.048 0-3.915 0.773-5.319 2.036l-0.008 0.007c-1.632 1.461-2.658 3.584-2.658 5.947 0 0.004 0 0.008 0 0.011h16z"></path>
</svg>
