<!-- Generated by IcoMoon.io -->
<svg version="1.1" xmlns="http://www.w3.org/2000/svg" width="32" height="32" viewBox="0 0 32 32">
<title>calculator</title>
<path d="M4 4v24c0 2.209 1.791 4 4 4h16c2.209 0 4-1.791 4-4v-24c0-2.209-1.791-4-4-4h-16c-2.209 0-4 1.791-4 4zM8 5c0-0.552 0.448-1 1-1v0h14c0.552 0 1 0.448 1 1v0 4c0 0.552-0.448 1-1 1v0h-14c-0.552 0-1-0.448-1-1v0-4zM8 13c0-0.552 0.448-1 1-1v0h2c0.552 0 1 0.448 1 1v0 2c0 0.552-0.448 1-1 1v0h-2c-0.552 0-1-0.448-1-1v0-2zM9 18h2c0.552 0 1 0.448 1 1v2c0 0.552-0.448 1-1 1h-2c-0.552 0-1-0.448-1-1v-2c0-0.552 0.448-1 1-1zM8 25c0-0.552 0.448-1 1-1v0h2c0.552 0 1 0.448 1 1v0 2c0 0.552-0.448 1-1 1v0h-2c-0.552 0-1-0.448-1-1v0-2zM15 12h2c0.552 0 1 0.448 1 1v2c0 0.552-0.448 1-1 1h-2c-0.552 0-1-0.448-1-1v-2c0-0.552 0.448-1 1-1zM14 19c0-0.552 0.448-1 1-1v0h2c0.552 0 1 0.448 1 1v0 2c0 0.552-0.448 1-1 1v0h-2c-0.552 0-1-0.448-1-1v0-2zM15 24h2c0.552 0 1 0.448 1 1v2c0 0.552-0.448 1-1 1h-2c-0.552 0-1-0.448-1-1v-2c0-0.552 0.448-1 1-1zM20 13c0-0.552 0.448-1 1-1v0h2c0.552 0 1 0.448 1 1v0 2c0 0.552-0.448 1-1 1v0h-2c-0.552 0-1-0.448-1-1v0-2zM21 18h2c0.552 0 1 0.448 1 1v8c0 0.552-0.448 1-1 1h-2c-0.552 0-1-0.448-1-1v-8c0-0.552 0.448-1 1-1z"></path>
</svg>
