<!-- Generated by IcoMoon.io -->
<svg version="1.1" xmlns="http://www.w3.org/2000/svg" width="32" height="32" viewBox="0 0 32 32">
<title>calendar3-event</title>
<path d="M28 0h-24c-2.209 0-4 1.791-4 4v0 24c0 2.209 1.791 4 4 4v0h24c2.209 0 4-1.791 4-4v0-24c0-2.209-1.791-4-4-4v0zM2 7.714c0-0.946 0.896-1.714 2-1.714h24c1.104 0 2 0.768 2 1.714v20.572c0 0.946-0.896 1.714-2 1.714h-24c-1.104 0-2-0.768-2-1.714v-20.572z"></path>
<path d="M24 14c1.105 0 2-0.895 2-2s-0.895-2-2-2v0c-1.105 0-2 0.895-2 2s0.895 2 2 2v0z"></path>
</svg>
