<!-- Generated by IcoMoon.io -->
<svg version="1.1" xmlns="http://www.w3.org/2000/svg" width="32" height="32" viewBox="0 0 32 32">
<title>calendar2-day</title>
<path d="M9.368 25.046v-4.6h4.522v-1.22h-4.522v-3.624h4.928v-1.22h-6.296v10.664h1.368zM15.96 25.046h1.352v-5.086c0-1.108 0.454-2.014 1.906-2.014 0.25 0 0.516 0.008 0.658 0.030v-1.226c-0.152-0.024-0.328-0.039-0.506-0.040h-0.002c-1.164 0-1.782 0.64-2.024 1.134h-0.040v-1.008h-1.344v8.21zM21.57 14.86c0 0.476 0.384 0.85 0.86 0.85 0.012 0.001 0.027 0.001 0.041 0.001 0.473 0 0.856-0.383 0.856-0.856s-0.383-0.856-0.856-0.856c-0.015 0-0.029 0-0.043 0.001l0.002-0c-0.002-0-0.005-0-0.008-0-0.471 0-0.852 0.381-0.852 0.852 0 0.003 0 0.006 0 0.008v-0zM21.758 25.046h1.344v-8.21h-1.344v8.21z"></path>
<path d="M28 4v0c1.105 0 2 0.895 2 2v22c0 1.105-0.895 2-2 2h-24c-1.105 0-2-0.895-2-2v-22c0-1.105 0.895-2 2-2h24zM4 2c-2.209 0-4 1.791-4 4v0 22c0 2.209 1.791 4 4 4v0h24c2.209 0 4-1.791 4-4v0-22c0-2.209-1.791-4-4-4v0h-24z"></path>
<path d="M7 0c0.552 0 1 0.448 1 1v0 1c0 0.552-0.448 1-1 1s-1-0.448-1-1v0-1c0-0.552 0.448-1 1-1v0zM25 0c0.552 0 1 0.448 1 1v0 1c0 0.552-0.448 1-1 1s-1-0.448-1-1v0-1c0-0.552 0.448-1 1-1v0z"></path>
<path d="M5 8c0-0.552 0.448-1 1-1v0h20c0.552 0 1 0.448 1 1v0 2c0 0.552-0.448 1-1 1v0h-20c-0.552 0-1-0.448-1-1v0-2z"></path>
</svg>
