<!-- Generated by IcoMoon.io -->
<svg version="1.1" xmlns="http://www.w3.org/2000/svg" width="32" height="32" viewBox="0 0 32 32">
<title>calendar2-month-fill</title>
<path d="M8 1c0-0.552-0.448-1-1-1s-1 0.448-1 1v0 1h-2c-2.209 0-4 1.791-4 4v0 22c0 2.209 1.791 4 4 4v0h24c2.209 0 4-1.791 4-4v0-22c0-2.209-1.791-4-4-4v0h-2v-1c0-0.552-0.448-1-1-1s-1 0.448-1 1v0 1h-16v-1zM4 7c0-0.552 0.448-1 1-1v0h22c0.552 0 1 0.448 1 1v0 2c0 0.552-0.448 1-1 1v0h-22c-0.552 0-1-0.448-1-1v0-2zM5.12 24.664l1.080-3.204h3.968l1.080 3.204h1.436l-3.796-10.664h-1.392l-3.796 10.664h1.42zM8.208 15.61l1.592 4.75h-3.232l1.6-4.75h0.040zM19.7 16.454h-1.352v5.086c0 1.304-0.828 2.046-2.008 2.046-1.078 0-1.96-0.492-1.96-2.024v-5.108h-1.352v5.492c0 1.882 1.212 2.85 2.906 2.85 1.312 0 2.086-0.56 2.376-1.21h0.054v1.078h1.336v-8.21zM22.246 25.274c0.15 0.664 0.844 1.272 1.97 1.272 1.296 0 2.14-0.756 2.14-2.046v-1.21h-0.040c-0.326 0.71-1.226 1.296-2.342 1.296-1.914 0-3.28-1.344-3.28-3.804v-0.68c0-2.414 1.35-3.774 3.28-3.774 1.116 0 2.008 0.586 2.39 1.28h0.040v-1.154h1.296v8.060c0 2.104-1.632 3.158-3.492 3.158-2.086 0-3.148-1.032-3.336-2.4h1.374zM26.356 20.204c0-1.664-0.828-2.72-2.124-2.72-1.384 0-2.196 0.984-2.196 2.72v0.506c0 1.704 0.812 2.728 2.196 2.728 1.342 0 2.124-1.032 2.124-2.728v-0.506z"></path>
</svg>
