<!-- Generated by IcoMoon.io -->
<svg version="1.1" xmlns="http://www.w3.org/2000/svg" width="32" height="32" viewBox="0 0 32 32">
<title>calendar2-date</title>
<path d="M12.89 24.876v-10.668h-1.266c-1.023 0.548-1.881 1.082-2.702 1.665l0.078-0.053v1.39c0.75-0.514 1.938-1.24 2.516-1.554h0.024v9.22h1.35zM15.266 22.266c0.094 1.28 1.188 2.812 3.406 2.812 2.516 0 4-2.132 4-5.742 0-3.868-1.562-5.336-3.906-5.336-1.852 0-3.594 1.344-3.594 3.618 0 2.32 1.648 3.54 3.352 3.54 1.492 0 2.46-0.752 2.766-1.58h0.054c-0.008 2.632-0.922 4.328-2.61 4.328-1.328 0-2.016-0.9-2.1-1.64h-1.368zM21.172 17.632c0 1.392-1.118 2.36-2.368 2.36-1.202 0-2.288-0.766-2.288-2.4 0-1.646 1.164-2.42 2.336-2.42 1.266 0 2.32 0.796 2.32 2.46z"></path>
<path d="M28 4v0c1.105 0 2 0.895 2 2v22c0 1.105-0.895 2-2 2h-24c-1.105 0-2-0.895-2-2v-22c0-1.105 0.895-2 2-2h24zM4 2c-2.209 0-4 1.791-4 4v0 22c0 2.209 1.791 4 4 4v0h24c2.209 0 4-1.791 4-4v0-22c0-2.209-1.791-4-4-4v0h-24z"></path>
<path d="M7 0c0.552 0 1 0.448 1 1v0 1c0 0.552-0.448 1-1 1s-1-0.448-1-1v0-1c0-0.552 0.448-1 1-1v0zM25 0c0.552 0 1 0.448 1 1v0 1c0 0.552-0.448 1-1 1s-1-0.448-1-1v0-1c0-0.552 0.448-1 1-1v0z"></path>
<path d="M5 8c0-0.552 0.448-1 1-1v0h20c0.552 0 1 0.448 1 1v0 2c0 0.552-0.448 1-1 1v0h-20c-0.552 0-1-0.448-1-1v0-2z"></path>
</svg>
