<!-- Generated by IcoMoon.io -->
<svg version="1.1" xmlns="http://www.w3.org/2000/svg" width="32" height="32" viewBox="0 0 32 32">
<title>caret-down-square</title>
<path d="M7.088 12.59c0.16-0.351 0.508-0.59 0.912-0.59h16c0 0 0 0 0 0 0.552 0 1 0.448 1 1 0 0.255-0.096 0.488-0.253 0.665l0.001-0.001-8 9c-0.184 0.207-0.451 0.336-0.748 0.336s-0.564-0.13-0.747-0.335l-0.001-0.001-8-9c-0.156-0.176-0.252-0.409-0.252-0.664 0-0.149 0.032-0.29 0.091-0.416l-0.003 0.006z"></path>
<path d="M28 2v0c1.105 0 2 0.895 2 2v24c0 1.105-0.895 2-2 2h-24c-1.105 0-2-0.895-2-2v-24c0-1.105 0.895-2 2-2h24zM4 0c-2.209 0-4 1.791-4 4v0 24c0 2.209 1.791 4 4 4v0h24c2.209 0 4-1.791 4-4v0-24c0-2.209-1.791-4-4-4v0h-24z"></path>
</svg>
