<!-- Generated by IcoMoon.io -->
<svg version="1.1" xmlns="http://www.w3.org/2000/svg" width="32" height="32" viewBox="0 0 32 32">
<title>caret-left</title>
<path d="M20 25.592v-19.184l-10.962 9.592 10.962 9.592zM18.682 27.098l-10.96-9.592c-0.42-0.369-0.684-0.906-0.684-1.506s0.264-1.137 0.682-1.504l0.002-0.002 10.96-9.592c0.35-0.308 0.812-0.496 1.318-0.496 1.105 0 2 0.895 2 2 0 0.001 0 0.001 0 0.002v-0 19.184c0 0 0 0.001 0 0.002 0 1.105-0.895 2-2 2-0.506 0-0.968-0.188-1.32-0.498l0.002 0.002z"></path>
</svg>
