<!-- Generated by IcoMoon.io -->
<svg version="1.1" xmlns="http://www.w3.org/2000/svg" width="32" height="32" viewBox="0 0 32 32">
<title>cash</title>
<path d="M30 8v16h-28v-16h28zM2 6c-1.105 0-2 0.895-2 2v0 16c0 1.105 0.895 2 2 2v0h28c1.105 0 2-0.895 2-2v0-16c0-1.105-0.895-2-2-2v0h-28z"></path>
<path d="M26 8c0 2.209 1.791 4 4 4v0-4h-4zM6 8c0 2.209-1.791 4-4 4v0-4h4zM26 24c0-2.209 1.791-4 4-4v0 4h-4zM6 24c0-2.209-1.791-4-4-4v0 4h4zM20 16c0 2.209-1.791 4-4 4s-4-1.791-4-4v0c0-2.209 1.791-4 4-4s4 1.791 4 4v0z"></path>
</svg>
