<!-- Generated by IcoMoon.io -->
<svg version="1.1" xmlns="http://www.w3.org/2000/svg" width="32" height="32" viewBox="0 0 32 32">
<title>chat-right-text</title>
<path d="M4 2v0c-1.105 0-2 0.895-2 2v16c0 1.105 0.895 2 2 2h19.172c1.104 0 2.104 0.448 2.828 1.172l4 4v-23.172c0-1.105-0.895-2-2-2h-24zM28 0c2.209 0 4 1.791 4 4v0 25.586c-0 0.552-0.448 1-1 1-0.277 0-0.527-0.112-0.708-0.294l-5.706-5.706c-0.362-0.362-0.862-0.586-1.414-0.586h-19.172c-2.209 0-4-1.791-4-4v0-16c0-2.209 1.791-4 4-4v0h24z"></path>
<path d="M6 7c0-0.552 0.448-1 1-1v0h18c0.552 0 1 0.448 1 1s-0.448 1-1 1v0h-18c-0.552 0-1-0.448-1-1v0zM6 12c0-0.552 0.448-1 1-1v0h18c0.552 0 1 0.448 1 1s-0.448 1-1 1v0h-18c-0.552 0-1-0.448-1-1v0zM6 17c0-0.552 0.448-1 1-1v0h10c0.552 0 1 0.448 1 1s-0.448 1-1 1v0h-10c-0.552 0-1-0.448-1-1v0z"></path>
</svg>
