<!-- Generated by IcoMoon.io -->
<svg version="1.1" xmlns="http://www.w3.org/2000/svg" width="32" height="32" viewBox="0 0 32 32">
<title>chat</title>
<path d="M5.356 23.788c0.36 0.362 0.583 0.861 0.583 1.412 0 0.067-0.003 0.133-0.010 0.199l0.001-0.008c-0.158 1.493-0.438 2.85-0.837 4.155l0.041-0.155c2.79-0.646 4.494-1.394 5.268-1.786 0.263-0.136 0.574-0.216 0.904-0.216 0.184 0 0.361 0.025 0.53 0.071l-0.014-0.003c1.246 0.345 2.676 0.544 4.152 0.544 0.009 0 0.018 0 0.027-0h-0.001c7.992 0 14-5.614 14-12 0-6.384-6.008-12-14-12s-14 5.616-14 12c0 2.936 1.234 5.66 3.356 7.788zM4.37 31.598c-0.202 0.050-0.685 0.141-1.171 0.223l-0.255 0.035c-0.4 0.064-0.704-0.352-0.546-0.724 0.131-0.289 0.296-0.71 0.446-1.138l0.042-0.136 0.006-0.020c0.496-1.44 0.9-3.096 1.048-4.638-2.454-2.46-3.94-5.68-3.94-9.2 0-7.732 7.164-14 16-14s16 6.268 16 14-7.164 14-16 14c-0.007 0-0.016 0-0.024 0-1.661 0-3.269-0.223-4.797-0.642l0.127 0.030c-1.040 0.526-3.278 1.484-6.936 2.21z"></path>
</svg>
