<!-- Generated by IcoMoon.io -->
<svg version="1.1" xmlns="http://www.w3.org/2000/svg" width="32" height="32" viewBox="0 0 32 32">
<title>check-square-fill</title>
<path d="M4 0h24c2.209 0 4 1.791 4 4v24c0 2.209-1.791 4-4 4h-24c-2.209 0-4-1.791-4-4v-24c0-2.209 1.791-4 4-4zM24.060 9.94c-0.271-0.27-0.645-0.438-1.059-0.438-0.435 0-0.826 0.185-1.1 0.481l-0.001 0.001-6.946 8.85-4.186-4.188c-0.267-0.249-0.627-0.403-1.023-0.403-0.828 0-1.5 0.672-1.5 1.5 0 0.396 0.153 0.755 0.403 1.023l-0.001-0.001 5.292 5.294c0.271 0.271 0.646 0.438 1.060 0.438 0.433 0 0.824-0.184 1.097-0.477l0.001-0.001 7.984-9.98c0.259-0.269 0.419-0.636 0.419-1.040 0-0.414-0.168-0.789-0.439-1.060v0z"></path>
</svg>
