<!-- Generated by IcoMoon.io -->
<svg version="1.1" xmlns="http://www.w3.org/2000/svg" width="32" height="32" viewBox="0 0 32 32">
<title>chevron-compact-down</title>
<path d="M3.106 13.552c0.168-0.329 0.505-0.551 0.894-0.551 0.163 0 0.316 0.039 0.452 0.108l-0.006-0.003 11.554 5.774 11.552-5.776c0.132-0.069 0.289-0.109 0.455-0.109 0.552 0 1 0.448 1 1 0 0.392-0.225 0.731-0.553 0.895l-0.006 0.003-12 6c-0.131 0.067-0.285 0.106-0.448 0.106s-0.318-0.039-0.454-0.109l0.006 0.003-12-6c-0.329-0.168-0.551-0.505-0.551-0.894 0-0.163 0.039-0.316 0.108-0.452l-0.003 0.006z"></path>
</svg>
