<!-- Generated by IcoMoon.io -->
<svg version="1.1" xmlns="http://www.w3.org/2000/svg" width="32" height="32" viewBox="0 0 32 32">
<title>chevron-compact-up</title>
<path d="M15.552 11.106c0.13-0.067 0.285-0.106 0.448-0.106s0.317 0.039 0.454 0.109l-0.006-0.003 12 6c0.334 0.167 0.559 0.506 0.559 0.897 0 0.552-0.448 1-1 1-0.166 0-0.323-0.040-0.46-0.112l0.006 0.003-11.552-5.774-11.552 5.774c-0.132 0.069-0.289 0.109-0.455 0.109-0.552 0-1-0.448-1-1 0-0.392 0.225-0.731 0.553-0.895l0.006-0.003 12-6z"></path>
</svg>
