<!-- Generated by IcoMoon.io -->
<svg version="1.1" xmlns="http://www.w3.org/2000/svg" width="32" height="32" viewBox="0 0 32 32">
<title>clipboard-check</title>
<path d="M8 3h-2c-2.209 0-4 1.791-4 4v0 21c0 2.209 1.791 4 4 4v0h20c2.209 0 4-1.791 4-4v0-21c0-2.209-1.791-4-4-4v0h-2v2h2c1.105 0 2 0.895 2 2v0 21c0 1.105-0.895 2-2 2v0h-20c-1.105 0-2-0.895-2-2v0-21c0-1.105 0.895-2 2-2v0h2v-2z"></path>
<path d="M19 2v0c0.552 0 1 0.448 1 1v2c0 0.552-0.448 1-1 1h-6c-0.552 0-1-0.448-1-1v-2c0-0.552 0.448-1 1-1h6zM13 0c-1.657 0-3 1.343-3 3v0 2c0 1.657 1.343 3 3 3v0h6c1.657 0 3-1.343 3-3v0-2c0-1.657-1.343-3-3-3v0h-6zM21.708 14.292l-0-0c-0.181-0.181-0.431-0.294-0.708-0.294s-0.527 0.112-0.708 0.294l-5.292 5.294-2.292-2.294c-0.181-0.181-0.431-0.293-0.708-0.293-0.553 0-1.001 0.448-1.001 1.001 0 0.276 0.112 0.527 0.293 0.708l3 3c0.181 0.181 0.431 0.294 0.708 0.294s0.527-0.112 0.708-0.294l6-6c0.181-0.181 0.294-0.431 0.294-0.708s-0.112-0.527-0.294-0.708z"></path>
</svg>
