<!-- Generated by IcoMoon.io -->
<svg version="1.1" xmlns="http://www.w3.org/2000/svg" width="32" height="32" viewBox="0 0 32 32">
<title>clock-history</title>
<path d="M17.030 2.038c-0.308-0.024-0.668-0.038-1.030-0.038h-0v-2c0.415 0 0.826 0.016 1.232 0.047l-0.054-0.003-0.148 1.994zM21.038 2.938c-0.541-0.218-1.199-0.423-1.876-0.58l-0.094-0.018 0.438-1.952c0.766 0.172 1.52 0.4 2.252 0.684l-0.72 1.866zM23.778 4.358c-0.23-0.157-0.516-0.335-0.81-0.504l-0.068-0.036 0.986-1.74c0.748 0.427 1.388 0.859 1.993 1.334l-0.035-0.026-1.23 1.578c-0.235-0.185-0.507-0.384-0.786-0.572l-0.050-0.032zM27.446 7.938c-0.419-0.592-0.848-1.111-1.311-1.598l0.005 0.006 1.448-1.38c0.54 0.57 1.040 1.18 1.494 1.82l-1.636 1.152zM28.934 10.642c-0.167-0.407-0.311-0.714-0.465-1.016l0.037 0.080 1.786-0.9c0.311 0.6 0.616 1.32 0.867 2.064l0.033 0.112-1.9 0.626c-0.139-0.424-0.26-0.744-0.393-1.058l0.035 0.092zM29.994 15.656c-0.018-0.738-0.090-1.445-0.212-2.134l0.012 0.084 1.97-0.34c0.134 0.772 0.212 1.556 0.232 2.34l-2 0.050zM29.732 18.732c0.066-0.34 0.12-0.678 0.162-1.020l1.986 0.246c-0.11 0.88-0.271 1.663-0.487 2.422l0.027-0.112-1.928-0.534c0.092-0.33 0.172-0.664 0.24-1.002zM27.828 23.49c0.368-0.58 0.692-1.188 0.972-1.816l1.828 0.81c-0.32 0.72-0.69 1.412-1.11 2.076l-1.69-1.070zM25.9 25.9c0.244-0.244 0.478-0.496 0.7-0.756l1.516 1.306c-0.269 0.311-0.531 0.592-0.802 0.864l0-0-1.414-1.414z"></path>
<path d="M16 2c-7.732 0.001-13.999 6.268-13.999 14s6.268 14 14 14c3.866 0 7.366-1.567 9.899-4.1v0l1.414 1.414c-2.896 2.898-6.898 4.69-11.318 4.69-8.838 0-16.002-7.164-16.002-16.002s7.164-16.002 16.002-16.002c0.002 0 0.003 0 0.004 0h-0v2z"></path>
<path d="M15 6c0.552 0 1 0.448 1 1v0 10.42l6.496 3.712c0.292 0.178 0.483 0.495 0.483 0.856 0 0.552-0.448 1-1 1-0.174 0-0.338-0.045-0.481-0.123l0.005 0.003-7-4c-0.303-0.176-0.504-0.498-0.504-0.868v-11c0-0.552 0.448-1 1-1v0z"></path>
</svg>
