<!-- Generated by IcoMoon.io -->
<svg version="1.1" xmlns="http://www.w3.org/2000/svg" width="32" height="32" viewBox="0 0 32 32">
<title>cloud-upload-fill</title>
<path d="M16 0c-2.755 0.009-5.271 1.024-7.202 2.696l0.014-0.012c-1.532 1.32-2.642 3.040-2.928 4.766-3.352 0.74-5.884 3.66-5.884 7.186 0 4.096 3.416 7.364 7.562 7.364h7.438v-10.586l-4.292 4.294c-0.181 0.181-0.431 0.293-0.708 0.293-0.553 0-1.001-0.448-1.001-1.001 0-0.277 0.112-0.527 0.293-0.708v0l6-6c0.181-0.181 0.431-0.294 0.708-0.294s0.527 0.112 0.708 0.294l6 6c0.181 0.181 0.293 0.431 0.293 0.708 0 0.553-0.448 1.001-1.001 1.001-0.276 0-0.527-0.112-0.708-0.293v0l-4.292-4.294v10.586h8.376c3.628 0 6.624-2.86 6.624-6.454 0-3.272-2.484-5.938-5.668-6.388-0.486-5.16-4.952-9.158-10.332-9.158zM15 29v-7h2v7c0 0.552-0.448 1-1 1s-1-0.448-1-1v0z"></path>
</svg>
