<!-- Generated by IcoMoon.io -->
<svg version="1.1" xmlns="http://www.w3.org/2000/svg" width="32" height="32" viewBox="0 0 32 32">
<title>collection-play-fill</title>
<path d="M3 29c-1.657 0-3-1.343-3-3v0-14c0-1.657 1.343-3 3-3v0h26c1.657 0 3 1.343 3 3v0 14c0 1.657-1.343 3-3 3v0h-26zM13.53 13.152c-0.15-0.095-0.334-0.152-0.53-0.152-0.552 0-1 0.448-1 1 0 0 0 0 0 0v0 10c0 0 0 0 0 0 0 0.552 0.448 1 1 1 0.196 0 0.38-0.057 0.534-0.154l-0.004 0.002 8-5c0.284-0.18 0.47-0.492 0.47-0.848s-0.186-0.668-0.466-0.846l-0.004-0.002-8-5zM4 6c0 0.552 0.448 1 1 1v0h22c0.552 0 1-0.448 1-1s-0.448-1-1-1v0h-22c-0.552 0-1 0.448-1 1v0zM8 2c0 0.552 0.448 1 1 1v0h14c0.552 0 1-0.448 1-1s-0.448-1-1-1v0h-14c-0.552 0-1 0.448-1 1v0z"></path>
</svg>
