<!-- Generated by IcoMoon.io -->
<svg version="1.1" xmlns="http://www.w3.org/2000/svg" width="32" height="32" viewBox="0 0 32 32">
<title>compass</title>
<path d="M16 30.032v0c-7.18 0-13-5.82-13-13s5.82-13 13-13v0c7.18 0 13 5.82 13 13s-5.82 13-13 13zM16 32.032c8.284 0 15-6.716 15-15s-6.716-15-15-15v0c-8.284 0-15 6.716-15 15s6.716 15 15 15v0z"></path>
<path d="M12 2c0-1.105 0.895-2 2-2v0h4c1.105 0 2 0.895 2 2s-0.895 2-2 2v0h-4c-1.105 0-2-0.895-2-2v0zM13.88 14.88l9.9-5.66-5.66 9.9-9.9 5.66 5.66-9.9z"></path>
</svg>
