<!-- Generated by IcoMoon.io -->
<svg version="1.1" xmlns="http://www.w3.org/2000/svg" width="32" height="32" viewBox="0 0 32 32">
<title>controller</title>
<path d="M22.238 5.386c1.808 0.38 3.5 0.99 4.47 1.96 0.814 0.816 1.558 2.1 2.188 3.544 0.64 1.466 1.198 3.182 1.61 4.932s0.68 3.56 0.728 5.212c0.048 1.63-0.118 3.204-0.656 4.42-0.456 0.996-1.444 1.676-2.59 1.676-0.106 0-0.21-0.006-0.312-0.017l0.013 0.001c-1.272-0.134-2.23-0.788-3.026-1.546-0.508-0.505-0.991-1.032-1.448-1.581l-0.030-0.037c-0.252-0.294-0.5-0.582-0.736-0.844-1.456-1.608-3.194-3.054-6.448-3.054s-4.992 1.446-6.448 3.054c-0.238 0.262-0.484 0.55-0.736 0.844-0.486 0.566-0.988 1.152-1.478 1.62-0.796 0.756-1.754 1.41-3.026 1.544-0.090 0.010-0.194 0.016-0.3 0.016-1.147 0-2.135-0.68-2.583-1.658l-0.007-0.018c-0.54-1.216-0.704-2.79-0.658-4.42 0.048-1.652 0.32-3.46 0.73-5.212 0.412-1.75 0.972-3.466 1.61-4.932 0.63-1.444 1.374-2.728 2.188-3.544 0.972-0.97 2.662-1.58 4.47-1.96 1.864-0.392 4.060-0.584 6.238-0.584s4.374 0.192 6.238 0.584zM10.174 7.344c-1.754 0.37-2.938 0.886-3.466 1.416-0.552 0.552-1.174 1.566-1.77 2.93-0.569 1.287-1.082 2.819-1.459 4.403l-0.037 0.187c-0.361 1.418-0.604 3.068-0.676 4.761l-0.002 0.051c-0.044 1.51 0.124 2.736 0.486 3.552 0.137 0.289 0.426 0.485 0.761 0.485 0.032 0 0.064-0.002 0.095-0.005l-0.004 0c0.654-0.068 1.22-0.398 1.858-1.004 0.424-0.404 0.8-0.846 1.23-1.348 0.266-0.312 0.552-0.646 0.88-1.010 1.652-1.822 3.886-3.71 7.93-3.71s6.278 1.886 7.93 3.71c0.328 0.364 0.614 0.7 0.88 1.010 0.428 0.5 0.806 0.944 1.23 1.348 0.636 0.606 1.202 0.936 1.858 1.006 0.027 0.003 0.058 0.005 0.090 0.005 0.336 0 0.625-0.197 0.76-0.482l0.002-0.005c0.36-0.816 0.53-2.040 0.486-3.552-0.074-1.744-0.317-3.394-0.714-4.982l0.036 0.17c-0.414-1.771-0.927-3.303-1.565-4.768l0.069 0.178c-0.596-1.364-1.22-2.38-1.77-2.93-0.528-0.53-1.712-1.046-3.466-1.416-1.7-0.358-3.754-0.54-5.826-0.54s-4.126 0.182-5.826 0.54z"></path>
<path d="M23 12.052c0 0.552-0.448 1-1 1s-1-0.448-1-1v0c0-0.552 0.448-1 1-1s1 0.448 1 1v0zM21 14.052c0 0.552-0.448 1-1 1s-1-0.448-1-1v0c0-0.552 0.448-1 1-1s1 0.448 1 1v0zM25 14.052c0 0.552-0.448 1-1 1s-1-0.448-1-1v0c0-0.552 0.448-1 1-1s1 0.448 1 1v0zM23 16.052c0 0.552-0.448 1-1 1s-1-0.448-1-1v0c0-0.552 0.448-1 1-1s1 0.448 1 1v0zM9 11.052h2v6h-2v-6z"></path>
<path d="M7 13.052h6v2h-6v-2zM6.102 6.52c-0.022-0.078-0.034-0.167-0.034-0.26 0-0.461 0.311-0.849 0.735-0.965l0.007-0.002 3.864-1.036c0.073-0.019 0.156-0.030 0.242-0.030 0.552 0 1 0.448 1 1 0 0.455-0.303 0.838-0.719 0.96l-0.007 0.002-3.864 1.036c-0.077 0.021-0.166 0.034-0.258 0.034-0.46 0-0.848-0.311-0.964-0.735l-0.002-0.007zM26.054 6.52c0.022-0.078 0.034-0.168 0.034-0.26 0-0.46-0.311-0.847-0.733-0.964l-0.007-0.002-3.864-1.036c-0.078-0.022-0.167-0.034-0.259-0.034-0.552 0-1 0.448-1 1 0 0.46 0.311 0.848 0.734 0.964l0.007 0.002 3.864 1.036c0.077 0.021 0.166 0.034 0.258 0.034 0.46 0 0.848-0.311 0.964-0.735l0.002-0.007z"></path>
</svg>
