<!-- Generated by IcoMoon.io -->
<svg version="1.1" xmlns="http://www.w3.org/2000/svg" width="32" height="32" viewBox="0 0 32 32">
<title>credit-card-2-front</title>
<path d="M28 6v0c1.105 0 2 0.895 2 2v16c0 1.105-0.895 2-2 2h-24c-1.105 0-2-0.895-2-2v-16c0-1.105 0.895-2 2-2h24zM4 4c-2.209 0-4 1.791-4 4v0 16c0 2.209 1.791 4 4 4v0h24c2.209 0 4-1.791 4-4v0-16c0-2.209-1.791-4-4-4v0h-24z"></path>
<path d="M4 11c0-0.552 0.448-1 1-1v0h4c0.552 0 1 0.448 1 1v0 2c0 0.552-0.448 1-1 1v0h-4c-0.552 0-1-0.448-1-1v0-2z"></path>
<path d="M4 17c0-0.552 0.448-1 1-1v0h10c0.552 0 1 0.448 1 1s-0.448 1-1 1v0h-10c-0.552 0-1-0.448-1-1v0zM4 21c0-0.552 0.448-1 1-1v0h2c0.552 0 1 0.448 1 1s-0.448 1-1 1v0h-2c-0.552 0-1-0.448-1-1v0zM10 21c0-0.552 0.448-1 1-1v0h2c0.552 0 1 0.448 1 1s-0.448 1-1 1v0h-2c-0.552 0-1-0.448-1-1v0zM16 21c0-0.552 0.448-1 1-1v0h2c0.552 0 1 0.448 1 1s-0.448 1-1 1v0h-2c-0.552 0-1-0.448-1-1v0zM22 21c0-0.552 0.448-1 1-1v0h2c0.552 0 1 0.448 1 1s-0.448 1-1 1v0h-2c-0.552 0-1-0.448-1-1v0z"></path>
</svg>
