<!-- Generated by IcoMoon.io -->
<svg version="1.1" xmlns="http://www.w3.org/2000/svg" width="32" height="32" viewBox="0 0 32 32">
<title>credit-card</title>
<path d="M0 8c0-2.209 1.791-4 4-4v0h24c2.209 0 4 1.791 4 4v0 16c0 2.209-1.791 4-4 4v0h-24c-2.209 0-4-1.791-4-4v0-16zM4 6c-1.105 0-2 0.895-2 2v0 2h28v-2c0-1.105-0.895-2-2-2v0h-24zM30 14h-28v10c0 1.105 0.895 2 2 2v0h24c1.105 0 2-0.895 2-2v0-10z"></path>
<path d="M4 20c0-1.105 0.895-2 2-2v0h2c1.105 0 2 0.895 2 2v0 2c0 1.105-0.895 2-2 2v0h-2c-1.105 0-2-0.895-2-2v0-2z"></path>
</svg>
