<!-- Generated by IcoMoon.io -->
<svg version="1.1" xmlns="http://www.w3.org/2000/svg" width="32" height="32" viewBox="0 0 32 32">
<title>cup-straw</title>
<path d="M8.994 11.884l1.918 16.31c0.028 0.236 0.12 0.362 0.202 0.42 0.71 0.496 2.334 1.386 4.886 1.386s4.176-0.89 4.886-1.386c0.080-0.058 0.174-0.184 0.202-0.42l1.92-16.31 1.986 0.232-1.92 16.312c-0.074 0.752-0.464 1.401-1.033 1.819l-0.007 0.005c-0.974 0.68-2.99 1.748-6.034 1.748s-5.062-1.068-6.032-1.748c-0.577-0.423-0.968-1.072-1.041-1.813l-0.001-0.011-1.92-16.312 1.988-0.232z"></path>
<path d="M8.934 12.232l0-0c0.004-0.003 0.007-0.007 0.010-0.012l-0.010 0.012zM9.29 12l-0.040-0.017c0.409 0.194 0.841 0.346 1.336 0.461 1.348 0.336 3.262 0.556 5.414 0.556s4.066-0.22 5.414-0.556c0.572-0.144 1.004-0.298 1.296-0.444-0.292-0.146-0.724-0.3-1.296-0.444-1.348-0.336-3.262-0.556-5.414-0.556s-4.066 0.22-5.414 0.556c-0.572 0.144-1.004 0.298-1.296 0.444zM23.066 12.232s-0.006-0.004-0.010-0.012l0.010 0.012zM23.056 11.78l0.010-0.012-0 0c-0.004 0.003-0.007 0.007-0.010 0.012zM8.944 11.78l-0.010-0.012s0.006 0.004 0.010 0.012zM10.1 9.616c1.548-0.388 3.634-0.616 5.9-0.616s4.352 0.228 5.9 0.616c0.766 0.192 1.456 0.436 1.98 0.744 0.456 0.27 1.12 0.792 1.12 1.64s-0.664 1.37-1.12 1.64c-0.524 0.308-1.214 0.552-1.98 0.744-1.548 0.388-3.634 0.616-5.9 0.616s-4.352-0.228-5.9-0.616c-0.766-0.192-1.456-0.436-1.98-0.744-0.456-0.27-1.12-0.792-1.12-1.64s0.664-1.37 1.12-1.64c0.524-0.308 1.214-0.552 1.98-0.744z"></path>
<path d="M25.928 2.628c0.045 0.11 0.072 0.238 0.072 0.372 0 0.418-0.257 0.776-0.621 0.926l-0.007 0.002-4.51 1.804-1.886 8.484-1.952-0.432 2-9c0.074-0.326 0.3-0.588 0.597-0.71l0.007-0.002 5-2c0.11-0.045 0.238-0.072 0.372-0.072 0.418 0 0.776 0.257 0.926 0.621l0.002 0.007z"></path>
</svg>
