<!-- Generated by IcoMoon.io -->
<svg version="1.1" xmlns="http://www.w3.org/2000/svg" width="32" height="32" viewBox="0 0 32 32">
<title>diamond-half</title>
<path d="M18.1 0.87c-1.16-1.16-3.040-1.16-4.2 0l-13.028 13.030c-1.16 1.16-1.16 3.038 0 4.196l13.032 13.032c1.16 1.16 3.038 1.16 4.196 0l13.032-13.032c1.16-1.16 1.16-3.038 0-4.196l-13.032-13.030zM16 1.978c0.254 0 0.506 0.098 0.7 0.29l13.032 13.032c0.179 0.179 0.29 0.427 0.29 0.7s-0.111 0.521-0.29 0.7l-13.032 13.032c-0.179 0.179-0.426 0.29-0.698 0.29-0.001 0-0.001 0-0.002 0h0v-28.044z"></path>
</svg>
