<!-- Generated by IcoMoon.io -->
<svg version="1.1" xmlns="http://www.w3.org/2000/svg" width="32" height="32" viewBox="0 0 32 32">
<title>diamond</title>
<path d="M13.9 0.87c1.16-1.16 3.040-1.16 4.2 0l13.030 13.032c1.16 1.16 1.16 3.038 0 4.196l-13.030 13.032c-1.16 1.16-3.038 1.16-4.196 0l-13.034-13.030c-0.538-0.537-0.87-1.278-0.87-2.098s0.333-1.561 0.87-2.098l13.030-13.034zM16.7 2.27c-0.179-0.179-0.427-0.29-0.7-0.29s-0.521 0.111-0.7 0.29l-13.032 13.030c-0.179 0.179-0.29 0.427-0.29 0.7s0.111 0.521 0.29 0.7l13.032 13.032c0.179 0.179 0.427 0.29 0.7 0.29s0.521-0.111 0.7-0.29l13.032-13.032c0.179-0.179 0.29-0.427 0.29-0.7s-0.111-0.521-0.29-0.7l-13.032-13.032z"></path>
</svg>
