<!-- Generated by IcoMoon.io -->
<svg version="1.1" xmlns="http://www.w3.org/2000/svg" width="32" height="32" viewBox="0 0 32 32">
<title>door-open-fill</title>
<path d="M3 30c-0.552 0-1 0.448-1 1s0.448 1 1 1v0h26c0.552 0 1-0.448 1-1s-0.448-1-1-1v0h-3v-25c0-1.657-1.343-3-3-3v0h-1v-1c-0-0.552-0.448-1-1-1-0.049 0-0.098 0.004-0.145 0.011l0.005-0.001-14 2c-0.489 0.071-0.86 0.487-0.86 0.99v0 27h-3zM22 4v26h2v-25c0-0.552-0.448-1-1-1v0h-1zM17 20c-0.552 0-1-0.896-1-2s0.448-2 1-2 1 0.896 1 2-0.448 2-1 2z"></path>
</svg>
