<!-- Generated by IcoMoon.io -->
<svg version="1.1" xmlns="http://www.w3.org/2000/svg" width="32" height="32" viewBox="0 0 32 32">
<title>earbuds</title>
<path d="M13.65 8.276c1.192 4.282-0.72 7.186-4.778 8.234-0.675 0.184-1.449 0.29-2.249 0.29-0.633 0-1.25-0.066-1.845-0.192l0.058 0.010c-0.096-0.020 1.8 5.556 3.044 9.22l0.82 2.41c0.032 0.096 0.051 0.206 0.051 0.321 0 0.468-0.31 0.865-0.736 0.995l-0.007 0.002-1.186 0.38c-0.103 0.035-0.222 0.056-0.345 0.056-0.476 0-0.881-0.304-1.033-0.728l-0.002-0.008-5.074-15.286c-1.392-4.274 1.324-8.618 5.128-9.6 4.058-1.046 6.804 0 8.152 3.896zM11.914 12.718c0.86-0.224 1.122-1.986 0.584-3.938-0.538-1.95-1.672-3.35-2.532-3.126s-1.122 1.988-0.584 3.938c0.538 1.95 1.672 3.35 2.532 3.126zM18.35 8.276c-1.192 4.282 0.72 7.186 4.778 8.234 0.675 0.184 1.45 0.29 2.249 0.29 0.633 0 1.25-0.066 1.845-0.192l-0.058 0.010c0.096-0.020-1.8 5.556-3.044 9.22l-0.82 2.41c-0.032 0.096-0.051 0.206-0.051 0.321 0 0.468 0.31 0.865 0.736 0.995l0.007 0.002 1.186 0.38c0.578 0.184 1.2-0.12 1.38-0.68l5.072-15.286c1.392-4.274-1.324-8.618-5.128-9.6-4.058-1.046-6.804 0-8.152 3.896zM20.086 12.718c-0.86-0.224-1.122-1.986-0.584-3.938 0.538-1.95 1.672-3.35 2.532-3.126s1.122 1.988 0.584 3.938c-0.538 1.95-1.672 3.35-2.532 3.126z"></path>
</svg>
