<!-- Generated by IcoMoon.io -->
<svg version="1.1" xmlns="http://www.w3.org/2000/svg" width="32" height="32" viewBox="0 0 32 32">
<title>egg</title>
<path d="M16 30v0c-5.523 0-10-4.477-10-10 0-3.912 1.38-8.572 3.484-12.24 1.048-1.826 2.224-3.316 3.408-4.328 1.196-1.020 2.252-1.432 3.108-1.432s1.912 0.412 3.108 1.432c1.184 1.012 2.36 2.502 3.408 4.328 2.104 3.668 3.484 8.328 3.484 12.24v0c0 5.523-4.477 10-10 10zM16 32c6.627 0 12-5.373 12-12v0c0-8.628-6-20-12-20s-12 11.372-12 20c0 6.627 5.373 12 12 12v0z"></path>
</svg>
