<!-- Generated by IcoMoon.io -->
<svg version="1.1" xmlns="http://www.w3.org/2000/svg" width="32" height="32" viewBox="0 0 32 32">
<title>eject</title>
<path d="M14.54 2.094c0.366-0.39 0.885-0.633 1.46-0.633s1.094 0.243 1.459 0.632l0.001 0.001 12.69 13.54c1.2 1.276 0.292 3.366-1.46 3.366h-25.378c-1.752 0-2.66-2.090-1.46-3.368l12.688-13.538zM28.692 17l-12.692-13.538-12.692 13.538h25.384zM1 23c0-1.105 0.895-2 2-2v0h26c1.105 0 2 0.895 2 2v0 2c0 1.105-0.895 2-2 2v0h-26c-1.105 0-2-0.895-2-2v0-2zM29 23h-26v2h26v-2z"></path>
</svg>
