<!-- Generated by IcoMoon.io -->
<svg version="1.1" xmlns="http://www.w3.org/2000/svg" width="32" height="32" viewBox="0 0 32 32">
<title>envelope-open-fill</title>
<path d="M17.882 0.87c-0.545-0.296-1.193-0.47-1.882-0.47s-1.337 0.174-1.903 0.481l0.021-0.010-12 6.4c-1.27 0.687-2.118 2.009-2.118 3.53 0 0 0 0 0 0v-0 0.626l13.418 7.866 2.582-1.436 2.582 1.434 13.418-7.86v-0.63c0-0 0-0 0-0 0-1.52-0.848-2.842-2.097-3.519l-0.021-0.010-12-6.4zM32 13.746l-11.386 6.674 11.386 6.324v-13zM31.882 28.968l-15.882-8.824-15.882 8.824c0.449 1.755 2.016 3.032 3.881 3.032 0 0 0.001 0 0.001 0h24c0 0 0.001 0 0.001 0 1.865 0 3.433-1.277 3.875-3.004l0.006-0.028zM0 26.746l11.386-6.326-11.386-6.674v13z"></path>
</svg>
