<!-- Generated by IcoMoon.io -->
<svg version="1.1" xmlns="http://www.w3.org/2000/svg" width="32" height="32" viewBox="0 0 32 32">
<title>envelope</title>
<path d="M0 8c0-2.209 1.791-4 4-4v0h24c2.209 0 4 1.791 4 4v0 16c0 2.209-1.791 4-4 4v0h-24c-2.209 0-4-1.791-4-4v0-16zM4 6c-1.105 0-2 0.895-2 2v0 0.434l14 8.4 14-8.4v-0.434c0-1.105-0.895-2-2-2v0h-24zM30 10.766l-9.516 5.71 9.516 5.752v-11.46zM29.932 24.522l-11.39-6.882-2.542 1.526-2.544-1.526-11.388 6.88c0.237 0.859 1.012 1.48 1.931 1.48 0 0 0.001 0 0.001 0h24c0 0 0.001 0 0.001 0 0.919 0 1.693-0.62 1.927-1.464l0.003-0.014zM2 22.228l9.516-5.752-9.516-5.71v11.46z"></path>
</svg>
