<!-- Generated by IcoMoon.io -->
<svg version="1.1" xmlns="http://www.w3.org/2000/svg" width="32" height="32" viewBox="0 0 32 32">
<title>exclamation-octagon</title>
<path d="M9.080 0.292c0.181-0.18 0.43-0.292 0.706-0.292h12.428c0.276 0 0.525 0.112 0.706 0.292l8.788 8.788c0.18 0.181 0.292 0.43 0.292 0.706v0 12.428c-0 0.276-0.112 0.525-0.292 0.706l-8.788 8.788c-0.181 0.18-0.43 0.292-0.706 0.292h-12.428c-0.276-0-0.525-0.112-0.706-0.292l-8.788-8.788c-0.18-0.181-0.292-0.43-0.292-0.706v0-12.428c0-0.276 0.112-0.525 0.292-0.706l8.788-8.788zM10.2 2l-8.2 8.2v11.6l8.2 8.2h11.6l8.2-8.2v-11.6l-8.2-8.2h-11.6z"></path>
<path d="M14.004 22c0-1.105 0.895-2 2-2s2 0.895 2 2v0c0 1.105-0.895 2-2 2s-2-0.895-2-2v0zM14.2 9.99c-0.006-0.057-0.010-0.123-0.010-0.19 0-1 0.81-1.81 1.81-1.81s1.81 0.81 1.81 1.81c0 0.067-0.004 0.133-0.011 0.198l0.001-0.008-0.7 7.014c-0.050 0.568-0.523 1.010-1.1 1.010s-1.050-0.442-1.1-1.006l-0-0.004-0.7-7.014z"></path>
</svg>
