<!-- Generated by IcoMoon.io -->
<svg version="1.1" xmlns="http://www.w3.org/2000/svg" width="32" height="32" viewBox="0 0 32 32">
<title>exclamation-circle</title>
<path d="M16 30v0c-7.732 0-14-6.268-14-14s6.268-14 14-14v0c7.732 0 14 6.268 14 14s-6.268 14-14 14zM16 32c8.837 0 16-7.163 16-16s-7.163-16-16-16v0c-8.837 0-16 7.163-16 16s7.163 16 16 16v0z"></path>
<path d="M14.004 22c0-1.105 0.895-2 2-2s2 0.895 2 2v0c0 1.105-0.895 2-2 2s-2-0.895-2-2v0zM14.2 9.99c-0.006-0.057-0.010-0.123-0.010-0.19 0-1 0.81-1.81 1.81-1.81s1.81 0.81 1.81 1.81c0 0.067-0.004 0.133-0.011 0.198l0.001-0.008-0.7 7.014c-0.050 0.568-0.523 1.010-1.1 1.010s-1.050-0.442-1.1-1.006l-0-0.004-0.7-7.014z"></path>
</svg>
