<!-- Generated by IcoMoon.io -->
<svg version="1.1" xmlns="http://www.w3.org/2000/svg" width="32" height="32" viewBox="0 0 32 32">
<title>exclamation-diamond-fill</title>
<path d="M18.1 0.87c-1.16-1.16-3.040-1.16-4.2 0l-13.028 13.030c-1.16 1.16-1.16 3.038 0 4.196l13.032 13.032c1.16 1.16 3.038 1.16 4.196 0l13.032-13.032c1.16-1.16 1.16-3.038 0-4.196l-13.032-13.030zM16 8c-0.999 0.001-1.809 0.811-1.809 1.81 0 0.063 0.003 0.126 0.010 0.188l-0.001-0.008 0.7 7.014c0.050 0.568 0.523 1.010 1.1 1.010s1.050-0.442 1.1-1.006l0-0.004 0.7-7.014c0.006-0.054 0.009-0.117 0.009-0.18 0-0.999-0.81-1.809-1.809-1.81h-0zM16.004 20c-1.105 0-2 0.895-2 2s0.895 2 2 2v0c1.105 0 2-0.895 2-2s-0.895-2-2-2v0z"></path>
</svg>
