<!-- Generated by IcoMoon.io -->
<svg version="1.1" xmlns="http://www.w3.org/2000/svg" width="32" height="32" viewBox="0 0 32 32">
<title>exclamation-triangle-fill</title>
<path d="M17.964 3.132c-0.397-0.683-1.126-1.135-1.96-1.135s-1.563 0.452-1.954 1.124l-0.006 0.011-13.714 23.334c-0.914 1.556 0.182 3.534 1.96 3.534h27.426c1.778 0 2.876-1.98 1.96-3.534l-13.712-23.334zM16 10c-0.999 0.001-1.809 0.811-1.809 1.81 0 0.063 0.003 0.126 0.010 0.188l-0.001-0.008 0.7 7.014c0.050 0.568 0.523 1.010 1.1 1.010s1.050-0.442 1.1-1.006l0-0.004 0.7-7.014c0.006-0.054 0.009-0.117 0.009-0.18 0-0.999-0.81-1.809-1.809-1.81h-0zM16.004 22c-1.105 0-2 0.895-2 2s0.895 2 2 2v0c1.105 0 2-0.895 2-2s-0.895-2-2-2v0z"></path>
</svg>
