<!-- Generated by IcoMoon.io -->
<svg version="1.1" xmlns="http://www.w3.org/2000/svg" width="32" height="32" viewBox="0 0 32 32">
<title>exclamation-diamond</title>
<path d="M13.9 0.87c1.16-1.16 3.040-1.16 4.2 0l13.030 13.032c1.16 1.16 1.16 3.038 0 4.196l-13.030 13.032c-1.16 1.16-3.038 1.16-4.196 0l-13.034-13.030c-0.538-0.537-0.87-1.278-0.87-2.098s0.333-1.561 0.87-2.098l13.030-13.034zM16.7 2.27c-0.179-0.179-0.427-0.29-0.7-0.29s-0.521 0.111-0.7 0.29l-13.032 13.030c-0.179 0.179-0.29 0.427-0.29 0.7s0.111 0.521 0.29 0.7l13.032 13.032c0.179 0.179 0.427 0.29 0.7 0.29s0.521-0.111 0.7-0.29l13.032-13.032c0.179-0.179 0.29-0.427 0.29-0.7s-0.111-0.521-0.29-0.7l-13.032-13.032z"></path>
<path d="M14.004 22c0-1.105 0.895-2 2-2s2 0.895 2 2v0c0 1.105-0.895 2-2 2s-2-0.895-2-2v0zM14.2 9.99c-0.006-0.057-0.010-0.123-0.010-0.19 0-1 0.81-1.81 1.81-1.81s1.81 0.81 1.81 1.81c0 0.067-0.004 0.133-0.011 0.198l0.001-0.008-0.7 7.014c-0.050 0.568-0.523 1.010-1.1 1.010s-1.050-0.442-1.1-1.006l-0-0.004-0.7-7.014z"></path>
</svg>
