<!-- Generated by IcoMoon.io -->
<svg version="1.1" xmlns="http://www.w3.org/2000/svg" width="32" height="32" viewBox="0 0 32 32">
<title>eye-slash</title>
<path d="M26.718 22.476c3.402-3.036 5.282-6.476 5.282-6.476s-6-11-16-11c-2.020 0.007-3.937 0.439-5.669 1.212l0.089-0.036 1.54 1.542c1.201-0.451 2.589-0.714 4.038-0.718h0.002c4.24 0 7.758 2.336 10.336 4.914 1.211 1.217 2.304 2.554 3.26 3.99l0.060 0.096c-0.116 0.174-0.244 0.366-0.39 0.576-0.67 0.96-1.66 2.24-2.93 3.51-0.33 0.33-0.674 0.656-1.034 0.972l1.416 1.418z"></path>
<path d="M22.594 18.352c0.259-0.701 0.409-1.512 0.409-2.357 0-3.866-3.134-7-7-7-0.845 0-1.655 0.15-2.405 0.424l0.049-0.016 1.646 1.646c0.213-0.032 0.459-0.050 0.708-0.050 2.761 0 5 2.239 5 5 0 0.25-0.018 0.496-0.054 0.736l0.003-0.027 1.644 1.644zM16.708 20.95l1.644 1.644c-0.701 0.259-1.512 0.409-2.357 0.409-3.866 0-7-3.134-7-7 0-0.845 0.15-1.655 0.424-2.405l-0.016 0.049 1.646 1.646c-0.032 0.213-0.050 0.459-0.050 0.708 0 2.761 2.239 5 5 5 0.25 0 0.496-0.018 0.736-0.054l-0.027 0.003z"></path>
<path d="M6.7 10.94c-0.36 0.32-0.706 0.644-1.036 0.974-1.211 1.217-2.304 2.554-3.26 3.99l-0.060 0.096 0.39 0.576c0.67 0.96 1.66 2.24 2.93 3.51 2.578 2.578 6.098 4.914 10.336 4.914 1.432 0 2.78-0.266 4.040-0.72l1.54 1.544c-1.643 0.737-3.56 1.169-5.577 1.176h-0.003c-10 0-16-11-16-11s1.878-3.442 5.282-6.476l1.416 1.418z"></path>
<path d="M27.292 28.708l-24-24 1.416-1.416 24 24-1.416 1.416z"></path>
</svg>
