<!-- Generated by IcoMoon.io -->
<svg version="1.1" xmlns="http://www.w3.org/2000/svg" width="32" height="32" viewBox="0 0 32 32">
<title>file-music-fill</title>
<path d="M24 2v0c2.209 0 4 1.791 4 4v20c0 2.209-1.791 4-4 4h-16c-2.209 0-4-1.791-4-4v-20c0-2.209 1.791-4 4-4h16zM17.45 7.586c-0.844 0.247-1.45 1.014-1.45 1.922v10.892c-0.581-0.253-1.257-0.4-1.968-0.4-0.011 0-0.023 0-0.034 0h0.002c-2.21 0-4 1.344-4 3s1.79 3 4 3 4-1.344 4-3v-9.572l5-1.428v-3.348c0-0 0-0.001 0-0.001 0-1.105-0.895-2-2-2-0.196 0-0.385 0.028-0.564 0.081l0.014-0.004-3 0.858z"></path>
</svg>
