<!-- Generated by IcoMoon.io -->
<svg version="1.1" xmlns="http://www.w3.org/2000/svg" width="32" height="32" viewBox="0 0 32 32">
<title>file-earmark-plus</title>
<path d="M18 2h-10c-2.209 0-4 1.791-4 4v0 20c0 2.209 1.791 4 4 4v0h10v-2h-10c-1.105 0-2-0.895-2-2v0-20c0-1.105 0.895-2 2-2v0h10v5c0 1.657 1.343 3 3 3v0h5v4h2v-4l-10-10z"></path>
<path d="M27 20c0.552 0 1 0.448 1 1v0 4c0 0.552-0.448 1-1 1v0h-4c-0.552 0-1-0.448-1-1s0.448-1 1-1v0h3v-3c0-0.552 0.448-1 1-1v0z"></path>
<path d="M26 25c0-0.552 0.448-1 1-1v0h4c0.552 0 1 0.448 1 1s-0.448 1-1 1v0h-3v3c0 0.552-0.448 1-1 1s-1-0.448-1-1v0-4z"></path>
</svg>
