<!-- Generated by IcoMoon.io -->
<svg version="1.1" xmlns="http://www.w3.org/2000/svg" width="32" height="32" viewBox="0 0 32 32">
<title>file-earmark-binary-fill</title>
<path d="M4 6v20c0 2.209 1.791 4 4 4h16c2.209 0 4-1.791 4-4v-14.586c-0-0.552-0.224-1.052-0.586-1.414l-7.414-7.414c-0.362-0.362-0.862-0.586-1.414-0.586h-10.586c-2.209 0-4 1.791-4 4zM18 10v-6l8 8h-6c-1.105 0-2-0.895-2-2v0zM14.1 21.77c0 2.83-1.096 4.412-3.048 4.412-1.956-0.002-3.052-1.582-3.052-4.412 0-2.824 1.096-4.406 3.052-4.406 1.952 0 3.048 1.58 3.048 4.406zM11.054 18.548c0.716 0 1.214 0.492 1.466 1.44l-3.12 2.286c-0.006-0.158-0.012-0.328-0.012-0.504 0-2.098 0.58-3.224 1.664-3.224zM9.588 23.562l3.112-2.292c0.006 0.16 0.012 0.33 0.012 0.5 0 2.102-0.58 3.228-1.66 3.228-0.72 0-1.212-0.492-1.464-1.436zM21.71 24.81v1.19h-6v-1.19h2.362v-5.81h-0.1l-2.272 1.494v-1.376l2.38-1.572h1.38v7.266h2.25z"></path>
</svg>
