<!-- Generated by IcoMoon.io -->
<svg version="1.1" xmlns="http://www.w3.org/2000/svg" width="32" height="32" viewBox="0 0 32 32">
<title>file-earmark-break-fill</title>
<path d="M0 21v0c0 0.552 0.448 1 1 1h30c0.552 0 1-0.448 1-1s-0.448-1-1-1h-30c-0.552 0-1 0.448-1 1zM4 6v12h24v-6.586c-0-0.552-0.224-1.052-0.586-1.414l-7.414-7.414c-0.362-0.362-0.862-0.586-1.414-0.586h-10.586c-2.209 0-4 1.791-4 4zM18 10v-6l8 8h-6c-1.105 0-2-0.895-2-2v0z"></path>
<path d="M4 26c0 2.209 1.791 4 4 4v0h16c2.209 0 4-1.791 4-4v0-2h-24v2z"></path>
</svg>
