<!-- Generated by IcoMoon.io -->
<svg version="1.1" xmlns="http://www.w3.org/2000/svg" width="32" height="32" viewBox="0 0 32 32">
<title>file-earmark-medical</title>
<path d="M8 2h10v2h-10c-1.105 0-2 0.895-2 2v0 20c0 1.105 0.895 2 2 2v0h16c1.105 0 2-0.895 2-2v0-14h2v14c0 2.209-1.791 4-4 4v0h-16c-2.209 0-4-1.791-4-4v0-20c0-2.209 1.791-4 4-4v0z"></path>
<path d="M18 9v-7l10 10h-7c-1.657 0-3-1.343-3-3v0z"></path>
<path d="M14 8c0.552 0 1 0.448 1 1v0 1.268l1.098-0.634c0.145-0.086 0.319-0.137 0.506-0.137 0.552 0 1 0.448 1 1 0 0.371-0.201 0.694-0.501 0.867l-0.005 0.003-1.098 0.634 1.098 0.634c0.304 0.175 0.506 0.499 0.506 0.869 0 0.552-0.448 1-1 1-0.186 0-0.361-0.051-0.51-0.14l0.005 0.003-1.098-0.634v1.268c0 0.552-0.448 1-1 1s-1-0.448-1-1v0-1.268l-1.098 0.634c-0.145 0.086-0.319 0.137-0.506 0.137-0.552 0-1-0.448-1-1 0-0.371 0.201-0.694 0.501-0.867l0.005-0.003 1.098-0.634-1.098-0.634c-0.298-0.177-0.494-0.497-0.494-0.863 0-0.552 0.448-1 1-1 0.182 0 0.352 0.049 0.499 0.133l-0.005-0.003 1.098 0.634v-1.268c0-0.552 0.448-1 1-1v0zM10 19c0-0.552 0.448-1 1-1v0h10c0.552 0 1 0.448 1 1s-0.448 1-1 1v0h-10c-0.552 0-1-0.448-1-1v0zM10 23c0-0.552 0.448-1 1-1v0h10c0.552 0 1 0.448 1 1s-0.448 1-1 1v0h-10c-0.552 0-1-0.448-1-1v0z"></path>
</svg>
