<!-- Generated by IcoMoon.io -->
<svg version="1.1" xmlns="http://www.w3.org/2000/svg" width="32" height="32" viewBox="0 0 32 32">
<title>file-code-fill</title>
<path d="M24 2h-16c-2.209 0-4 1.791-4 4v0 20c0 2.209 1.791 4 4 4v0h16c2.209 0 4-1.791 4-4v0-20c0-2.209-1.791-4-4-4v0zM13.292 11.292c0.181-0.181 0.431-0.293 0.708-0.293 0.553 0 1.001 0.448 1.001 1.001 0 0.277-0.112 0.527-0.293 0.708v0l-3.294 3.292 3.294 3.292c0.181 0.181 0.293 0.431 0.293 0.708 0 0.553-0.448 1.001-1.001 1.001-0.277 0-0.527-0.112-0.708-0.293v0l-4-4c-0.181-0.181-0.294-0.431-0.294-0.708s0.112-0.527 0.294-0.708l4-4zM18.708 11.292c-0.181-0.181-0.431-0.293-0.708-0.293-0.553 0-1.001 0.448-1.001 1.001 0 0.277 0.112 0.527 0.293 0.708v0l3.294 3.292-3.294 3.292c-0.181 0.181-0.293 0.431-0.293 0.708 0 0.553 0.448 1.001 1.001 1.001 0.276 0 0.527-0.112 0.708-0.293v0l4-4c0.181-0.181 0.294-0.431 0.294-0.708s-0.112-0.527-0.294-0.708l-4-4z"></path>
</svg>
