<!-- Generated by IcoMoon.io -->
<svg version="1.1" xmlns="http://www.w3.org/2000/svg" width="32" height="32" viewBox="0 0 32 32">
<title>flag-fill</title>
<path d="M7 2c0.552 0 1 0.448 1 1v0 26c0 0.552-0.448 1-1 1s-1-0.448-1-1v0-26c0-0.552 0.448-1 1-1v0z"></path>
<path d="M7.524 5.116c1.946-1.298 3.172-2.116 5.476-2.116 1.306 0 2.278 0.65 2.99 1.124l0.064 0.044c0.782 0.52 1.292 0.832 1.946 0.832 0.336 0 0.712-0.084 1.174-0.252 0.519-0.196 0.91-0.364 1.294-0.546l-0.108 0.046c0.116-0.054 0.234-0.106 0.36-0.16 1.14-0.51 2.556-1.088 4.28-1.088 0.552 0 1 0.448 1 1v0 12c0 0.552-0.448 1-1 1v0c-1.276 0-2.36 0.42-3.468 0.914l-0.318 0.14c-0.44 0.2-0.906 0.41-1.356 0.574-0.549 0.221-1.186 0.356-1.852 0.372l-0.006 0c-1.306 0-2.278-0.65-2.99-1.124l-0.064-0.044c-0.782-0.52-1.292-0.832-1.946-0.832-1.666 0-2.436 0.492-4.446 1.832-0.156 0.105-0.348 0.167-0.554 0.167-0.552 0-1-0.447-1-0.999v-12c0-0.346 0.176-0.65 0.442-0.83l0.004-0.002 0.080-0.052z"></path>
</svg>
