<!-- Generated by IcoMoon.io -->
<svg version="1.1" xmlns="http://www.w3.org/2000/svg" width="32" height="32" viewBox="0 0 32 32">
<title>flag</title>
<path d="M7 2c0.552 0 1 0.448 1 1v0 26c0 0.552-0.448 1-1 1s-1-0.448-1-1v0-26c0-0.552 0.448-1 1-1v0z"></path>
<path d="M7.524 5.116c1.946-1.298 3.172-2.116 5.476-2.116 1.306 0 2.278 0.65 2.99 1.124l0.064 0.044c0.782 0.52 1.292 0.832 1.946 0.832 0.336 0 0.712-0.084 1.174-0.252 0.519-0.196 0.91-0.364 1.294-0.546l-0.108 0.046c0.116-0.054 0.234-0.106 0.36-0.16 1.14-0.51 2.556-1.088 4.28-1.088 0.552 0 1 0.448 1 1v0 12c0 0.552-0.448 1-1 1v0c-1.276 0-2.36 0.42-3.468 0.914l-0.318 0.14c-0.44 0.2-0.906 0.41-1.356 0.574-0.549 0.221-1.186 0.356-1.852 0.372l-0.006 0c-1.306 0-2.278-0.65-2.99-1.124l-0.064-0.044c-0.782-0.52-1.292-0.832-1.946-0.832-1.666 0-2.436 0.492-4.446 1.832-0.147 0.090-0.325 0.143-0.515 0.143-0.553 0-1.001-0.448-1.001-1.001 0-0.362 0.193-0.68 0.481-0.855l0.004-0.003c1.946-1.298 3.172-2.116 5.476-2.116 1.306 0 2.278 0.65 2.99 1.124l0.064 0.044c0.782 0.52 1.292 0.832 1.946 0.832 0.336 0 0.712-0.084 1.174-0.252 0.374-0.136 0.752-0.306 1.186-0.5 0.116-0.054 0.234-0.106 0.36-0.16 0.912-0.408 2-0.86 3.28-1.024v-9.978c-0.866 0.148-1.66 0.468-2.468 0.828l-0.318 0.14c-0.44 0.2-0.906 0.41-1.356 0.574-0.549 0.221-1.186 0.356-1.852 0.372l-0.006 0c-1.306 0-2.278-0.65-2.99-1.124l-0.064-0.044c-0.782-0.52-1.292-0.832-1.946-0.832-1.666 0-2.436 0.492-4.446 1.832-0.15 0.095-0.333 0.152-0.53 0.152-0.552 0-1-0.448-1-1 0-0.335 0.165-0.632 0.419-0.814l0.003-0.002 0.080-0.052z"></path>
</svg>
