<!-- Generated by IcoMoon.io -->
<svg version="1.1" xmlns="http://www.w3.org/2000/svg" width="32" height="32" viewBox="0 0 32 32">
<title>gear-wide</title>
<path d="M17.864 1.454l0.142 0.572 0.003 0.013c0.213 0.829 0.965 1.441 1.86 1.441 0.542 0 1.032-0.225 1.381-0.586l0.41-0.422c1.39-1.438 3.776-0.058 3.226 1.862l-0.162 0.568 0.003-0.014c-0.050 0.171-0.077 0.352-0.077 0.539 0 1.060 0.86 1.92 1.92 1.92 0.188 0 0.369-0.027 0.527-0.074l0.568-0.16c1.922-0.55 3.3 1.836 1.862 3.226l-0.423 0.411c-0.361 0.349-0.586 0.839-0.586 1.381 0 0.895 0.612 1.647 1.454 1.863l0.572 0.142c1.94 0.488 1.94 3.242 0 3.728l-0.585 0.145c-0.829 0.213-1.441 0.965-1.441 1.86 0 0.542 0.225 1.032 0.586 1.381l0.422 0.41c1.438 1.39 0.058 3.776-1.862 3.226l-0.552-0.159c-0.172-0.050-0.354-0.077-0.542-0.077-1.060 0-1.92 0.86-1.92 1.92 0 0.188 0.027 0.37 0.074 0.528l0.16 0.568c0.55 1.922-1.836 3.3-3.226 1.862l-0.411-0.423c-0.349-0.361-0.839-0.586-1.381-0.586-0.895 0-1.647 0.612-1.863 1.454l-0.142 0.572c-0.488 1.94-3.242 1.94-3.728 0l-0.142-0.572-0.003-0.013c-0.213-0.829-0.965-1.441-1.86-1.441-0.542 0-1.032 0.225-1.381 0.586l-0.41 0.422c-1.39 1.438-3.776 0.058-3.226-1.862l0.162-0.566-0.003 0.014c0.050-0.172 0.077-0.354 0.077-0.542 0-1.060-0.86-1.92-1.92-1.92-0.188 0-0.37 0.027-0.528 0.074l-0.568 0.16c-1.922 0.55-3.3-1.836-1.862-3.226l0.423-0.411c0.361-0.349 0.586-0.839 0.586-1.381 0-0.895-0.612-1.647-1.454-1.863l-0.572-0.142c-1.94-0.488-1.94-3.242 0-3.728l0.585-0.145c0.829-0.213 1.441-0.965 1.441-1.86 0-0.542-0.225-1.032-0.586-1.381l-0.422-0.41c-1.438-1.39-0.058-3.776 1.862-3.226l0.554 0.159c0.171 0.050 0.352 0.077 0.539 0.077 1.060 0 1.92-0.86 1.92-1.92 0-0.188-0.027-0.369-0.074-0.527l-0.16-0.568c-0.55-1.922 1.836-3.3 3.226-1.862l0.411 0.423c0.349 0.361 0.839 0.586 1.381 0.586 0.895 0 1.647-0.612 1.863-1.454l0.142-0.572c0.488-1.94 3.242-1.94 3.728 0zM16 25.994c0.042 0.001 0.092 0.001 0.141 0.001 5.521 0 9.996-4.475 9.996-9.996s-4.475-9.996-9.996-9.996c-0.050 0-0.099 0-0.149 0.001l0.008-0c-5.521 0-9.996 4.475-9.996 9.996s4.475 9.996 9.996 9.996v0z"></path>
</svg>
