<!-- Generated by IcoMoon.io -->
<svg version="1.1" xmlns="http://www.w3.org/2000/svg" width="32" height="32" viewBox="0 0 32 32">
<title>gear-fill</title>
<path d="M18.81 2.1l0.2 0.68 0.005 0.021c0.363 1.204 1.481 2.080 2.803 2.080 0.514 0 0.997-0.132 1.401-0.357l0.622-0.338c2.564-1.398 5.37 1.408 3.974 3.974l-0.34 0.62 0.008-0.015c-0.232 0.42-0.365 0.903-0.365 1.416 0 1.322 0.877 2.44 2.101 2.809l0.68 0.2c2.8 0.826 2.8 4.794 0 5.62l-0.68 0.2-0.021 0.005c-1.204 0.363-2.080 1.481-2.080 2.803 0 0.514 0.132 0.997 0.357 1.401l0.338 0.622c1.398 2.564-1.408 5.37-3.974 3.974l-0.62-0.34 0.015 0.008c-0.42-0.232-0.903-0.365-1.416-0.365-1.322 0-2.44 0.877-2.809 2.101l-0.2 0.68c-0.826 2.8-4.794 2.8-5.62 0l-0.2-0.68-0.005-0.021c-0.364-1.204-1.481-2.080-2.803-2.080-0.514 0-0.997 0.132-1.401 0.357l-0.622 0.338c-2.564 1.398-5.37-1.408-3.974-3.974l0.34-0.62-0.008 0.015c0.232-0.42 0.365-0.903 0.365-1.416 0-1.322-0.877-2.44-2.101-2.809l-0.68-0.2c-2.8-0.826-2.8-4.794 0-5.62l0.68-0.2c1.79-0.528 2.636-2.57 1.744-4.21l-0.338-0.622c-1.398-2.564 1.408-5.37 3.974-3.974l0.62 0.34-0.015-0.008c0.42 0.232 0.903 0.365 1.416 0.365 1.322 0 2.44-0.877 2.809-2.101l0.2-0.68c0.826-2.8 4.794-2.8 5.62 0zM16 21.86c3.236 0 5.86-2.624 5.86-5.86s-2.624-5.86-5.86-5.86v0c-3.235 0-5.858 2.623-5.858 5.858s2.623 5.858 5.858 5.858v0z"></path>
</svg>
