<!-- Generated by IcoMoon.io -->
<svg version="1.1" xmlns="http://www.w3.org/2000/svg" width="32" height="32" viewBox="0 0 32 32">
<title>gift</title>
<path d="M6 5c0-2.761 2.239-5 5-5s5 2.239 5 5v0c0-2.761 2.239-5 5-5s5 2.239 5 5v0 0.012c0 0.14 0 0.54-0.076 0.988h4.076c1.105 0 2 0.895 2 2v0 4c0 1.105-0.895 2-2 2v0 15c0 1.657-1.343 3-3 3v0h-22c-1.657 0-3-1.343-3-3v0-15c-1.105 0-2-0.895-2-2v0-4c0-1.105 0.895-2 2-2v0h4.076c-0.048-0.285-0.076-0.613-0.076-0.948 0-0.014 0-0.028 0-0.043v0.002-0.012zM8.136 6h5.864v-1c0-1.657-1.343-3-3-3s-3 1.343-3 3v0c0 0.17 0.004 0.548 0.090 0.86 0.014 0.055 0.030 0.102 0.049 0.147l-0.003-0.007zM18 6h5.864c0.016-0.038 0.032-0.084 0.044-0.132l0.002-0.008c0.086-0.312 0.090-0.69 0.090-0.86 0-1.657-1.343-3-3-3s-3 1.343-3 3v0 1zM2 8v4h12v-4h-12zM18 8v4h12v-4h-12zM28 14h-10v16h9c0.552 0 1-0.448 1-1v0-15zM14 30v-16h-10v15c0 0.552 0.448 1 1 1v0h9z"></path>
</svg>
