<!-- Generated by IcoMoon.io -->
<svg version="1.1" xmlns="http://www.w3.org/2000/svg" width="32" height="32" viewBox="0 0 32 32">
<title>grid-3x3-gap</title>
<path d="M8 4v4h-4v-4h4zM10 28v0c0 1.105-0.895 2-2 2h-4c-1.105 0-2-0.895-2-2v-4c0-1.105 0.895-2 2-2h4c1.105 0 2 0.895 2 2v4zM10 18v0c0 1.105-0.895 2-2 2h-4c-1.105 0-2-0.895-2-2v-4c0-1.105 0.895-2 2-2h4c1.105 0 2 0.895 2 2v4zM10 8v-4c0-1.105-0.895-2-2-2v0h-4c-1.105 0-2 0.895-2 2v0 4c0 1.105 0.895 2 2 2v0h4c1.105 0 2-0.895 2-2v0zM20 28v0c0 1.105-0.895 2-2 2h-4c-1.105 0-2-0.895-2-2v-4c0-1.105 0.895-2 2-2h4c1.105 0 2 0.895 2 2v4zM20 18v0c0 1.105-0.895 2-2 2h-4c-1.105 0-2-0.895-2-2v-4c0-1.105 0.895-2 2-2h4c1.105 0 2 0.895 2 2v4zM20 8v0c0 1.105-0.895 2-2 2h-4c-1.105 0-2-0.895-2-2v-4c0-1.105 0.895-2 2-2h4c1.105 0 2 0.895 2 2v4zM18 4h-4v4h4v-4zM28 4v4h-4v-4h4zM8 14h-4v4h4v-4zM18 14h-4v4h4v-4zM28 14h-4v4h4v-4zM8 24h-4v4h4v-4zM18 24h-4v4h4v-4zM28 24v4h-4v-4h4zM24 2c-1.105 0-2 0.895-2 2v0 4c0 1.105 0.895 2 2 2v0h4c1.105 0 2-0.895 2-2v0-4c0-1.105-0.895-2-2-2v0h-4zM22 14c0-1.105 0.895-2 2-2v0h4c1.105 0 2 0.895 2 2v0 4c0 1.105-0.895 2-2 2v0h-4c-1.105 0-2-0.895-2-2v0-4zM24 22c-1.105 0-2 0.895-2 2v0 4c0 1.105 0.895 2 2 2v0h4c1.105 0 2-0.895 2-2v0-4c0-1.105-0.895-2-2-2v0h-4z"></path>
</svg>
