<!-- Generated by IcoMoon.io -->
<svg version="1.1" xmlns="http://www.w3.org/2000/svg" width="32" height="32" viewBox="0 0 32 32">
<title>grid-3x2-gap</title>
<path d="M8 8v4h-4v-4h4zM10 22v0c0 1.105-0.895 2-2 2h-4c-1.105 0-2-0.895-2-2v-4c0-1.105 0.895-2 2-2h4c1.105 0 2 0.895 2 2v4zM10 12v-4c0-1.105-0.895-2-2-2v0h-4c-1.105 0-2 0.895-2 2v0 4c0 1.105 0.895 2 2 2v0h4c1.105 0 2-0.895 2-2v0zM20 22v0c0 1.105-0.895 2-2 2h-4c-1.105 0-2-0.895-2-2v-4c0-1.105 0.895-2 2-2h4c1.105 0 2 0.895 2 2v4zM20 12v0c0 1.105-0.895 2-2 2h-4c-1.105 0-2-0.895-2-2v-4c0-1.105 0.895-2 2-2h4c1.105 0 2 0.895 2 2v4zM18 8h-4v4h4v-4zM28 8h-4v4h4v-4zM8 18h-4v4h4v-4zM18 18h-4v4h4v-4zM28 18v4h-4v-4h4zM22 8c0-1.105 0.895-2 2-2v0h4c1.105 0 2 0.895 2 2v0 4c0 1.105-0.895 2-2 2v0h-4c-1.105 0-2-0.895-2-2v0-4zM24 16c-1.105 0-2 0.895-2 2v0 4c0 1.105 0.895 2 2 2v0h4c1.105 0 2-0.895 2-2v0-4c0-1.105-0.895-2-2-2v0h-4z"></path>
</svg>
