<!-- Generated by IcoMoon.io -->
<svg version="1.1" xmlns="http://www.w3.org/2000/svg" width="32" height="32" viewBox="0 0 32 32">
<title>heptagon</title>
<path d="M15.558 0.104c0.129-0.065 0.281-0.103 0.442-0.103s0.313 0.038 0.448 0.106l-0.006-0.003 12.030 5.94c0.269 0.135 0.466 0.379 0.533 0.673l0.001 0.007 2.97 13.352c0.015 0.065 0.024 0.14 0.024 0.217 0 0.232-0.079 0.445-0.212 0.615l0.002-0.002-8.324 10.708c-0.185 0.236-0.469 0.386-0.789 0.386-0 0-0 0-0.001 0h-13.352c-0 0-0 0-0.001 0-0.32 0-0.605-0.15-0.788-0.384l-0.002-0.002-8.324-10.708c-0.131-0.167-0.21-0.381-0.21-0.613 0-0.077 0.009-0.152 0.025-0.224l-0.001 0.007 2.97-13.352c0.068-0.301 0.265-0.545 0.528-0.677l0.006-0.003 12.030-5.938zM4.844 7.626l-2.766 12.424 7.736 9.95h12.372l7.736-9.95-2.766-12.424-11.156-5.51-11.156 5.51z"></path>
</svg>
