<!-- Generated by IcoMoon.io -->
<svg version="1.1" xmlns="http://www.w3.org/2000/svg" width="32" height="32" viewBox="0 0 32 32">
<title>hexagon-half</title>
<path d="M28 9.154v13.692l-12 7.154v-28l12 7.154zM17 0.268c-0.287-0.168-0.632-0.268-1-0.268s-0.713 0.1-1.009 0.273l0.009-0.005-12 7.154c-0.602 0.352-1 0.996-1 1.732v0 13.692c0 0.736 0.398 1.38 0.991 1.727l0.009 0.005 12 7.154c0.287 0.168 0.632 0.268 1 0.268s0.713-0.099 1.009-0.273l-0.009 0.005 12-7.154c0.602-0.352 1-0.996 1-1.732v0-13.692c-0-0.736-0.398-1.38-0.991-1.727l-0.009-0.005-12-7.154z"></path>
</svg>
