<!-- Generated by IcoMoon.io -->
<svg version="1.1" xmlns="http://www.w3.org/2000/svg" width="32" height="32" viewBox="0 0 32 32">
<title>hourglass</title>
<path d="M4 3c0-0.552 0.448-1 1-1v0h22c0.552 0 1 0.448 1 1s-0.448 1-1 1v0h-2v2c0 0.001 0 0.001 0 0.002 0 3.558-2.064 6.633-5.061 8.094l-0.053 0.023c-0.58 0.278-0.886 0.754-0.886 1.18v1.4c0 0.426 0.308 0.902 0.886 1.18 3.050 1.484 5.114 4.56 5.114 8.118 0 0.001 0 0.002 0 0.002v-0 2h2c0.552 0 1 0.448 1 1s-0.448 1-1 1v0h-22c-0.552 0-1-0.448-1-1s0.448-1 1-1v0h2v-2c0-0.001 0-0.001 0-0.002 0-3.558 2.064-6.633 5.061-8.094l0.053-0.023c0.58-0.278 0.886-0.754 0.886-1.18v-1.4c0-0.426-0.308-0.902-0.886-1.18-3.050-1.484-5.114-4.56-5.114-8.118 0-0.001 0-0.002 0-0.002v0-2h-2c-0.552 0-1-0.448-1-1v0zM9 4v2c0 0.001 0 0.001 0 0.002 0 2.767 1.606 5.16 3.937 6.296l0.041 0.018c1.066 0.512 2.022 1.582 2.022 2.982v1.404c0 1.4-0.956 2.47-2.022 2.982-2.372 1.154-3.978 3.547-3.978 6.314 0 0.001 0 0.001 0 0.002v-0 2h14v-2c0-0.001 0-0.001 0-0.002 0-2.767-1.606-5.16-3.937-6.296l-0.041-0.018c-1.066-0.512-2.022-1.58-2.022-2.982v-1.404c0-1.4 0.956-2.47 2.022-2.982 2.372-1.154 3.978-3.547 3.978-6.314 0-0.001 0-0.001 0-0.002v0-2h-14z"></path>
</svg>
