<!-- Generated by IcoMoon.io -->
<svg version="1.1" xmlns="http://www.w3.org/2000/svg" width="32" height="32" viewBox="0 0 32 32">
<title>house</title>
<path d="M4 27v-13h2v13c0 0.552 0.448 1 1 1v0h18c0.552 0 1-0.448 1-1v0-13h2v13c0 1.657-1.343 3-3 3v0h-18c-1.657 0-3-1.343-3-3v0zM26 5v7l-4-4v-3c0-0.552 0.448-1 1-1v0h2c0.552 0 1 0.448 1 1v0z"></path>
<path d="M14.586 3c0.362-0.362 0.862-0.586 1.414-0.586s1.052 0.224 1.414 0.586l13.294 13.292c0.181 0.181 0.293 0.431 0.293 0.708 0 0.553-0.448 1.001-1.001 1.001-0.276 0-0.527-0.112-0.708-0.293v0l-13.292-13.294-13.292 13.294c-0.181 0.181-0.431 0.293-0.708 0.293-0.553 0-1.001-0.448-1.001-1.001 0-0.276 0.112-0.527 0.293-0.708l13.294-13.292z"></path>
</svg>
