<!-- Generated by IcoMoon.io -->
<svg version="1.1" xmlns="http://www.w3.org/2000/svg" width="32" height="32" viewBox="0 0 32 32">
<title>image-fill</title>
<path d="M0.004 6v20c0 2.209 1.791 4 4 4h24c2.209 0 4-1.791 4-4v-20c0-2.209-1.791-4-4-4h-24c-2.209 0-4 1.791-4 4zM2.004 24l5.292-4.708c0.181-0.18 0.43-0.292 0.706-0.292 0.207 0 0.398 0.063 0.558 0.17l-0.004-0.002 5.32 3.546 7.42-7.42c0.181-0.181 0.431-0.293 0.707-0.293 0.163 0 0.316 0.039 0.452 0.108l-0.006-0.003 7.554 3.894v7c0 1.105-0.895 2-2 2v0h-24c-1.105 0-2-0.895-2-2v0-2zM12.004 11c0 1.657-1.343 3-3 3s-3-1.343-3-3v0c0-1.657 1.343-3 3-3s3 1.343 3 3v0z"></path>
</svg>
