<!-- Generated by IcoMoon.io -->
<svg version="1.1" xmlns="http://www.w3.org/2000/svg" width="32" height="32" viewBox="0 0 32 32">
<title>inbox-fill</title>
<path d="M7.62 8.126c0.554-0.688 1.396-1.125 2.34-1.126h12.080c0.944 0.001 1.786 0.438 2.335 1.12l0.005 0.006 7.4 9.25c0.119 0.163 0.191 0.367 0.191 0.587 0 0.552-0.448 1-1 1-0.298 0-0.566-0.131-0.75-0.338l-0.001-0.001-7.4-9.248c-0.184-0.23-0.465-0.376-0.78-0.376h-12.080c-0.315 0-0.595 0.146-0.778 0.374l-0.002 0.002-7.4 9.248c-0.184 0.251-0.478 0.413-0.809 0.413-0.552 0-1-0.448-1-1 0-0.254 0.095-0.486 0.25-0.662l-0.001 0.001 7.4-9.25z"></path>
<path d="M0.25 17.34c0.184-0.209 0.452-0.34 0.75-0.34h10c0.552 0 1 0.448 1 1v0c0 1.656 1.25 4 4 4s4-2.344 4-4c0-0.552 0.448-1 1-1v0h10c0.552 0 1 0.448 1 1 0 0.044-0.003 0.087-0.008 0.129l0.001-0.005-0.78 6.248c-0.191 1.489-1.451 2.628-2.977 2.628-0 0-0.001 0-0.001 0h-24.468c-0 0-0.001 0-0.001 0-1.526 0-2.785-1.139-2.975-2.613l-0.002-0.015-0.78-6.248c-0.005-0.037-0.008-0.081-0.008-0.125 0-0.254 0.095-0.486 0.251-0.662l-0.001 0.001z"></path>
</svg>
