<!-- Generated by IcoMoon.io -->
<svg version="1.1" xmlns="http://www.w3.org/2000/svg" width="32" height="32" viewBox="0 0 32 32">
<title>info-square</title>
<path d="M28 2v0c1.105 0 2 0.895 2 2v24c0 1.105-0.895 2-2 2h-24c-1.105 0-2-0.895-2-2v-24c0-1.105 0.895-2 2-2h24zM4 0c-2.209 0-4 1.791-4 4v0 24c0 2.209 1.791 4 4 4v0h24c2.209 0 4-1.791 4-4v0-24c0-2.209-1.791-4-4-4v0h-24z"></path>
<path d="M17.86 13.176l-4.58 0.574-0.164 0.76 0.9 0.166c0.588 0.14 0.704 0.352 0.576 0.938l-1.476 6.936c-0.388 1.794 0.21 2.638 1.616 2.638 1.090 0 2.356-0.504 2.93-1.196l0.176-0.832c-0.4 0.352-0.984 0.492-1.372 0.492-0.55 0-0.75-0.386-0.608-1.066l2.002-9.41z"></path>
<path d="M18 9c0 1.105-0.895 2-2 2s-2-0.895-2-2c0-1.105 0.895-2 2-2s2 0.895 2 2z"></path>
</svg>
