<!-- Generated by IcoMoon.io -->
<svg version="1.1" xmlns="http://www.w3.org/2000/svg" width="32" height="32" viewBox="0 0 32 32">
<title>joystick</title>
<path d="M14.212 31.106l-13.106-6.554c-0.661-0.335-1.106-1.010-1.106-1.788v-3.822c0.024-0.797 0.511-1.474 1.199-1.775l0.013-0.005 10.788-4.624v2.176l-10 4.286 11.316 5.66c0.782 0.4 1.706 0.634 2.684 0.634s1.902-0.234 2.718-0.65l-0.034 0.016 11.316-5.66-10-4.286v-2.174l10.788 4.624c0.701 0.306 1.188 0.983 1.212 1.777l0 0.003v3.822c-0 0.778-0.445 1.453-1.095 1.783l-0.011 0.005-13.106 6.554c-0.521 0.266-1.136 0.422-1.788 0.422s-1.267-0.156-1.811-0.432l0.023 0.011z"></path>
<path d="M15 19v-12h2v12h-2z"></path>
<path d="M20 19.5c0 0.828-1.79 1.5-4 1.5s-4-0.672-4-1.5 1.79-1.5 4-1.5 4 0.672 4 1.5zM20 4c0 2.209-1.791 4-4 4s-4-1.791-4-4v0c0-2.209 1.791-4 4-4s4 1.791 4 4v0z"></path>
</svg>
