<!-- Generated by IcoMoon.io -->
<svg version="1.1" xmlns="http://www.w3.org/2000/svg" width="32" height="32" viewBox="0 0 32 32">
<title>kanban-fill</title>
<path d="M5 0h22c2.209 0 4 1.791 4 4v24c0 2.209-1.791 4-4 4h-22c-2.209 0-4-1.791-4-4v-24c0-2.209 1.791-4 4-4zM15 4c-1.105 0-2 0.895-2 2v0 6c0 1.105 0.895 2 2 2v0h2c1.105 0 2-0.895 2-2v0-6c0-1.105-0.895-2-2-2v0h-2zM5 6v14c0 1.105 0.895 2 2 2h2c1.105 0 2-0.895 2-2v-14c0-1.105-0.895-2-2-2h-2c-1.105 0-2 0.895-2 2zM23 4c-1.105 0-2 0.895-2 2v0 20c0 1.105 0.895 2 2 2v0h2c1.105 0 2-0.895 2-2v0-20c0-1.105-0.895-2-2-2v0h-2z"></path>
</svg>
