<!-- Generated by IcoMoon.io -->
<svg version="1.1" xmlns="http://www.w3.org/2000/svg" width="32" height="32" viewBox="0 0 32 32">
<title>lamp-fill</title>
<path d="M4 6c0-1.105 0.895-2 2-2v0h20c1.105 0 2 0.895 2 2v0 8c0 1.105-0.895 2-2 2v0h-20c-1.105 0-2-0.895-2-2v0-8z"></path>
<path d="M15 2l0.552-1.106c0.084-0.166 0.253-0.278 0.448-0.278s0.364 0.112 0.447 0.275l0.001 0.003 0.552 1.106h-2zM13.77 18h4.46c1.706 3.19 3.77 7.38 3.77 9 0 2.76-2.686 5-6 5s-6-2.24-6-5c0-1.62 2.064-5.81 3.77-9z"></path>
</svg>
