<!-- Generated by IcoMoon.io -->
<svg version="1.1" xmlns="http://www.w3.org/2000/svg" width="32" height="32" viewBox="0 0 32 32">
<title>lamp</title>
<path d="M26 6v8h-20v-8h20zM6 4c-1.105 0-2 0.895-2 2v0 8c0 1.105 0.895 2 2 2v0h20c1.105 0 2-0.895 2-2v0-8c0-1.105-0.895-2-2-2v0h-20zM15 2h2l-0.553-1.109c-0.082-0.163-0.251-0.275-0.447-0.275s-0.364 0.112-0.448 0.278l-0.552 1.106zM14.974 20h2.052l-0.183-0.373c0.673 1.257 1.308 2.536 2.083 4.271l-0.060-0.146c0.31 0.672 0.589 1.361 0.886 2.23l-0.015-0.052c0.080 0.236 0.149 0.477 0.215 0.772l-0.004-0.018c0.017 0.073 0.031 0.148 0.044 0.238 0.008 0.052 0.008 0.078 0.008 0.078 0 1.33-1.434 3-4 3s-4-1.67-4-3l0.006-0.078c0.008-0.054 0.020-0.126 0.040-0.22l0.011-0.053c0.059-0.245 0.129-0.486 0.193-0.667 0.19-0.584 0.474-1.292 0.826-2.084 0.546-1.238 1.226-2.606 1.9-3.898zM18.23 18h-4.46c-1.706 3.19-3.77 7.38-3.77 9 0 2.76 2.686 5 6 5s6-2.24 6-5c0-1.62-2.064-5.81-3.77-9z"></path>
</svg>
