<!-- Generated by IcoMoon.io -->
<svg version="1.1" xmlns="http://www.w3.org/2000/svg" width="32" height="32" viewBox="0 0 32 32">
<title>layers-fill</title>
<path d="M15.53 3.118c0.136-0.074 0.298-0.117 0.47-0.117s0.334 0.043 0.475 0.12l-0.005-0.003 15 8c0.317 0.172 0.529 0.502 0.529 0.882s-0.212 0.71-0.523 0.879l-0.005 0.003-15 8c-0.136 0.074-0.298 0.117-0.47 0.117s-0.334-0.043-0.475-0.12l0.005 0.003-15-8c-0.317-0.172-0.529-0.502-0.529-0.882s0.212-0.71 0.523-0.879l0.005-0.003 15-8z"></path>
<path d="M4.25 17.134l-3.72 1.984c-0.317 0.172-0.529 0.502-0.529 0.882s0.212 0.71 0.523 0.879l0.005 0.003 15 8c0.136 0.074 0.298 0.117 0.47 0.117s0.334-0.043 0.475-0.12l-0.005 0.003 15-8c0.317-0.172 0.529-0.502 0.529-0.882s-0.212-0.71-0.523-0.879l-0.005-0.003-3.72-1.984-10.34 5.512c-0.408 0.222-0.894 0.352-1.41 0.352s-1.002-0.13-1.426-0.36l0.016 0.008h-0.002l-10.338-5.512z"></path>
</svg>
