<!-- Generated by IcoMoon.io -->
<svg version="1.1" xmlns="http://www.w3.org/2000/svg" width="32" height="32" viewBox="0 0 32 32">
<title>life-preserver</title>
<path d="M16 30v0c-7.732 0-14-6.268-14-14s6.268-14 14-14v0c7.732 0 14 6.268 14 14s-6.268 14-14 14zM16 32c8.837 0 16-7.163 16-16s-7.163-16-16-16v0c-8.837 0-16 7.163-16 16s7.163 16 16 16v0z"></path>
<path d="M16 22v0c-3.314 0-6-2.686-6-6s2.686-6 6-6v0c3.314 0 6 2.686 6 6s-2.686 6-6 6zM16 24c4.418 0 8-3.582 8-8s-3.582-8-8-8v0c-4.418 0-8 3.582-8 8s3.582 8 8 8v0z"></path>
<path d="M23.284 12.686l6.716-2.686v12l-6.716-2.686c0.452-0.97 0.716-2.106 0.716-3.304 0-0.004 0-0.007 0-0.011v0.001c0-0.003 0-0.007 0-0.010 0-1.198-0.264-2.334-0.737-3.353l0.020 0.049zM19.314 8.716l2.686-6.716h-12l2.686 6.716c0.969-0.452 2.105-0.716 3.302-0.716 0.004 0 0.009 0 0.013 0h-0.001c1.18 0 2.304 0.256 3.314 0.716zM8.716 12.686l-6.716-2.686v12l6.716-2.686c-0.452-0.969-0.716-2.105-0.716-3.302 0-0.004 0-0.009 0-0.013v0.001c0-1.18 0.256-2.304 0.716-3.314zM12.686 23.284l-2.686 6.716h12l-2.686-6.716c-0.969 0.452-2.104 0.716-3.301 0.716-0.005 0-0.009 0-0.014 0h0.001c-0.003 0-0.007 0-0.010 0-1.198 0-2.334-0.264-3.353-0.737l0.049 0.020z"></path>
</svg>
