<!-- Generated by IcoMoon.io -->
<svg version="1.1" xmlns="http://www.w3.org/2000/svg" width="32" height="32" viewBox="0 0 32 32">
<title>link-45deg</title>
<path d="M9.43 13.084l-2.744 2.744c-1.086 1.086-1.758 2.586-1.758 4.243 0 3.314 2.687 6 6 6 1.657 0 3.157-0.672 4.243-1.758v0l3.656-3.658c1.086-1.086 1.757-2.586 1.757-4.242 0-2.373-1.378-4.425-3.377-5.398l-0.036-0.016-1.172 1.172c-0.116 0.116-0.218 0.247-0.303 0.389l-0.005 0.009c1.685 0.496 2.895 2.029 2.895 3.844 0 1.105-0.448 2.106-1.173 2.83l-3.654 3.656c-0.724 0.724-1.725 1.172-2.83 1.172-2.21 0-4.002-1.792-4.002-4.002 0-1.105 0.448-2.106 1.172-2.83v0l1.586-1.584c-0.173-0.621-0.272-1.335-0.272-2.072 0-0.177 0.006-0.352 0.017-0.526l-0.001 0.024z"></path>
<path d="M11.424 13.92l0.334-0.334c0.482-0.483 1.087-0.844 1.764-1.029l0.028-0.007c0.192-0.705 0.553-1.31 1.036-1.792l0.334-0.334c-0.101-0.006-0.219-0.009-0.337-0.009-0.939 0-1.827 0.215-2.619 0.599l0.036-0.016c-0.44 0.92-0.632 1.926-0.576 2.92z"></path>
<path d="M13.172 9.344c-1.086 1.086-1.757 2.586-1.757 4.242 0 2.373 1.378 4.425 3.377 5.398l0.036 0.016 1.55-1.552c-1.721-0.473-2.964-2.023-2.964-3.863 0-1.105 0.448-2.105 1.172-2.829l3.654-3.656c0.724-0.724 1.725-1.172 2.83-1.172 2.21 0 4.002 1.792 4.002 4.002 0 1.105-0.448 2.106-1.172 2.83v0l-1.586 1.584c0.224 0.84 0.31 1.71 0.256 2.574l2.744-2.744c1.086-1.086 1.758-2.586 1.758-4.243 0-3.314-2.687-6-6-6-1.657 0-3.157 0.672-4.243 1.758v0l-3.656 3.656z"></path>
<path d="M20 19c0.37-0.755 0.586-1.643 0.586-2.581 0-0.119-0.003-0.238-0.010-0.355l0.001 0.016-0.334 0.334c-0.482 0.483-1.087 0.844-1.764 1.029l-0.028 0.007c-0.192 0.705-0.553 1.31-1.036 1.792l-0.334 0.334c0.101 0.006 0.219 0.009 0.337 0.009 0.939 0 1.827-0.215 2.619-0.599l-0.036 0.016z"></path>
</svg>
