<!-- Generated by IcoMoon.io -->
<svg version="1.1" xmlns="http://www.w3.org/2000/svg" width="32" height="32" viewBox="0 0 32 32">
<title>list-ul</title>
<path d="M10 23c0-0.552 0.448-1 1-1v0h18c0.552 0 1 0.448 1 1s-0.448 1-1 1v0h-18c-0.552 0-1-0.448-1-1v0zM10 15c0-0.552 0.448-1 1-1v0h18c0.552 0 1 0.448 1 1s-0.448 1-1 1v0h-18c-0.552 0-1-0.448-1-1v0zM10 7c0-0.552 0.448-1 1-1v0h18c0.552 0 1 0.448 1 1s-0.448 1-1 1v0h-18c-0.552 0-1-0.448-1-1v0zM4 9c1.105 0 2-0.895 2-2s-0.895-2-2-2v0c-1.105 0-2 0.895-2 2s0.895 2 2 2v0zM4 17c1.105 0 2-0.895 2-2s-0.895-2-2-2v0c-1.105 0-2 0.895-2 2s0.895 2 2 2v0zM4 25c1.105 0 2-0.895 2-2s-0.895-2-2-2v0c-1.105 0-2 0.895-2 2s0.895 2 2 2v0z"></path>
</svg>
