<!-- Generated by IcoMoon.io -->
<svg version="1.1" xmlns="http://www.w3.org/2000/svg" width="32" height="32" viewBox="0 0 32 32">
<title>mailbox</title>
<path d="M8 8c-3.314 0-6 2.686-6 6v0 12h12v-12c0-3.314-2.686-6-6-6v0zM8 6h16c4.418 0 8 3.582 8 8v0 12c0 1.105-0.895 2-2 2v0h-28c-1.105 0-2-0.895-2-2v0-12c0-4.418 3.582-8 8-8v0zM13.292 8c1.664 1.47 2.708 3.608 2.708 5.991 0 0.003 0 0.007 0 0.010v-0.001 12h14v-12c0-3.314-2.686-6-6-6v0h-10.708z"></path>
<path d="M23.586 17h-5.586v-2h10c0.552 0 1 0.448 1 1v0 2c0 0.552-0.448 1-1 1v0h-2c-0.001 0-0.001 0-0.002 0-0.276 0-0.525-0.112-0.706-0.292l0 0-1.706-1.708z"></path>
<path d="M10 14c0 1.104-0.896 0-2 0s-2 1.104-2 0c0-1.105 0.895-2 2-2s2 0.895 2 2v0z"></path>
</svg>
