<!-- Generated by IcoMoon.io -->
<svg version="1.1" xmlns="http://www.w3.org/2000/svg" width="32" height="32" viewBox="0 0 32 32">
<title>mailbox2</title>
<path d="M24 6h-16c-4.418 0-8 3.582-8 8v0 12c0 1.105 0.895 2 2 2v0h28c1.105 0 2-0.895 2-2v0-12c0-4.418-3.582-8-8-8v0zM16 14c0-0.003 0-0.006 0-0.009 0-2.382-1.044-4.521-2.699-5.983l-0.009-0.007h10.708c3.314 0 6 2.686 6 6v0 12h-14v-12zM18 17h5.586l1.706 1.708c0.181 0.18 0.43 0.292 0.706 0.292 0.001 0 0.001 0 0.002 0h2c0.552 0 1-0.448 1-1v0-2c0-0.552-0.448-1-1-1v0h-10v2zM9.17 14.314c0.502 0.214 0.83 0.354 0.83-0.314 0-1.105-0.895-2-2-2s-2 0.895-2 2v0c0 0.668 0.328 0.528 0.83 0.314 0.33-0.14 0.734-0.314 1.17-0.314s0.84 0.172 1.17 0.314z"></path>
</svg>
