<!-- Generated by IcoMoon.io -->
<svg version="1.1" xmlns="http://www.w3.org/2000/svg" width="32" height="32" viewBox="0 0 32 32">
<title>map</title>
<path d="M31.634 1.226c0.224 0.185 0.366 0.462 0.366 0.773 0 0 0 0 0 0.001v-0 26c-0 0.483-0.343 0.885-0.798 0.979l-0.006 0.001-10 2c-0.059 0.012-0.127 0.019-0.196 0.019s-0.137-0.007-0.202-0.020l0.006 0.001-9.804-1.96-9.804 1.96c-0.059 0.012-0.127 0.019-0.196 0.019-0.552 0-1-0.447-1-0.999v-26c0-0.483 0.343-0.885 0.798-0.979l0.006-0.001 10-2c0.059-0.012 0.127-0.019 0.196-0.019s0.137 0.007 0.202 0.020l-0.006-0.001 9.804 1.96 9.804-1.96c0.059-0.012 0.127-0.020 0.197-0.020 0.241 0 0.462 0.085 0.634 0.227l-0.002-0.001zM20 4.82l-8-1.6v23.96l8 1.6v-23.96zM22 28.78l8-1.6v-23.96l-8 1.6v23.96zM10 27.18v-23.96l-8 1.6v23.96l8-1.6z"></path>
</svg>
