<!-- Generated by IcoMoon.io -->
<svg version="1.1" xmlns="http://www.w3.org/2000/svg" width="32" height="32" viewBox="0 0 32 32">
<title>markdown-fill</title>
<path d="M0 8v16c0 2.209 1.791 4 4 4h24c2.209 0 4-1.791 4-4v-16c0-2.209-1.791-4-4-4h-24c-2.209 0-4 1.791-4 4zM23 10c0.552 0 1 0.448 1 1v0 7.586l2.292-2.294c0.181-0.181 0.431-0.293 0.708-0.293 0.553 0 1.001 0.448 1.001 1.001 0 0.276-0.112 0.527-0.293 0.708v0l-4 4c-0.181 0.181-0.431 0.294-0.708 0.294s-0.527-0.112-0.708-0.294l-4-4c-0.181-0.181-0.293-0.431-0.293-0.708 0-0.553 0.448-1.001 1.001-1.001 0.276 0 0.527 0.112 0.708 0.293v0l2.292 2.294v-7.586c0-0.552 0.448-1 1-1v0zM7.12 14.020v7.98h-2.12v-11.998h2.416l3.42 7.788h0.080l3.418-7.788h2.4v11.998h-2.146v-7.98h-0.114l-2.84 6.478h-1.546l-2.856-6.48h-0.112z"></path>
</svg>
