<!-- Generated by IcoMoon.io -->
<svg version="1.1" xmlns="http://www.w3.org/2000/svg" width="32" height="32" viewBox="0 0 32 32">
<title>menu-down</title>
<path d="M30 26v0c0 1.105-0.895 2-2 2h-24c-1.105 0-2-0.895-2-2v-18c0-1.105 0.895-2 2-2h7.172c1.104-0 2.104-0.448 2.828-1.172l2-2 2 2c0.724 0.724 1.724 1.172 2.828 1.172h7.172c1.105 0 2 0.895 2 2v18zM4 4c-2.209 0-4 1.791-4 4v0 18c0 2.209 1.791 4 4 4v0h24c2.209 0 4-1.791 4-4v0-18c0-2.209-1.791-4-4-4v0h-7.172c-0.552-0-1.052-0.224-1.414-0.586l-2.706-2.706c-0.181-0.181-0.431-0.294-0.708-0.294s-0.527 0.112-0.708 0.294l-2.706 2.706c-0.362 0.362-0.862 0.586-1.414 0.586h-7.172z"></path>
<path d="M30 22h-28v-2h28v2zM30 14h-28v-2h28v2zM4 25c0-0.552 0.448-1 1-1v0h12c0.552 0 1 0.448 1 1s-0.448 1-1 1v0h-12c-0.552 0-1-0.448-1-1v0zM4 17c0-0.552 0.448-1 1-1v0h22c0.552 0 1 0.448 1 1s-0.448 1-1 1v0h-22c-0.552 0-1-0.448-1-1v0zM4 9c0-0.552 0.448-1 1-1v0h16c0.552 0 1 0.448 1 1s-0.448 1-1 1v0h-16c-0.552 0-1-0.448-1-1v0z"></path>
</svg>
