<!-- Generated by IcoMoon.io -->
<svg version="1.1" xmlns="http://www.w3.org/2000/svg" width="32" height="32" viewBox="0 0 32 32">
<title>menu-button-fill</title>
<path d="M28 14v0c1.105 0 2 0.895 2 2v10c0 1.105-0.895 2-2 2h-24c-1.105 0-2-0.895-2-2v-10c0-1.105 0.895-2 2-2h24zM4 12c-2.209 0-4 1.791-4 4v0 10c0 2.209 1.791 4 4 4v0h24c2.209 0 4-1.791 4-4v0-10c0-2.209-1.791-4-4-4v0h-24z"></path>
<path d="M30 22h-28v-2h28v2zM4 25c0-0.552 0.448-1 1-1v0h12c0.552 0 1 0.448 1 1s-0.448 1-1 1v0h-12c-0.552 0-1-0.448-1-1v0zM4 17c0-0.552 0.448-1 1-1v0h18c0.552 0 1 0.448 1 1s-0.448 1-1 1v0h-18c-0.552 0-1-0.448-1-1v0zM3 0c-1.657 0-3 1.343-3 3v0 4c0 1.657 1.343 3 3 3v0h16c1.657 0 3-1.343 3-3v0-4c0-1.657-1.343-3-3-3v0h-16zM14.854 4.854l0.792 0.792c0.091 0.091 0.216 0.147 0.354 0.147s0.263-0.056 0.354-0.147v0l0.792-0.792c0.091-0.091 0.147-0.216 0.147-0.354 0-0.276-0.224-0.5-0.5-0.5-0 0-0.001 0-0.001 0h-1.584c-0 0-0.001 0-0.001 0-0.276 0-0.5 0.224-0.5 0.5 0 0.138 0.056 0.263 0.147 0.354v0z"></path>
</svg>
