<!-- Generated by IcoMoon.io -->
<svg version="1.1" xmlns="http://www.w3.org/2000/svg" width="32" height="32" viewBox="0 0 32 32">
<title>mic-mute-fill</title>
<path d="M25.468 19.226c0.337-0.959 0.532-2.065 0.532-3.217 0-0.003 0-0.007 0-0.010v0.001-2c0-0.552-0.448-1-1-1s-1 0.448-1 1v0 2c0 0.548-0.054 1.080-0.16 1.598l1.628 1.628zM20.424 22.666c-1.244 0.836-2.776 1.335-4.424 1.335-4.418 0-8-3.582-8-8 0-0 0-0 0-0.001v0-2c0-0.552-0.448-1-1-1s-1 0.448-1 1v0 2c0 0 0 0 0 0 0 5.171 3.924 9.425 8.957 9.946l0.043 0.004v4.050h-6c-0.552 0-1 0.448-1 1s0.448 1 1 1v0h14c0.552 0 1-0.448 1-1s-0.448-1-1-1v0h-6v-4.050c1.843-0.187 3.502-0.851 4.888-1.866l-0.028 0.020-1.436-1.438zM22 15.76v-9.76c0-0.001 0-0.003 0-0.005 0-3.314-2.686-6-6-6-2.626 0-4.858 1.687-5.671 4.036l-0.013 0.042 11.684 11.684zM10 12.24l8.972 8.972c-0.854 0.495-1.879 0.788-2.972 0.788-3.314 0-6-2.686-6-6v0-3.758zM27.292 26.708l-24-24 1.416-1.416 24 24-1.416 1.414z"></path>
</svg>
