<!-- Generated by IcoMoon.io -->
<svg version="1.1" xmlns="http://www.w3.org/2000/svg" width="32" height="32" viewBox="0 0 32 32">
<title>music-note-beamed</title>
<path d="M12 26c0 2.21-2.24 4-5 4s-5-1.79-5-4c0-2.208 2.24-4 5-4s5 1.792 5 4zM30 22c0 2.21-2.24 4-5 4s-5-1.79-5-4 2.24-4 5-4 5 1.79 5 4z"></path>
<path d="M28 22v-18h2v18h-2zM12 6v20h-2v-20h2z"></path>
<path d="M10 5.81c0 0 0-0 0-0 0-1.034 0.785-1.885 1.791-1.989l0.009-0.001 16-1.6c0.060-0.006 0.13-0.010 0.2-0.010 1.105 0 2 0.895 2 2 0 0 0 0 0 0v0 1.79l-20 2v-2.19z"></path>
</svg>
