<!-- Generated by IcoMoon.io -->
<svg version="1.1" xmlns="http://www.w3.org/2000/svg" width="32" height="32" viewBox="0 0 32 32">
<title>nut-fill</title>
<path d="M9.16 2h13.68c0.739 0 1.385 0.402 1.736 1.008l6.851 11.99c0.171 0.295 0.268 0.637 0.268 1.002s-0.098 0.707-0.263 0.992l-6.861 12.010c-0.346 0.597-0.991 0.998-1.731 0.998h-13.68c-0.739-0-1.385-0.402-1.736-1.008l-6.853-11.99c-0.171-0.295-0.269-0.637-0.269-1.002s0.098-0.707 0.263-0.992l6.863-12.010c0.346-0.597 0.991-0.998 1.731-0.998zM19.196 21.392c1.825-1.052 3.034-2.993 3.034-5.216 0-3.314-2.686-6-6-6-1.119 0-2.166 0.306-3.062 0.839l0.028-0.015c-1.787 1.061-2.966 2.981-2.966 5.176 0 3.314 2.686 6 6 6 1.091 0 2.113-0.291 2.995-0.8l-0.029 0.015z"></path>
</svg>
