<!-- Generated by IcoMoon.io -->
<svg version="1.1" xmlns="http://www.w3.org/2000/svg" width="32" height="32" viewBox="0 0 32 32">
<title>option</title>
<path d="M2 5c0-0.552 0.448-1 1-1v0h7.594c0 0 0 0 0.001 0 0.376 0 0.704 0.208 0.875 0.515l0.003 0.005 10.528 21.48h7c0.552 0 1 0.448 1 1s-0.448 1-1 1v0h-7.594c-0 0-0 0-0.001 0-0.376 0-0.704-0.208-0.875-0.515l-0.003-0.005-10.528-21.48h-7c-0.552 0-1-0.448-1-1v0zM22 5c0-0.552 0.448-1 1-1v0h6c0.552 0 1 0.448 1 1s-0.448 1-1 1v0h-6c-0.552 0-1-0.448-1-1v0z"></path>
</svg>
