<!-- Generated by IcoMoon.io -->
<svg version="1.1" xmlns="http://www.w3.org/2000/svg" width="32" height="32" viewBox="0 0 32 32">
<title>patch-plus-fll</title>
<path d="M20.134 1.74c-1.050-1.074-2.514-1.74-4.134-1.74s-3.084 0.666-4.133 1.739l-1.245 1.277-1.78-0.022c-0.020-0-0.044-0-0.068-0-3.192 0-5.78 2.588-5.78 5.78 0 0.024 0 0.048 0 0.072l-0-0.004 0.020 1.78-1.272 1.244c-1.074 1.050-1.74 2.514-1.74 4.134s0.666 3.084 1.739 4.133l0.001 0.001 1.274 1.244-0.022 1.78c-0 0.020-0 0.044-0 0.068 0 3.192 2.588 5.78 5.78 5.78 0.024 0 0.048-0 0.072-0l-0.004 0 1.78-0.020 1.244 1.272c1.050 1.074 2.514 1.74 4.134 1.74s3.084-0.666 4.133-1.739l0.001-0.001 1.244-1.274 1.78 0.022c0.020 0 0.044 0 0.068 0 3.192 0 5.78-2.588 5.78-5.78 0-0.024-0-0.048-0-0.072l0 0.004-0.020-1.78 1.272-1.244c1.074-1.050 1.74-2.514 1.74-4.134s-0.666-3.084-1.739-4.133l-0.001-0.001-1.274-1.244 0.022-1.78c0-0.020 0-0.044 0-0.068 0-3.192-2.588-5.78-5.78-5.78-0.024 0-0.048 0-0.072 0l0.004-0-1.78 0.020-1.244-1.272zM17 12c0-0.552-0.448-1-1-1s-1 0.448-1 1v0 3h-3c-0.552 0-1 0.448-1 1s0.448 1 1 1v0h3v3c0 0.552 0.448 1 1 1s1-0.448 1-1v0-3h3c0.552 0 1-0.448 1-1s-0.448-1-1-1v0h-3v-3z"></path>
</svg>
