<!-- Generated by IcoMoon.io -->
<svg version="1.1" xmlns="http://www.w3.org/2000/svg" width="32" height="32" viewBox="0 0 32 32">
<title>patch-question</title>
<path d="M14.004 22c0-1.105 0.895-2 2-2s2 0.895 2 2v0c0 1.105-0.895 2-2 2s-2-0.895-2-2v0zM16.1 19.2c0.672 0 1.008-0.48 1.108-1.254 0.080-1.068 0.396-1.63 1.694-2.52 1.346-0.95 2.098-2.18 2.098-3.972 0-2.65-1.84-4.454-4.524-4.454-2.040 0-3.584 0.984-4.2 2.58-0.175 0.397-0.276 0.86-0.276 1.346 0 0.012 0 0.024 0 0.035v-0.002c0 0.786 0.406 1.28 1.090 1.28 0.544 0 0.91-0.294 1.128-1.020 0.316-1.184 1.050-1.83 2.148-1.83 1.22 0 2.060 0.892 2.060 2.168 0 1.126-0.416 1.77-1.644 2.65-1.238 0.866-1.852 1.828-1.852 3.28v0.222c0 0.856 0.416 1.49 1.17 1.49z"></path>
<path d="M20.546 5.026l-1.842-1.888 1.43-1.396 1.244 1.274 1.78-0.022c0.020-0 0.044-0 0.068-0 3.192 0 5.78 2.588 5.78 5.78 0 0.024-0 0.048-0 0.072l0-0.004-0.020 1.78 1.272 1.244c1.074 1.050 1.74 2.514 1.74 4.134s-0.666 3.084-1.739 4.133l-0.001 0.001-1.274 1.244 0.022 1.78c0 0.020 0 0.044 0 0.068 0 3.192-2.588 5.78-5.78 5.78-0.024 0-0.048-0-0.072-0l0.004 0-1.78-0.020-1.244 1.272c-1.050 1.074-2.514 1.74-4.134 1.74s-3.084-0.666-4.133-1.739l-0.001-0.001-1.244-1.274-1.78 0.022c-0.020 0-0.044 0-0.068 0-3.192 0-5.78-2.588-5.78-5.78 0-0.024 0-0.048 0-0.072l-0 0.004 0.020-1.78-1.272-1.244c-1.074-1.050-1.74-2.514-1.74-4.134s0.666-3.084 1.739-4.133l0.001-0.001 1.274-1.244-0.022-1.78c-0-0.020-0-0.044-0-0.068 0-3.192 2.588-5.78 5.78-5.78 0.024 0 0.048 0 0.072 0l-0.004-0 1.78 0.020 1.244-1.272c1.050-1.074 2.514-1.74 4.134-1.74s3.084 0.666 4.133 1.739l0.001 0.001-1.43 1.396c-0.687-0.703-1.645-1.139-2.704-1.139s-2.017 0.436-2.703 1.138l-1.841 1.889-2.64-0.032c-0.013-0-0.027-0-0.042-0-2.088 0-3.78 1.692-3.78 3.78 0 0.016 0 0.031 0 0.047l-0-0.002 0.032 2.636-1.888 1.842c-0.703 0.687-1.139 1.645-1.139 2.704s0.436 2.017 1.138 2.703l1.889 1.841-0.032 2.64c-0 0.013-0 0.027-0 0.042 0 2.088 1.692 3.78 3.78 3.78 0.016 0 0.031-0 0.047-0l-0.002 0 2.636-0.032 1.842 1.888c0.687 0.703 1.645 1.139 2.704 1.139s2.017-0.436 2.703-1.138l1.841-1.889 2.64 0.032c0.013 0 0.027 0 0.042 0 2.088 0 3.78-1.692 3.78-3.78 0-0.016-0-0.031-0-0.047l0 0.002-0.032-2.636 1.888-1.842c0.703-0.687 1.139-1.645 1.139-2.704s-0.436-2.017-1.138-2.703l-1.889-1.841 0.032-2.64c0-0.013 0-0.027 0-0.042 0-2.088-1.692-3.78-3.78-3.78-0.016 0-0.031 0-0.047 0l0.002-0-2.636 0.032z"></path>
</svg>
