<!-- Generated by IcoMoon.io -->
<svg version="1.1" xmlns="http://www.w3.org/2000/svg" width="32" height="32" viewBox="0 0 32 32">
<title>peace</title>
<path d="M15 2.036c-7.289 0.538-12.999 6.584-12.999 13.964 0 3.514 1.295 6.726 3.434 9.185l-0.014-0.017 9.58-9.582v-13.55zM17 2.036v13.55l9.58 9.58c2.123-2.441 3.418-5.652 3.418-9.166 0-7.379-5.709-13.425-12.951-13.961l-0.046-0.003zM25.168 26.582l-8.168-8.168v11.55c3.151-0.227 5.974-1.469 8.185-3.396l-0.017 0.014zM15 29.964v-11.55l-8.168 8.168c2.194 1.913 5.017 3.155 8.123 3.379l0.045 0.003zM0 16c0-8.837 7.163-16 16-16s16 7.163 16 16v0c0 8.837-7.163 16-16 16s-16-7.163-16-16v0z"></path>
</svg>
