<!-- Generated by IcoMoon.io -->
<svg version="1.1" xmlns="http://www.w3.org/2000/svg" width="32" height="32" viewBox="0 0 32 32">
<title>peace-fill</title>
<path d="M28 26.584c2.485-2.806 4.002-6.518 4.002-10.585 0-8.485-6.605-15.428-14.955-15.966l-0.047-0.002v15.556l11 11zM26.584 28l-9.584-9.588v13.556c3.703-0.234 7.025-1.699 9.6-3.986l-0.016 0.014zM15 31.97v-13.556l-9.584 9.586c2.559 2.272 5.881 3.737 9.538 3.968l0.046 0.002zM4 26.584c-2.485-2.806-4.002-6.518-4.002-10.585 0-8.485 6.605-15.428 14.955-15.966l0.047-0.002v15.556l-11 11z"></path>
</svg>
