<!-- Generated by IcoMoon.io -->
<svg version="1.1" xmlns="http://www.w3.org/2000/svg" width="32" height="32" viewBox="0 0 32 32">
<title>pen</title>
<path d="M11.414 27.414l15.586-15.586c0.724-0.724 1.171-1.724 1.171-2.828s-0.448-2.104-1.171-2.828l-1.172-1.172c-0.724-0.724-1.724-1.171-2.828-1.171s-2.104 0.448-2.828 1.171l-15.586 15.586c-0.214 0.214-0.38 0.476-0.484 0.782l-1.996 5.986c-0.069 0.203-0.107 0.421-0.107 0.648 0 1.105 0.895 2 2 2 0.227 0 0.446-0.038 0.635-0.103l6.014-2.004c0.292-0.1 0.553-0.266 0.766-0.48zM6 22l15.586-15.586c0.362-0.362 0.862-0.586 1.414-0.586s1.052 0.224 1.414 0.586l1.172 1.172c0.362 0.362 0.586 0.862 0.586 1.414s-0.224 1.052-0.586 1.414l-15.586 15.586-6 2 2-6z"></path>
<path d="M19.708 5.12c-0.181-0.181-0.431-0.294-0.708-0.294s-0.527 0.112-0.708 0.294l-6.584 6.59c-0.181 0.181-0.431 0.293-0.708 0.293-0.553 0-1.001-0.448-1.001-1.001 0-0.277 0.112-0.527 0.293-0.708v0l6.588-6.586c0.543-0.543 1.293-0.879 2.122-0.879s1.579 0.336 2.122 0.879l0 0 0.586 0.584c0.181 0.181 0.294 0.431 0.294 0.708 0 0.553-0.448 1.001-1.001 1.001-0.276 0-0.526-0.112-0.707-0.293v0l-0.586-0.586z"></path>
<path d="M26.586 2.414c0.362-0.362 0.862-0.586 1.414-0.586s1.052 0.224 1.414 0.586l0.060 0.060c0.362 0.362 0.586 0.862 0.586 1.414 0 0.522-0.2 0.997-0.527 1.353l0.001-0.001-2.534 2.76-3-3 2.586-2.586z"></path>
</svg>
