<!-- Generated by IcoMoon.io -->
<svg version="1.1" xmlns="http://www.w3.org/2000/svg" width="32" height="32" viewBox="0 0 32 32">
<title>percent</title>
<path d="M26.884 5.116c0.226 0.226 0.366 0.539 0.366 0.884s-0.14 0.658-0.366 0.884l-20 20c-0.226 0.226-0.539 0.366-0.884 0.366-0.69 0-1.25-0.56-1.25-1.25 0-0.345 0.14-0.658 0.366-0.884l20-20c0.226-0.226 0.539-0.366 0.884-0.366s0.658 0.14 0.884 0.366v0zM9 12c1.657 0 3-1.343 3-3s-1.343-3-3-3v0c-1.657 0-3 1.343-3 3s1.343 3 3 3v0zM9 14c2.761 0 5-2.239 5-5s-2.239-5-5-5v0c-2.761 0-5 2.239-5 5s2.239 5 5 5v0zM23 26c1.657 0 3-1.343 3-3s-1.343-3-3-3v0c-1.657 0-3 1.343-3 3s1.343 3 3 3v0zM23 28c2.761 0 5-2.239 5-5s-2.239-5-5-5v0c-2.761 0-5 2.239-5 5s2.239 5 5 5v0z"></path>
</svg>
