<!-- Generated by IcoMoon.io -->
<svg version="1.1" xmlns="http://www.w3.org/2000/svg" width="32" height="32" viewBox="0 0 32 32">
<title>person-plus</title>
<path d="M22 28s2 0 2-2-2-8-12-8-12 6-12 8 2 2 2 2h20zM2.010 26.112v0zM2.044 26l-0.013-0.002c-0.015-0.003-0.030-0.005-0.031-0.006 0.004-0.492 0.308-1.972 1.664-3.328 1.304-1.304 3.756-2.664 8.336-2.664 4.578 0 7.032 1.36 8.336 2.664 1.356 1.356 1.662 2.836 1.664 3.328l-0.016 0.004 0.003-0c-0.009 0.002-0.019 0.003-0.031 0.004h-19.912zM21.992 26.112v0zM12 14c2.209 0 4-1.791 4-4s-1.791-4-4-4v0c-2.209 0-4 1.791-4 4s1.791 4 4 4v0zM18 10c0 3.314-2.686 6-6 6s-6-2.686-6-6v0c0-3.314 2.686-6 6-6s6 2.686 6 6v0zM27 10v0c-0.552 0-1 0.448-1 1v3h-3c-0.552 0-1 0.448-1 1s0.448 1 1 1h4c0.552 0 1-0.448 1-1v-4c0-0.552-0.448-1-1-1z"></path>
<path d="M26 15c0-0.552 0.448-1 1-1v0h4c0.552 0 1 0.448 1 1s-0.448 1-1 1v0h-3v3c0 0.552-0.448 1-1 1s-1-0.448-1-1v0-4z"></path>
</svg>
