<!-- Generated by IcoMoon.io -->
<svg version="1.1" xmlns="http://www.w3.org/2000/svg" width="32" height="32" viewBox="0 0 32 32">
<title>puzzle-fill</title>
<path d="M6.224 7.29c-0.009-0.087-0.014-0.188-0.014-0.29 0-1.657 1.343-3 3-3 0 0 0 0 0 0h4.79c0.552 0 1 0.448 1 1v0 0.764c0 1.392-0.994 2.364-1.744 2.938-0.091 0.065-0.167 0.143-0.228 0.233l-0.002 0.003c-0.009 0.014-0.018 0.031-0.024 0.048l-0 0.002-0.002 0.012v0.006l0.006 0.020c0.008 0.020 0.028 0.056 0.072 0.106 0.15 0.16 0.329 0.29 0.529 0.384l0.011 0.004c0.562 0.28 1.402 0.48 2.382 0.48 0.984 0 1.824-0.2 2.38-0.48 0.211-0.097 0.391-0.228 0.541-0.387l0.001-0.001c0.028-0.031 0.052-0.067 0.071-0.105l0.001-0.003 0.006-0.020v-0.016c-0.006-0.019-0.015-0.036-0.025-0.051l0.001 0.001c-0.063-0.093-0.139-0.171-0.227-0.234l-0.003-0.002c-0.75-0.574-1.744-1.546-1.744-2.938v-0.764c0 0 0 0 0 0 0-0.552 0.447-0.999 0.998-1h4.79c0 0 0 0 0 0 1.657 0 3 1.343 3 3 0 0.102-0.005 0.203-0.015 0.303l0.001-0.013-0.486 5.71h0.474c0.39 0 0.84-0.294 1.35-0.96 0.42-0.548 1.056-1.040 1.886-1.040 1.136 0 1.894 0.894 2.308 1.724 0.446 0.89 0.692 2.050 0.692 3.276s-0.246 2.386-0.692 3.276c-0.414 0.83-1.172 1.724-2.308 1.724-0.83 0-1.466-0.492-1.886-1.040-0.51-0.666-0.96-0.96-1.35-0.96h-0.474l0.486 5.71c0.009 0.087 0.014 0.188 0.014 0.29 0 1.657-1.343 3-3 3-0 0-0 0-0 0h-4.79c-0.552 0-1-0.448-1-1v0-0.764c0-1.392 0.994-2.364 1.744-2.938 0.091-0.065 0.167-0.143 0.228-0.233l0.002-0.003c0.009-0.014 0.017-0.031 0.024-0.048l0-0.002 0.002-0.012v-0.006l-0.006-0.020c-0.020-0.041-0.044-0.076-0.072-0.106l0 0c-0.15-0.16-0.329-0.29-0.529-0.384l-0.011-0.004c-0.562-0.28-1.402-0.48-2.382-0.48-0.982 0-1.824 0.2-2.38 0.48-0.211 0.097-0.391 0.228-0.541 0.387l-0.001 0.001c-0.028 0.031-0.052 0.067-0.071 0.105l-0.001 0.003-0.006 0.020v0.004l0.002 0.012c0.007 0.019 0.015 0.036 0.025 0.051l-0.001-0.001c0.032 0.054 0.1 0.136 0.23 0.236 0.75 0.574 1.744 1.546 1.744 2.938v0.764c0 0.552-0.448 1-1 1v0h-4.79c-0 0-0 0-0 0-1.657 0-3-1.343-3-3 0-0.102 0.005-0.203 0.015-0.303l-0.001 0.013 0.488-5.71h-0.476c-0.39 0-0.84 0.294-1.35 0.96-0.42 0.548-1.056 1.040-1.886 1.040-1.136 0-1.894-0.894-2.308-1.724-0.446-0.89-0.692-2.050-0.692-3.276s0.246-2.386 0.692-3.276c0.414-0.83 1.172-1.724 2.308-1.724 0.83 0 1.466 0.492 1.886 1.040 0.51 0.666 0.96 0.96 1.35 0.96h0.476l-0.488-5.71z"></path>
</svg>
