<!-- Generated by IcoMoon.io -->
<svg version="1.1" xmlns="http://www.w3.org/2000/svg" width="32" height="32" viewBox="0 0 32 32">
<title>question-octagon</title>
<path d="M9.080 0.292c0.181-0.18 0.43-0.292 0.706-0.292h12.428c0.276 0 0.525 0.112 0.706 0.292l8.788 8.788c0.18 0.181 0.292 0.43 0.292 0.706v0 12.428c-0 0.276-0.112 0.525-0.292 0.706l-8.788 8.788c-0.181 0.18-0.43 0.292-0.706 0.292h-12.428c-0.276-0-0.525-0.112-0.706-0.292l-8.788-8.788c-0.18-0.181-0.292-0.43-0.292-0.706v0-12.428c0-0.276 0.112-0.525 0.292-0.706l8.788-8.788zM10.2 2l-8.2 8.2v11.6l8.2 8.2h11.6l8.2-8.2v-11.6l-8.2-8.2h-11.6z"></path>
<path d="M10.5 12.066h2.64c0-1.562 0.916-2.768 2.72-2.768 1.37 0 2.626 0.686 2.626 2.336 0 1.27-0.748 1.854-1.93 2.742-1.346 0.978-2.412 2.12-2.336 3.974l0.014 0.926h2.614v-0.71c0-1.436 0.546-1.854 2.020-2.972 1.218-0.926 2.488-1.954 2.488-4.112 0-3.022-2.552-4.482-5.346-4.482-2.652 0-5.572 1.294-5.508 5.066zM13.624 23.098c0 1.066 0.85 1.854 2.020 1.854 1.218 0 2.056-0.788 2.056-1.854 0-1.104-0.84-1.88-2.058-1.88-1.168 0-2.018 0.776-2.018 1.88z"></path>
</svg>
