<!-- Generated by IcoMoon.io -->
<svg version="1.1" xmlns="http://www.w3.org/2000/svg" width="32" height="32" viewBox="0 0 32 32">
<title>receipt</title>
<path d="M3.84 1.012c0.048-0.008 0.104-0.013 0.161-0.013 0.276 0 0.526 0.112 0.707 0.293v0l1.292 1.294 1.292-1.294c0.181-0.181 0.431-0.294 0.708-0.294s0.527 0.112 0.708 0.294l0 0 1.292 1.294 1.292-1.294c0.181-0.181 0.431-0.294 0.708-0.294s0.527 0.112 0.708 0.294l0 0 1.292 1.294 1.292-1.294c0.181-0.181 0.431-0.294 0.708-0.294s0.527 0.112 0.708 0.294l0 0 1.292 1.294 1.292-1.294c0.181-0.181 0.431-0.294 0.708-0.294s0.527 0.112 0.708 0.294l0 0 1.292 1.294 1.292-1.294c0.181-0.181 0.431-0.294 0.708-0.294s0.527 0.112 0.708 0.294l0 0 1.292 1.294 1.292-1.294c0.181-0.181 0.431-0.293 0.707-0.293 0.389 0 0.727 0.223 0.892 0.547l0.003 0.006 1 2c0.067 0.131 0.106 0.285 0.106 0.448v0 24c0 0.163-0.039 0.317-0.109 0.454l0.003-0.006-1 2c-0.168 0.33-0.505 0.552-0.894 0.552-0.276 0-0.525-0.111-0.706-0.292l-1.294-1.294-1.292 1.294c-0.181 0.181-0.431 0.294-0.708 0.294s-0.527-0.112-0.708-0.294l-0-0-1.292-1.294-1.292 1.294c-0.181 0.181-0.431 0.294-0.708 0.294s-0.527-0.112-0.708-0.294l-0-0-1.292-1.294-1.292 1.294c-0.181 0.181-0.431 0.294-0.708 0.294s-0.527-0.112-0.708-0.294l-0-0-1.292-1.294-1.292 1.294c-0.181 0.181-0.431 0.294-0.708 0.294s-0.527-0.112-0.708-0.294l-0-0-1.292-1.294-1.292 1.294c-0.181 0.181-0.431 0.294-0.708 0.294s-0.527-0.112-0.708-0.294l-0-0-1.292-1.294-1.292 1.294c-0.181 0.181-0.431 0.293-0.707 0.293-0.389 0-0.727-0.223-0.892-0.547l-0.003-0.006-1-2c-0.067-0.131-0.106-0.285-0.106-0.448v0-24c0-0.163 0.039-0.317 0.109-0.454l-0.003 0.006 1-2c0.144-0.283 0.411-0.486 0.728-0.539l0.006-0.001zM4.274 3.688l-0.274 0.548v23.528l0.274 0.548 1.020-1.020c0.181-0.181 0.431-0.293 0.707-0.293s0.526 0.112 0.707 0.293v0l1.292 1.294 1.292-1.292c0.181-0.181 0.431-0.294 0.708-0.294s0.527 0.112 0.708 0.294l1.292 1.292 1.292-1.292c0.181-0.181 0.431-0.294 0.708-0.294s0.527 0.112 0.708 0.294l1.292 1.292 1.292-1.292c0.181-0.181 0.431-0.294 0.708-0.294s0.527 0.112 0.708 0.294l1.292 1.292 1.292-1.292c0.181-0.181 0.431-0.294 0.708-0.294s0.527 0.112 0.708 0.294l1.292 1.292 1.292-1.292c0.181-0.181 0.431-0.294 0.708-0.294s0.527 0.112 0.708 0.294l1.018 1.018 0.274-0.548v-23.528l-0.274-0.548-1.020 1.020c-0.181 0.181-0.431 0.293-0.707 0.293s-0.526-0.112-0.707-0.293v0l-1.292-1.294-1.292 1.294c-0.181 0.181-0.431 0.294-0.708 0.294s-0.527-0.112-0.708-0.294l-0-0-1.292-1.294-1.292 1.294c-0.181 0.181-0.431 0.294-0.708 0.294s-0.527-0.112-0.708-0.294l-0-0-1.292-1.294-1.292 1.294c-0.181 0.181-0.431 0.294-0.708 0.294s-0.527-0.112-0.708-0.294l-0-0-1.292-1.294-1.292 1.294c-0.181 0.181-0.431 0.294-0.708 0.294s-0.527-0.112-0.708-0.294l-0-0-1.292-1.294-1.292 1.294c-0.181 0.181-0.431 0.294-0.708 0.294s-0.527-0.112-0.708-0.294l-1.018-1.020z"></path>
<path d="M6 9c0-0.552 0.448-1 1-1v0h12c0.552 0 1 0.448 1 1s-0.448 1-1 1v0h-12c-0.552 0-1-0.448-1-1v0zM6 13c0-0.552 0.448-1 1-1v0h12c0.552 0 1 0.448 1 1s-0.448 1-1 1v0h-12c-0.552 0-1-0.448-1-1v0zM6 17c0-0.552 0.448-1 1-1v0h12c0.552 0 1 0.448 1 1s-0.448 1-1 1v0h-12c-0.552 0-1-0.448-1-1v0zM6 21c0-0.552 0.448-1 1-1v0h12c0.552 0 1 0.448 1 1s-0.448 1-1 1v0h-12c-0.552 0-1-0.448-1-1v0zM22 9c0-0.552 0.448-1 1-1v0h2c0.552 0 1 0.448 1 1s-0.448 1-1 1v0h-2c-0.552 0-1-0.448-1-1v0zM22 13c0-0.552 0.448-1 1-1v0h2c0.552 0 1 0.448 1 1s-0.448 1-1 1v0h-2c-0.552 0-1-0.448-1-1v0zM22 17c0-0.552 0.448-1 1-1v0h2c0.552 0 1 0.448 1 1s-0.448 1-1 1v0h-2c-0.552 0-1-0.448-1-1v0zM22 21c0-0.552 0.448-1 1-1v0h2c0.552 0 1 0.448 1 1s-0.448 1-1 1v0h-2c-0.552 0-1-0.448-1-1v0z"></path>
</svg>
