<!-- Generated by IcoMoon.io -->
<svg version="1.1" xmlns="http://www.w3.org/2000/svg" width="32" height="32" viewBox="0 0 32 32">
<title>reception-2</title>
<path d="M0 23c0-0.552 0.448-1 1-1v0h4c0.552 0 1 0.448 1 1v0 4c0 0.552-0.448 1-1 1v0h-4c-0.552 0-1-0.448-1-1v0-4zM8 17c0-0.552 0.448-1 1-1v0h4c0.552 0 1 0.448 1 1v0 10c0 0.552-0.448 1-1 1v0h-4c-0.552 0-1-0.448-1-1v0-10zM16 27c0-0.552 0.448-1 1-1v0h4c0.552 0 1 0.448 1 1s-0.448 1-1 1v0h-4c-0.552 0-1-0.448-1-1v0zM24 27c0-0.552 0.448-1 1-1v0h4c0.552 0 1 0.448 1 1s-0.448 1-1 1v0h-4c-0.552 0-1-0.448-1-1v0z"></path>
</svg>
