<!-- Generated by IcoMoon.io -->
<svg version="1.1" xmlns="http://www.w3.org/2000/svg" width="32" height="32" viewBox="0 0 32 32">
<title>reply-all-fill</title>
<path d="M16.158 23.8l9.136-6.562c0.426-0.255 0.706-0.714 0.706-1.238s-0.281-0.983-0.7-1.234l-0.007-0.004-9.136-6.562c-0.208-0.124-0.458-0.198-0.726-0.198-0.791 0-1.432 0.641-1.432 1.432 0 0.001 0 0.003 0 0.004v-0 2.562c-3 0-12 0-14 16 5-9 14-8 14-8v2.562c0 1.12 1.212 1.796 2.158 1.24z"></path>
<path d="M21.736 8.586c0.184-0.248 0.476-0.408 0.806-0.408 0.224 0 0.43 0.073 0.597 0.198l-0.003-0.002 7.986 5.88c0.652 0.412 1.079 1.129 1.079 1.946s-0.427 1.534-1.070 1.94l-0.009 0.006-7.988 5.88c-0.161 0.115-0.362 0.184-0.578 0.184-0.552 0-1-0.448-1-1 0-0.323 0.153-0.61 0.39-0.793l0.002-0.002 8.024-5.908c0.024-0.018 0.051-0.036 0.080-0.054l0.004-0.002c0.086-0.052 0.143-0.146 0.143-0.252s-0.057-0.2-0.141-0.251l-0.001-0.001c-0.033-0.020-0.060-0.038-0.087-0.058l0.003 0.002-8.024-5.908c-0.248-0.184-0.407-0.476-0.407-0.805 0-0.223 0.073-0.429 0.197-0.596l-0.002 0.003z"></path>
</svg>
