<!-- Generated by IcoMoon.io -->
<svg version="1.1" xmlns="http://www.w3.org/2000/svg" width="32" height="32" viewBox="0 0 32 32">
<title>rss-fill</title>
<path d="M4 0h24c2.209 0 4 1.791 4 4v24c0 2.209-1.791 4-4 4h-24c-2.209 0-4-1.791-4-4v-24c0-2.209 1.791-4 4-4zM7 5c-1.105 0-2 0.895-2 2s0.895 2 2 2v0c8.837 0 16 7.163 16 16v0c0 1.105 0.895 2 2 2s2-0.895 2-2v0c0-11.046-8.954-20-20-20zM7 13c-1.105 0-2 0.895-2 2s0.895 2 2 2v0c4.418 0 8 3.582 8 8v0c0 1.105 0.895 2 2 2s2-0.895 2-2v0c0-6.627-5.373-12-12-12v0zM8 27c1.657 0 3-1.343 3-3s-1.343-3-3-3v0c-1.657 0-3 1.343-3 3s1.343 3 3 3v0z"></path>
</svg>
