<!-- Generated by IcoMoon.io -->
<svg version="1.1" xmlns="http://www.w3.org/2000/svg" width="32" height="32" viewBox="0 0 32 32">
<title>rss</title>
<path d="M28 2v0c1.105 0 2 0.895 2 2v24c0 1.105-0.895 2-2 2h-24c-1.105 0-2-0.895-2-2v-24c0-1.105 0.895-2 2-2h24zM4 0c-2.209 0-4 1.791-4 4v0 24c0 2.209 1.791 4 4 4v0h24c2.209 0 4-1.791 4-4v0-24c0-2.209-1.791-4-4-4v0h-24z"></path>
<path d="M11 24c0 1.657-1.343 3-3 3s-3-1.343-3-3v0c0-1.657 1.343-3 3-3s3 1.343 3 3v0z"></path>
<path d="M5 7c0-1.105 0.895-2 2-2v0c11.046 0 20 8.954 20 20 0 1.105-0.895 2-2 2s-2-0.895-2-2v0c0-8.837-7.163-16-16-16v0c-1.105 0-2-0.895-2-2v0zM5 15c0-1.105 0.895-2 2-2v0c6.627 0 12 5.373 12 12v0c0 1.105-0.895 2-2 2s-2-0.895-2-2v0c0-4.418-3.582-8-8-8v0c-1.105 0-2-0.895-2-2v0z"></path>
</svg>
