<!-- Generated by IcoMoon.io -->
<svg version="1.1" xmlns="http://www.w3.org/2000/svg" width="32" height="32" viewBox="0 0 32 32">
<title>screwdriver</title>
<path d="M0 2l2-2 6.162 4.4c0.51 0.367 0.838 0.959 0.838 1.628 0 0.001 0 0.002 0 0.002v-0 0.14c0 0 0 0.001 0 0.002 0 0.552 0.224 1.052 0.586 1.414l11.414 11.414 1.828-0.61c0.188-0.065 0.405-0.102 0.631-0.102 0.553 0 1.053 0.224 1.415 0.586l6.712 6.712c0.362 0.362 0.586 0.862 0.586 1.414s-0.224 1.052-0.586 1.414l-3.172 3.172c-0.362 0.362-0.862 0.586-1.414 0.586s-1.052-0.224-1.414-0.586l-6.712-6.712c-0.362-0.362-0.586-0.862-0.586-1.415 0-0.226 0.037-0.443 0.106-0.645l-0.004 0.014 0.61-1.828-11.414-11.414c-0.362-0.362-0.862-0.586-1.414-0.586h-0.142c-0 0-0 0-0 0-0.669 0-1.261-0.328-1.624-0.832l-0.004-0.006-4.402-6.162zM22.708 21.292c-0.181-0.181-0.431-0.293-0.708-0.293-0.553 0-1.001 0.448-1.001 1.001 0 0.276 0.112 0.527 0.293 0.708v0l6 6c0.181 0.181 0.431 0.293 0.708 0.293 0.553 0 1.001-0.448 1.001-1.001 0-0.276-0.112-0.527-0.293-0.708v0l-6-6z"></path>
</svg>
