<!-- Generated by IcoMoon.io -->
<svg version="1.1" xmlns="http://www.w3.org/2000/svg" width="32" height="32" viewBox="0 0 32 32">
<title>search</title>
<path d="M20.884 20.884c0.362-0.362 0.862-0.587 1.415-0.587s1.053 0.224 1.415 0.587l7.7 7.7c0.362 0.362 0.586 0.862 0.586 1.415 0 1.105-0.896 2-2 2-0.552 0-1.052-0.224-1.414-0.585l-7.7-7.7c-0.362-0.362-0.587-0.862-0.587-1.415s0.224-1.053 0.587-1.415l0-0z"></path>
<path d="M13 24c6.075 0 11-4.925 11-11s-4.925-11-11-11v0c-6.075 0-11 4.925-11 11s4.925 11 11 11v0zM26 13c0 7.18-5.82 13-13 13s-13-5.82-13-13v0c0-7.18 5.82-13 13-13s13 5.82 13 13v0z"></path>
</svg>
