<!-- Generated by IcoMoon.io -->
<svg version="1.1" xmlns="http://www.w3.org/2000/svg" width="32" height="32" viewBox="0 0 32 32">
<title>shield-exclamation</title>
<path d="M10.886 3.982c-2.682 0.706-4.501 1.255-6.301 1.846l0.851-0.242c-0.331 0.104-0.576 0.384-0.629 0.727l-0.001 0.005c-1.066 7.794 1.394 13.482 4.328 17.228 1.472 1.88 3.066 3.272 4.394 4.186 0.666 0.456 1.252 0.788 1.714 1 0.232 0.106 0.42 0.178 0.564 0.22 0.053 0.018 0.118 0.035 0.185 0.047l0.009 0.001c0.014-0.002 0.076-0.010 0.194-0.046 0.144-0.044 0.332-0.116 0.564-0.222 0.46-0.212 1.050-0.544 1.714-1 1.687-1.193 3.136-2.575 4.36-4.141l0.034-0.045c2.934-3.746 5.394-9.434 4.328-17.228-0.054-0.348-0.299-0.628-0.624-0.73l-0.006-0.002c-1.252-0.4-3.364-1.052-5.45-1.604-2.132-0.562-4.094-0.982-5.114-0.982s-2.98 0.42-5.114 0.982zM10.374 2.050c2.086-0.552 4.3-1.050 5.626-1.050 1.324 0 3.54 0.498 5.626 1.050 2.726 0.717 4.577 1.275 6.408 1.875l-0.864-0.245c1.056 0.336 1.852 1.246 2.006 2.368 1.146 8.394-1.512 14.614-4.734 18.73-1.384 1.77-2.978 3.289-4.766 4.553l-0.070 0.047c-0.579 0.411-1.239 0.801-1.931 1.136l-0.083 0.036c-0.54 0.248-1.116 0.45-1.592 0.45s-1.052-0.202-1.592-0.45c-0.775-0.37-1.435-0.761-2.057-1.201l0.043 0.029c-1.857-1.311-3.45-2.83-4.797-4.551l-0.037-0.049c-3.226-4.116-5.882-10.336-4.736-18.73 0.162-1.122 0.946-2.027 1.985-2.362l0.021-0.006c0.967-0.355 2.817-0.913 4.686-1.428l0.858-0.202z"></path>
<path d="M14.004 22c0-1.105 0.895-2 2-2s2 0.895 2 2v0c0 1.105-0.895 2-2 2s-2-0.895-2-2v0zM14.2 9.99c-0.006-0.057-0.010-0.123-0.010-0.19 0-1 0.81-1.81 1.81-1.81s1.81 0.81 1.81 1.81c0 0.067-0.004 0.133-0.011 0.198l0.001-0.008-0.7 7.014c-0.050 0.568-0.523 1.010-1.1 1.010s-1.050-0.442-1.1-1.006l-0-0.004-0.7-7.014z"></path>
</svg>
