<!-- Generated by IcoMoon.io -->
<svg version="1.1" xmlns="http://www.w3.org/2000/svg" width="32" height="32" viewBox="0 0 32 32">
<title>shield-slash-fill</title>
<path d="M2.714 6.956c-0.84 7.938 1.74 13.856 4.846 17.822 1.384 1.77 2.977 3.289 4.764 4.553l0.070 0.047c0.742 0.512 1.43 0.902 2.014 1.172 0.54 0.248 1.116 0.45 1.592 0.45s1.054-0.202 1.592-0.45c0.584-0.27 1.272-0.66 2.014-1.172 0.932-0.64 1.966-1.48 3.004-2.526l-19.896-19.896zM26.288 22.046c2.29-3.968 3.804-9.288 2.888-16-0.163-1.121-0.947-2.025-1.985-2.36l-0.021-0.006c-0.967-0.355-2.818-0.913-4.686-1.428l-0.858-0.202c-2.086-0.552-4.3-1.050-5.626-1.050-1.324 0-3.54 0.498-5.626 1.050-1.096 0.29-2.2 0.606-3.18 0.9l19.094 19.096z"></path>
<path d="M29.292 30.708l-28-28 1.416-1.416 28 28-1.414 1.414z"></path>
</svg>
