<!-- Generated by IcoMoon.io -->
<svg version="1.1" xmlns="http://www.w3.org/2000/svg" width="32" height="32" viewBox="0 0 32 32">
<title>shield-slash</title>
<path d="M2.714 6.956c-0.84 7.938 1.74 13.856 4.846 17.822 1.384 1.77 2.977 3.289 4.764 4.553l0.070 0.047c0.742 0.512 1.43 0.902 2.014 1.172 0.54 0.248 1.116 0.45 1.592 0.45s1.054-0.202 1.592-0.45c0.584-0.27 1.272-0.66 2.014-1.172 0.932-0.64 1.966-1.48 3.004-2.526l-1.414-1.414c-0.819 0.829-1.709 1.583-2.662 2.253l-0.062 0.041c-0.493 0.35-1.054 0.683-1.643 0.969l-0.071 0.031c-0.232 0.106-0.42 0.178-0.564 0.22-0.053 0.018-0.118 0.035-0.185 0.047l-0.009 0.001c-0.014-0.002-0.076-0.010-0.194-0.046-0.224-0.072-0.411-0.147-0.591-0.234l0.027 0.012c-0.66-0.317-1.221-0.65-1.751-1.025l0.037 0.025c-1.687-1.193-3.136-2.575-4.36-4.141l-0.034-0.045c-2.61-3.332-4.844-8.202-4.556-14.726l-1.864-1.864zM24.82 20.576c1.942-3.57 3.188-8.3 2.374-14.258-0.054-0.348-0.299-0.628-0.624-0.73l-0.006-0.002c-1.252-0.4-3.364-1.052-5.45-1.604-2.132-0.562-4.094-0.982-5.114-0.982s-2.98 0.42-5.114 0.982c-1.336 0.339-2.032 0.538-2.725 0.745l0.643-0.165-1.612-1.612c0.309-0.127 1.372-0.436 2.442-0.728l0.74-0.172c2.086-0.552 4.3-1.050 5.626-1.050 1.324 0 3.54 0.498 5.626 1.050 2.726 0.717 4.577 1.275 6.408 1.875l-0.864-0.245c1.056 0.336 1.852 1.246 2.006 2.368 0.916 6.71-0.598 12.030-2.888 15.998l-1.47-1.47z"></path>
<path d="M29.292 30.708l-28-28 1.416-1.416 28 28-1.414 1.414z"></path>
</svg>
