<!-- Generated by IcoMoon.io -->
<svg version="1.1" xmlns="http://www.w3.org/2000/svg" width="32" height="32" viewBox="0 0 32 32">
<title>shield-lock-fill</title>
<path d="M10.374 2.050c2.086-0.552 4.3-1.050 5.626-1.050 1.324 0 3.54 0.498 5.626 1.050 2.726 0.717 4.577 1.275 6.408 1.875l-0.864-0.245c1.056 0.336 1.852 1.246 2.006 2.368 1.146 8.394-1.512 14.614-4.734 18.73-1.384 1.77-2.978 3.289-4.766 4.553l-0.070 0.047c-0.579 0.411-1.239 0.801-1.931 1.136l-0.083 0.036c-0.54 0.248-1.116 0.45-1.592 0.45s-1.052-0.202-1.592-0.45c-0.775-0.37-1.435-0.761-2.057-1.201l0.043 0.029c-1.857-1.311-3.45-2.83-4.797-4.551l-0.037-0.049c-3.226-4.116-5.882-10.336-4.736-18.73 0.162-1.122 0.946-2.027 1.985-2.362l0.021-0.006c0.967-0.355 2.817-0.913 4.686-1.428l0.858-0.202zM17.030 15.818c1.159-0.433 1.969-1.53 1.969-2.817 0-1.657-1.343-3-3-3s-3 1.343-3 3c0 1.265 0.783 2.347 1.891 2.788l0.020 0.007c-0.040 0.079-0.070 0.17-0.087 0.266l-0.001 0.006-0.666 4c-0.009 0.049-0.014 0.106-0.014 0.164 0 0.552 0.447 1 0.999 1h1.67c0 0 0 0 0.001 0 0.552 0 1-0.448 1-1 0-0.060-0.005-0.119-0.015-0.176l0.001 0.006-0.694-4c-0.016-0.092-0.041-0.174-0.077-0.25l0.003 0.006z"></path>
</svg>
