<!-- Generated by IcoMoon.io -->
<svg version="1.1" xmlns="http://www.w3.org/2000/svg" width="32" height="32" viewBox="0 0 32 32">
<title>signpost-split</title>
<path d="M14 32h4v-20h-2v-8h2v-1.172c0-1.105-0.895-2-2-2s-2 0.895-2 2v0 11.172h2v8h-2v10z"></path>
<path d="M28 6l1.5 2-1.5 2h-12v-4h12zM16 4c-1.105 0-2 0.895-2 2v0 4c0 1.105 0.895 2 2 2v0h12c0.652 0 1.231-0.312 1.596-0.795l0.004-0.005 1.95-2.6c0.125-0.165 0.2-0.374 0.2-0.6s-0.075-0.435-0.202-0.603l0.002 0.003-1.95-2.6c-0.369-0.488-0.948-0.8-1.6-0.8v0h-12zM4 16l-1.5 2 1.5 2h12v-4h-12zM16 14c1.105 0 2 0.895 2 2v0 4c0 1.105-0.895 2-2 2v0h-12c-0.652 0-1.231-0.312-1.596-0.795l-0.004-0.005-1.95-2.6c-0.125-0.165-0.2-0.374-0.2-0.6s0.075-0.435 0.202-0.602l-0.002 0.003 1.95-2.6c0.369-0.488 0.948-0.8 1.6-0.8h12z"></path>
</svg>
