<!-- Generated by IcoMoon.io -->
<svg version="1.1" xmlns="http://www.w3.org/2000/svg" width="32" height="32" viewBox="0 0 32 32">
<title>sim</title>
<path d="M4 3c0-1.657 1.343-3 3-3v0h14.172c0.828 0.001 1.578 0.337 2.12 0.88l3.83 3.828c0.542 0.543 0.878 1.292 0.878 2.12v22.172c0 1.657-1.343 3-3 3v0h-18c-1.657 0-3-1.343-3-3v0-26zM7 2c-0.552 0-1 0.448-1 1v0 26c0 0.552 0.448 1 1 1v0h18c0.552 0 1-0.448 1-1v0-22.172c-0-0.276-0.112-0.525-0.292-0.706l-3.83-3.83c-0.181-0.18-0.43-0.292-0.706-0.292h-14.172z"></path>
<path d="M11 8c-0.552 0-1 0.448-1 1v0 3h5v-4h-4zM17 8v4h5v-3c0-0.552-0.448-1-1-1v0h-4zM22 14h-12v4h12v-4zM22 20h-5v4h4c0.552 0 1-0.448 1-1v0-3zM15 24v-4h-5v3c0 0.552 0.448 1 1 1v0h4zM8 9c0-1.657 1.343-3 3-3v0h10c1.657 0 3 1.343 3 3v0 14c0 1.657-1.343 3-3 3v0h-10c-1.657 0-3-1.343-3-3v0-14z"></path>
</svg>
