<!-- Generated by IcoMoon.io -->
<svg version="1.1" xmlns="http://www.w3.org/2000/svg" width="32" height="32" viewBox="0 0 32 32">
<title>skip-end</title>
<path d="M24 7c0.552 0 1 0.448 1 1v0 16c0 0.552-0.448 1-1 1s-1-0.448-1-1v0-16c0-0.552 0.448-1 1-1v0z"></path>
<path d="M21.608 16l-11.608-6.734v13.468l11.608-6.734zM23.192 14.608c0.486 0.282 0.807 0.799 0.807 1.392s-0.321 1.11-0.799 1.388l-0.008 0.004-12.726 7.384c-1.040 0.604-2.466-0.086-2.466-1.392v-14.768c0-1.306 1.426-1.996 2.466-1.392l12.726 7.384z"></path>
</svg>
