<!-- Generated by IcoMoon.io -->
<svg version="1.1" xmlns="http://www.w3.org/2000/svg" width="32" height="32" viewBox="0 0 32 32">
<title>skip-backward</title>
<path d="M1 7c0.552 0 1 0.448 1 1v0 6.496l12.534-7.272c1.040-0.604 2.466 0.086 2.466 1.392v5.88l12.534-7.272c1.040-0.604 2.466 0.086 2.466 1.392v14.768c0 1.306-1.426 1.996-2.466 1.392l-12.534-7.272v5.88c0 1.306-1.426 1.996-2.466 1.392l-12.534-7.272v6.496c0 0.552-0.448 1-1 1s-1-0.448-1-1v0-16c0-0.552 0.448-1 1-1v0zM15 9.266l-11.608 6.734 11.608 6.734v-13.468zM30 9.266l-11.608 6.734 11.608 6.734v-13.468z"></path>
</svg>
