<!-- Generated by IcoMoon.io -->
<svg version="1.1" xmlns="http://www.w3.org/2000/svg" width="32" height="32" viewBox="0 0 32 32">
<title>sort-alpha-up-alt</title>
<path d="M8 28c0.552 0 1-0.448 1-1v0-22c0-0.552-0.448-1-1-1s-1 0.448-1 1v0 22c0 0.552 0.448 1 1 1v0z"></path>
<path d="M12.708 9.708c0.181-0.181 0.294-0.431 0.294-0.708s-0.112-0.527-0.294-0.708l-4-4c-0.181-0.181-0.431-0.294-0.708-0.294s-0.527 0.112-0.708 0.294l-4 4c-0.181 0.181-0.293 0.431-0.293 0.708 0 0.553 0.448 1.001 1.001 1.001 0.277 0 0.527-0.112 0.708-0.293v0l3.292-3.294 3.292 3.294c0.181 0.181 0.431 0.294 0.708 0.294s0.527-0.112 0.708-0.294l0-0z"></path>
<path d="M18.054 14h7.868v-1.734h-5.29v-0.11l5.134-7.438v-1.382h-7.57v1.734h5.014v0.11l-5.156 7.438v1.382zM19.328 28l0.836-2.742h3.562l0.836 2.742h2.242l-3.56-10.664h-2.47l-3.58 10.664h2.134zM22 19.374l1.304 4.314h-2.702l1.304-4.312h0.094z"></path>
</svg>
