<!-- Generated by IcoMoon.io -->
<svg version="1.1" xmlns="http://www.w3.org/2000/svg" width="32" height="32" viewBox="0 0 32 32">
<title>spellcheck</title>
<path d="M16.434 22.136c2.432 0 3.896-1.738 3.896-4.62v-1.404c0-2.88-1.454-4.61-3.858-4.61-1.484 0-2.656 0.694-2.998 1.778h-0.126v-5.314h-2.58v14.034h2.54v-1.582h0.128c0.42 1.064 1.552 1.72 2.998 1.72zM15.574 20.086c-1.32 0-2.226-1.036-2.226-2.56v-1.286c0-1.65 0.84-2.686 2.196-2.686 1.368 0 2.15 1.036 2.15 2.832v0.9c0 1.776-0.772 2.802-2.12 2.802zM4.408 22.156c1.534 0 2.402-0.712 2.812-1.474h0.118v1.318h2.432v-6.962c0-2.628-1.894-3.566-4.22-3.566-2.84 0-4.050 1.368-4.17 3.068h2.432c0.128-0.646 0.626-1.104 1.68-1.104s1.728 0.498 1.728 1.542v0.928h-2.528c-2.402 0-3.692 1.23-3.692 3.086 0 1.954 1.386 3.164 3.408 3.164zM5.248 20.262c-0.88 0-1.69-0.47-1.69-1.436 0-0.79 0.538-1.368 1.68-1.368h1.982v1.076c0 1.006-0.888 1.728-1.972 1.728zM23.042 21.396c-1.154-0.8-1.8-2.176-1.8-3.966v-1.3c0-2.84 1.788-4.676 4.61-4.676 2.704 0 4.238 1.64 4.278 3.612h-2.374c-0.080-0.702-0.566-1.552-1.836-1.552-1.348 0-2.090 1.034-2.090 2.656v1.25c0 0.936 0.242 1.668 0.686 2.134l-1.474 1.84z"></path>
<path d="M28.938 18.828c0.345 0.277 0.564 0.699 0.564 1.172 0 0.356-0.124 0.684-0.332 0.941l0.002-0.003-8 10c-0.277 0.344-0.698 0.562-1.171 0.562-0.415 0-0.79-0.168-1.061-0.44l-5-5c-0.294-0.275-0.477-0.665-0.477-1.097 0-0.828 0.672-1.5 1.5-1.5 0.433 0 0.823 0.183 1.097 0.477l0.001 0.001 3.816 3.814 6.952-8.692c0.277-0.345 0.699-0.564 1.172-0.564 0.356 0 0.684 0.124 0.941 0.332l-0.003-0.002z"></path>
</svg>
