<!-- Generated by IcoMoon.io -->
<svg version="1.1" xmlns="http://www.w3.org/2000/svg" width="32" height="32" viewBox="0 0 32 32">
<title>stickies</title>
<path d="M0 3c0-1.657 1.343-3 3-3v0h23c1.105 0 2 0.895 2 2v0h-25c-0.552 0-1 0.448-1 1v0 25c-1.105 0-2-0.895-2-2v0-23z"></path>
<path d="M4 7c0-1.657 1.343-3 3-3v0h22c1.657 0 3 1.343 3 3v0 12.172c-0.001 0.828-0.337 1.578-0.88 2.12l-9.828 9.83c-0.543 0.542-1.292 0.878-2.12 0.878h-12.172c-1.657 0-3-1.343-3-3v0-22zM7 6c-0.552 0-1 0.448-1 1v0 22c0 0.552 0.448 1 1 1v0h12.172c0.276-0 0.525-0.112 0.706-0.292l9.83-9.83c0.18-0.181 0.292-0.43 0.292-0.706v0-12.172c0-0.552-0.448-1-1-1v0h-22z"></path>
<path d="M21 20c-0.552 0-1 0.448-1 1v0 10h-2v-10c0-1.657 1.343-3 3-3v0h10v2h-10z"></path>
</svg>
