<!-- Generated by IcoMoon.io -->
<svg version="1.1" xmlns="http://www.w3.org/2000/svg" width="32" height="32" viewBox="0 0 32 32">
<title>stopwatch</title>
<path d="M16 30v0c-6.627 0-12-5.373-12-12s5.373-12 12-12v0c6.627 0 12 5.373 12 12s-5.373 12-12 12zM16 32c7.732 0 14-6.268 14-14s-6.268-14-14-14v0c-7.732 0-14 6.268-14 14s6.268 14 14 14v0z"></path>
<path d="M16 9c0.552 0 1 0.448 1 1v0 8c0 0.552-0.448 1-1 1v0h-7c-0.552 0-1-0.448-1-1s0.448-1 1-1v0h6v-7c0-0.552 0.448-1 1-1v0zM11 1c0-0.552 0.448-1 1-1v0h8c0.552 0 1 0.448 1 1s-0.448 1-1 1v0h-8c-0.552 0-1-0.448-1-1v0z"></path>
<path d="M14 2h4v4h-4v-4z"></path>
</svg>
