<!-- Generated by IcoMoon.io -->
<svg version="1.1" xmlns="http://www.w3.org/2000/svg" width="32" height="32" viewBox="0 0 32 32">
<title>stoplights-fill</title>
<path d="M12 0c-2.209 0-4 1.791-4 4v0 22c0 2.209 1.791 4 4 4v0h8c2.209 0 4-1.791 4-4v0-22c0-2.209-1.791-4-4-4v0h-8zM19 7c0 1.657-1.343 3-3 3s-3-1.343-3-3v0c0-1.657 1.343-3 3-3s3 1.343 3 3v0zM19 15c0 1.657-1.343 3-3 3s-3-1.343-3-3v0c0-1.657 1.343-3 3-3s3 1.343 3 3v0zM16 26c1.657 0 3-1.343 3-3s-1.343-3-3-3v0c-1.657 0-3 1.343-3 3s1.343 3 3 3v0z"></path>
<path d="M28 4h-4v4c2.4-0.8 3.666-3 4-4zM4 4h4v4c-2.4-0.8-3.666-3-4-4zM28 12h-4v4c2.4-0.8 3.666-3 4-4zM4 12h4v4c-2.4-0.8-3.666-3-4-4zM28 20h-4v4c2.4-0.8 3.666-3 4-4zM4 20h4v4c-2.4-0.8-3.666-3-4-4z"></path>
</svg>
