<!-- Generated by IcoMoon.io -->
<svg version="1.1" xmlns="http://www.w3.org/2000/svg" width="32" height="32" viewBox="0 0 32 32">
<title>stopwatch-fill</title>
<path d="M11 1c0-0.552 0.448-1 1-1v0h8c0.552 0 1 0.448 1 1s-0.448 1-1 1v0h-2v2.14c6.812 1.026 11.974 6.838 11.974 13.856 0 7.724-6.253 13.987-13.972 14.004h-0.002c-0.008 0-0.016 0-0.025 0-7.732 0-14-6.268-14-14 0-7.035 5.189-12.859 11.949-13.851l0.076-0.009v-2.14h-2c-0.552 0-1-0.448-1-1v0zM17 10c0-0.552-0.448-1-1-1s-1 0.448-1 1v0 7h-6c-0.552 0-1 0.448-1 1s0.448 1 1 1v0h7c0.552 0 1-0.448 1-1v0-8z"></path>
</svg>
