<!-- Generated by IcoMoon.io -->
<svg version="1.1" xmlns="http://www.w3.org/2000/svg" width="32" height="32" viewBox="0 0 32 32">
<title>suit-diamond-fill</title>
<path d="M4.9 14.8l9.5-12.666c0.369-0.488 0.948-0.8 1.6-0.8s1.231 0.312 1.596 0.795l0.004 0.005 9.5 12.666c0.25 0.33 0.4 0.748 0.4 1.2s-0.15 0.87-0.404 1.205l0.004-0.005-9.5 12.666c-0.369 0.488-0.948 0.8-1.6 0.8s-1.231-0.312-1.596-0.795l-0.004-0.005-9.5-12.666c-0.25-0.33-0.4-0.747-0.4-1.2s0.15-0.87 0.404-1.205l-0.004 0.005z"></path>
</svg>
