<!-- Generated by IcoMoon.io -->
<svg version="1.1" xmlns="http://www.w3.org/2000/svg" width="32" height="32" viewBox="0 0 32 32">
<title>suit-heart</title>
<path d="M16 12.472l-1.788-3.578c-0.444-0.886-1.214-2.16-2.304-3.19-1.072-1.014-2.356-1.704-3.908-1.704-3.352 0-6 2.652-6 5.84 0 2.422 1.108 4.132 3.736 6.74 0.672 0.666 1.442 1.39 2.292 2.186 2.216 2.080 4.972 4.668 7.972 8.128 3-3.46 5.756-6.048 7.972-8.128 0.85-0.796 1.618-1.518 2.292-2.186 2.628-2.608 3.736-4.318 3.736-6.74 0-3.188-2.648-5.84-6-5.84-1.552 0-2.836 0.69-3.908 1.704-1.090 1.030-1.86 2.304-2.304 3.19l-1.788 3.578zM16.784 29.056c-0.189 0.223-0.47 0.364-0.784 0.364s-0.595-0.141-0.783-0.363l-0.001-0.001c-3.202-3.804-6.1-6.524-8.486-8.762-4.13-3.878-6.73-6.316-6.73-10.454 0-4.33 3.58-7.84 8-7.84 3.2 0 5.438 2.1 6.808 4.016 0.52 0.73 0.916 1.432 1.192 1.984 0.386-0.765 0.782-1.414 1.223-2.029l-0.031 0.045c1.37-1.918 3.608-4.016 6.808-4.016 4.42 0 8 3.51 8 7.84 0 4.138-2.6 6.576-6.73 10.454-2.386 2.24-5.284 4.96-8.486 8.76z"></path>
</svg>
