<!-- Generated by IcoMoon.io -->
<svg version="1.1" xmlns="http://www.w3.org/2000/svg" width="32" height="32" viewBox="0 0 32 32">
<title>suit-spade</title>
<path d="M16 0c0 0 0 0 0 0 0.362 0 0.68 0.193 0.855 0.482l0.003 0.004c2.718 4.53 5.85 7.364 8.5 9.764 0.192 0.172 0.38 0.34 0.564 0.51 2.694 2.448 5.078 4.734 5.078 8.24 0 0.001 0 0.002 0 0.003 0 4.418-3.582 8-8 8-1.010 0-1.977-0.187-2.867-0.529l0.055 0.018c0.47 0.78 0.982 1.564 1.444 2.262 0.868 1.318-0.020 3.246-1.712 3.246h-7.84c-1.69 0-2.58-1.928-1.712-3.246 0.526-0.794 1.020-1.554 1.456-2.268-0.839 0.326-1.809 0.515-2.824 0.515-4.418 0-8-3.582-8-8 0-0 0-0.001 0-0.001v0c0-3.506 2.384-5.792 5.078-8.24l0.562-0.51c2.652-2.4 5.784-5.234 8.502-9.764 0.178-0.293 0.495-0.486 0.858-0.486 0 0 0 0 0 0v0zM7.422 12.24c-2.806 2.552-4.422 4.266-4.422 6.76 0 0 0 0.001 0 0.001 0 3.314 2.686 6 6 6 1.816 0 3.443-0.807 4.543-2.081l0.007-0.008c0.184-0.213 0.455-0.347 0.758-0.347 0.552 0 1 0.448 1 1 0 0.073-0.008 0.145-0.023 0.214l0.001-0.007c-0.188 0.876-0.66 1.864-1.222 2.856-0.785 1.347-1.455 2.401-2.156 3.431l0.13-0.203c-0.006 0.009-0.010 0.021-0.010 0.033 0 0.001 0 0.002 0 0.003v-0c0 0.043 0.019 0.081 0.048 0.108l0 0h7.848c0.029-0.027 0.048-0.065 0.048-0.108v-0c0-0.001 0-0.002 0-0.003 0-0.012-0.004-0.024-0.010-0.033l0 0c-0.6-0.91-1.316-2.010-1.92-3.070-0.588-1.028-1.14-2.128-1.328-3.014-0.014-0.062-0.022-0.134-0.022-0.207 0-0.552 0.448-1 1-1 0.302 0 0.573 0.134 0.757 0.346l0.001 0.001c1.107 1.282 2.734 2.089 4.55 2.089 3.314 0 6-2.686 6-6 0-0 0-0.001 0-0.001v0c0-2.494-1.616-4.208-4.422-6.76l-0.578-0.52c-2.392-2.168-5.336-4.832-8-8.848-2.664 4.016-5.608 6.68-8 8.844l-0.578 0.522z"></path>
</svg>
