<!-- Generated by IcoMoon.io -->
<svg version="1.1" xmlns="http://www.w3.org/2000/svg" width="32" height="32" viewBox="0 0 32 32">
<title>telephone-outbound</title>
<path d="M7.85 3.49c-0.235-0.299-0.597-0.49-1.003-0.49-0.351 0-0.669 0.142-0.899 0.372v0l-1.94 1.94c-0.906 0.906-1.24 2.19-0.842 3.316 1.736 4.851 4.405 8.992 7.813 12.391l0.001 0.001c3.4 3.409 7.542 6.078 12.162 7.742l0.23 0.072c1.126 0.396 2.41 0.064 3.316-0.842l1.94-1.94c0.229-0.23 0.371-0.547 0.371-0.898 0-0.407-0.191-0.769-0.488-1.002l-0.003-0.002-4.324-3.364c-0.213-0.167-0.485-0.268-0.781-0.268-0.109 0-0.215 0.014-0.316 0.040l0.009-0.002-4.104 1.026c-0.239 0.062-0.512 0.098-0.795 0.098-0.903 0-1.721-0.366-2.313-0.958l-4.604-4.606c-0.592-0.592-0.958-1.41-0.958-2.313 0-0.282 0.036-0.556 0.103-0.817l-0.005 0.023 1.026-4.104c0.024-0.092 0.038-0.198 0.038-0.307 0-0.296-0.101-0.567-0.27-0.783l0.002 0.003-3.366-4.326zM4.534 1.96c0.592-0.592 1.41-0.958 2.313-0.958 1.047 0 1.979 0.492 2.578 1.256l0.005 0.007 3.362 4.324c0.618 0.792 0.836 1.826 0.592 2.8l-1.026 4.106c-0.024 0.093-0.038 0.199-0.038 0.309 0 0.351 0.142 0.669 0.372 0.899v0l4.608 4.604c0.23 0.23 0.548 0.372 0.899 0.372 0.11 0 0.216-0.014 0.318-0.040l-0.009 0.002 4.104-1.026c0.238-0.062 0.511-0.098 0.793-0.098 0.761 0 1.461 0.26 2.016 0.695l-0.007-0.005 4.324 3.362c1.554 1.208 1.698 3.506 0.306 4.896l-1.94 1.94c-1.386 1.386-3.46 1.996-5.394 1.316-5.144-1.842-9.536-4.672-13.141-8.287l-0.001-0.001c-3.617-3.606-6.447-7.998-8.213-12.899l-0.077-0.243c-0.68-1.934-0.070-4.008 1.316-5.396l1.94-1.938zM22 1c0-0.552 0.448-1 1-1v0h8c0.552 0 1 0.448 1 1v0 8c0 0.552-0.448 1-1 1s-1-0.448-1-1v0-5.586l-8.292 8.294c-0.181 0.181-0.431 0.293-0.708 0.293-0.553 0-1.001-0.448-1.001-1.001 0-0.277 0.112-0.527 0.293-0.708v0l8.294-8.292h-5.586c-0.552 0-1-0.448-1-1v0z"></path>
</svg>
