<!-- Generated by IcoMoon.io -->
<svg version="1.1" xmlns="http://www.w3.org/2000/svg" width="32" height="32" viewBox="0 0 32 32">
<title>textarea-t</title>
<path d="M28 18v0c-1.105 0-2-0.895-2-2s0.895-2 2-2v0c1.105 0 2 0.895 2 2s-0.895 2-2 2zM28 20c2.209 0 4-1.791 4-4s-1.791-4-4-4v0c-2.209 0-4 1.791-4 4s1.791 4 4 4v0zM4 18v0c-1.105 0-2-0.895-2-2s0.895-2 2-2v0c1.105 0 2 0.895 2 2s-0.895 2-2 2zM4 20c2.209 0 4-1.791 4-4s-1.791-4-4-4v0c-2.209 0-4 1.791-4 4s1.791 4 4 4v0z"></path>
<path d="M3 5c0-1.657 1.343-3 3-3v0h20c1.657 0 3 1.343 3 3v0 8h-2v-8c0-0.552-0.448-1-1-1v0h-20c-0.552 0-1 0.448-1 1v0 8h-2v-8zM5 19v8c0 0.552 0.448 1 1 1v0h20c0.552 0 1-0.448 1-1v0-8h2v8c0 1.657-1.343 3-3 3v0h-20c-1.657 0-3-1.343-3-3v0-8h2z"></path>
<path d="M22.868 8h-13.736l-0.132 3.988h0.772c0.42-2.504 1.224-2.892 4.346-2.99l0.686-0.022v12.686c0 1.074-0.232 1.33-2.098 1.496v0.842h6.588v-0.842c-1.876-0.166-2.108-0.42-2.108-1.496v-12.686l0.696 0.020c3.12 0.1 3.926 0.488 4.346 2.992h0.772l-0.132-3.988z"></path>
</svg>
