<!-- Generated by IcoMoon.io -->
<svg version="1.1" xmlns="http://www.w3.org/2000/svg" width="32" height="32" viewBox="0 0 32 32">
<title>toggles2</title>
<path d="M4 8c0-2.209 1.791-4 4-4v0h16c2.209 0 4 1.791 4 4s-1.791 4-4 4v0h-16c-2.209 0-4-1.791-4-4v0zM8 6c-1.105 0-2 0.895-2 2s0.895 2 2 2v0h16c1.105 0 2-0.895 2-2s-0.895-2-2-2v0h-16z"></path>
<path d="M28 8c0 4.418-3.582 8-8 8s-8-3.582-8-8v0c0-4.418 3.582-8 8-8s8 3.582 8 8v0z"></path>
<path d="M18.93 20h5.070c2.209 0 4 1.791 4 4s-1.791 4-4 4v0h-5.070c0.68-1.176 1.070-2.542 1.070-4s-0.39-2.824-1.070-4z"></path>
<path d="M12 30v0c3.314 0 6-2.686 6-6s-2.686-6-6-6v0c-3.314 0-6 2.686-6 6s2.686 6 6 6zM12 32c-4.418 0-8-3.582-8-8s3.582-8 8-8v0c4.418 0 8 3.582 8 8s-3.582 8-8 8v0z"></path>
</svg>
