<!-- Generated by IcoMoon.io -->
<svg version="1.1" xmlns="http://www.w3.org/2000/svg" width="32" height="32" viewBox="0 0 32 32">
<title>tools</title>
<path d="M0 2l2-2 6.162 4.4c0.51 0.367 0.838 0.959 0.838 1.628 0 0.001 0 0.002 0 0.002v-0 0.14c0 0 0 0.001 0 0.002 0 0.552 0.224 1.052 0.586 1.414l11.414 11.414 1.828-0.61c0.188-0.065 0.405-0.102 0.631-0.102 0.553 0 1.053 0.224 1.415 0.586l6.712 6.712c0.362 0.362 0.586 0.862 0.586 1.414s-0.224 1.052-0.586 1.414l-3.172 3.172c-0.362 0.362-0.862 0.586-1.414 0.586s-1.052-0.224-1.414-0.586l-6.712-6.712c-0.362-0.362-0.586-0.862-0.586-1.415 0-0.226 0.037-0.443 0.106-0.645l-0.004 0.014 0.61-1.828-11.414-11.414c-0.362-0.362-0.862-0.586-1.414-0.586h-0.142c-0 0-0 0-0 0-0.669 0-1.261-0.328-1.624-0.832l-0.004-0.006-4.402-6.162zM22.708 21.292c-0.181-0.181-0.431-0.293-0.708-0.293-0.553 0-1.001 0.448-1.001 1.001 0 0.276 0.112 0.527 0.293 0.708v0l6 6c0.181 0.181 0.431 0.293 0.708 0.293 0.553 0 1.001-0.448 1.001-1.001 0-0.276-0.112-0.527-0.293-0.708v0l-6-6z"></path>
<path d="M31.796 4.446c0.129 0.464 0.203 0.997 0.203 1.547 0 3.317-2.689 6.006-6.006 6.006-0.553 0-1.088-0.075-1.597-0.215l0.042 0.010-12.682 12.506c0.156 0.509 0.246 1.094 0.246 1.7 0 3.314-2.686 6-6 6s-6-2.686-6-6c0-3.314 2.686-6 6-6 0.606 0 1.191 0.090 1.743 0.257l-0.043-0.011 12.504-12.682c-0.133-0.471-0.209-1.012-0.209-1.57 0-3.314 2.686-6 6-6 0.555 0 1.091 0.075 1.601 0.216l-0.042-0.010-4.284 4.284 0.728 3.516 3.514 0.728 4.282-4.282zM5.056 22.484l0.946-0.484 0.942 0.484 1.058 0.052 0.574 0.89 0.89 0.574 0.052 1.058 0.482 0.942-0.484 0.942-0.052 1.058-0.89 0.574-0.574 0.89-1.058 0.052-0.942 0.484-0.942-0.484-1.058-0.052-0.574-0.89-0.89-0.574-0.052-1.058-0.484-0.942 0.484-0.942 0.052-1.058 0.89-0.574 0.574-0.89 1.058-0.052z"></path>
</svg>
