<!-- Generated by IcoMoon.io -->
<svg version="1.1" xmlns="http://www.w3.org/2000/svg" width="32" height="32" viewBox="0 0 32 32">
<title>trash-fill</title>
<path d="M5 2c-1.105 0-2 0.895-2 2v0 2c0 1.105 0.895 2 2 2v0h1v18c0 2.209 1.791 4 4 4v0h12c2.209 0 4-1.791 4-4v0-18h1c1.105 0 2-0.895 2-2v0-2c0-1.105-0.895-2-2-2v0h-7c0-1.105-0.895-2-2-2v0h-4c-1.105 0-2 0.895-2 2v0h-7zM11 10c0.552 0 1 0.448 1 1v0 14c0 0.552-0.448 1-1 1s-1-0.448-1-1v0-14c0-0.552 0.448-1 1-1v0zM16 10c0.552 0 1 0.448 1 1v0 14c0 0.552-0.448 1-1 1s-1-0.448-1-1v0-14c0-0.552 0.448-1 1-1v0zM22 11c0-0.552-0.448-1-1-1s-1 0.448-1 1v0 14c0 0.552 0.448 1 1 1s1-0.448 1-1v0-14z"></path>
</svg>
