<!-- Generated by IcoMoon.io -->
<svg version="1.1" xmlns="http://www.w3.org/2000/svg" width="32" height="32" viewBox="0 0 32 32">
<title>trash</title>
<path d="M11 11c0.552 0 1 0.448 1 1v0 12c0 0.552-0.448 1-1 1s-1-0.448-1-1v0-12c0-0.552 0.448-1 1-1v0zM16 11c0.552 0 1 0.448 1 1v0 12c0 0.552-0.448 1-1 1s-1-0.448-1-1v0-12c0-0.552 0.448-1 1-1v0zM22 12c0-0.552-0.448-1-1-1s-1 0.448-1 1v0 12c0 0.552 0.448 1 1 1s1-0.448 1-1v0-12z"></path>
<path d="M29 6c0 1.105-0.895 2-2 2v0h-1v18c0 2.209-1.791 4-4 4v0h-12c-2.209 0-4-1.791-4-4v0-18h-1c-1.105 0-2-0.895-2-2v0-2c0-1.105 0.895-2 2-2v0h7c0-1.105 0.895-2 2-2v0h4c1.105 0 2 0.895 2 2v0h7c1.105 0 2 0.895 2 2v0 2zM8.236 8l-0.236 0.118v17.882c0 1.105 0.895 2 2 2v0h12c1.105 0 2-0.895 2-2v0-17.882l-0.236-0.118h-15.528zM5 6v-2h22v2h-22z"></path>
</svg>
