<!-- Generated by IcoMoon.io -->
<svg version="1.1" xmlns="http://www.w3.org/2000/svg" width="32" height="32" viewBox="0 0 32 32">
<title>trash2-fill</title>
<path d="M4.074 6.45l3.368 20.208c0.327 1.908 1.969 3.342 3.945 3.342 0 0 0 0 0.001 0h9.224c0 0 0 0 0 0 1.977 0 3.619-1.434 3.942-3.318l0.003-0.024 3.368-20.208c-0.672 1.998-5.756 3.55-11.926 3.55-6.172 0-11.254-1.552-11.926-3.55z"></path>
<path d="M25.802 6c-0.36 0.278-0.996 0.612-1.95 0.932-1.918 0.638-4.692 1.068-7.852 1.068s-5.936-0.428-7.852-1.068c-0.954-0.318-1.59-0.652-1.95-0.932 0.36-0.278 0.996-0.612 1.95-0.932 1.916-0.638 4.692-1.068 7.852-1.068s5.934 0.428 7.852 1.068c0.954 0.318 1.588 0.652 1.948 0.932zM16 10c6.628 0 12-1.79 12-4s-5.372-4-12-4-12 1.79-12 4 5.372 4 12 4z"></path>
</svg>
