<!-- Generated by IcoMoon.io -->
<svg version="1.1" xmlns="http://www.w3.org/2000/svg" width="32" height="32" viewBox="0 0 32 32">
<title>triangle-half</title>
<path d="M16.13 4.032l0.001 0.001c-0.037-0.021-0.080-0.033-0.126-0.033-0 0-0.001 0-0.001 0v23.966l13.711 0.034c0.004 0 0.008 0 0.012 0 0.045 0 0.086-0.013 0.121-0.034l0.001-0.001c0.044-0.030 0.081-0.070 0.107-0.119 0.066-0.118 0.068-0.246-0.004-0.366l-13.715-23.336c-0.025-0.046-0.061-0.085-0.107-0.112zM14.044 3.132c0.397-0.683 1.126-1.135 1.96-1.135s1.563 0.452 1.954 1.124l0.006 0.011 13.714 23.334c0.914 1.556-0.184 3.534-1.96 3.534h-27.43c-1.778 0-2.874-1.98-1.96-3.534l13.716-23.334z"></path>
</svg>
