<!-- Generated by IcoMoon.io -->
<svg version="1.1" xmlns="http://www.w3.org/2000/svg" width="32" height="32" viewBox="0 0 32 32">
<title>type</title>
<path d="M4.488 26.162l1.886-5.606h6.946l1.888 5.606h2.512l-6.64-18.662h-2.436l-6.644 18.662h2.488zM9.888 10.316l2.792 8.312h-5.66l2.8-8.312h0.068zM28.18 24.37h0.070v1.792h2.256v-9.912c0-3.020-2.228-4.69-5.292-4.69-3.472 0-5.18 1.832-5.332 4.348h2.216c0.136-1.436 1.19-2.38 3.034-2.38 1.942 0 3.036 1.040 3.036 2.928v1.462h-3.788c-3.294 0.014-5.044 1.6-5.044 4.116 0 2.638 1.914 4.36 4.69 4.36 2.12 0 3.432-0.86 4.156-2.022zM24.654 24.44c-1.504 0-2.912-0.794-2.912-2.488 0-1.3 0.848-2.23 2.816-2.23h3.61v1.668c0 1.792-1.504 3.050-3.514 3.050z"></path>
</svg>
