<!-- Generated by IcoMoon.io -->
<svg version="1.1" xmlns="http://www.w3.org/2000/svg" width="32" height="32" viewBox="0 0 32 32">
<title>ui-radios</title>
<path d="M14 5c0-0.552 0.448-1 1-1v0h14c0.552 0 1 0.448 1 1v0 2c0 0.552-0.448 1-1 1v0h-14c-0.552 0-1-0.448-1-1v0-2zM0 24c0-3.314 2.686-6 6-6s6 2.686 6 6v0c0 3.314-2.686 6-6 6s-6-2.686-6-6v0zM14 21c0-0.552 0.448-1 1-1v0h14c0.552 0 1 0.448 1 1v0 2c0 0.552-0.448 1-1 1v0h-14c-0.552 0-1-0.448-1-1v0-2z"></path>
<path d="M14 11v0c0 0.552 0.448 1 1 1h10c0.552 0 1-0.448 1-1s-0.448-1-1-1h-10c-0.552 0-1 0.448-1 1zM14 27v0c0 0.552 0.448 1 1 1h10c0.552 0 1-0.448 1-1s-0.448-1-1-1h-10c-0.552 0-1 0.448-1 1zM6 2v0c3.314 0 6 2.686 6 6s-2.686 6-6 6v0c-3.314 0-6-2.686-6-6s2.686-6 6-6zM6 11c1.657 0 3-1.343 3-3s-1.343-3-3-3v0c-1.657 0-3 1.343-3 3s1.343 3 3 3v0z"></path>
</svg>
