<!-- Generated by IcoMoon.io -->
<svg version="1.1" xmlns="http://www.w3.org/2000/svg" width="32" height="32" viewBox="0 0 32 32">
<title>unlock</title>
<path d="M19.31 16l0.007 0c0.326 0.023 0.632 0.115 0.893 0.256l0.007 0.003c0.205 0.109 0.377 0.27 0.503 0.471 0.128 0.208 0.28 0.586 0.28 1.27v9.986l-0 0.007c-0.019 0.424-0.118 0.827-0.276 1.173l-0.004 0.010c-0.096 0.229-0.249 0.428-0.444 0.582-0.146 0.106-0.414 0.242-0.942 0.242l-14.678-0.003c-0.315-0.026-0.611-0.117-0.864-0.253-0.21-0.114-0.384-0.262-0.512-0.474-0.128-0.208-0.28-0.586-0.28-1.27v-9.986l0-0.007c0.019-0.424 0.118-0.827 0.276-1.173l0.004-0.010c0.096-0.229 0.249-0.428 0.444-0.582 0.146-0.106 0.414-0.242 0.942-0.242h14.644zM19.334 14h-14.668c-3.666 0-3.666 4-3.666 4v10c0 4 3.666 4 3.666 4h14.668c3.666 0 3.666-4 3.666-4v-10c0-4-3.666-4-3.666-4zM17 8v6h2v-6c0-2.761 2.239-5 5-5s5 2.239 5 5v6h2v-6c0-3.866-3.134-7-7-7s-7 3.134-7 7z"></path>
</svg>
