<!-- Generated by IcoMoon.io -->
<svg version="1.1" xmlns="http://www.w3.org/2000/svg" width="32" height="32" viewBox="0 0 32 32">
<title>view-list</title>
<path d="M6 9h20c2.209 0 4 1.791 4 4v0 6c0 2.209-1.791 4-4 4v0h-20c-2.209 0-4-1.791-4-4v0-6c0-2.209 1.791-4 4-4v0zM6 11c-1.105 0-2 0.895-2 2v0 6c0 1.105 0.895 2 2 2v0h20c1.105 0 2-0.895 2-2v0-6c0-1.105-0.895-2-2-2v0h-20zM2 4c0-0.552 0.448-1 1-1v0h26c0.552 0 1 0.448 1 1s-0.448 1-1 1v0h-26c-0.552 0-1-0.448-1-1v0zM2 28c0-0.552 0.448-1 1-1v0h26c0.552 0 1 0.448 1 1s-0.448 1-1 1v0h-26c-0.552 0-1-0.448-1-1v0z"></path>
</svg>
