<!-- Generated by IcoMoon.io -->
<svg version="1.1" xmlns="http://www.w3.org/2000/svg" width="32" height="32" viewBox="0 0 32 32">
<title>voicemail</title>
<path d="M7 22v0c-2.761 0-5-2.239-5-5s2.239-5 5-5v0c2.761 0 5 2.239 5 5s-2.239 5-5 5zM7 24c3.866 0 7-3.134 7-7s-3.134-7-7-7v0c-3.866 0-7 3.134-7 7s3.134 7 7 7v0zM25 22v0c-2.761 0-5-2.239-5-5s2.239-5 5-5v0c2.761 0 5 2.239 5 5s-2.239 5-5 5zM25 24c3.866 0 7-3.134 7-7s-3.134-7-7-7v0c-3.866 0-7 3.134-7 7s3.134 7 7 7v0z"></path>
<path d="M25 24h-18v-2h18v2z"></path>
</svg>
