<!-- Generated by IcoMoon.io -->
<svg version="1.1" xmlns="http://www.w3.org/2000/svg" width="32" height="32" viewBox="0 0 32 32">
<title>volume-down-fill</title>
<path d="M17.434 7.1c0.337 0.165 0.566 0.506 0.566 0.9v16c-0.001 0.552-0.448 0.999-1 0.999-0.237 0-0.455-0.082-0.626-0.22l0.002 0.002-4.726-3.78h-4.65c-0.552 0-1-0.448-1-1v0-8c0-0.552 0.448-1 1-1v0h4.65l4.726-3.78c0.169-0.136 0.387-0.219 0.624-0.219 0.158 0 0.307 0.037 0.439 0.101l-0.006-0.003z"></path>
<path d="M21.414 22.364c1.628-1.624 2.636-3.871 2.636-6.352 0-0.004 0-0.008 0-0.012v0.001c0-0.003 0-0.008 0-0.012 0-2.482-1.008-4.728-2.636-6.352l-0-0-1.414 1.414c1.266 1.263 2.050 3.010 2.050 4.94 0 0.003 0 0.007 0 0.010v-0.001c0 1.932-0.784 3.682-2.050 4.95l1.414 1.414z"></path>
</svg>
