<!-- Generated by IcoMoon.io -->
<svg version="1.1" xmlns="http://www.w3.org/2000/svg" width="32" height="32" viewBox="0 0 32 32">
<title>vr</title>
<path d="M6 24v-16c0-1.105 0.895-2 2-2v0h5v-2h-5c-2.209 0-4 1.791-4 4v0 16c0 2.209 1.791 4 4 4v0h5v-2h-5c-1.105 0-2-0.895-2-2v0zM19 26v2h5c2.209 0 4-1.791 4-4v0-16c0-2.209-1.791-4-4-4v0h-5v2h5c1.105 0 2 0.895 2 2v0 16c0 1.105-0.895 2-2 2v0h-5z"></path>
<path d="M16 32c-0.552 0-1-0.448-1-1v0-30c0-0.552 0.448-1 1-1s1 0.448 1 1v0 30c0 0.552-0.448 1-1 1v0z"></path>
</svg>
