<!-- Generated by IcoMoon.io -->
<svg version="1.1" xmlns="http://www.w3.org/2000/svg" width="32" height="32" viewBox="0 0 32 32">
<title>x-diamond-fill</title>
<path d="M18.1 0.87c-1.16-1.16-3.040-1.16-4.2 0l-5.806 5.808 7.906 7.908 7.908-7.908-5.81-5.808zM25.32 8.092l-7.904 7.908 7.908 7.908 5.808-5.81c1.16-1.16 1.16-3.038 0-4.196l-5.808-5.81zM23.908 25.322l-7.908-7.908-7.908 7.908 5.81 5.808c1.16 1.16 3.038 1.16 4.196 0l5.81-5.808zM6.678 23.908l7.908-7.908-7.908-7.908-5.808 5.81c-1.16 1.16-1.16 3.038 0 4.196l5.808 5.81z"></path>
</svg>
