<!-- Generated by IcoMoon.io -->
<svg version="1.1" xmlns="http://www.w3.org/2000/svg" width="32" height="32" viewBox="0 0 32 32">
<title>zoom-out</title>
<path d="M13 24c6.075 0 11-4.925 11-11s-4.925-11-11-11v0c-6.075 0-11 4.925-11 11s4.925 11 11 11v0zM26 13c0 7.18-5.82 13-13 13s-13-5.82-13-13v0c0-7.18 5.82-13 13-13s13 5.82 13 13v0z"></path>
<path d="M20.688 23.484c0.060 0.080 0.124 0.156 0.196 0.23l7.7 7.7c0.362 0.362 0.862 0.586 1.415 0.586 1.105 0 2-0.896 2-2 0-0.552-0.224-1.052-0.585-1.414l-7.7-7.7c-0.070-0.071-0.145-0.136-0.225-0.196l-0.005-0.004c-0.796 1.078-1.719 2.002-2.761 2.775l-0.035 0.025z"></path>
<path d="M6 13c0-0.552 0.448-1 1-1v0h12c0.552 0 1 0.448 1 1s-0.448 1-1 1v0h-12c-0.552 0-1-0.448-1-1v0z"></path>
</svg>
