<!-- Generated by IcoMoon.io -->
<svg version="1.1" xmlns="http://www.w3.org/2000/svg" width="32" height="32" viewBox="0 0 32 32">
<title>app-indicator</title>
<path d="M11 4c-3.866 0-7 3.134-7 7v0 10c0 3.866 3.134 7 7 7v0h10c3.866 0 7-3.134 7-7v0-5c0-0.552 0.448-1 1-1s1 0.448 1 1v0 5c0 4.971-4.029 9-9 9v0h-10c-4.971 0-9-4.029-9-9v0-10c0-4.971 4.029-9 9-9v0h5c0.552 0 1 0.448 1 1s-0.448 1-1 1v0h-5z"></path>
<path d="M32 6c0 3.314-2.686 6-6 6s-6-2.686-6-6v0c0-3.314 2.686-6 6-6s6 2.686 6 6v0z"></path>
</svg>
