<!-- Generated by IcoMoon.io -->
<svg version="1.1" xmlns="http://www.w3.org/2000/svg" width="32" height="32" viewBox="0 0 32 32">
<title>arrow-clockwise</title>
<path d="M6.34 13.412c1.18-4.303 5.057-7.413 9.66-7.413 1.659 0 3.224 0.404 4.602 1.119l-0.056-0.026c0.132 0.069 0.288 0.109 0.454 0.109 0.553 0 1.001-0.448 1.001-1.001 0-0.387-0.22-0.723-0.541-0.889l-0.006-0.003c-1.586-0.826-3.463-1.311-5.454-1.311-6.627 0-12 5.373-12 12s5.373 12 12 12c6.627 0 12-5.373 12-12 0-1.812-0.402-3.53-1.121-5.071l0.031 0.074c-0.162-0.347-0.508-0.584-0.91-0.584-0.553 0-1.001 0.448-1.001 1.001 0 0.151 0.034 0.295 0.094 0.423l-0.003-0.006c0.574 1.223 0.909 2.655 0.909 4.166 0 5.523-4.477 10-10 10s-10-4.477-10-10c0-0.921 0.124-1.812 0.357-2.659l-0.016 0.070z"></path>
<path d="M16.294 0.292c0.181-0.181 0.431-0.293 0.707-0.293s0.526 0.112 0.707 0.293l5 5c0.181 0.181 0.294 0.431 0.294 0.708s-0.112 0.527-0.294 0.708l-5 5c-0.181 0.181-0.431 0.293-0.707 0.293-0.553 0-1.001-0.448-1.001-1.001 0-0.277 0.112-0.527 0.294-0.708v0l4.292-4.292-4.292-4.292c-0.181-0.181-0.294-0.431-0.294-0.708s0.112-0.527 0.294-0.708l0-0z"></path>
</svg>
