<!-- Generated by IcoMoon.io -->
<svg version="1.1" xmlns="http://www.w3.org/2000/svg" width="32" height="32" viewBox="0 0 32 32">
<title>arrow-bar-up</title>
<path d="M22.708 11.708c0.181-0.181 0.294-0.431 0.294-0.708s-0.112-0.527-0.294-0.708l-6-6c-0.181-0.181-0.431-0.294-0.708-0.294s-0.527 0.112-0.708 0.294l-6 6c-0.181 0.181-0.293 0.431-0.293 0.708 0 0.553 0.448 1.001 1.001 1.001 0.277 0 0.527-0.112 0.708-0.293v0l5.292-5.294 5.292 5.294c0.181 0.181 0.431 0.294 0.708 0.294s0.527-0.112 0.708-0.294l0-0z"></path>
<path d="M16 20c0.552 0 1-0.448 1-1v0-13c0-0.552-0.448-1-1-1s-1 0.448-1 1v0 13c0 0.552 0.448 1 1 1v0zM6.4 23.2c0-0.44 0.36-0.8 0.8-0.8h17.6c0.442 0 0.8 0.358 0.8 0.8s-0.358 0.8-0.8 0.8h-17.6c-0.442 0-0.8-0.358-0.8-0.8v0z"></path>
</svg>
