<!-- Generated by IcoMoon.io -->
<svg version="1.1" xmlns="http://www.w3.org/2000/svg" width="32" height="32" viewBox="0 0 32 32">
<title>arrow-down-right</title>
<path d="M24 15c0.552 0 1 0.448 1 1v0 10c0 0.552-0.448 1-1 1v0h-10c-0.552 0-1-0.448-1-1s0.448-1 1-1v0h9v-9c0-0.552 0.448-1 1-1v0z"></path>
<path d="M5.292 7.292c0.181-0.181 0.431-0.294 0.708-0.294s0.527 0.112 0.708 0.294l18 18c0.181 0.181 0.293 0.431 0.293 0.708 0 0.553-0.448 1.001-1.001 1.001-0.276 0-0.527-0.112-0.708-0.293v0l-18-18c-0.181-0.181-0.294-0.431-0.294-0.708s0.112-0.527 0.294-0.708l0-0z"></path>
</svg>
