<!-- Generated by IcoMoon.io -->
<svg version="1.1" xmlns="http://www.w3.org/2000/svg" width="32" height="32" viewBox="0 0 32 32">
<title>arrows-fullscreen</title>
<path d="M2.928 21.072c0.552 0 1 0.448 1 1v0 6h6c0.552 0 1 0.448 1 1s-0.448 1-1 1v0h-7c-0.552 0-1-0.448-1-1v0-7c0-0.552 0.448-1 1-1v0z"></path>
<path d="M11.928 20c0.181 0.181 0.293 0.431 0.293 0.707s-0.112 0.526-0.293 0.707l-8.292 8.294c-0.181 0.181-0.431 0.293-0.707 0.293-0.553 0-1.001-0.448-1.001-1.001 0-0.277 0.112-0.527 0.294-0.708v0l8.292-8.292c0.181-0.181 0.431-0.293 0.707-0.293s0.526 0.112 0.707 0.293v0zM29.636 2.292c0.181 0.181 0.294 0.431 0.294 0.708s-0.112 0.527-0.294 0.708l-8.292 8.292c-0.181 0.181-0.431 0.294-0.708 0.294-0.553 0-1.001-0.448-1.001-1.001 0-0.276 0.112-0.526 0.293-0.707v0l8.294-8.294c0.181-0.181 0.431-0.293 0.707-0.293s0.526 0.112 0.707 0.293v0z"></path>
<path d="M21 3c0-0.552 0.448-1 1-1v0h7c0.552 0 1 0.448 1 1v0 7c0 0.552-0.448 1-1 1s-1-0.448-1-1v0-6h-6c-0.552 0-1-0.448-1-1v0zM29 21c-0.552 0-1 0.448-1 1v0 6h-6c-0.552 0-1 0.448-1 1s0.448 1 1 1v0h7c0.552 0 1-0.448 1-1v0-7c0-0.552-0.448-1-1-1v0z"></path>
<path d="M20 19.928c-0.181 0.181-0.294 0.431-0.294 0.708s0.112 0.527 0.294 0.708l8.292 8.292c0.181 0.181 0.431 0.294 0.708 0.294 0.553 0 1.001-0.448 1.001-1.001 0-0.276-0.112-0.526-0.293-0.707v0l-8.294-8.294c-0.181-0.181-0.431-0.293-0.707-0.293s-0.526 0.112-0.707 0.293v0zM2.364 2.292c-0.181 0.181-0.294 0.431-0.294 0.708s0.112 0.527 0.294 0.708l8.292 8.292c0.181 0.181 0.431 0.294 0.708 0.294 0.553 0 1.001-0.448 1.001-1.001 0-0.276-0.112-0.526-0.293-0.707v0l-8.294-8.294c-0.181-0.181-0.431-0.293-0.707-0.293s-0.526 0.112-0.707 0.293v0z"></path>
<path d="M11 3c0-0.552-0.448-1-1-1v0h-7c-0.552 0-1 0.448-1 1v0 7c0 0.552 0.448 1 1 1s1-0.448 1-1v0-6h6c0.552 0 1-0.448 1-1v0z"></path>
</svg>
