<!-- Generated by IcoMoon.io -->
<svg version="1.1" xmlns="http://www.w3.org/2000/svg" width="32" height="32" viewBox="0 0 32 32">
<title>at</title>
<path d="M26.212 14.444c0-5.934-4.498-10.064-10.964-10.064-6.7 0-11.292 4.636-11.292 11.404 0 6.986 4.47 11.416 11.524 11.416 1.724 0 3.378-0.246 4.608-0.67v-1.724c-0.86 0.398-2.708 0.656-4.58 0.656-5.852 0-9.626-3.76-9.626-9.596 0-5.688 3.842-9.762 9.188-9.762 5.47 0 9.216 3.376 9.216 8.312 0 3.364-1.108 5.538-2.832 5.538-0.984 0-1.544-0.56-1.544-1.52v-8.022h-2.064v1.668h-0.22c-0.532-1.19-1.762-1.928-3.2-1.928-2.8 0-4.756 2.324-4.756 5.646 0 3.474 1.914 5.812 4.758 5.812 1.6 0 2.83-0.78 3.418-2.174h0.22c0.162 1.34 1.406 2.296 3.006 2.296 3.144 0 5.14-2.83 5.14-7.286zM11.858 15.852c0-2.394 1.080-3.814 2.912-3.814 1.86 0 3.048 1.476 3.048 3.814s-1.202 3.828-3.076 3.828c-1.79 0-2.884-1.45-2.884-3.828z"></path>
</svg>
