<!-- Generated by IcoMoon.io -->
<svg version="1.1" xmlns="http://www.w3.org/2000/svg" width="32" height="32" viewBox="0 0 32 32">
<title>backspace</title>
<path d="M13.206 4h-0c-0.606 0.001-1.149 0.271-1.518 0.7l-9.688 11.3 9.688 11.303c0.367 0.427 0.911 0.697 1.518 0.697 0 0 0 0 0 0h14.16c1.105 0 2-0.895 2-2v-20c0-1.105-0.895-2-2-2h-14.16zM27.366 2c2.209 0 4 1.791 4 4v0 20c0 2.209-1.791 4-4 4v0h-14.16c-0.001 0-0.001 0-0.002 0-1.212 0-2.298-0.539-3.032-1.391l-0.004-0.005-9.686-11.304c-0.299-0.348-0.482-0.803-0.482-1.302s0.182-0.954 0.484-1.305l-0.002 0.003 9.686-11.296c0.738-0.859 1.825-1.399 3.038-1.4h14.16z"></path>
<path d="M11.66 10.292c-0.181 0.181-0.294 0.431-0.294 0.708s0.112 0.527 0.294 0.708l10 10c0.181 0.181 0.431 0.293 0.707 0.293 0.553 0 1.001-0.448 1.001-1.001 0-0.277-0.112-0.527-0.294-0.708v0l-10-10c-0.181-0.181-0.431-0.294-0.708-0.294s-0.527 0.112-0.708 0.294l-0 0z"></path>
<path d="M23.074 10.292c0.181 0.181 0.294 0.431 0.294 0.708s-0.112 0.527-0.294 0.708l-10 10c-0.181 0.181-0.431 0.293-0.708 0.293-0.553 0-1.001-0.448-1.001-1.001 0-0.276 0.112-0.527 0.293-0.708v0l10-10c0.181-0.181 0.431-0.293 0.707-0.293s0.526 0.112 0.707 0.293v0z"></path>
</svg>
