<!-- Generated by IcoMoon.io -->
<svg version="1.1" xmlns="http://www.w3.org/2000/svg" width="32" height="32" viewBox="0 0 32 32">
<title>backspace-fill</title>
<path d="M31.366 6c0-2.209-1.791-4-4-4v0h-14.16c-0.001 0-0.001 0-0.002 0-1.212 0-2.298 0.539-3.032 1.391l-0.004 0.005-9.686 11.304c-0.299 0.348-0.482 0.803-0.482 1.302s0.182 0.954 0.484 1.305l-0.002-0.003 9.686 11.3c0.738 0.857 1.824 1.396 3.036 1.396 0.001 0 0.001 0 0.002 0h14.16c2.209 0 4-1.791 4-4v0-20zM11.658 11.708c-0.181-0.181-0.294-0.431-0.294-0.708 0-0.553 0.448-1.001 1.001-1.001 0.276 0 0.526 0.112 0.707 0.293v0l4.294 4.294 4.292-4.294c0.181-0.181 0.431-0.293 0.707-0.293 0.553 0 1.001 0.448 1.001 1.001 0 0.277-0.112 0.527-0.294 0.708v0l-4.292 4.292 4.292 4.292c0.181 0.181 0.294 0.431 0.294 0.708 0 0.553-0.448 1.001-1.001 1.001-0.276 0-0.526-0.112-0.707-0.293v0l-4.292-4.294-4.294 4.294c-0.181 0.181-0.431 0.293-0.707 0.293-0.553 0-1.001-0.448-1.001-1.001 0-0.277 0.112-0.527 0.294-0.708v0l4.294-4.292-4.294-4.292z"></path>
</svg>
