<!-- Generated by IcoMoon.io -->
<svg version="1.1" xmlns="http://www.w3.org/2000/svg" width="32" height="32" viewBox="0 0 32 32">
<title>bag-plus</title>
<path d="M28 10v18c0 1.105-0.895 2-2 2h-20c-1.105 0-2-0.895-2-2v-18h24zM2 8v20c0 2.209 1.791 4 4 4v0h20c2.209 0 4-1.791 4-4v0-20h-28z"></path>
<path d="M16 3c-2.761 0-5 2.239-5 5v0h-2c0-3.866 3.134-7 7-7s7 3.134 7 7v0h-2c0-2.761-2.239-5-5-5v0z"></path>
<path d="M16 15c0.552 0 1 0.448 1 1v0 4c0 0.552-0.448 1-1 1v0h-4c-0.552 0-1-0.448-1-1s0.448-1 1-1v0h3v-3c0-0.552 0.448-1 1-1v0z"></path>
<path d="M15 20c0-0.552 0.448-1 1-1v0h4c0.552 0 1 0.448 1 1s-0.448 1-1 1v0h-3v3c0 0.552-0.448 1-1 1s-1-0.448-1-1v0-4z"></path>
</svg>
