<!-- Generated by IcoMoon.io -->
<svg version="1.1" xmlns="http://www.w3.org/2000/svg" width="32" height="32" viewBox="0 0 32 32">
<title>basket</title>
<path d="M20.486 2.142c0.147-0.089 0.324-0.142 0.514-0.142 0.363 0 0.68 0.193 0.855 0.482l0.003 0.004 6 10c0.089 0.147 0.142 0.324 0.142 0.514 0 0.552-0.448 1-1 1-0.363 0-0.68-0.193-0.855-0.482l-0.003-0.004-6-10c-0.089-0.147-0.142-0.324-0.142-0.514 0-0.363 0.193-0.68 0.482-0.855l0.004-0.002zM11.514 2.142c-0.147-0.089-0.324-0.142-0.514-0.142-0.363 0-0.68 0.193-0.855 0.482l-0.002 0.004-6 10c-0.089 0.147-0.142 0.324-0.142 0.514 0 0.552 0.448 1 1 1 0.363 0 0.68-0.193 0.856-0.482l0.003-0.004 6-10c0.089-0.147 0.142-0.324 0.142-0.514 0-0.363-0.193-0.68-0.482-0.855l-0.004-0.002z"></path>
<path d="M2 14h28v2h-28v-2zM1 12c-0.552 0-1 0.448-1 1v0 4c0 0.552 0.448 1 1 1v0h30c0.552 0 1-0.448 1-1v0-4c0-0.552-0.448-1-1-1v0h-30z"></path>
<path d="M28 18v10c0 1.105-0.895 2-2 2h-20c-1.105 0-2-0.895-2-2v-10h24zM4 16c-1.105 0-2 0.895-2 2v0 10c0 2.209 1.791 4 4 4v0h20c2.209 0 4-1.791 4-4v0-10c0-1.105-0.895-2-2-2v0h-24z"></path>
<path d="M8 20c0.552 0 1 0.448 1 1v0 6c0 0.552-0.448 1-1 1s-1-0.448-1-1v0-6c0-0.552 0.448-1 1-1v0zM12 20c0.552 0 1 0.448 1 1v0 6c0 0.552-0.448 1-1 1s-1-0.448-1-1v0-6c0-0.552 0.448-1 1-1v0zM16 20c0.552 0 1 0.448 1 1v0 6c0 0.552-0.448 1-1 1s-1-0.448-1-1v0-6c0-0.552 0.448-1 1-1v0zM20 20c0.552 0 1 0.448 1 1v0 6c0 0.552-0.448 1-1 1s-1-0.448-1-1v0-6c0-0.552 0.448-1 1-1v0zM24 20c0.552 0 1 0.448 1 1v0 6c0 0.552-0.448 1-1 1s-1-0.448-1-1v0-6c0-0.552 0.448-1 1-1v0z"></path>
</svg>
