<!-- Generated by IcoMoon.io -->
<svg version="1.1" xmlns="http://www.w3.org/2000/svg" width="32" height="32" viewBox="0 0 32 32">
<title>bell</title>
<path d="M16 32c2.209 0 4-1.791 4-4v0h-8c0 2.209 1.791 4 4 4v0z"></path>
<path d="M16 3.836l-1.594 0.322c-3.681 0.77-6.406 3.988-6.406 7.842v0c0 1.256-0.268 4.394-0.918 7.484-0.32 1.534-0.752 3.132-1.326 4.516h20.488c-0.574-1.384-1.004-2.98-1.326-4.516-0.65-3.090-0.918-6.228-0.918-7.484-0.001-3.854-2.726-7.071-6.354-7.831l-0.052-0.009-1.594-0.326zM28.44 24c0.446 0.894 0.962 1.602 1.56 2h-28c0.598-0.398 1.114-1.106 1.56-2 1.8-3.6 2.44-10.24 2.44-12 0-4.84 3.44-8.88 8.010-9.802-0.006-0.060-0.010-0.129-0.010-0.2 0-1.105 0.895-2 2-2s2 0.895 2 2c0 0.070-0.004 0.14-0.011 0.208l0.001-0.009c4.602 0.961 8.009 4.983 8.010 9.802v0c0 1.76 0.64 8.4 2.44 12z"></path>
</svg>
