<!-- Generated by IcoMoon.io -->
<svg version="1.1" xmlns="http://www.w3.org/2000/svg" width="32" height="32" viewBox="0 0 32 32">
<title>bezier</title>
<path d="M0 21c0-1.657 1.343-3 3-3v0h2c1.657 0 3 1.343 3 3v0 2c0 1.657-1.343 3-3 3v0h-2c-1.657 0-3-1.343-3-3v0-2zM3 20c-0.552 0-1 0.448-1 1v0 2c0 0.552 0.448 1 1 1v0h2c0.552 0 1-0.448 1-1v0-2c0-0.552-0.448-1-1-1v0h-2zM24 21c0-1.657 1.343-3 3-3v0h2c1.657 0 3 1.343 3 3v0 2c0 1.657-1.343 3-3 3v0h-2c-1.657 0-3-1.343-3-3v0-2zM27 20c-0.552 0-1 0.448-1 1v0 2c0 0.552 0.448 1 1 1v0h2c0.552 0 1-0.448 1-1v0-2c0-0.552-0.448-1-1-1v0h-2zM12 9c0-1.657 1.343-3 3-3v0h2c1.657 0 3 1.343 3 3v0 2c0 1.657-1.343 3-3 3v0h-2c-1.657 0-3-1.343-3-3v0-2zM15 8c-0.552 0-1 0.448-1 1v0 2c0 0.552 0.448 1 1 1v0h2c0.552 0 1-0.448 1-1v0-2c0-0.552-0.448-1-1-1v0h-2z"></path>
<path d="M12 9h-8.268c-0.352-0.602-0.996-1-1.732-1-1.105 0-2 0.895-2 2s0.895 2 2 2c0.736 0 1.38-0.398 1.727-0.991l0.005-0.009h5.336c-2.547 1.626-4.463 4.047-5.413 6.908l-0.026 0.092h1.372c0.246 0 0.488 0.030 0.716 0.086 1.145-2.941 3.429-5.225 6.295-6.344l0.075-0.026c-0.055-0.214-0.086-0.46-0.086-0.714 0-0.001 0-0.001 0-0.002v0-2zM19.914 11.716c0.055-0.214 0.086-0.46 0.086-0.713 0-0.001 0-0.002 0-0.003v0-2h8.268c0.352-0.602 0.996-1 1.732-1 1.105 0 2 0.895 2 2s-0.895 2-2 2c-0.736 0-1.38-0.398-1.727-0.991l-0.005-0.009h-5.336c2.547 1.626 4.463 4.047 5.413 6.908l0.026 0.092h-1.372c-0.246 0-0.486 0.030-0.716 0.086-1.145-2.941-3.429-5.225-6.295-6.344l-0.075-0.026z"></path>
</svg>
