<!-- Generated by IcoMoon.io -->
<svg version="1.1" xmlns="http://www.w3.org/2000/svg" width="32" height="32" viewBox="0 0 32 32">
<title>bezier2</title>
<path d="M2 5c0-1.657 1.343-3 3-3v0h2c1.657 0 3 1.343 3 3v0 2c0 1.657-1.343 3-3 3v0h-2c-1.657 0-3-1.343-3-3v0-2zM5 4c-0.552 0-1 0.448-1 1v0 2c0 0.552 0.448 1 1 1v0h2c0.552 0 1-0.448 1-1v0-2c0-0.552-0.448-1-1-1v0h-2zM22 25c0-1.657 1.343-3 3-3v0h2c1.657 0 3 1.343 3 3v0 2c0 1.657-1.343 3-3 3v0h-2c-1.657 0-3-1.343-3-3v0-2zM25 24c-0.552 0-1 0.448-1 1v0 2c0 0.552 0.448 1 1 1v0h2c0.552 0 1-0.448 1-1v0-2c0-0.552-0.448-1-1-1v0h-2z"></path>
<path d="M13.534 9.29c-0.928-1.444-2.35-2.29-4.534-2.29v-2h11v2h-5.752c0.36 0.36 0.68 0.762 0.968 1.21 1.276 1.984 1.784 4.708 1.784 7.79 0 3.986 0.514 6.184 1.426 7.4 0.836 1.118 2.178 1.6 4.574 1.6v2h-11v-2h5.154c-0.109-0.12-0.217-0.251-0.32-0.386l-0.010-0.014c-1.338-1.786-1.824-4.586-1.824-8.6 0-2.92-0.492-5.194-1.466-6.71z"></path>
<path d="M22 6c0 1.105-0.895 2-2 2s-2-0.895-2-2v0c0-1.105 0.895-2 2-2s2 0.895 2 2v0zM14 26c0 1.105-0.895 2-2 2s-2-0.895-2-2v0c0-1.105 0.895-2 2-2s2 0.895 2 2v0z"></path>
</svg>
