<!-- Generated by IcoMoon.io -->
<svg version="1.1" xmlns="http://www.w3.org/2000/svg" width="32" height="32" viewBox="0 0 32 32">
<title>binoculars-fill</title>
<path d="M9 2c-1.657 0-3 1.343-3 3v0 1h8v-1c0-1.657-1.343-3-3-3v0h-2zM14 8v2h4v-2h8v1.764c0 0.389 0.222 0.726 0.546 0.891l0.006 0.003 1.79 0.894c0.991 0.504 1.658 1.515 1.658 2.683 0 0 0 0.001 0 0.001v-0 11.764h-12v-3c0-0.001 0-0.001 0-0.002 0-0.276 0.112-0.525 0.292-0.706l-0 0 1.708-1.706v-1.586c0-0.552-0.448-1-1-1v0h-6c-0.552 0-1 0.448-1 1v0 1.586l1.708 1.706c0.18 0.181 0.292 0.43 0.292 0.706 0 0.001 0 0.001 0 0.002v-0 3h-12v-11.764c0-1.168 0.668-2.181 1.643-2.676l0.017-0.008 1.788-0.894c0.33-0.168 0.552-0.505 0.552-0.894v0-1.764h8zM2 28v1c0 1.657 1.343 3 3 3v0h6c1.657 0 3-1.343 3-3v0-1h-12zM18 28v1c0 1.657 1.343 3 3 3v0h6c1.657 0 3-1.343 3-3v0-1h-12zM26 6h-8v-1c0-1.657 1.343-3 3-3v0h2c1.657 0 3 1.343 3 3v0 1z"></path>
</svg>
