<!-- Generated by IcoMoon.io -->
<svg version="1.1" xmlns="http://www.w3.org/2000/svg" width="32" height="32" viewBox="0 0 32 32">
<title>blockquote-left</title>
<path d="M4 7c0-0.552 0.448-1 1-1v0h22c0.552 0 1 0.448 1 1s-0.448 1-1 1v0h-22c-0.552 0-1-0.448-1-1v0zM14 13c0-0.552 0.448-1 1-1v0h12c0.552 0 1 0.448 1 1s-0.448 1-1 1v0h-12c-0.552 0-1-0.448-1-1v0zM14 19c0-0.552 0.448-1 1-1v0h12c0.552 0 1 0.448 1 1s-0.448 1-1 1v0h-12c-0.552 0-1-0.448-1-1v0zM4 25c0-0.552 0.448-1 1-1v0h22c0.552 0 1 0.448 1 1s-0.448 1-1 1v0h-22c-0.552 0-1-0.448-1-1v0z"></path>
<path d="M7.468 12.704c-0.362 0.205-0.653 0.387-0.936 0.579l0.046-0.029c-0.261 0.178-0.488 0.375-0.689 0.595l-0.003 0.003c-0.201 0.21-0.37 0.454-0.497 0.721l-0.007 0.017c-0.116 0.258-0.2 0.59-0.246 0.996h0.564c0.484 0 0.862 0.12 1.136 0.364 0.28 0.234 0.42 0.58 0.42 1.042-0.006 0.359-0.148 0.684-0.375 0.927l0.001-0.001c-0.24 0.28-0.578 0.42-1.006 0.42-0.672 0-1.154-0.216-1.442-0.654-0.29-0.446-0.434-1.028-0.434-1.746 0-0.508 0.11-0.97 0.328-1.384 0.22-0.42 0.484-0.796 0.796-1.124 0.32-0.336 0.66-0.62 1.020-0.856 0.36-0.234 0.66-0.426 0.902-0.574l0.422 0.704zM11.804 12.704c-0.362 0.205-0.653 0.387-0.936 0.579l0.046-0.029c-0.261 0.178-0.488 0.375-0.689 0.595l-0.003 0.003c-0.226 0.24-0.398 0.492-0.514 0.75-0.119 0.288-0.202 0.622-0.235 0.97l-0.001 0.014h0.564c0.484 0 0.862 0.12 1.136 0.364 0.28 0.234 0.42 0.58 0.42 1.042-0.006 0.359-0.148 0.684-0.375 0.927l0.001-0.001c-0.24 0.28-0.578 0.42-1.008 0.42-0.67 0-1.152-0.216-1.44-0.654-0.29-0.446-0.434-1.028-0.434-1.746 0-0.508 0.11-0.97 0.328-1.384 0.22-0.42 0.484-0.796 0.796-1.124 0.32-0.336 0.66-0.62 1.020-0.856 0.36-0.234 0.66-0.426 0.902-0.574l0.422 0.704z"></path>
</svg>
