<!-- Generated by IcoMoon.io -->
<svg version="1.1" xmlns="http://www.w3.org/2000/svg" width="32" height="32" viewBox="0 0 32 32">
<title>blockquote-right</title>
<path d="M4 7c0-0.552 0.448-1 1-1v0h22c0.552 0 1 0.448 1 1s-0.448 1-1 1v0h-22c-0.552 0-1-0.448-1-1v0zM4 13c0-0.552 0.448-1 1-1v0h12c0.552 0 1 0.448 1 1s-0.448 1-1 1v0h-12c-0.552 0-1-0.448-1-1v0zM4 19c0-0.552 0.448-1 1-1v0h12c0.552 0 1 0.448 1 1s-0.448 1-1 1v0h-12c-0.552 0-1-0.448-1-1v0zM4 25c0-0.552 0.448-1 1-1v0h22c0.552 0 1 0.448 1 1s-0.448 1-1 1v0h-22c-0.552 0-1-0.448-1-1v0z"></path>
<path d="M24.336 12.704c0.368 0.21 0.664 0.394 0.89 0.55 0.228 0.148 0.458 0.348 0.692 0.598 0.22 0.234 0.386 0.48 0.504 0.738s0.2 0.59 0.246 0.996h-0.562c-0.486 0-0.864 0.12-1.138 0.364-0.28 0.234-0.42 0.58-0.42 1.042 0 0.328 0.124 0.636 0.374 0.926 0.242 0.28 0.578 0.42 1.008 0.42 0.672 0 1.152-0.216 1.44-0.654 0.29-0.446 0.434-1.028 0.434-1.746 0-0.508-0.108-0.97-0.328-1.384-0.223-0.43-0.488-0.799-0.798-1.126l0.002 0.002c-0.32-0.336-0.66-0.62-1.020-0.856-0.36-0.234-0.66-0.426-0.902-0.574l-0.422 0.704zM20 12.704c0.368 0.21 0.664 0.394 0.89 0.55 0.228 0.148 0.458 0.348 0.692 0.598 0.226 0.24 0.4 0.492 0.516 0.75 0.11 0.25 0.188 0.578 0.234 0.984h-0.562c-0.484 0-0.864 0.12-1.138 0.364-0.28 0.234-0.42 0.58-0.42 1.042 0 0.328 0.124 0.636 0.374 0.926 0.242 0.28 0.578 0.42 1.008 0.42 0.672 0 1.152-0.216 1.44-0.654 0.29-0.446 0.434-1.028 0.434-1.746 0-0.508-0.108-0.97-0.328-1.384-0.223-0.43-0.488-0.799-0.798-1.126l0.002 0.002c-0.32-0.336-0.66-0.62-1.020-0.856-0.36-0.234-0.66-0.426-0.902-0.574l-0.422 0.704z"></path>
</svg>
