<!-- Generated by IcoMoon.io -->
<svg version="1.1" xmlns="http://www.w3.org/2000/svg" width="32" height="32" viewBox="0 0 32 32">
<title>book-half</title>
<path d="M25.572 2.144c-3.196-0.64-7.404-0.724-10.28 2.148-0.18 0.181-0.292 0.431-0.292 0.706 0 0.001 0 0.001 0 0.002v-0 22c0 0.001 0 0.001 0 0.002 0 0.552 0.448 1 1 1 0.277 0 0.527-0.112 0.708-0.294l0-0c1.686-1.688 4.23-2.118 6.94-1.84 2.688 0.28 5.32 1.234 6.904 2.026 0.131 0.067 0.285 0.106 0.448 0.106 0.552 0 1-0.448 1-1v0-22c0-0.389-0.222-0.726-0.546-0.891l-0.006-0.003-0.012-0.006-0.026-0.012-0.094-0.046c-0.365-0.181-0.892-0.41-1.427-0.621l-0.171-0.059c-1.158-0.466-2.546-0.886-3.977-1.188l-0.169-0.030zM30 5.64v19.816c-1.692-0.686-3.888-1.344-6.148-1.576-2.286-0.236-4.774-0.046-6.852 1.12v-19.564c2.126-1.858 5.262-1.912 8.18-1.328 1.832 0.38 3.444 0.909 4.972 1.593l-0.152-0.061z"></path>
<path d="M6.428 2.144c3.198-0.64 7.404-0.724 10.28 2.148 0.18 0.181 0.292 0.431 0.292 0.706 0 0.001 0 0.001 0 0.002v-0 22c0 0.001 0 0.001 0 0.002 0 0.552-0.448 1-1 1-0.277 0-0.527-0.112-0.708-0.294l-0-0c-1.686-1.688-4.23-2.118-6.94-1.84-2.688 0.28-5.32 1.234-6.904 2.026-0.131 0.067-0.285 0.106-0.448 0.106-0.552 0-1-0.448-1-1v0-22c0-0.389 0.222-0.726 0.546-0.891l0.006-0.003 0.012-0.006 0.026-0.012c0.085-0.046 0.23-0.115 0.376-0.181l0.064-0.025c1.544-0.713 3.35-1.313 5.231-1.708l0.169-0.030z"></path>
</svg>
