<!-- Generated by IcoMoon.io -->
<svg version="1.1" xmlns="http://www.w3.org/2000/svg" width="32" height="32" viewBox="0 0 32 32">
<title>bootstrap</title>
<path d="M24 2v0c3.314 0 6 2.686 6 6v16c0 3.314-2.686 6-6 6h-16c-3.314 0-6-2.686-6-6v-16c0-3.314 2.686-6 6-6h16zM8 0c-4.418 0-8 3.582-8 8v0 16c0 4.418 3.582 8 8 8v0h16c4.418 0 8-3.582 8-8v0-16c0-4.418-3.582-8-8-8v0h-16z"></path>
<path d="M17.074 24h-6.95v-16.91h6.798c3.174 0 5.086 1.618 5.086 4.22 0 1.768-1.3 3.35-2.966 3.632v0.2c2.286 0.234 3.808 1.862 3.808 4.066 0 2.976-2.168 4.792-5.776 4.792zM12.75 9.316v4.934h3.116c2.32 0 3.528-0.856 3.528-2.46 0-1.56-1.138-2.474-3.082-2.474h-3.562zM16.546 21.774c2.368 0 3.622-0.962 3.622-2.754 0-1.77-1.302-2.696-3.774-2.696h-3.644v5.45h3.796z"></path>
</svg>
