<!-- Generated by IcoMoon.io -->
<svg version="1.1" xmlns="http://www.w3.org/2000/svg" width="32" height="32" viewBox="0 0 32 32">
<title>bootstrap-fill</title>
<path d="M8.004 0h16c4.418 0 8 3.582 8 8v16c0 4.418-3.582 8-8 8h-16c-4.418 0-8-3.582-8-8v-16c0-4.418 3.582-8 8-8zM10.124 24h6.95c3.608 0 5.776-1.816 5.776-4.792 0-2.204-1.522-3.832-3.808-4.068v-0.2c1.664-0.28 2.964-1.86 2.964-3.632 0-2.6-1.91-4.22-5.084-4.22h-6.798v16.912zM12.75 14.25h3.116c2.32 0 3.528-0.856 3.528-2.46 0-1.56-1.138-2.474-3.084-2.474h-3.56v4.934zM12.75 21.774v-5.45h3.644c2.472 0 3.772 0.926 3.772 2.696 0 1.794-1.252 2.754-3.62 2.754h-3.796z"></path>
</svg>
