<!-- Generated by IcoMoon.io -->
<svg version="1.1" xmlns="http://www.w3.org/2000/svg" width="32" height="32" viewBox="0 0 32 32">
<title>box-arrow-right</title>
<path d="M23.292 22.708c-0.181-0.181-0.294-0.431-0.294-0.708s0.112-0.527 0.294-0.708l5.294-5.292-5.294-5.292c-0.181-0.181-0.293-0.431-0.293-0.708 0-0.553 0.448-1.001 1.001-1.001 0.276 0 0.527 0.112 0.708 0.293v0l6 6c0.181 0.181 0.294 0.431 0.294 0.708s-0.112 0.527-0.294 0.708l-6 6c-0.181 0.181-0.431 0.294-0.708 0.294s-0.527-0.112-0.708-0.294l-0-0z"></path>
<path d="M9 16c0-0.552 0.448-1 1-1v0h18c0.552 0 1 0.448 1 1s-0.448 1-1 1v0h-18c-0.552 0-1-0.448-1-1v0z"></path>
<path d="M4 27c-1.657 0-3-1.343-3-3v0-16c0-1.657 1.343-3 3-3v0h14c1.657 0 3 1.343 3 3v0 3c0 0.552-0.448 1-1 1s-1-0.448-1-1v0-3c0-0.552-0.448-1-1-1v0h-14c-0.552 0-1 0.448-1 1v0 16c0 0.552 0.448 1 1 1v0h14c0.552 0 1-0.448 1-1v0-3c0-0.552 0.448-1 1-1s1 0.448 1 1v0 3c0 1.657-1.343 3-3 3v0h-14z"></path>
</svg>
