<!-- Generated by IcoMoon.io -->
<svg version="1.1" xmlns="http://www.w3.org/2000/svg" width="32" height="32" viewBox="0 0 32 32">
<title>briefcase-fill</title>
<path d="M0 25c0 1.657 1.343 3 3 3v0h26c1.657 0 3-1.343 3-3v0-11.3l-15.742 4.194c-0.077 0.021-0.166 0.034-0.258 0.034s-0.181-0.012-0.265-0.035l0.007 0.002-15.742-4.194v11.3z"></path>
<path d="M0 9c0-1.657 1.343-3 3-3v0h26c1.657 0 3 1.343 3 3v0 2.768l-15.228 4.060c-0.232 0.064-0.497 0.101-0.772 0.101s-0.54-0.037-0.793-0.106l0.021 0.005-15.228-4.060v-2.768zM10 5c0-1.657 1.343-3 3-3v0h6c1.657 0 3 1.343 3 3v0 1h-2v-1c0-0.552-0.448-1-1-1v0h-6c-0.552 0-1 0.448-1 1v0 1h-2v-1z"></path>
</svg>
