<!-- Generated by IcoMoon.io -->
<svg version="1.1" xmlns="http://www.w3.org/2000/svg" width="32" height="32" viewBox="0 0 32 32">
<title>brush</title>
<path d="M30.426 2.036c0.191-0.149 0.435-0.239 0.699-0.239 0.318 0 0.605 0.13 0.813 0.339l0 0c0.21 0.207 0.339 0.494 0.339 0.812 0 0.256-0.085 0.493-0.227 0.683l0.002-0.003c-1.882 2.536-7.964 10.586-12.852 15.472-1.42 1.42-2.84 2.486-3.904 3.192-1.016 0.678-2.334 0.468-3.198-0.394-0.832-0.832-1.060-2.094-0.424-3.086 0.692-1.084 1.774-2.546 3.284-3.954 5.042-4.7 12.952-10.88 15.468-12.822z"></path>
<path d="M14 24c0 2.209-1.791 4-4 4v0c-2 0-4 0-7-1s1-2 2-3 2.79-4 5-4c2.209 0 4 1.791 4 4v0z"></path>
</svg>
