<!-- Generated by IcoMoon.io -->
<svg version="1.1" xmlns="http://www.w3.org/2000/svg" width="32" height="32" viewBox="0 0 32 32">
<title>bucket</title>
<path d="M16 3c-4.971 0-9 4.029-9 9v0h-2c0-6.075 4.925-11 11-11s11 4.925 11 11v0h-2c0-4.971-4.029-9-9-9v0z"></path>
<path d="M3.22 11.374c0.185-0.229 0.465-0.374 0.78-0.374 0 0 0 0 0 0h24c0.552 0 1 0.448 1 1 0 0.077-0.009 0.151-0.025 0.223l0.001-0.007-3.652 16.434c-0.308 1.354-1.502 2.35-2.928 2.35h-12.792c-1.426-0-2.62-0.996-2.924-2.33l-0.004-0.020-3.652-16.434c-0.015-0.065-0.023-0.139-0.023-0.215 0-0.237 0.083-0.455 0.221-0.627l-0.002 0.002zM5.246 13l3.382 15.216c0.102 0.452 0.5 0.784 0.976 0.784h12.792c0.476-0 0.874-0.332 0.975-0.777l0.001-0.007 3.38-15.216h-21.504z"></path>
</svg>
