<!-- Generated by IcoMoon.io -->
<svg version="1.1" xmlns="http://www.w3.org/2000/svg" width="32" height="32" viewBox="0 0 32 32">
<title>bug-fill</title>
<path d="M9.956 1.71c-0.114-0.436-0.505-0.752-0.969-0.752-0.552 0-1 0.448-1 1 0 0.119 0.021 0.233 0.059 0.339l-0.002-0.007 0.82 2.704c-1.771 1.798-2.864 4.268-2.864 6.993 0 0.004 0 0.009 0 0.013v-0.001h20c0-0.004 0-0.008 0-0.013 0-2.725-1.093-5.195-2.865-6.995l0.001 0.001 0.82-2.704c0.036-0.099 0.057-0.213 0.057-0.332 0-0.552-0.448-1-1-1-0.464 0-0.855 0.316-0.967 0.745l-0.002 0.007-0.582 1.912c-1.535-1.017-3.42-1.622-5.447-1.622-0.005 0-0.011 0-0.016 0h0.001c-0.004 0-0.010 0-0.015 0-2.027 0-3.912 0.605-5.484 1.645l0.037-0.023-0.58-1.912zM26 12v2h-9v17.95c5.076-0.525 9-4.779 9-9.95 0-0 0-0 0-0v0h1c0.552 0 1 0.448 1 1v0 1c0 0.552 0.448 1 1 1s1-0.448 1-1v0-1c0-1.657-1.343-3-3-3v0h-1v-2h3c0.552 0 1-0.448 1-1s-0.448-1-1-1v0h-3v-2h1c1.657 0 3-1.343 3-3v0-1c0-0.552-0.448-1-1-1s-1 0.448-1 1v0 1c0 0.552-0.448 1-1 1v0h-1zM15 31.95v-17.95h-9v-2h-1c-0.552 0-1-0.448-1-1v0-1c0-0.552-0.448-1-1-1s-1 0.448-1 1v0 1c0 1.657 1.343 3 3 3v0h1v2h-3c-0.552 0-1 0.448-1 1s0.448 1 1 1v0h3v2h-1c-1.657 0-3 1.343-3 3v0 1c0 0.552 0.448 1 1 1s1-0.448 1-1v0-1c0-0.552 0.448-1 1-1v0h1c0 0 0 0 0 0 0 5.171 3.924 9.425 8.957 9.946l0.043 0.004z"></path>
</svg>
