<!-- Generated by IcoMoon.io -->
<svg version="1.1" xmlns="http://www.w3.org/2000/svg" width="32" height="32" viewBox="0 0 32 32">
<title>building</title>
<path d="M29.526 0.15c0.286 0.179 0.474 0.493 0.474 0.85v30c0 0.552-0.448 1-1 1v0h-6c-0.552 0-1-0.448-1-1v0-3h-2v3c0 0.552-0.448 1-1 1v0h-18c-0.552 0-1-0.448-1-1v0-11c0-0.439 0.283-0.812 0.677-0.946l0.007-0.002 11.316-3.772v-6.28c0-0.389 0.222-0.726 0.546-0.891l0.006-0.003 16-8c0.13-0.067 0.284-0.106 0.448-0.106 0.195 0 0.377 0.056 0.531 0.152l-0.004-0.002zM12 17.388l-10 3.332v9.28h10v-12.612zM14 30h4v-3c0-0.552 0.448-1 1-1v0h4c0.552 0 1 0.448 1 1v0 3h4v-27.382l-14 7v20.382z"></path>
<path d="M4 22h2v2h-2v-2zM8 22h2v2h-2v-2zM4 26h2v2h-2v-2zM8 26h2v2h-2v-2zM16 18h2v2h-2v-2zM20 18h2v2h-2v-2zM16 22h2v2h-2v-2zM20 22h2v2h-2v-2zM24 18h2v2h-2v-2zM24 22h2v2h-2v-2zM16 14h2v2h-2v-2zM20 14h2v2h-2v-2zM24 14h2v2h-2v-2zM16 10h2v2h-2v-2zM20 10h2v2h-2v-2zM24 10h2v2h-2v-2zM24 6h2v2h-2v-2z"></path>
</svg>
