<!-- Generated by IcoMoon.io -->
<svg version="1.1" xmlns="http://www.w3.org/2000/svg" width="32" height="32" viewBox="0 0 32 32">
<title>calendar2-range-fill</title>
<path d="M28 4v0c1.105 0 2 0.895 2 2v22c0 1.105-0.895 2-2 2h-24c-1.105 0-2-0.895-2-2v-22c0-1.105 0.895-2 2-2h24zM4 2c-2.209 0-4 1.791-4 4v0 22c0 2.209 1.791 4 4 4v0h24c2.209 0 4-1.791 4-4v0-22c0-2.209-1.791-4-4-4v0h-24z"></path>
<path d="M7 0c0.552 0 1 0.448 1 1v0 1c0 0.552-0.448 1-1 1s-1-0.448-1-1v0-1c0-0.552 0.448-1 1-1v0zM25 0c0.552 0 1 0.448 1 1v0 1c0 0.552-0.448 1-1 1s-1-0.448-1-1v0-1c0-0.552 0.448-1 1-1v0z"></path>
<path d="M5 8c0-0.552 0.448-1 1-1v0h20c0.552 0 1 0.448 1 1v0 2c0 0.552-0.448 1-1 1v0h-20c-0.552 0-1-0.448-1-1v0-2zM18 16c0-1.105 0.895-2 2-2v0h10v4h-10c-1.105 0-2-0.895-2-2v0zM2 20h8c1.105 0 2 0.895 2 2s-0.895 2-2 2v0h-8v-4z"></path>
</svg>
