<!-- Generated by IcoMoon.io -->
<svg version="1.1" xmlns="http://www.w3.org/2000/svg" width="32" height="32" viewBox="0 0 32 32">
<title>calendar-check-fill</title>
<path d="M8 1c0-0.552-0.448-1-1-1s-1 0.448-1 1v0 1h-2c-2.209 0-4 1.791-4 4v0 2h32v-2c0-2.209-1.791-4-4-4v0h-2v-1c0-0.552-0.448-1-1-1s-1 0.448-1 1v0 1h-16v-1zM0 10h32v18c0 2.209-1.791 4-4 4v0h-24c-2.209 0-4-1.791-4-4v0-18zM21.708 17.708c0.181-0.181 0.293-0.431 0.293-0.708 0-0.553-0.448-1.001-1.001-1.001-0.276 0-0.527 0.112-0.708 0.293v0l-5.292 5.294-2.292-2.294c-0.181-0.181-0.431-0.293-0.708-0.293-0.553 0-1.001 0.448-1.001 1.001 0 0.276 0.112 0.527 0.293 0.708v0l3 3c0.181 0.181 0.431 0.294 0.708 0.294s0.527-0.112 0.708-0.294l6-6z"></path>
</svg>
