<!-- Generated by IcoMoon.io -->
<svg version="1.1" xmlns="http://www.w3.org/2000/svg" width="32" height="32" viewBox="0 0 32 32">
<title>calendar-date-fill</title>
<path d="M8 1c0-0.552-0.448-1-1-1s-1 0.448-1 1v0 1h-2c-2.209 0-4 1.791-4 4v0 2h32v-2c0-2.209-1.791-4-4-4v0h-2v-1c0-0.552-0.448-1-1-1s-1 0.448-1 1v0 1h-16v-1zM0 10h32v18c0 2.209-1.791 4-4 4v0h-24c-2.209 0-4-1.791-4-4v0-18zM18.672 25.58c-2.22 0-3.312-1.534-3.406-2.814h1.366c0.086 0.74 0.774 1.64 2.102 1.64 1.688 0 2.602-1.696 2.61-4.328h-0.054c-0.306 0.828-1.274 1.58-2.766 1.58-1.704 0-3.352-1.22-3.352-3.54 0-2.274 1.742-3.618 3.594-3.618 2.344 0 3.906 1.468 3.906 5.336 0 3.61-1.484 5.742-4 5.742zM18.804 20.492c1.25 0 2.368-0.968 2.368-2.36 0-1.664-1.054-2.46-2.32-2.46-1.172 0-2.336 0.774-2.336 2.42 0 1.634 1.086 2.4 2.288 2.4zM12.89 14.712v10.664h-1.35v-9.22h-0.024c-0.58 0.312-1.766 1.040-2.516 1.554v-1.39c0.743-0.529 1.602-1.062 2.493-1.544l0.133-0.066h1.264z"></path>
</svg>
