<!-- Generated by IcoMoon.io -->
<svg version="1.1" xmlns="http://www.w3.org/2000/svg" width="32" height="32" viewBox="0 0 32 32">
<title>camera-video-off</title>
<path d="M2.15 6.392c-0.713 0.768-1.15 1.8-1.15 2.934 0 0.002 0 0.004 0 0.006v-0 13.334c0 2.394 1.94 4.334 4.334 4.334h13.332c1.136 0 2.168-0.436 2.94-1.15l-1.416-1.416c-0.408 0.352-0.94 0.566-1.524 0.566h-13.332c-1.289 0-2.334-1.045-2.334-2.334v0-13.332c0-0.584 0.214-1.116 0.566-1.524l-1.416-1.418zM21 16.758v-7.424c0-1.29-1.044-2.334-2.334-2.334h-7.424l-2-2h9.424c2.188 0 3.996 1.62 4.292 3.724l4.074-2.364c1.718-0.996 3.968 0.19 3.968 2.256v14.768c0 0.964-0.49 1.738-1.188 2.186l-1.58-1.58c0.040 0.009 0.087 0.014 0.134 0.014 0.345 0 0.626-0.276 0.634-0.62v-14.769c-0.010-0.343-0.291-0.617-0.636-0.617-0.121 0-0.235 0.034-0.331 0.093l0.003-0.002-5.036 2.92v7.75l-2-2z"></path>
<path d="M27.292 28.708l-24-24 1.416-1.416 24 24-1.416 1.414z"></path>
</svg>
