<!-- Generated by IcoMoon.io -->
<svg version="1.1" xmlns="http://www.w3.org/2000/svg" width="32" height="32" viewBox="0 0 32 32">
<title>camera2</title>
<path d="M18 10c-3.314 0-8 2.686-8 6 0-4.418 3.582-8 8-8v0 2z"></path>
<path d="M28.666 6c1.842 0 3.334 1.494 3.334 3.334v13.332c0 1.842-1.494 3.334-3.334 3.334h-4.030l0.043-0.027c-1.903 1.28-4.194 2.027-6.66 2.027-0.007 0-0.013 0-0.019 0-2.454 0-4.736-0.736-6.636-2h-8.030c-1.842 0-3.334-1.494-3.334-3.334v-13.332c0-1.842 1.494-3.334 3.334-3.334h8.030l-0.043 0.027c1.903-1.28 4.194-2.027 6.659-2.027 0.007 0 0.014 0 0.020 0h-0.001c0.007 0 0.015-0 0.022-0 2.465 0 4.756 0.747 6.615 2h4.030zM3 10c0.552 0 1-0.448 1-1s-0.448-1-1-1v0c-0.552 0-1 0.448-1 1s0.448 1 1 1v0zM18 26c5.523 0 10-4.477 10-10s-4.477-10-10-10v0c-5.523 0-10 4.477-10 10s4.477 10 10 10v0z"></path>
<path d="M4 6c0-1.105 0.895-2 2-2v0h2c1.105 0 2 0.895 2 2s-0.895 2-2 2v0h-2c-1.105 0-2-0.895-2-2v0z"></path>
</svg>
