<!-- Generated by IcoMoon.io -->
<svg version="1.1" xmlns="http://www.w3.org/2000/svg" width="32" height="32" viewBox="0 0 32 32">
<title>camera-video-off-fill</title>
<path d="M2.858 7.1c-0.532 0.587-0.858 1.369-0.858 2.227 0 0.002 0 0.005 0 0.007v-0 13.332c0 1.84 1.492 3.334 3.334 3.334h13.332c0.86 0 1.642-0.324 2.234-0.858l-18.040-18.040zM29.080 24.836c0.548-0.261 0.92-0.81 0.92-1.446 0-0.002 0-0.004 0-0.007v0-14.768c0-1.26-1.386-2.020-2.466-1.392l-5.534 3.212v-1.102c0-1.84-1.492-3.334-3.334-3.334h-8.424l18.838 18.836z"></path>
<path d="M27.292 28.708l-24-24 1.416-1.416 24 24-1.416 1.414z"></path>
</svg>
