<!-- Generated by IcoMoon.io -->
<svg version="1.1" xmlns="http://www.w3.org/2000/svg" width="32" height="32" viewBox="0 0 32 32">
<title>camera-reels-fill</title>
<path d="M5.334 12h13.332c1.84 0 3.334 1.492 3.334 3.334v13.332c0 1.84-1.492 3.334-3.334 3.334h-13.332c-1.84 0-3.334-1.492-3.334-3.334v-13.332c0-1.84 1.492-3.334 3.334-3.334z"></path>
<path d="M14.808 23.394l12.726 7.384c1.080 0.626 2.466-0.132 2.466-1.394v-14.768c0-1.26-1.386-2.020-2.466-1.392l-12.726 7.384c-0.487 0.282-0.809 0.8-0.809 1.393s0.322 1.111 0.801 1.389l0.008 0.004z"></path>
<path d="M12 6c0 3.314-2.686 6-6 6s-6-2.686-6-6c0-3.314 2.686-6 6-6s6 2.686 6 6z"></path>
<path d="M24 6c0 3.314-2.686 6-6 6s-6-2.686-6-6c0-3.314 2.686-6 6-6s6 2.686 6 6z"></path>
</svg>
