<!-- Generated by IcoMoon.io -->
<svg version="1.1" xmlns="http://www.w3.org/2000/svg" width="32" height="32" viewBox="0 0 32 32">
<title>camera</title>
<path d="M30 24v0c0 1.105-0.895 2-2 2h-24c-1.105 0-2-0.895-2-2v-12c0-1.105 0.895-2 2-2h2.344c1.657-0 3.156-0.672 4.242-1.758l1.656-1.656c0.362-0.362 0.862-0.586 1.414-0.586h4.69c0.551 0.001 1.049 0.225 1.41 0.586l1.66 1.656c1.085 1.085 2.584 1.757 4.24 1.758h2.344c1.105 0 2 0.895 2 2v12zM4 8c-2.209 0-4 1.791-4 4v0 12c0 2.209 1.791 4 4 4v0h24c2.209 0 4-1.791 4-4v0-12c0-2.209-1.791-4-4-4v0h-2.344c-1.104-0-2.104-0.448-2.828-1.172l-1.656-1.656c-0.724-0.724-1.724-1.172-2.828-1.172h-4.688c-1.104 0-2.104 0.448-2.828 1.172l-1.656 1.656c-0.724 0.724-1.724 1.172-2.828 1.172h-2.344z"></path>
<path d="M16 22v0c-2.761 0-5-2.239-5-5s2.239-5 5-5v0c2.761 0 5 2.239 5 5s-2.239 5-5 5zM16 24c3.866 0 7-3.134 7-7s-3.134-7-7-7v0c-3.866 0-7 3.134-7 7s3.134 7 7 7v0z"></path>
<path d="M6 13c0 0.552-0.448 1-1 1s-1-0.448-1-1v0c0-0.552 0.448-1 1-1s1 0.448 1 1v0z"></path>
</svg>
