<!-- Generated by IcoMoon.io -->
<svg version="1.1" xmlns="http://www.w3.org/2000/svg" width="32" height="32" viewBox="0 0 32 32">
<title>camera-fill</title>
<path d="M21 17c0 2.761-2.239 5-5 5s-5-2.239-5-5v0c0-2.761 2.239-5 5-5s5 2.239 5 5v0z"></path>
<path d="M4 8c-2.209 0-4 1.791-4 4v0 12c0 2.209 1.791 4 4 4v0h24c2.209 0 4-1.791 4-4v0-12c0-2.209-1.791-4-4-4v0h-2.344c-1.104-0-2.104-0.448-2.828-1.172l-1.656-1.656c-0.724-0.724-1.724-1.172-2.828-1.172h-4.688c-1.104 0-2.104 0.448-2.828 1.172l-1.656 1.656c-0.724 0.724-1.724 1.172-2.828 1.172h-2.344zM5 12c0.552 0 1-0.448 1-1s-0.448-1-1-1v0c-0.552 0-1 0.448-1 1s0.448 1 1 1v0zM23 17c0 3.866-3.134 7-7 7s-7-3.134-7-7v0c0-3.866 3.134-7 7-7s7 3.134 7 7v0z"></path>
</svg>
