<!-- Generated by IcoMoon.io -->
<svg version="1.1" xmlns="http://www.w3.org/2000/svg" width="32" height="32" viewBox="0 0 32 32">
<title>card-list</title>
<path d="M29 6v0c0.552 0 1 0.448 1 1v18c0 0.552-0.448 1-1 1h-26c-0.552 0-1-0.448-1-1v-18c0-0.552 0.448-1 1-1h26zM3 4c-1.657 0-3 1.343-3 3v0 18c0 1.657 1.343 3 3 3v0h26c1.657 0 3-1.343 3-3v0-18c0-1.657-1.343-3-3-3v0h-26z"></path>
<path d="M10 16c0-0.552 0.448-1 1-1v0h14c0.552 0 1 0.448 1 1s-0.448 1-1 1v0h-14c-0.552 0-1-0.448-1-1v0zM10 11c0-0.552 0.448-1 1-1v0h14c0.552 0 1 0.448 1 1s-0.448 1-1 1v0h-14c-0.552 0-1-0.448-1-1v0zM10 21c0-0.552 0.448-1 1-1v0h14c0.552 0 1 0.448 1 1s-0.448 1-1 1v0h-14c-0.552 0-1-0.448-1-1v0z"></path>
<path d="M8 11c0 0.552-0.448 1-1 1s-1-0.448-1-1c0-0.552 0.448-1 1-1s1 0.448 1 1z"></path>
<path d="M8 16c0 0.552-0.448 1-1 1s-1-0.448-1-1c0-0.552 0.448-1 1-1s1 0.448 1 1z"></path>
<path d="M8 21c0 0.552-0.448 1-1 1s-1-0.448-1-1c0-0.552 0.448-1 1-1s1 0.448 1 1z"></path>
</svg>
