<!-- Generated by IcoMoon.io -->
<svg version="1.1" xmlns="http://www.w3.org/2000/svg" width="32" height="32" viewBox="0 0 32 32">
<title>card-checklist</title>
<path d="M29 6v0c0.552 0 1 0.448 1 1v18c0 0.552-0.448 1-1 1h-26c-0.552 0-1-0.448-1-1v-18c0-0.552 0.448-1 1-1h26zM3 4c-1.657 0-3 1.343-3 3v0 18c0 1.657 1.343 3 3 3v0h26c1.657 0 3-1.343 3-3v0-18c0-1.657-1.343-3-3-3v0h-26z"></path>
<path d="M14 11c0-0.552 0.448-1 1-1v0h10c0.552 0 1 0.448 1 1s-0.448 1-1 1v0h-10c-0.552 0-1-0.448-1-1v0zM11.008 9.292c0.181 0.181 0.294 0.431 0.294 0.708s-0.112 0.527-0.294 0.708l-3 3c-0.181 0.181-0.431 0.294-0.708 0.294s-0.527-0.112-0.708-0.294l-1-1c-0.181-0.181-0.293-0.431-0.293-0.708 0-0.553 0.448-1.001 1.001-1.001 0.277 0 0.527 0.112 0.708 0.293v0l0.292 0.294 2.292-2.294c0.181-0.181 0.431-0.294 0.708-0.294s0.527 0.112 0.708 0.294l0 0zM14 19c0-0.552 0.448-1 1-1v0h10c0.552 0 1 0.448 1 1s-0.448 1-1 1v0h-10c-0.552 0-1-0.448-1-1v0zM11.008 17.292c0.181 0.181 0.294 0.431 0.294 0.708s-0.112 0.527-0.294 0.708l-3 3c-0.181 0.181-0.431 0.294-0.708 0.294s-0.527-0.112-0.708-0.294l-1-1c-0.181-0.181-0.293-0.431-0.293-0.708 0-0.553 0.448-1.001 1.001-1.001 0.277 0 0.527 0.112 0.708 0.293v0l0.292 0.294 2.292-2.294c0.181-0.181 0.431-0.294 0.708-0.294s0.527 0.112 0.708 0.294l0 0z"></path>
</svg>
