<!-- Generated by IcoMoon.io -->
<svg version="1.1" xmlns="http://www.w3.org/2000/svg" width="32" height="32" viewBox="0 0 32 32">
<title>caret-up-square-fill</title>
<path d="M0 4v24c0 2.209 1.791 4 4 4h24c2.209 0 4-1.791 4-4v-24c0-2.209-1.791-4-4-4h-24c-2.209 0-4 1.791-4 4zM8 22c-0 0-0 0-0 0-0.552 0-1-0.448-1-1 0-0.255 0.096-0.488 0.253-0.665l-0.001 0.001 8-9c0.184-0.207 0.451-0.336 0.748-0.336s0.564 0.13 0.747 0.335l0.001 0.001 8 9c0.157 0.176 0.252 0.409 0.252 0.664 0 0.552-0.448 1-1 1-0 0-0 0-0 0h-16z"></path>
</svg>
