<!-- Generated by IcoMoon.io -->
<svg version="1.1" xmlns="http://www.w3.org/2000/svg" width="32" height="32" viewBox="0 0 32 32">
<title>caret-right-square-fill</title>
<path d="M0 4c0-2.209 1.791-4 4-4v0h24c2.209 0 4 1.791 4 4v0 24c0 2.209-1.791 4-4 4v0h-24c-2.209 0-4-1.791-4-4v0-24zM11 24c0 0 0 0 0 0 0 0.552 0.448 1 1 1 0.255 0 0.488-0.096 0.665-0.253l-0.001 0.001 9-8c0.207-0.184 0.336-0.451 0.336-0.748s-0.13-0.564-0.335-0.747l-0.001-0.001-9-8c-0.176-0.157-0.409-0.252-0.664-0.252-0.552 0-1 0.448-1 1 0 0 0 0 0 0v0 16z"></path>
</svg>
