<!-- Generated by IcoMoon.io -->
<svg version="1.1" xmlns="http://www.w3.org/2000/svg" width="32" height="32" viewBox="0 0 32 32">
<title>cart-dash</title>
<path d="M12 15c0-0.552 0.448-1 1-1v0h8c0.552 0 1 0.448 1 1s-0.448 1-1 1v0h-8c-0.552 0-1-0.448-1-1v0z"></path>
<path d="M0 3c0-0.552 0.448-1 1-1v0h3c0.466 0 0.858 0.319 0.968 0.751l0.002 0.007 0.81 3.242h23.22c0.552 0.001 0.999 0.448 0.999 1 0 0.065-0.006 0.129-0.018 0.19l0.001-0.006-3 16c-0.090 0.467-0.495 0.816-0.982 0.816h-18c-0.487-0-0.892-0.349-0.981-0.81l-0.001-0.006-2.998-15.97-0.8-3.214h-2.22c-0.552 0-1-0.448-1-1v0zM6.204 8l2.626 14h16.34l2.626-14h-21.592zM10 24c-2.209 0-4 1.791-4 4s1.791 4 4 4v0c2.209 0 4-1.791 4-4s-1.791-4-4-4v0zM24 24c-2.209 0-4 1.791-4 4s1.791 4 4 4v0c2.209 0 4-1.791 4-4s-1.791-4-4-4v0zM10 26c-1.105 0-2 0.895-2 2s0.895 2 2 2v0c1.105 0 2-0.895 2-2s-0.895-2-2-2v0zM24 26c-1.105 0-2 0.895-2 2s0.895 2 2 2v0c1.105 0 2-0.895 2-2s-0.895-2-2-2v0z"></path>
</svg>
