<!-- Generated by IcoMoon.io -->
<svg version="1.1" xmlns="http://www.w3.org/2000/svg" width="32" height="32" viewBox="0 0 32 32">
<title>cart3</title>
<path d="M0 3c0-0.552 0.448-1 1-1v0h3c0.466 0 0.858 0.319 0.968 0.751l0.002 0.007 0.81 3.242h23.22c0.552 0 0.999 0.448 0.999 1 0 0.069-0.007 0.137-0.020 0.202l0.001-0.006-2 10c-0.092 0.445-0.469 0.778-0.928 0.802l-0.002 0-18.794 0.944 0.574 3.058h17.17c0.552 0 1 0.448 1 1s-0.448 1-1 1v0h-18c-0.487-0-0.892-0.349-0.981-0.81l-0.001-0.006-2.998-15.97-0.8-3.214h-2.22c-0.552 0-1-0.448-1-1v0zM6.204 8l1.68 8.958 18.288-0.918 1.608-8.040h-21.576zM10 24c-2.209 0-4 1.791-4 4s1.791 4 4 4v0c2.209 0 4-1.791 4-4s-1.791-4-4-4v0zM24 24c-2.209 0-4 1.791-4 4s1.791 4 4 4v0c2.209 0 4-1.791 4-4s-1.791-4-4-4v0zM10 26c-1.105 0-2 0.895-2 2s0.895 2 2 2v0c1.105 0 2-0.895 2-2s-0.895-2-2-2v0zM24 26c-1.105 0-2 0.895-2 2s0.895 2 2 2v0c1.105 0 2-0.895 2-2s-0.895-2-2-2v0z"></path>
</svg>
