<!-- Generated by IcoMoon.io -->
<svg version="1.1" xmlns="http://www.w3.org/2000/svg" width="32" height="32" viewBox="0 0 32 32">
<title>cart4</title>
<path d="M0 5c0-0.552 0.448-1 1-1v0h3c0.466 0 0.858 0.319 0.968 0.751l0.002 0.007 0.81 3.242h23.22c0.552 0 1 0.448 1 1 0 0.086-0.011 0.169-0.031 0.249l0.002-0.007-3 12c-0.112 0.439-0.504 0.758-0.97 0.758h-18c-0.466-0-0.858-0.319-0.968-0.751l-0.002-0.007-3.81-15.242h-2.22c-0.552 0-1-0.448-1-1v0zM6.28 10l1 4h2.72v-4h-3.72zM12 10v4h4v-4h-4zM18 10v4h4v-4h-4zM24 10v4h2.72l1-4h-3.72zM26.22 16h-2.22v4h1.22l1-4zM22 16h-4v4h4v-4zM16 16h-4v4h4v-4zM10 16h-2.22l1 4h1.22v-4zM10 26c-1.105 0-2 0.895-2 2s0.895 2 2 2v0c1.105 0 2-0.895 2-2s-0.895-2-2-2v0zM6 28c0-2.209 1.791-4 4-4s4 1.791 4 4v0c0 2.209-1.791 4-4 4s-4-1.791-4-4v0zM24 26c-1.105 0-2 0.895-2 2s0.895 2 2 2v0c1.105 0 2-0.895 2-2s-0.895-2-2-2v0zM20 28c0-2.209 1.791-4 4-4s4 1.791 4 4v0c0 2.209-1.791 4-4 4s-4-1.791-4-4v0z"></path>
</svg>
