<!-- Generated by IcoMoon.io -->
<svg version="1.1" xmlns="http://www.w3.org/2000/svg" width="32" height="32" viewBox="0 0 32 32">
<title>chat-quote</title>
<path d="M5.356 23.788c0.36 0.362 0.583 0.861 0.583 1.412 0 0.067-0.003 0.133-0.010 0.199l0.001-0.008c-0.158 1.493-0.438 2.85-0.837 4.155l0.041-0.155c2.79-0.646 4.494-1.394 5.268-1.786 0.263-0.136 0.574-0.216 0.904-0.216 0.184 0 0.361 0.025 0.53 0.071l-0.014-0.003c1.246 0.345 2.676 0.544 4.152 0.544 0.009 0 0.018 0 0.027-0h-0.001c7.992 0 14-5.614 14-12 0-6.384-6.008-12-14-12s-14 5.616-14 12c0 2.936 1.234 5.66 3.356 7.788zM4.37 31.598c-0.202 0.050-0.685 0.141-1.171 0.223l-0.255 0.035c-0.4 0.064-0.704-0.352-0.546-0.724 0.131-0.289 0.296-0.71 0.446-1.138l0.042-0.136 0.006-0.020c0.496-1.44 0.9-3.096 1.048-4.638-2.454-2.46-3.94-5.68-3.94-9.2 0-7.732 7.164-14 16-14s16 6.268 16 14-7.164 14-16 14c-0.007 0-0.016 0-0.024 0-1.661 0-3.269-0.223-4.797-0.642l0.127 0.030c-1.040 0.526-3.278 1.484-6.936 2.21z"></path>
<path d="M14.936 15.334c0 1.84-1.552 3.332-3.468 3.332s-3.468-1.492-3.468-3.332c0-1.84 1.552-3.334 3.468-3.334s3.468 1.492 3.468 3.334z"></path>
<path d="M12.314 13.872c-0.109 0.368-0.444 0.632-0.841 0.632-0.1 0-0.196-0.017-0.285-0.047l0.006 0.002c-0.344-0.105-0.591-0.419-0.591-0.792 0-0.094 0.016-0.184 0.044-0.268l-0.002 0.006c0.16-0.46 0.46-0.88 0.954-1.092 0.197-0.081 0.425-0.129 0.665-0.129 0.265 0 0.516 0.058 0.742 0.161l-0.011-0.005c0.774 0.32 1.44 1.090 1.846 1.994 0.856 1.896 0.786 4.754-1.884 7.412-0.161 0.157-0.38 0.253-0.623 0.253-0.232 0-0.443-0.089-0.602-0.234l0.001 0.001c-0.164-0.149-0.266-0.363-0.266-0.6 0-0.227 0.093-0.432 0.244-0.579l0-0c2.186-2.174 2.116-4.316 1.54-5.588-0.304-0.672-0.708-1.028-0.94-1.126zM12.244 13.848v0z"></path>
<path d="M23.606 15.334c0 1.84-1.552 3.332-3.468 3.332-1.914 0-3.468-1.492-3.468-3.332s1.554-3.334 3.468-3.334c1.916 0 3.468 1.492 3.468 3.334z"></path>
<path d="M20.984 13.872c-0.109 0.368-0.445 0.632-0.841 0.632-0.1 0-0.196-0.017-0.285-0.047l0.006 0.002c-0.344-0.105-0.591-0.419-0.591-0.792 0-0.094 0.016-0.184 0.044-0.268l-0.002 0.006c0.16-0.46 0.46-0.88 0.954-1.092 0.197-0.081 0.425-0.129 0.665-0.129 0.265 0 0.516 0.058 0.742 0.161l-0.011-0.005c0.774 0.32 1.44 1.090 1.848 1.994 0.856 1.896 0.784 4.754-1.884 7.412-0.161 0.157-0.381 0.254-0.624 0.254-0.233 0-0.444-0.089-0.603-0.235l0.001 0.001c-0.164-0.149-0.266-0.363-0.266-0.6 0-0.227 0.093-0.432 0.244-0.579l0-0c2.186-2.174 2.116-4.316 1.54-5.588-0.304-0.672-0.708-1.028-0.938-1.126zM20.916 13.848v0z"></path>
</svg>
