<!-- Generated by IcoMoon.io -->
<svg version="1.1" xmlns="http://www.w3.org/2000/svg" width="32" height="32" viewBox="0 0 32 32">
<title>chat-right-dots-fill</title>
<path d="M32 4c0-2.209-1.791-4-4-4v0h-24c-2.209 0-4 1.791-4 4v0 16c0 2.209 1.791 4 4 4v0h19.172c0.552 0 1.052 0.224 1.414 0.586l5.706 5.706c0.181 0.181 0.431 0.294 0.708 0.294 0.552 0 1-0.448 1-1v0-25.586zM10 12c0 1.105-0.895 2-2 2s-2-0.895-2-2v0c0-1.105 0.895-2 2-2s2 0.895 2 2v0zM18 12c0 1.105-0.895 2-2 2s-2-0.895-2-2v0c0-1.105 0.895-2 2-2s2 0.895 2 2v0zM24 14c1.105 0 2-0.895 2-2s-0.895-2-2-2v0c-1.105 0-2 0.895-2 2s0.895 2 2 2v0z"></path>
</svg>
