<!-- Generated by IcoMoon.io -->
<svg version="1.1" xmlns="http://www.w3.org/2000/svg" width="32" height="32" viewBox="0 0 32 32">
<title>chat-square-text-fill</title>
<path d="M0 4c0-2.209 1.791-4 4-4v0h24c2.209 0 4 1.791 4 4v0 16c0 2.209-1.791 4-4 4v0h-5c-0.652 0-1.231 0.312-1.596 0.795l-0.004 0.005-3.8 5.066c-0.369 0.488-0.948 0.8-1.6 0.8s-1.231-0.312-1.596-0.795l-0.004-0.005-3.8-5.066c-0.369-0.488-0.948-0.8-1.6-0.8v0h-5c-2.209 0-4-1.791-4-4v0-16zM7 6c-0.552 0-1 0.448-1 1s0.448 1 1 1v0h18c0.552 0 1-0.448 1-1s-0.448-1-1-1v0h-18zM7 11c-0.552 0-1 0.448-1 1s0.448 1 1 1v0h18c0.552 0 1-0.448 1-1s-0.448-1-1-1v0h-18zM7 16c-0.552 0-1 0.448-1 1s0.448 1 1 1v0h10c0.552 0 1-0.448 1-1s-0.448-1-1-1v0h-10z"></path>
</svg>
