<!-- Generated by IcoMoon.io -->
<svg version="1.1" xmlns="http://www.w3.org/2000/svg" width="32" height="32" viewBox="0 0 32 32">
<title>chat-text-fill</title>
<path d="M32 16c0 7.732-7.164 14-16 14-0.007 0-0.016 0-0.024 0-1.661 0-3.269-0.223-4.797-0.642l0.127 0.030c-1.168 0.592-3.85 1.728-8.362 2.468-0.4 0.064-0.704-0.352-0.546-0.724 0.708-1.672 1.348-3.9 1.54-5.932-2.45-2.46-3.938-5.68-3.938-9.2 0-7.732 7.164-14 16-14s16 6.268 16 14zM9 10c-0.552 0-1 0.448-1 1s0.448 1 1 1v0h14c0.552 0 1-0.448 1-1s-0.448-1-1-1v0h-14zM9 15c-0.552 0-1 0.448-1 1s0.448 1 1 1v0h14c0.552 0 1-0.448 1-1s-0.448-1-1-1v0h-14zM9 20c-0.552 0-1 0.448-1 1s0.448 1 1 1v0h8c0.552 0 1-0.448 1-1s-0.448-1-1-1v0h-8z"></path>
</svg>
