<!-- Generated by IcoMoon.io -->
<svg version="1.1" xmlns="http://www.w3.org/2000/svg" width="32" height="32" viewBox="0 0 32 32">
<title>chat-square</title>
<path d="M28 2v0c1.105 0 2 0.895 2 2v16c0 1.105-0.895 2-2 2h-5c-1.304 0-2.462 0.624-3.2 1.6l-3.8 5.066-3.807-5.076c-0.73-0.966-1.889-1.59-3.193-1.59h-5c-1.105 0-2-0.895-2-2v-16c0-1.105 0.895-2 2-2h24zM4 0c-2.209 0-4 1.791-4 4v0 16c0 2.209 1.791 4 4 4v0h5c0.652 0 1.231 0.312 1.596 0.795l0.004 0.005 3.8 5.066c0.369 0.488 0.948 0.8 1.6 0.8s1.231-0.312 1.596-0.795l0.004-0.005 3.8-5.066c0.369-0.488 0.948-0.8 1.6-0.8v0h5c2.209 0 4-1.791 4-4v0-16c0-2.209-1.791-4-4-4v0h-24z"></path>
</svg>
