<!-- Generated by IcoMoon.io -->
<svg version="1.1" xmlns="http://www.w3.org/2000/svg" width="32" height="32" viewBox="0 0 32 32">
<title>chat-quote-fill</title>
<path d="M32 16c0-7.732-7.164-14-16-14s-16 6.268-16 14c0 3.52 1.488 6.74 3.938 9.2-0.192 2.032-0.832 4.26-1.54 5.932-0.158 0.372 0.146 0.788 0.546 0.724 4.512-0.74 7.194-1.876 8.362-2.468l-0.127-0.030c1.528 0.418 3.136 0.642 4.797 0.642 0.009 0 0.017 0 0.024-0 8.836 0 16-6.268 16-14zM14.388 13.532c0.174 0.248 0.326 0.52 0.454 0.802 0.856 1.896 0.786 4.754-1.884 7.412-0.161 0.157-0.38 0.253-0.623 0.253-0.232 0-0.443-0.089-0.602-0.234l0.001 0.001c-0.164-0.149-0.266-0.363-0.266-0.6 0-0.227 0.093-0.432 0.244-0.579l0-0c0.838-0.832 1.344-1.662 1.618-2.44-0.538 0.33-1.176 0.52-1.86 0.52-1.92 0-3.47-1.492-3.47-3.332s1.552-3.334 3.468-3.334c0.542 0 1.056 0.12 1.512 0.332l0.016 0.008c0.338 0.14 0.654 0.364 0.938 0.648 0.17 0.166 0.322 0.348 0.454 0.544zM22 18.146c-0.538 0.33-1.176 0.52-1.86 0.52-1.916 0-3.47-1.492-3.47-3.332s1.554-3.334 3.468-3.334c0.542 0 1.056 0.12 1.512 0.332l0.016 0.008c0.34 0.14 0.654 0.364 0.938 0.648 0.17 0.166 0.322 0.348 0.454 0.544 0.174 0.248 0.328 0.52 0.456 0.802 0.856 1.896 0.784 4.754-1.884 7.412-0.161 0.157-0.381 0.254-0.624 0.254-0.233 0-0.444-0.089-0.603-0.235l0.001 0.001c-0.164-0.149-0.266-0.363-0.266-0.6 0-0.227 0.093-0.432 0.244-0.579l0-0c0.84-0.832 1.344-1.662 1.62-2.44z"></path>
</svg>
