<!-- Generated by IcoMoon.io -->
<svg version="1.1" xmlns="http://www.w3.org/2000/svg" width="32" height="32" viewBox="0 0 32 32">
<title>check2-square</title>
<path d="M30.708 5.292c0.181 0.181 0.294 0.431 0.294 0.708s-0.112 0.527-0.294 0.708l-14 14c-0.181 0.181-0.431 0.294-0.708 0.294s-0.527-0.112-0.708-0.294l-6-6c-0.181-0.181-0.293-0.431-0.293-0.708 0-0.553 0.448-1.001 1.001-1.001 0.277 0 0.527 0.112 0.708 0.293v0l5.292 5.294 13.292-13.294c0.181-0.181 0.431-0.294 0.708-0.294s0.527 0.112 0.708 0.294l0 0z"></path>
<path d="M3 26c0 1.657 1.343 3 3 3v0h20c1.657 0 3-1.343 3-3v0-10c0-0.552-0.448-1-1-1s-1 0.448-1 1v0 10c0 0.552-0.448 1-1 1v0h-20c-0.552 0-1-0.448-1-1v0-20c0-0.552 0.448-1 1-1v0h16c0.552 0 1-0.448 1-1s-0.448-1-1-1v0h-16c-1.657 0-3 1.343-3 3v0 20z"></path>
</svg>
