<!-- Generated by IcoMoon.io -->
<svg version="1.1" xmlns="http://www.w3.org/2000/svg" width="32" height="32" viewBox="0 0 32 32">
<title>check2-all</title>
<path d="M24.708 7.292c0.181 0.181 0.294 0.431 0.294 0.708s-0.112 0.527-0.294 0.708l-14 14c-0.181 0.181-0.431 0.294-0.708 0.294s-0.527-0.112-0.708-0.294l-7-7c-0.181-0.181-0.293-0.431-0.293-0.708 0-0.553 0.448-1.001 1.001-1.001 0.276 0 0.527 0.112 0.708 0.293l6.292 6.294 13.292-13.294c0.181-0.181 0.431-0.294 0.708-0.294s0.527 0.112 0.708 0.294l0 0z"></path>
<path d="M12.5 16.086l-1.792-1.794c-0.181-0.181-0.431-0.293-0.708-0.293-0.553 0-1.001 0.448-1.001 1.001 0 0.277 0.112 0.527 0.293 0.708v0l1.794 1.792 1.414-1.414zM14.5 20.914l1.792 1.794c0.181 0.181 0.431 0.294 0.708 0.294s0.527-0.112 0.708-0.294l14-14c0.181-0.181 0.293-0.431 0.293-0.708 0-0.553-0.448-1.001-1.001-1.001-0.276 0-0.527 0.112-0.708 0.293v0l-13.292 13.294-1.086-1.086-1.414 1.414z"></path>
</svg>
