<!-- Generated by IcoMoon.io -->
<svg version="1.1" xmlns="http://www.w3.org/2000/svg" width="32" height="32" viewBox="0 0 32 32">
<title>check</title>
<path d="M21.94 9.94c0.271-0.269 0.644-0.435 1.056-0.435 0.828 0 1.5 0.672 1.5 1.5 0 0.401-0.158 0.766-0.415 1.035l0.001-0.001-7.984 9.98c-0.275 0.295-0.665 0.479-1.099 0.479-0.414 0-0.789-0.168-1.061-0.439l-5.29-5.292c-0.294-0.275-0.477-0.665-0.477-1.097 0-0.828 0.672-1.5 1.5-1.5 0.433 0 0.823 0.183 1.097 0.477l0.001 0.001 4.188 4.186 6.946-8.85c0.013-0.016 0.026-0.030 0.040-0.044l0-0z"></path>
</svg>
