<!-- Generated by IcoMoon.io -->
<svg version="1.1" xmlns="http://www.w3.org/2000/svg" width="32" height="32" viewBox="0 0 32 32">
<title>chevron-compact-right</title>
<path d="M13.552 3.106c0.13-0.067 0.285-0.106 0.448-0.106 0.389 0 0.726 0.222 0.891 0.546l0.003 0.006 6 12c0.067 0.13 0.106 0.285 0.106 0.448s-0.039 0.317-0.109 0.454l0.003-0.006-6 12c-0.167 0.334-0.506 0.559-0.897 0.559-0.552 0-1-0.448-1-1 0-0.166 0.040-0.323 0.112-0.46l-0.003 0.006 5.774-11.552-5.774-11.552c-0.067-0.13-0.106-0.285-0.106-0.448 0-0.389 0.222-0.726 0.546-0.891l0.006-0.003z"></path>
</svg>
