<!-- Generated by IcoMoon.io -->
<svg version="1.1" xmlns="http://www.w3.org/2000/svg" width="32" height="32" viewBox="0 0 32 32">
<title>chevron-bar-left</title>
<path d="M23.708 7.292c0.181 0.181 0.294 0.431 0.294 0.708s-0.112 0.527-0.294 0.708l-7.294 7.292 7.294 7.292c0.181 0.181 0.293 0.431 0.293 0.708 0 0.553-0.448 1.001-1.001 1.001-0.276 0-0.527-0.112-0.708-0.293v0l-8-8c-0.181-0.181-0.294-0.431-0.294-0.708s0.112-0.527 0.294-0.708l8-8c0.181-0.181 0.431-0.294 0.708-0.294s0.527 0.112 0.708 0.294l0 0zM9 2c-0.552 0-1 0.448-1 1v0 26c0 0.552 0.448 1 1 1s1-0.448 1-1v0-26c0-0.552-0.448-1-1-1v0z"></path>
</svg>
