<!-- Generated by IcoMoon.io -->
<svg version="1.1" xmlns="http://www.w3.org/2000/svg" width="32" height="32" viewBox="0 0 32 32">
<title>chevron-compact-left</title>
<path d="M18.448 3.106c0.329 0.168 0.551 0.505 0.551 0.894 0 0.163-0.039 0.316-0.108 0.452l0.003-0.006-5.774 11.554 5.776 11.552c0.069 0.132 0.109 0.289 0.109 0.455 0 0.552-0.448 1-1 1-0.392 0-0.731-0.225-0.895-0.553l-0.003-0.006-6-12c-0.067-0.131-0.106-0.285-0.106-0.448s0.039-0.318 0.109-0.454l-0.003 0.006 6-12c0.168-0.329 0.505-0.551 0.894-0.551 0.163 0 0.316 0.039 0.452 0.108l-0.006-0.003z"></path>
</svg>
