<!-- Generated by IcoMoon.io -->
<svg version="1.1" xmlns="http://www.w3.org/2000/svg" width="32" height="32" viewBox="0 0 32 32">
<title>cloud-upload</title>
<path d="M8.812 2.684c1.917-1.66 4.433-2.675 7.186-2.684h0.002c5.38 0 9.846 4 10.332 9.158 3.184 0.45 5.668 3.116 5.668 6.388 0 3.592-2.996 6.454-6.626 6.454h-5.374c-0.552 0-1-0.448-1-1s0.448-1 1-1v0h5.376c2.582 0 4.624-2.024 4.624-4.454 0-2.432-2.040-4.456-4.626-4.456h-1v-1c0.002-4.44-3.718-8.090-8.374-8.090-2.255 0.009-4.313 0.841-5.893 2.21l0.011-0.010c-1.514 1.304-2.306 2.876-2.306 4.11v0.896l-0.89 0.098c-2.794 0.306-4.922 2.6-4.922 5.332 0 2.934 2.46 5.364 5.562 5.364h4.438c0.552 0 1 0.448 1 1s-0.448 1-1 1v0h-4.438c-4.146 0-7.562-3.268-7.562-7.364 0-3.526 2.532-6.446 5.884-7.186 0.286-1.726 1.396-3.446 2.928-4.766z"></path>
<path d="M15.292 8.292c0.181-0.181 0.431-0.294 0.708-0.294s0.527 0.112 0.708 0.294l6 6c0.181 0.181 0.293 0.431 0.293 0.708 0 0.553-0.448 1.001-1.001 1.001-0.276 0-0.527-0.112-0.708-0.293v0l-4.292-4.294v17.586c0 0.552-0.448 1-1 1s-1-0.448-1-1v0-17.586l-4.292 4.294c-0.181 0.181-0.431 0.293-0.708 0.293-0.553 0-1.001-0.448-1.001-1.001 0-0.277 0.112-0.527 0.293-0.708v0l6-6z"></path>
</svg>
