<!-- Generated by IcoMoon.io -->
<svg version="1.1" xmlns="http://www.w3.org/2000/svg" width="32" height="32" viewBox="0 0 32 32">
<title>cloud-plus-fill</title>
<path d="M16 4c-2.755 0.009-5.271 1.024-7.202 2.696l0.014-0.012c-1.532 1.32-2.642 3.040-2.928 4.766-3.352 0.74-5.884 3.66-5.884 7.186 0 4.096 3.416 7.364 7.562 7.364h17.812c3.63 0 6.626-2.86 6.626-6.454 0-3.272-2.484-5.938-5.668-6.388-0.486-5.16-4.952-9.158-10.332-9.158zM17 12c0-0.552-0.448-1-1-1s-1 0.448-1 1v0 3h-3c-0.552 0-1 0.448-1 1s0.448 1 1 1v0h3v3c0 0.552 0.448 1 1 1s1-0.448 1-1v0-3h3c0.552 0 1-0.448 1-1s-0.448-1-1-1v0h-3v-3z"></path>
</svg>
