<!-- Generated by IcoMoon.io -->
<svg version="1.1" xmlns="http://www.w3.org/2000/svg" width="32" height="32" viewBox="0 0 32 32">
<title>code-slash</title>
<path d="M9.708 8.292c0.181 0.181 0.294 0.431 0.294 0.708s-0.112 0.527-0.294 0.708l-6.294 6.292 6.294 6.292c0.181 0.181 0.293 0.431 0.293 0.708 0 0.553-0.448 1.001-1.001 1.001-0.277 0-0.527-0.112-0.708-0.293v0l-7-7c-0.181-0.181-0.294-0.431-0.294-0.708s0.112-0.527 0.294-0.708l7-7c0.181-0.181 0.431-0.294 0.708-0.294s0.527 0.112 0.708 0.294l0 0zM22.292 8.292c-0.181 0.181-0.294 0.431-0.294 0.708s0.112 0.527 0.294 0.708l6.294 6.292-6.294 6.292c-0.181 0.181-0.293 0.431-0.293 0.708 0 0.553 0.448 1.001 1.001 1.001 0.276 0 0.527-0.112 0.708-0.293v0l7-7c0.181-0.181 0.294-0.431 0.294-0.708s-0.112-0.527-0.294-0.708l-7-7c-0.181-0.181-0.431-0.294-0.708-0.294s-0.527 0.112-0.708 0.294l-0 0zM20.294 2.044c0.411 0.13 0.704 0.509 0.704 0.955 0 0.105-0.016 0.207-0.046 0.302l0.002-0.007-8 26c-0.141 0.393-0.51 0.669-0.943 0.669-0.552 0-1-0.448-1-1 0-0.091 0.012-0.18 0.035-0.264l-0.002 0.007 8-26c0.13-0.411 0.509-0.704 0.955-0.704 0.105 0 0.207 0.016 0.302 0.046l-0.007-0.002z"></path>
</svg>
