<!-- Generated by IcoMoon.io -->
<svg version="1.1" xmlns="http://www.w3.org/2000/svg" width="32" height="32" viewBox="0 0 32 32">
<title>collection</title>
<path d="M29 27v0c0.552 0 1-0.448 1-1v-14c0-0.552-0.448-1-1-1h-26c-0.552 0-1 0.448-1 1v14c0 0.552 0.448 1 1 1h26zM3 29c-1.657 0-3-1.343-3-3v0-14c0-1.657 1.343-3 3-3v0h26c1.657 0 3 1.343 3 3v0 14c0 1.657-1.343 3-3 3v0h-26zM4 6v0c0-0.552 0.448-1 1-1h22c0.552 0 1 0.448 1 1s-0.448 1-1 1h-22c-0.552 0-1-0.448-1-1zM8 2v0c0-0.552 0.448-1 1-1h14c0.552 0 1 0.448 1 1s-0.448 1-1 1h-14c-0.552 0-1-0.448-1-1z"></path>
</svg>
