<!-- Generated by IcoMoon.io -->
<svg version="1.1" xmlns="http://www.w3.org/2000/svg" width="32" height="32" viewBox="0 0 32 32">
<title>command</title>
<path d="M4 7c0 1.657 1.343 3 3 3v0h3v-3c0-1.657-1.343-3-3-3s-3 1.343-3 3v0zM12 12v-5c0-2.761-2.239-5-5-5s-5 2.239-5 5c0 2.761 2.239 5 5 5v0h5zM28 7c0 1.657-1.343 3-3 3v0h-3v-3c0-1.657 1.343-3 3-3s3 1.343 3 3v0zM20 12v-5c0-2.761 2.239-5 5-5s5 2.239 5 5c0 2.761-2.239 5-5 5v0h-5zM4 25c0-1.657 1.343-3 3-3v0h3v3c0 1.657-1.343 3-3 3s-3-1.343-3-3v0zM12 20v5c0 2.761-2.239 5-5 5s-5-2.239-5-5c0-2.761 2.239-5 5-5v0h5zM28 25c0-1.657-1.343-3-3-3v0h-3v3c0 1.657 1.343 3 3 3s3-1.343 3-3v0zM20 20v5c0 2.761 2.239 5 5 5s5-2.239 5-5c0-2.761-2.239-5-5-5v0h-5z"></path>
<path d="M20 12v8h-8v-8h8zM10 10v12h12v-12h-12z"></path>
</svg>
