<!-- Generated by IcoMoon.io -->
<svg version="1.1" xmlns="http://www.w3.org/2000/svg" width="32" height="32" viewBox="0 0 32 32">
<title>cone-striped</title>
<path d="M15.758 22.030c0.073-0.019 0.156-0.030 0.242-0.030s0.169 0.011 0.249 0.031l-0.007-0.002 12 3c0.44 0.112 0.76 0.504 0.76 0.971 0 0.44-0.284 0.813-0.679 0.947l-0.007 0.002-12 4c-0.094 0.033-0.203 0.051-0.316 0.051s-0.222-0.019-0.323-0.053l0.007 0.002-12-4c-0.402-0.136-0.686-0.509-0.686-0.949 0-0.467 0.32-0.859 0.753-0.969l0.007-0.002 12-3z"></path>
<path d="M19.94 9.76l1.906 7.622c-1.528 0.374-3.566 0.618-5.846 0.618s-4.318-0.244-5.846-0.618l1.906-7.622c1.21 0.154 2.54 0.24 3.94 0.24s2.73-0.086 3.94-0.24zM19.45 7.804l-1.51-6.044c-0.504-2.020-3.376-2.020-3.88 0l-1.51 6.040c1.050 0.13 2.214 0.2 3.45 0.2s2.4-0.072 3.45-0.196zM23.46 23.834l-1.13-4.514c-1.724 0.424-3.928 0.678-6.33 0.678s-4.606-0.254-6.33-0.678l-1.13 4.514 7.218-1.804c0.073-0.019 0.156-0.030 0.242-0.030s0.169 0.011 0.249 0.031l-0.007-0.002 7.218 1.804z"></path>
</svg>
