<!-- Generated by IcoMoon.io -->
<svg version="1.1" xmlns="http://www.w3.org/2000/svg" width="32" height="32" viewBox="0 0 32 32">
<title>cpu-fill</title>
<path d="M11 1v3h2v-3c0-0.552 0.448-1 1-1s1 0.448 1 1v3h2v-3c0-0.552 0.448-1 1-1s1 0.448 1 1v3h2v-3c0-0.552 0.448-1 1-1s1 0.448 1 1v3c2.761 0 5 2.239 5 5h3c0.552 0 1 0.448 1 1s-0.448 1-1 1h-3v2h3c0.552 0 1 0.448 1 1s-0.448 1-1 1h-3v2h3c0.552 0 1 0.448 1 1s-0.448 1-1 1h-3v2h3c0.552 0 1 0.448 1 1s-0.448 1-1 1h-3c0 2.761-2.239 5-5 5v3c0 0.552-0.448 1-1 1s-1-0.448-1-1v-3h-2v3c0 0.552-0.448 1-1 1s-1-0.448-1-1v-3h-2v3c0 0.552-0.448 1-1 1s-1-0.448-1-1v-3h-2v3c0 0.552-0.448 1-1 1s-1-0.448-1-1v-3c-2.761 0-5-2.239-5-5h-3c-0.552 0-1-0.448-1-1s0.448-1 1-1h3v-2h-3c-0.552 0-1-0.448-1-1s0.448-1 1-1h3v-2h-3c-0.552 0-1-0.448-1-1s0.448-1 1-1h3v-2h-3c-0.552 0-1-0.448-1-1s0.448-1 1-1h3c0-2.761 2.239-5 5-5v-3c0-0.552 0.448-1 1-1s1 0.448 1 1zM13 10c-1.657 0-3 1.343-3 3v0 6c0 1.657 1.343 3 3 3v0h6c1.657 0 3-1.343 3-3v0-6c0-1.657-1.343-3-3-3v0h-6zM13 12c-0.552 0-1 0.448-1 1v0 6c0 0.552 0.448 1 1 1v0h6c0.552 0 1-0.448 1-1v0-6c0-0.552-0.448-1-1-1v0h-6z"></path>
</svg>
