<!-- Generated by IcoMoon.io -->
<svg version="1.1" xmlns="http://www.w3.org/2000/svg" width="32" height="32" viewBox="0 0 32 32">
<title>credit-card-2-front-fill</title>
<path d="M0 8c0-2.209 1.791-4 4-4v0h24c2.209 0 4 1.791 4 4v0 16c0 2.209-1.791 4-4 4v0h-24c-2.209 0-4-1.791-4-4v0-16zM5 10c-0.552 0-1 0.448-1 1v0 2c0 0.552 0.448 1 1 1v0h4c0.552 0 1-0.448 1-1v0-2c0-0.552-0.448-1-1-1v0h-4zM5 16c-0.552 0-1 0.448-1 1s0.448 1 1 1v0h10c0.552 0 1-0.448 1-1s-0.448-1-1-1v0h-10zM5 20c-0.552 0-1 0.448-1 1s0.448 1 1 1v0h2c0.552 0 1-0.448 1-1s-0.448-1-1-1v0h-2zM11 20c-0.552 0-1 0.448-1 1s0.448 1 1 1v0h2c0.552 0 1-0.448 1-1s-0.448-1-1-1v0h-2zM17 20c-0.552 0-1 0.448-1 1s0.448 1 1 1v0h2c0.552 0 1-0.448 1-1s-0.448-1-1-1v0h-2zM23 20c-0.552 0-1 0.448-1 1s0.448 1 1 1v0h2c0.552 0 1-0.448 1-1s-0.448-1-1-1v0h-2z"></path>
</svg>
