<!-- Generated by IcoMoon.io -->
<svg version="1.1" xmlns="http://www.w3.org/2000/svg" width="32" height="32" viewBox="0 0 32 32">
<title>distribute-horizontal</title>
<path d="M29 2c-0.552 0-1 0.448-1 1v0 26c0 0.552 0.448 1 1 1s1-0.448 1-1v0-26c0-0.552-0.448-1-1-1v0zM3 2c-0.552 0-1 0.448-1 1v0 26c0 0.552 0.448 1 1 1s1-0.448 1-1v0-26c0-0.552-0.448-1-1-1v0z"></path>
<path d="M12 26c0 1.105 0.895 2 2 2v0h4c1.105 0 2-0.895 2-2v0-20c0-1.105-0.895-2-2-2v0h-4c-1.105 0-2 0.895-2 2v0 20z"></path>
</svg>
