<!-- Generated by IcoMoon.io -->
<svg version="1.1" xmlns="http://www.w3.org/2000/svg" width="32" height="32" viewBox="0 0 32 32">
<title>door-open</title>
<path d="M2 31c0-0.552 0.448-1 1-1v0h26c0.552 0 1 0.448 1 1s-0.448 1-1 1v0h-26c-0.552 0-1-0.448-1-1v0zM23 4h-1v-2h1c1.657 0 3 1.343 3 3v0 25h-2v-25c0-0.552-0.448-1-1-1v0z"></path>
<path d="M21.656 0.244c0.211 0.184 0.344 0.454 0.344 0.755 0 0 0 0.001 0 0.001v-0 29h-2v-27.846l-12 1.714v26.132h-2v-27c0-0.503 0.371-0.919 0.855-0.989l0.005-0.001 14-2c0.042-0.006 0.091-0.010 0.141-0.010 0.251 0 0.48 0.092 0.656 0.245l-0.001-0.001z"></path>
<path d="M16 18c0 1.104 0.448 2 1 2s1-0.896 1-2-0.448-2-1-2-1 0.896-1 2z"></path>
</svg>
