<!-- Generated by IcoMoon.io -->
<svg version="1.1" xmlns="http://www.w3.org/2000/svg" width="32" height="32" viewBox="0 0 32 32">
<title>door-closed</title>
<path d="M6 4c0-1.105 0.895-2 2-2v0h16c1.105 0 2 0.895 2 2v0 26c0 1.105-0.895 2-2 2v0h-16c-1.105 0-2-0.895-2-2v0-26zM8 4v26h16v-26h-16z"></path>
<path d="M14 18c0 1.105-0.895 2-2 2s-2-0.895-2-2v0c0-1.105 0.895-2 2-2s2 0.895 2 2v0z"></path>
<path d="M2 31c0-0.552 0.448-1 1-1v0h26c0.552 0 1 0.448 1 1s-0.448 1-1 1v0h-26c-0.552 0-1-0.448-1-1v0z"></path>
</svg>
