<!-- Generated by IcoMoon.io -->
<svg version="1.1" xmlns="http://www.w3.org/2000/svg" width="32" height="32" viewBox="0 0 32 32">
<title>droplet</title>
<path d="M14.42 1.6c0.96-1.010 1.58-1.6 1.58-1.6 0.218 0.726 0.468 1.416 0.742 2.076 1.624 3.892 4.146 6.7 6.394 9.2 2.62 2.916 4.864 5.414 4.864 8.724 0 6.627-5.373 12-12 12s-12-5.373-12-12v0c0-6.664 7.16-14.966 10.42-18.4zM15.246 3.642c-1.22 1.316-2.417 2.73-3.551 4.194l-0.107 0.144c-1.452 1.9-2.872 4.016-3.92 6.14-1.060 2.146-1.668 4.156-1.668 5.88 0 5.523 4.477 10 10 10s10-4.477 10-10v0c0-2.402-1.592-4.314-4.362-7.4l-0.060-0.064c-2.078-2.316-4.578-5.096-6.332-8.896z"></path>
<path d="M9.106 15.552c1.64-3.282 3.434-5.506 4.186-6.26l1.416 1.416c-0.58 0.58-2.256 2.622-3.814 5.74l-1.788-0.896z"></path>
</svg>
