<!-- Generated by IcoMoon.io -->
<svg version="1.1" xmlns="http://www.w3.org/2000/svg" width="32" height="32" viewBox="0 0 32 32">
<title>emoji-smile-upside-down</title>
<path d="M16 2v0c-7.732 0-14 6.268-14 14s6.268 14 14 14v0c7.732 0 14-6.268 14-14s-6.268-14-14-14zM16 0c8.837 0 16 7.163 16 16s-7.163 16-16 16v0c-8.837 0-16-7.163-16-16s7.163-16 16-16v0z"></path>
<path d="M8.57 12.866c0.143 0.084 0.316 0.134 0.5 0.134 0.368 0 0.69-0.199 0.863-0.495l0.003-0.005c1.232-2.107 3.483-3.5 6.060-3.5 0.001 0 0.003 0 0.004 0h-0c2.59 0 4.852 1.406 6.064 3.5 0.177 0.298 0.497 0.494 0.863 0.494 0.552 0 1-0.448 1-1 0-0.182-0.049-0.352-0.133-0.499l0.003 0.005c-1.584-2.709-4.479-4.5-7.792-4.5-0.001 0-0.003 0-0.004 0h0c-0.001 0-0.001 0-0.002 0-3.314 0-6.209 1.791-7.771 4.458l-0.023 0.042c-0.084 0.143-0.134 0.316-0.134 0.5 0 0.368 0.199 0.69 0.495 0.863l0.005 0.003z"></path>
<path d="M14 19c0-1.656-0.896-3-2-3s-2 1.344-2 3 0.896 3 2 3 2-1.344 2-3zM22 19c0-1.656-0.896-3-2-3s-2 1.344-2 3 0.896 3 2 3 2-1.344 2-3z"></path>
</svg>
