<!-- Generated by IcoMoon.io -->
<svg version="1.1" xmlns="http://www.w3.org/2000/svg" width="32" height="32" viewBox="0 0 32 32">
<title>envelope-fill</title>
<path d="M0.1 7.11c0.42-1.794 2.006-3.11 3.9-3.11 0 0 0 0 0 0h24c0 0 0 0 0 0 1.894 0 3.48 1.316 3.894 3.083l0.005 0.027-15.9 9.718-15.9-9.718zM0 9.394v14.208l11.606-7.116-11.606-7.092zM13.522 17.66l-13.14 8.054c0.657 1.363 2.028 2.286 3.614 2.286 0.001 0 0.003 0 0.004 0h24c0 0 0.001 0 0.001 0 1.587 0 2.958-0.924 3.605-2.264l0.010-0.024-13.14-8.054-2.476 1.514-2.478-1.514zM20.394 16.488l11.606 7.114v-14.208l-11.606 7.092z"></path>
</svg>
