<!-- Generated by IcoMoon.io -->
<svg version="1.1" xmlns="http://www.w3.org/2000/svg" width="32" height="32" viewBox="0 0 32 32">
<title>envelope-open</title>
<path d="M16.94 2.636c-0.272-0.148-0.596-0.235-0.94-0.235s-0.668 0.087-0.951 0.24l0.011-0.005-12 6.4c-0.635 0.343-1.059 1.004-1.060 1.764v1.636l11.448 6.93 2.552-1.532 2.552 1.532 11.448-6.93v-1.636c-0.001-0.76-0.425-1.421-1.049-1.759l-0.011-0.005-12-6.4zM30 14.776l-9.508 5.754 9.508 5.704v-11.46zM29.93 28.524l-13.93-8.358-13.93 8.36c0.239 0.856 1.012 1.474 1.93 1.474 0 0 0 0 0 0h24c0.918-0 1.692-0.619 1.927-1.462l0.003-0.014zM2 26.234l9.508-5.704-9.508-5.756v11.46zM14.118 0.87c0.545-0.296 1.193-0.47 1.882-0.47s1.337 0.174 1.903 0.481l-0.021-0.010 12 6.4c1.27 0.687 2.118 2.009 2.118 3.53 0 0 0 0 0 0v-0 17.2c0 2.209-1.791 4-4 4v0h-24c-2.209 0-4-1.791-4-4v0-17.2c0-0 0-0 0-0 0-1.52 0.848-2.842 2.097-3.519l0.021-0.010 12-6.4z"></path>
</svg>
