<!-- Generated by IcoMoon.io -->
<svg version="1.1" xmlns="http://www.w3.org/2000/svg" width="32" height="32" viewBox="0 0 32 32">
<title>eye-slash-fill</title>
<path d="M21.58 25.824l-3.228-3.23c-0.701 0.259-1.512 0.409-2.357 0.409-3.866 0-7-3.134-7-7 0-0.845 0.15-1.655 0.424-2.405l-0.016 0.049-4.12-4.12c-3.408 3.030-5.284 6.474-5.284 6.474s6 11 16 11c2.020-0.007 3.937-0.439 5.669-1.212l-0.089 0.036zM10.42 6.176c1.643-0.737 3.56-1.169 5.577-1.176h0.003c10 0 16 11 16 11s-1.878 3.442-5.282 6.476l-4.124-4.124c0.259-0.701 0.409-1.512 0.409-2.357 0-3.866-3.134-7-7-7-0.845 0-1.655 0.15-2.405 0.424l0.049-0.016-3.226-3.226z"></path>
<path d="M11.050 15.292c-0.032 0.213-0.050 0.459-0.050 0.708 0 2.761 2.239 5 5 5 0.25 0 0.496-0.018 0.736-0.054l-0.027 0.003-5.66-5.658zM20.95 16.708l-5.658-5.66c0.213-0.032 0.459-0.050 0.708-0.050 2.761 0 5 2.239 5 5 0 0.25-0.018 0.496-0.054 0.736l0.003-0.027z"></path>
<path d="M27.292 28.708l-24-24 1.416-1.416 24 24-1.416 1.416z"></path>
</svg>
