<!-- Generated by IcoMoon.io -->
<svg version="1.1" xmlns="http://www.w3.org/2000/svg" width="32" height="32" viewBox="0 0 32 32">
<title>file-binary-fill</title>
<path d="M24 2h-16c-2.209 0-4 1.791-4 4v0 20c0 2.209 1.791 4 4 4v0h16c2.209 0 4-1.791 4-4v0-20c0-2.209-1.791-4-4-4v0zM14.1 21.77c0 2.83-1.096 4.412-3.048 4.412-1.956-0.002-3.052-1.582-3.052-4.412 0-2.824 1.096-4.406 3.052-4.406 1.952 0 3.048 1.58 3.048 4.406zM11.052 18.546c-1.084 0-1.664 1.126-1.664 3.224 0 0.176 0.006 0.346 0.012 0.504l3.12-2.286c-0.252-0.948-0.75-1.44-1.466-1.44zM9.588 23.562c0.252 0.944 0.744 1.436 1.464 1.436 1.080 0 1.66-1.126 1.66-3.228 0-0.17-0.006-0.34-0.012-0.5l-3.112 2.292zM21.71 24.81v1.19h-6v-1.19h2.362v-5.81h-0.1l-2.272 1.494v-1.376l2.38-1.572h1.38v7.266h2.25z"></path>
</svg>
