<!-- Generated by IcoMoon.io -->
<svg version="1.1" xmlns="http://www.w3.org/2000/svg" width="32" height="32" viewBox="0 0 32 32">
<title>files-alt</title>
<path d="M6 2h16c2.209 0 4 1.791 4 4v0 20c0 2.209-1.791 4-4 4v0h-16c-2.209 0-4-1.791-4-4v0-20c0-2.209 1.791-4 4-4v0zM6 4c-1.105 0-2 0.895-2 2v0 20c0 1.105 0.895 2 2 2v0h16c1.105 0 2-0.895 2-2v0-20c0-1.105-0.895-2-2-2v0h-16z"></path>
<path d="M26 8v-2c2.209 0 4 1.791 4 4v0 12c0 2.209-1.791 4-4 4v0-2c1.105 0 2-0.895 2-2v0-12c0-1.105-0.895-2-2-2v0z"></path>
</svg>
