<!-- Generated by IcoMoon.io -->
<svg version="1.1" xmlns="http://www.w3.org/2000/svg" width="32" height="32" viewBox="0 0 32 32">
<title>file-richtext-fill</title>
<path d="M24 2h-16c-2.209 0-4 1.791-4 4v0 20c0 2.209 1.791 4 4 4v0h16c2.209 0 4-1.791 4-4v0-20c0-2.209-1.791-4-4-4v0zM14 8.5c0 0.828-0.672 1.5-1.5 1.5s-1.5-0.672-1.5-1.5v0c0-0.828 0.672-1.5 1.5-1.5s1.5 0.672 1.5 1.5v0zM12.278 11.584l2.66 1.772 3.708-3.71c0.091-0.091 0.216-0.147 0.354-0.147 0.082 0 0.159 0.020 0.227 0.054l-0.003-0.001 3.776 1.948v3.5c0 0.552-0.448 1-1 1v0h-12c-0.552 0-1-0.448-1-1v0-1s3.080-2.548 3.278-2.416zM10 18c-0.552 0-1 0.448-1 1s0.448 1 1 1v0h12c0.552 0 1-0.448 1-1s-0.448-1-1-1v0h-12zM10 22c-0.552 0-1 0.448-1 1s0.448 1 1 1v0h6c0.552 0 1-0.448 1-1s-0.448-1-1-1v0h-6z"></path>
</svg>
