<!-- Generated by IcoMoon.io -->
<svg version="1.1" xmlns="http://www.w3.org/2000/svg" width="32" height="32" viewBox="0 0 32 32">
<title>file-earmark-arrow-up-fill</title>
<path d="M4 6v20c0 2.209 1.791 4 4 4h16c2.209 0 4-1.791 4-4v-14.586c-0-0.552-0.224-1.052-0.586-1.414l-7.414-7.414c-0.362-0.362-0.862-0.586-1.414-0.586h-10.586c-2.209 0-4 1.791-4 4zM18 10v-6l8 8h-6c-1.105 0-2-0.895-2-2v0zM12.708 19.708c-0.181 0.181-0.431 0.293-0.708 0.293-0.553 0-1.001-0.448-1.001-1.001 0-0.276 0.112-0.527 0.293-0.708v0l4-4c0.181-0.181 0.431-0.294 0.708-0.294s0.527 0.112 0.708 0.294l4 4c0.181 0.181 0.293 0.431 0.293 0.708 0 0.553-0.448 1.001-1.001 1.001-0.276 0-0.527-0.112-0.708-0.293v0l-2.292-2.294v7.586c0 0.552-0.448 1-1 1s-1-0.448-1-1v0-7.586l-2.292 2.294z"></path>
</svg>
