<!-- Generated by IcoMoon.io -->
<svg version="1.1" xmlns="http://www.w3.org/2000/svg" width="32" height="32" viewBox="0 0 32 32">
<title>flower3</title>
<path d="M22.848 16c0.874 0.104 1.622 0.272 2.080 0.536l0.019 0.010c1.198 0.691 2.004 1.985 2.004 3.467 0 2.209-1.791 4-4 4-0.746 0-1.444-0.204-2.023-0.549-0.458-0.264-0.978-0.828-1.504-1.534 0.348 0.81 0.576 1.542 0.576 2.070v0c0 2.209-1.791 4-4 4s-4-1.791-4-4c0-0.528 0.228-1.26 0.576-2.070-0.526 0.706-1.046 1.27-1.504 1.534l0.018-0.010c-0.598 0.355-1.296 0.559-2.041 0.559-2.209 0-4-1.791-4-4 0-1.482 0.806-2.776 2.023-3.477 0.458-0.264 1.206-0.432 2.080-0.536-0.874-0.104-1.622-0.272-2.080-0.536l-0.018-0.010c-1.173-0.697-1.959-1.977-1.959-3.441 0-2.209 1.791-4 4-4 0.727 0 1.409 0.194 1.977 0.523 0.458 0.264 0.978 0.828 1.504 1.534-0.348-0.81-0.576-1.542-0.576-2.070v0c0-2.209 1.791-4 4-4s4 1.791 4 4c0 0.528-0.228 1.26-0.576 2.070 0.526-0.706 1.046-1.27 1.504-1.534l-0.019 0.010c0.588-0.339 1.269-0.533 1.996-0.533 2.209 0 4 1.791 4 4 0 1.463-0.786 2.743-1.977 3.451-0.458 0.264-1.206 0.432-2.080 0.536zM18 8c0-1.105-0.895-2-2-2s-2 0.895-2 2v0c0.023 0.159 0.055 0.298 0.095 0.433l-0.005-0.021c0.078 0.262 0.2 0.588 0.366 0.966 0.332 0.756 0.792 1.616 1.274 2.446l0.27 0.46 0.27-0.46c0.482-0.83 0.94-1.69 1.274-2.446 0.166-0.38 0.288-0.704 0.366-0.968 0.040-0.13 0.062-0.232 0.076-0.308 0.014-0.066 0.014-0.098 0.014-0.102zM7.34 11c-0.168 0.287-0.268 0.632-0.268 1 0 0.736 0.398 1.38 0.991 1.727l0.009 0.005c0.109 0.046 0.243 0.089 0.38 0.124l0.020 0.004c0.268 0.064 0.61 0.12 1.020 0.166 0.822 0.090 1.796 0.122 2.758 0.12 0.18 0 0.356 0 0.532-0.004-0.199-0.37-0.286-0.521-0.374-0.673l0.112 0.209c-0.517-0.911-1.008-1.671-1.536-2.401l0.052 0.075c-0.215-0.297-0.43-0.558-0.659-0.805l0.005 0.005c-0.072-0.077-0.148-0.149-0.226-0.217l-0.004-0.003c-0.050-0.044-0.076-0.060-0.080-0.064-0.287-0.168-0.632-0.268-1-0.268-0.736 0-1.38 0.398-1.727 0.991l-0.005 0.009zM10.072 21.732l0.006-0.005c0.107-0.086 0.208-0.179 0.304-0.279l-0.005 0.005c0.23-0.247 0.444-0.508 0.659-0.805 0.49-0.666 1.004-1.494 1.484-2.326l-0.112 0.209c0.088-0.151 0.175-0.303 0.374-0.673-0.176-0.004-0.352-0.004-0.532-0.004l0.014 0c-0.091-0.001-0.183-0.001-0.275-0.001-0.879 0-1.748 0.044-2.497 0.121-0.41 0.046-0.752 0.102-1.020 0.166-0.132 0.032-0.232 0.062-0.306 0.088-0.062 0.024-0.092 0.040-0.094 0.040l-0.009 0.005c-0.586 0.349-0.979 0.989-0.979 1.72 0 1.105 0.895 2 2 2 0.364 0 0.704-0.097 0.989-0.261zM18 24l-0.002-0.014c-0.020-0.142-0.052-0.281-0.088-0.396-0.078-0.264-0.2-0.588-0.366-0.968-0.334-0.756-0.792-1.616-1.274-2.446l-0.27-0.46-0.27 0.46c-0.482 0.83-0.942 1.69-1.274 2.446-0.166 0.378-0.288 0.704-0.366 0.966l0.005-0.021c-0.041 0.135-0.072 0.274-0.095 0.433v0c0 1.105 0.895 2 2 2s2-0.895 2-2zM24.66 11l-0.005-0.009c-0.347-0.593-0.991-0.991-1.727-0.991-0.368 0-0.713 0.1-1 0.268-0.002 0.004-0.030 0.020-0.082 0.064-0.058 0.048-0.136 0.12-0.228 0.22l0.005-0.005c-0.23 0.247-0.444 0.508-0.659 0.805-0.49 0.666-1.004 1.494-1.484 2.326l-0.262 0.464c0.176 0.004 0.352 0.004 0.532 0.004 0.962 0.002 1.934-0.030 2.758-0.12 0.41-0.046 0.752-0.102 1.020-0.166l0.020-0.004c0.137-0.034 0.271-0.078 0.38-0.124l0.009-0.005c0.593-0.347 0.991-0.991 0.991-1.727 0-0.368-0.099-0.713-0.268-1zM21.928 21.732c0.284 0.164 0.625 0.261 0.988 0.261 1.105 0 2-0.895 2-2 0-0.732-0.393-1.372-0.979-1.72l-0.009-0.005c-0.004 0-0.032-0.016-0.094-0.040-0.079-0.029-0.181-0.059-0.286-0.084l-0.020-0.004c-0.283-0.068-0.63-0.126-0.984-0.163l-0.036-0.003c-0.749-0.077-1.618-0.121-2.497-0.121-0.092 0-0.183 0-0.275 0.001l0.014-0c-0.18 0-0.356 0-0.532 0.004 0.2 0.372 0.287 0.523 0.375 0.674l-0.113-0.21c0.48 0.832 0.994 1.66 1.484 2.326 0.244 0.334 0.464 0.6 0.654 0.8 0.096 0.101 0.197 0.194 0.304 0.279l0.006 0.005zM16 18c1.105 0 2-0.895 2-2s-0.895-2-2-2v0c-1.105 0-2 0.895-2 2s0.895 2 2 2v0z"></path>
</svg>
