<!-- Generated by IcoMoon.io -->
<svg version="1.1" xmlns="http://www.w3.org/2000/svg" width="32" height="32" viewBox="0 0 32 32">
<title>flower1</title>
<path d="M12.348 2.368l0.011 0.008c-0.662-0.485-1.478-0.771-2.361-0.771-2.209 0-4 1.791-4 4 0 0.146 0.008 0.29 0.022 0.415l0.018 0.002c-0.142-0.015-0.286-0.023-0.432-0.023-2.209 0-4 1.791-4 4 0 0.883 0.286 1.699 0.763 2.35l-0.025 0.010c-1.382 0.63-2.343 2.024-2.343 3.642s0.961 3.012 2.368 3.652l0.008-0.011c-0.485 0.662-0.771 1.478-0.771 2.361 0 2.209 1.791 4 4 4 0.146 0 0.29-0.008 0.415-0.022l0.002-0.018c-0.015 0.142-0.023 0.286-0.023 0.432 0 2.209 1.791 4 4 4 0.883 0 1.699-0.286 2.35-0.763l0.010 0.025c0.63 1.382 2.024 2.343 3.642 2.343s3.012-0.961 3.652-2.368l-0.011-0.008c0.662 0.485 1.478 0.771 2.361 0.771 2.209 0 4-1.791 4-4 0-0.146-0.008-0.29-0.022-0.415l-0.018-0.002c0.142 0.015 0.286 0.023 0.432 0.023 2.209 0 4-1.791 4-4 0-0.883-0.286-1.699-0.763-2.35l0.025-0.010c1.382-0.63 2.343-2.024 2.343-3.642s-0.961-3.012-2.368-3.652l-0.008 0.011c0.485-0.662 0.771-1.478 0.771-2.361 0-2.209-1.791-4-4-4-0.146 0-0.29 0.008-0.415 0.022l-0.002 0.018c0.015-0.142 0.023-0.286 0.023-0.432 0-2.209-1.791-4-4-4-0.883 0-1.699 0.286-2.35 0.763l-0.010-0.025c-0.63-1.382-2.024-2.343-3.642-2.343s-3.012 0.961-3.652 2.368zM16 2c1.105 0 2 0.895 2 2v0l-0.004 0.060c-0.040 0.317-0.085 0.58-0.14 0.839l0.012-0.065c-0.098 0.482-0.244 1.084-0.426 1.774-0.635 2.409-1.098 3.954-1.59 5.486l0.238-0.858-0.090 0.288-0.090-0.288c-0.254-0.674-0.717-2.219-1.15-3.776l-0.202-0.852c-0.108-0.355-0.255-0.951-0.386-1.554l-0.040-0.22c-0.043-0.194-0.088-0.456-0.123-0.722l-0.005-0.050c-0.001-0.018-0.001-0.040-0.001-0.062 0-1.103 0.894-1.998 1.997-2h0zM4 18c-0.016 0-0.035 0.001-0.054 0.001-1.105 0-2-0.895-2-2s0.895-2 2-2c0.040 0 0.080 0.001 0.12 0.004l-0.005-0 0.182 0.020c0.154 0.024 0.352 0.058 0.592 0.108 0.482 0.098 1.084 0.244 1.774 0.426 2.409 0.635 3.954 1.098 5.486 1.59l-0.858-0.238 0.288 0.090-0.288 0.090c-1.6 0.496-3.252 0.988-4.628 1.352-0.69 0.182-1.292 0.328-1.774 0.426-0.194 0.043-0.456 0.088-0.722 0.123l-0.050 0.005-0.062 0.004zM18 28c0 1.105-0.895 2-2 2s-2-0.895-2-2v0l0.004-0.060c0.040-0.316 0.085-0.579 0.14-0.837l-0.012 0.065c0.098-0.484 0.244-1.086 0.426-1.776 0.364-1.376 0.856-3.026 1.352-4.628l0.090-0.288 0.090 0.288c0.496 1.6 0.988 3.252 1.352 4.628 0.182 0.69 0.328 1.292 0.426 1.774 0.043 0.193 0.088 0.456 0.123 0.722l0.005 0.050 0.004 0.062zM6.608 23.732c-0.284 0.164-0.625 0.261-0.989 0.261-1.105 0-2-0.895-2-2 0-0.732 0.393-1.372 0.979-1.72l0.009-0.005 0.054-0.028c0.040-0.020 0.096-0.042 0.168-0.072 0.117-0.050 0.304-0.119 0.494-0.183l0.072-0.021c0.466-0.156 1.060-0.33 1.748-0.516 0.712-0.228 2.286-0.623 3.871-0.987l0.815-0.157 0.294-0.066-0.206 0.22c-1.139 1.241-2.226 2.376-3.335 3.489l0.003-0.003c-0.506 0.504-0.954 0.93-1.32 1.258-0.181 0.161-0.379 0.323-0.583 0.478l-0.025 0.018-0.050 0.034zM9 28.124l-0.009-0.005c-0.593-0.347-0.991-0.991-0.991-1.727 0-0.368 0.1-0.713 0.268-1l0.034-0.050 0.018-0.025c0.155-0.204 0.317-0.402 0.478-0.583l0.026-0.029c0.399-0.441 0.809-0.871 1.232-1.291l-0.005 0.005c1.114-1.109 2.25-2.196 3.491-3.339l0.22-0.204-0.066 0.294-0.157 0.815c-0.364 1.586-0.759 3.16-0.987 3.871-0.186 0.688-0.36 1.282-0.516 1.748l-0.021 0.072c-0.064 0.19-0.133 0.378-0.183 0.494-0.030 0.072-0.052 0.128-0.072 0.168l-0.028 0.054-0.005 0.009c-0.347 0.593-0.991 0.991-1.727 0.991-0.368 0-0.713-0.099-1-0.268zM27.392 11.732l0.005-0.003c-0.017 0.010-0.035 0.019-0.059 0.031l0.065-0.025c-0.238 0.102-0.481 0.196-0.799 0.301-0.466 0.156-1.060 0.33-1.75 0.516l0.85-0.197c-1.561 0.425-3.134 0.82-5.534 1.341l-0.294 0.066 0.204-0.222 0.077-0.084c1.065-1.156 2.153-2.29 3.257-3.4l0.001-0.001c0.419-0.422 0.85-0.832 1.321-1.257l-0.010 0.009c0.191-0.17 0.388-0.332 0.616-0.505l0.050-0.034-0.010 0.005c0.294-0.17 0.635-0.267 0.998-0.267 1.105 0 2 0.895 2 2 0 0.732-0.393 1.372-0.988 1.725zM23 3.876c0.602 0.352 1 0.996 1 1.732 0 0.368-0.099 0.713-0.273 1.009l0.005-0.009-0.034 0.050c-0.173 0.228-0.335 0.425-0.505 0.616l0.009-0.010c-0.425 0.471-0.836 0.901-1.257 1.321l-0.001 0.001c-1.109 1.105-2.244 2.192-3.4 3.257l-0.084 0.077-0.222 0.204 0.066-0.294c0.521-2.4 0.916-3.973 1.341-5.534l-0.197 0.85c0.186-0.69 0.36-1.284 0.516-1.75 0.105-0.319 0.199-0.562 0.301-0.8l-0.025 0.066 0.028-0.054c0.352-0.602 0.996-1 1.732-1 0.368 0 0.713 0.099 1.009 0.273l-0.009-0.005zM28 18l-0.062-0.004-0.050-0.005c-0.266-0.034-0.528-0.079-0.722-0.123-0.482-0.098-1.084-0.244-1.774-0.426-1.376-0.364-3.028-0.856-4.628-1.352l-0.288-0.090 0.288-0.090c1.602-0.496 3.252-0.988 4.628-1.352 0.69-0.182 1.292-0.328 1.776-0.426l-0.065 0.012c0.259-0.055 0.521-0.1 0.837-0.14l0.060-0.004c1.105 0 2 0.895 2 2s-0.895 2-2 2zM3.876 9l0.005-0.009c0.347-0.593 0.991-0.991 1.727-0.991 0.368 0 0.713 0.1 1 0.268l0.050 0.034 0.025 0.018c0.204 0.155 0.402 0.317 0.583 0.478l0.029 0.026c0.441 0.399 0.871 0.809 1.291 1.232l-0.005-0.005c1.108 1.113 2.195 2.248 3.337 3.489l0.206 0.222-0.294-0.066-0.819-0.158c-1.586-0.364-3.16-0.759-3.867-0.986-0.688-0.186-1.282-0.36-1.748-0.516-0.234-0.078-0.422-0.146-0.566-0.206l-0.168-0.070-0.010-0.005c-0.621-0.339-1.043-0.999-1.043-1.756 0-0.368 0.099-0.712 0.267-0.998zM8.268 6.608c-0.176-0.292-0.28-0.644-0.28-1.020 0-1.105 0.895-2 2-2 0.765 0 1.43 0.43 1.767 1.061l0.005 0.011c0.020 0.040 0.042 0.096 0.072 0.168 0.058 0.144 0.126 0.332 0.204 0.566 0.156 0.466 0.33 1.060 0.516 1.75 0.372 1.374 0.774 3.048 1.144 4.684l0.066 0.294-0.22-0.204c-1.241-1.142-2.376-2.23-3.491-3.339l0.005 0.005c-0.423-0.421-0.834-0.851-1.232-1.291l-0.026-0.029c-0.161-0.181-0.323-0.379-0.478-0.583l-0.018-0.025-0.034-0.050zM28.124 23c-0.352 0.602-0.996 1-1.732 1-0.368 0-0.713-0.099-1.009-0.273l0.009 0.005-0.050-0.034c-0.228-0.173-0.425-0.335-0.616-0.505l0.010 0.009c-0.471-0.425-0.901-0.835-1.321-1.257l-0.001-0.001c-1.105-1.109-2.192-2.244-3.257-3.4l-0.077-0.084-0.204-0.222 0.294 0.066c1.636 0.37 3.31 0.772 4.684 1.144 0.69 0.186 1.284 0.36 1.75 0.516 0.318 0.105 0.561 0.198 0.799 0.301l-0.065-0.025c0.633 0.344 1.055 1.004 1.055 1.762 0 0.367-0.099 0.711-0.272 1.007l0.005-0.009zM20.268 27.392l0.003 0.006c-0.010-0.017-0.019-0.035-0.031-0.060l0.025 0.065c-0.103-0.238-0.196-0.481-0.301-0.799-0.156-0.466-0.33-1.060-0.516-1.75l0.197 0.85c-0.425-1.561-0.82-3.134-1.341-5.534l-0.066-0.294 0.222 0.204 0.084 0.076c1.156 1.065 2.291 2.153 3.4 3.258l0.001 0.001c0.422 0.419 0.832 0.85 1.257 1.321l-0.009-0.010c0.17 0.191 0.332 0.388 0.505 0.616l0.034 0.050-0.005-0.010c0.17 0.294 0.267 0.635 0.267 0.998 0 1.105-0.895 2-2 2-0.732 0-1.372-0.393-1.725-0.988zM16 19v0c-1.657 0-3-1.343-3-3s1.343-3 3-3v0c1.657 0 3 1.343 3 3s-1.343 3-3 3z"></path>
</svg>
