<!-- Generated by IcoMoon.io -->
<svg version="1.1" xmlns="http://www.w3.org/2000/svg" width="32" height="32" viewBox="0 0 32 32">
<title>flower2</title>
<path d="M16 32c4.418 0 8-3.582 8-8v0c4.418 0 8-3.582 8-8s-3.582-8-8-8v0c0-4.418-3.582-8-8-8s-8 3.582-8 8v0c-4.418 0-8 3.582-8 8s3.582 8 8 8v0c0 4.418 3.582 8 8 8v0zM22 8c0-3.314-2.686-6-6-6s-6 2.686-6 6v0c0 0.146 0.020 0.31 0.060 0.494 1.088 0.482 2.182 1.276 3.196 2.168 0.794-0.417 1.735-0.662 2.733-0.662 0.004 0 0.007 0 0.011 0h-0.001c0.988 0 1.92 0.24 2.744 0.662 1.014-0.892 2.108-1.686 3.196-2.168 0.040-0.184 0.060-0.348 0.060-0.494zM20.376 20.104c1.006-1.068 1.624-2.51 1.624-4.097 0-0.002 0-0.005 0-0.007v0c0-0.002 0-0.005 0-0.007 0-1.587-0.618-3.030-1.627-4.1l0.003 0.003c0.43-0.36 0.864-0.692 1.294-0.974 1.010-0.66 1.794-0.922 2.33-0.922 3.314 0 6 2.686 6 6s-2.686 6-6 6v0c-0.536 0-1.32-0.26-2.33-0.922-0.489-0.326-0.911-0.647-1.313-0.99l0.019 0.016zM13.256 21.338c0.797 0.418 1.742 0.664 2.744 0.664s1.947-0.246 2.777-0.68l-0.033 0.016c1.014 0.892 2.108 1.684 3.196 2.168 0.040 0.182 0.060 0.348 0.060 0.494 0 3.314-2.686 6-6 6s-6-2.686-6-6v0c0-0.146 0.020-0.31 0.060-0.494 1.088-0.484 2.182-1.276 3.196-2.168zM11.624 11.896c-1.006 1.068-1.624 2.51-1.624 4.097 0 0.002 0 0.005 0 0.007v-0c0 1.588 0.616 3.032 1.624 4.104-0.383 0.327-0.805 0.648-1.245 0.943l-0.049 0.031c-1.010 0.66-1.794 0.922-2.33 0.922-3.314 0-6-2.686-6-6s2.686-6 6-6v0c0.536 0 1.32 0.26 2.33 0.922 0.43 0.282 0.864 0.612 1.294 0.974zM16 18c-1.105 0-2-0.895-2-2s0.895-2 2-2v0c1.105 0 2 0.895 2 2s-0.895 2-2 2v0z"></path>
</svg>
