<!-- Generated by IcoMoon.io -->
<svg version="1.1" xmlns="http://www.w3.org/2000/svg" width="32" height="32" viewBox="0 0 32 32">
<title>folder2</title>
<path d="M2 7c0-1.657 1.343-3 3-3v0h5.528c1.916 0 3.52 1.12 4.622 2.368 0.82 0.928 1.81 1.632 2.85 1.632h9c1.657 0 3 1.343 3 3v0 14c0 1.657-1.343 3-3 3v0h-22c-1.657 0-3-1.343-3-3v0-18zM5 6c-0.552 0-1 0.448-1 1v0 5h24v-1c0-0.552-0.448-1-1-1v0h-9c-1.928 0-3.42-1.258-4.348-2.308-0.904-1.024-2.012-1.692-3.124-1.692h-5.528zM28 14h-24v11c0 0.552 0.448 1 1 1v0h22c0.552 0 1-0.448 1-1v0-11z"></path>
</svg>
