<!-- Generated by IcoMoon.io -->
<svg version="1.1" xmlns="http://www.w3.org/2000/svg" width="32" height="32" viewBox="0 0 32 32">
<title>gear</title>
<path d="M17.674 3.252c-0.492-1.67-2.856-1.67-3.348 0l-0.188 0.638c-0.473 1.566-1.902 2.686-3.593 2.686-0.657 0-1.274-0.169-1.81-0.466l0.019 0.010-0.584-0.32c-1.528-0.83-3.2 0.84-2.368 2.37l0.318 0.584c0.287 0.517 0.456 1.135 0.456 1.791 0 1.691-1.12 3.12-2.659 3.586l-0.027 0.007-0.638 0.188c-1.67 0.492-1.67 2.856 0 3.348l0.638 0.188c1.566 0.472 2.687 1.902 2.687 3.593 0 0.657-0.169 1.275-0.467 1.812l0.010-0.019-0.32 0.582c-0.83 1.528 0.84 3.2 2.37 2.368l0.584-0.318c0.517-0.287 1.134-0.456 1.791-0.456 1.692 0 3.121 1.121 3.587 2.661l0.007 0.027 0.188 0.636c0.492 1.67 2.856 1.67 3.348 0l0.188-0.638c0.472-1.566 1.902-2.687 3.593-2.687 0.657 0 1.275 0.169 1.812 0.467l-0.019-0.010 0.582 0.32c1.528 0.83 3.2-0.84 2.368-2.37l-0.318-0.582c-0.287-0.518-0.457-1.135-0.457-1.792 0-1.692 1.122-3.122 2.662-3.587l0.027-0.007 0.636-0.188c1.67-0.492 1.67-2.856 0-3.348l-0.638-0.188c-1.566-0.473-2.686-1.902-2.686-3.593 0-0.657 0.169-1.274 0.466-1.81l-0.010 0.019 0.32-0.584c0.83-1.528-0.84-3.2-2.37-2.368l-0.582 0.318c-0.518 0.288-1.137 0.458-1.795 0.458-1.692 0-3.121-1.121-3.587-2.661l-0.007-0.027-0.188-0.638zM12.408 2.686c1.054-3.58 6.13-3.58 7.184 0l0.188 0.638c0.22 0.73 0.886 1.253 1.675 1.253 0.306 0 0.594-0.079 0.844-0.217l-0.009 0.005 0.584-0.32c3.28-1.784 6.868 1.802 5.080 5.082l-0.318 0.584c-0.134 0.241-0.213 0.529-0.213 0.835 0 0.788 0.523 1.455 1.24 1.672l0.012 0.003 0.638 0.188c3.58 1.054 3.58 6.13 0 7.184l-0.638 0.188c-0.73 0.22-1.253 0.886-1.253 1.675 0 0.306 0.079 0.594 0.217 0.844l-0.005-0.009 0.32 0.584c1.786 3.28-1.804 6.868-5.082 5.080l-0.584-0.318c-0.241-0.134-0.529-0.213-0.835-0.213-0.788 0-1.455 0.523-1.672 1.24l-0.003 0.012-0.188 0.638c-1.054 3.58-6.13 3.58-7.184 0l-0.188-0.638c-0.22-0.73-0.886-1.253-1.675-1.253-0.306 0-0.594 0.079-0.844 0.217l0.009-0.005-0.584 0.32c-3.28 1.786-6.866-1.804-5.080-5.082l0.318-0.584c0.134-0.241 0.213-0.529 0.213-0.835 0-0.788-0.523-1.455-1.24-1.672l-0.012-0.003-0.638-0.188c-3.58-1.054-3.58-6.13 0-7.184l0.638-0.188c0.73-0.22 1.253-0.886 1.253-1.675 0-0.306-0.079-0.594-0.217-0.844l0.005 0.009-0.32-0.584c-1.784-3.28 1.804-6.866 5.082-5.080l0.584 0.318c0.241 0.134 0.529 0.213 0.835 0.213 0.788 0 1.455-0.523 1.672-1.24l0.003-0.012 0.188-0.638z"></path>
<path d="M16 11.508c-2.481 0-4.492 2.011-4.492 4.492s2.011 4.492 4.492 4.492v0c2.481 0 4.492-2.011 4.492-4.492s-2.011-4.492-4.492-4.492v0zM9.508 16c0-3.585 2.907-6.492 6.492-6.492s6.492 2.907 6.492 6.492v0c0 3.585-2.907 6.492-6.492 6.492s-6.492-2.907-6.492-6.492v0z"></path>
</svg>
