<!-- Generated by IcoMoon.io -->
<svg version="1.1" xmlns="http://www.w3.org/2000/svg" width="32" height="32" viewBox="0 0 32 32">
<title>gem</title>
<path d="M6.2 1.4c0.184-0.244 0.474-0.4 0.8-0.4v0h18c0.326 0 0.616 0.156 0.798 0.398l0.002 0.002 5.952 7.948c0.298 0.37 0.312 0.9 0.020 1.288l-14.972 19.964c-0.184 0.244-0.474 0.4-0.8 0.4s-0.616-0.156-0.798-0.398l-0.002-0.003-15-20c-0.125-0.165-0.2-0.374-0.2-0.6s0.075-0.435 0.202-0.603l-0.002 0.002 6-8zM28.972 8.97l-3.612-4.82-1.552 4.826 5.164-0.006zM21.706 8.978l1.922-5.978h-15.256l1.926 5.99 11.408-0.012zM10.94 10.99l10.124-0.010-5.064 15.752-5.060-15.742zM8.198 8.992l-1.56-4.844-3.636 4.85 5.196-0.006zM2.998 11l5.84-0.006 4.386 13.64-10.224-13.634zM18.776 24.634l4.388-13.656 5.858-0.006-10.246 13.662z"></path>
</svg>
