<!-- Generated by IcoMoon.io -->
<svg version="1.1" xmlns="http://www.w3.org/2000/svg" width="32" height="32" viewBox="0 0 32 32">
<title>globe2</title>
<path d="M2.036 15l0.003-0.045c0.198-2.743 1.19-5.267 2.721-7.305l-0.094-0.048c0.98 0.539 2.016 0.991 3.224 1.382-0.496 1.842-0.8 3.876-0.874 6.016h-4.98zM6.102 6.1l0-0c1.269-1.27 2.78-2.299 4.55-3.044l0.023-0.032c-0.441 0.574-0.837 1.184-1.217 1.898-0.354 0.668-0.678 1.388-0.962 2.156-0.87-0.282-1.672-0.612-2.396-0.98zM16 0v0c8.837 0 16 7.163 16 16s-7.163 16-16 16v0c-8.837 0-16-7.163-16-16s7.163-16 16-16zM15 2.154c-1.34 0.408-2.67 1.64-3.774 3.71-0.286 0.536-0.552 1.12-0.79 1.744 1.41 0.314 2.946 0.514 4.564 0.574v-6.028zM15 10.182c-1.82-0.060-3.566-0.29-5.182-0.664-0.446 1.626-0.734 3.505-0.799 5.441l-0.001 0.041h5.982v-4.818zM17 15h5.982c-0.072-1.974-0.354-3.828-0.8-5.482-1.616 0.374-3.362 0.604-5.182 0.664v4.818zM15 17h-5.98c0.070 1.974 0.352 3.828 0.798 5.482 1.534-0.365 3.314-0.603 5.139-0.661l0.043-0.001v-4.82zM17 21.82l0.043 0.001c1.825 0.058 3.606 0.296 5.139 0.661l-0.040 0.173c0.485-1.799 0.772-3.678 0.838-5.655h-5.98v4.818zM15 23.818c-1.62 0.060-3.154 0.26-4.564 0.574 0.24 0.624 0.504 1.208 0.79 1.744 1.104 2.070 2.436 3.3 3.774 3.71v-6.026zM10.654 28.944c-0.418-0.542-0.814-1.153-1.159-1.795l-0.035-0.071c-0.321-0.589-0.645-1.3-0.922-2.034l-0.040-0.122c-0.939 0.304-1.731 0.636-2.49 1.024l0.094-0.044c1.269 1.269 2.781 2.296 4.46 3.005l0.092 0.035zM4.76 24.35c0.94-0.516 1.99-0.964 3.13-1.334-0.492-1.785-0.807-3.849-0.873-5.975l-0.001-0.041h-4.98c0.2 2.788 1.192 5.312 2.75 7.386l-0.026-0.036zM21.346 28.944c1.77-0.745 3.281-1.772 4.55-3.042l0-0c-0.664-0.344-1.456-0.676-2.276-0.946l-0.118-0.034c-0.317 0.856-0.641 1.567-1.008 2.251l0.046-0.095c-0.38 0.713-0.776 1.324-1.217 1.897l0.023-0.031zM21.566 24.392c-1.348-0.31-2.917-0.515-4.523-0.571l-0.043-0.001v6.028c1.34-0.408 2.67-1.64 3.774-3.71 0.286-0.536 0.552-1.12 0.79-1.744zM24.11 23.016c1.14 0.37 2.19 0.818 3.13 1.334 1.532-2.038 2.524-4.562 2.721-7.305l0.003-0.045h-4.98c-0.067 2.167-0.382 4.23-0.917 6.203l0.043-0.187zM24.984 15h4.98c-0.2-2.788-1.192-5.312-2.75-7.386l0.026 0.036c-0.94 0.516-1.99 0.964-3.13 1.334 0.496 1.84 0.8 3.876 0.874 6.016zM23.502 7.078l0.118-0.034c0.82-0.27 1.612-0.602 2.276-0.946-1.29-1.292-2.836-2.332-4.55-3.042l-0.023-0.031c0.441 0.574 0.837 1.184 1.217 1.898l-0.046-0.094c0.368 0.684 0.693 1.396 1.010 2.252zM21.564 7.608c-0.238-0.624-0.504-1.208-0.79-1.744-1.104-2.070-2.434-3.302-3.774-3.71v6.028c1.618-0.060 3.154-0.26 4.564-0.574z"></path>
</svg>
