<!-- Generated by IcoMoon.io -->
<svg version="1.1" xmlns="http://www.w3.org/2000/svg" width="32" height="32" viewBox="0 0 32 32">
<title>grid-1x2-fill</title>
<path d="M0 2c0-1.105 0.895-2 2-2v0h10c1.105 0 2 0.895 2 2v0 28c0 1.105-0.895 2-2 2v0h-10c-1.105 0-2-0.895-2-2v0-28zM18 2c0-1.105 0.895-2 2-2v0h10c1.105 0 2 0.895 2 2v0 10c0 1.105-0.895 2-2 2v0h-10c-1.105 0-2-0.895-2-2v0-10zM18 20c0-1.105 0.895-2 2-2v0h10c1.105 0 2 0.895 2 2v0 10c0 1.105-0.895 2-2 2v0h-10c-1.105 0-2-0.895-2-2v0-10z"></path>
</svg>
