<!-- Generated by IcoMoon.io -->
<svg version="1.1" xmlns="http://www.w3.org/2000/svg" width="32" height="32" viewBox="0 0 32 32">
<title>grid-3x3</title>
<path d="M0 3c0-1.657 1.343-3 3-3v0h26c1.657 0 3 1.343 3 3v0 26c0 1.657-1.343 3-3 3v0h-26c-1.657 0-3-1.343-3-3v0-26zM3 2c-0.552 0-1 0.448-1 1v0 7h8v-8h-7zM10 12h-8v8h8v-8zM12 20v-8h8v8h-8zM10 22h-8v7c0 0.552 0.448 1 1 1v0h7v-8zM12 22h8v8h-8v-8zM22 22v8h7c0.552 0 1-0.448 1-1v0-7h-8zM22 20h8v-8h-8v8zM22 10h8v-7c0-0.552-0.448-1-1-1v0h-7v8zM20 10h-8v-8h8v8z"></path>
</svg>
