<!-- Generated by IcoMoon.io -->
<svg version="1.1" xmlns="http://www.w3.org/2000/svg" width="32" height="32" viewBox="0 0 32 32">
<title>grid-fill</title>
<path d="M2 5c0-1.657 1.343-3 3-3v0h6c1.657 0 3 1.343 3 3v0 6c0 1.657-1.343 3-3 3v0h-6c-1.657 0-3-1.343-3-3v0-6zM18 5c0-1.657 1.343-3 3-3v0h6c1.657 0 3 1.343 3 3v0 6c0 1.657-1.343 3-3 3v0h-6c-1.657 0-3-1.343-3-3v0-6zM2 21c0-1.657 1.343-3 3-3v0h6c1.657 0 3 1.343 3 3v0 6c0 1.657-1.343 3-3 3v0h-6c-1.657 0-3-1.343-3-3v0-6zM18 21c0-1.657 1.343-3 3-3v0h6c1.657 0 3 1.343 3 3v0 6c0 1.657-1.343 3-3 3v0h-6c-1.657 0-3-1.343-3-3v0-6z"></path>
</svg>
