<!-- Generated by IcoMoon.io -->
<svg version="1.1" xmlns="http://www.w3.org/2000/svg" width="32" height="32" viewBox="0 0 32 32">
<title>hammer</title>
<path d="M19.624 3.904c0.229 0.185 0.374 0.465 0.374 0.78 0 0.552-0.447 0.999-0.998 1h-0c-3.342 0-5.704 1.192-7.232 2.37l-2.054 2.092v2.274c0 0.001 0 0.001 0 0.002 0 0.276-0.112 0.525-0.292 0.706l-2.572 2.578c-0.181 0.181-0.431 0.294-0.708 0.294s-0.527-0.112-0.708-0.294l-5.142-5.158c-0.18-0.181-0.292-0.43-0.292-0.706s0.111-0.525 0.292-0.706l2.572-2.58c0.181-0.18 0.43-0.292 0.706-0.292 0.001 0 0.001 0 0.002 0h2.108c3.33-3.808 6.752-4.54 9.434-4.184 1.568 0.221 2.973 0.774 4.191 1.587l-0.037-0.023 0.356 0.258z"></path>
<path d="M12.024 7c0.285 0.007 0.54 0.133 0.717 0.329l0.001 0.001 18.292 17.292c0.16 0.177 0.259 0.412 0.259 0.671 0 0.276-0.112 0.526-0.293 0.707l-3 3c-0.181 0.181-0.431 0.294-0.708 0.294-0.329 0-0.62-0.158-0.802-0.403l-0.002-0.003-17.292-18.294c-0.122-0.164-0.196-0.37-0.196-0.594 0-0.276 0.111-0.525 0.292-0.706l2-2c0.181-0.182 0.432-0.294 0.709-0.294 0.008 0 0.017 0 0.025 0l-0.001-0z"></path>
</svg>
