<!-- Generated by IcoMoon.io -->
<svg version="1.1" xmlns="http://www.w3.org/2000/svg" width="32" height="32" viewBox="0 0 32 32">
<title>handbag-fill</title>
<path d="M16 2c-2.209 0-4 1.791-4 4v0 4h-2v-4c0-3.314 2.686-6 6-6s6 2.686 6 6v0 4h-2v-4c0-2.209-1.791-4-4-4v0z"></path>
<path d="M6.81 10c-0 0-0.001 0-0.001 0-1.551 0-2.827 1.177-2.984 2.687l-0.001 0.013-1.824 13.804c-0.016 0.149-0.025 0.321-0.025 0.496 0 2.761 2.239 5 5 5 0 0 0 0 0.001 0h18.048c0 0 0.001 0 0.001 0 2.761 0 5-2.239 5-5 0-0.175-0.009-0.349-0.027-0.519l0.002 0.021-1.824-13.8c-0.157-1.524-1.433-2.702-2.985-2.702-0 0-0.001 0-0.001 0h-3.19v5c0 0.552-0.448 1-1 1s-1-0.448-1-1v0-5h-8v5c0 0.552-0.448 1-1 1s-1-0.448-1-1v0-5h-3.19z"></path>
</svg>
