<!-- Generated by IcoMoon.io -->
<svg version="1.1" xmlns="http://www.w3.org/2000/svg" width="32" height="32" viewBox="0 0 32 32">
<title>hdd-stack-fill</title>
<path d="M4 18c-2.209 0-4 1.791-4 4v0 2c0 2.209 1.791 4 4 4v0h24c2.209 0 4-1.791 4-4v0-2c0-2.209-1.791-4-4-4v0h-24zM5 24c0.552 0 1-0.448 1-1s-0.448-1-1-1v0c-0.552 0-1 0.448-1 1s0.448 1 1 1v0zM9 24c0.552 0 1-0.448 1-1s-0.448-1-1-1v0c-0.552 0-1 0.448-1 1s0.448 1 1 1v0zM4 4c-2.209 0-4 1.791-4 4v0 2c0 2.209 1.791 4 4 4v0h24c2.209 0 4-1.791 4-4v0-2c0-2.209-1.791-4-4-4v0h-24zM5 10c0.552 0 1-0.448 1-1s-0.448-1-1-1v0c-0.552 0-1 0.448-1 1s0.448 1 1 1v0zM9 10c0.552 0 1-0.448 1-1s-0.448-1-1-1v0c-0.552 0-1 0.448-1 1s0.448 1 1 1v0z"></path>
</svg>
