<!-- Generated by IcoMoon.io -->
<svg version="1.1" xmlns="http://www.w3.org/2000/svg" width="32" height="32" viewBox="0 0 32 32">
<title>hdd-fill</title>
<path d="M0 20c0-2.209 1.791-4 4-4v0h24c2.209 0 4 1.791 4 4v0 2c0 2.209-1.791 4-4 4v0h-24c-2.209 0-4-1.791-4-4v0-2zM5 22c0.552 0 1-0.448 1-1s-0.448-1-1-1v0c-0.552 0-1 0.448-1 1s0.448 1 1 1v0zM9 22c0.552 0 1-0.448 1-1s-0.448-1-1-1v0c-0.552 0-1 0.448-1 1s0.448 1 1 1v0z"></path>
<path d="M1.82 14.408c0.644-0.258 1.391-0.408 2.172-0.408 0.003 0 0.006 0 0.008 0h24c0.768 0 1.504 0.144 2.18 0.408l-3.734-6.844c-0.519-0.939-1.504-1.564-2.634-1.564 0 0 0 0 0 0h-15.624c0 0 0 0 0 0-1.13 0-2.115 0.625-2.626 1.549l-0.008 0.015-3.734 6.844z"></path>
</svg>
