<!-- Generated by IcoMoon.io -->
<svg version="1.1" xmlns="http://www.w3.org/2000/svg" width="32" height="32" viewBox="0 0 32 32">
<title>hdd-network</title>
<path d="M28 6v0c1.105 0 2 0.895 2 2v2c0 1.105-0.895 2-2 2h-24c-1.105 0-2-0.895-2-2v-2c0-1.105 0.895-2 2-2h24zM4 4c-2.209 0-4 1.791-4 4v0 2c0 2.209 1.791 4 4 4v0h24c2.209 0 4-1.791 4-4v0-2c0-2.209-1.791-4-4-4v0h-24z"></path>
<path d="M10 9c0 0.552-0.448 1-1 1s-1-0.448-1-1v0c0-0.552 0.448-1 1-1s1 0.448 1 1v0zM6 9c0 0.552-0.448 1-1 1s-1-0.448-1-1v0c0-0.552 0.448-1 1-1s1 0.448 1 1v0z"></path>
<path d="M15 20v-6h2v6c1.657 0 3 1.343 3 3v0h11c0.552 0 1 0.448 1 1s-0.448 1-1 1v0h-11c0 1.657-1.343 3-3 3v0h-2c-1.657 0-3-1.343-3-3v0h-11c-0.552 0-1-0.448-1-1s0.448-1 1-1v0h11c0-1.657 1.343-3 3-3v0zM15 22c-0.552 0-1 0.448-1 1v0 2c0 0.552 0.448 1 1 1v0h2c0.552 0 1-0.448 1-1v0-2c0-0.552-0.448-1-1-1v0h-2z"></path>
</svg>
