<!-- Generated by IcoMoon.io -->
<svg version="1.1" xmlns="http://www.w3.org/2000/svg" width="32" height="32" viewBox="0 0 32 32">
<title>hdd</title>
<path d="M28 18v0c1.105 0 2 0.895 2 2v2c0 1.105-0.895 2-2 2h-24c-1.105 0-2-0.895-2-2v-2c0-1.105 0.895-2 2-2h24zM4 16c-2.209 0-4 1.791-4 4v0 2c0 2.209 1.791 4 4 4v0h24c2.209 0 4-1.791 4-4v0-2c0-2.209-1.791-4-4-4v0h-24z"></path>
<path d="M10 21c0 0.552-0.448 1-1 1s-1-0.448-1-1v0c0-0.552 0.448-1 1-1s1 0.448 1 1v0zM6 21c0 0.552-0.448 1-1 1s-1-0.448-1-1v0c0-0.552 0.448-1 1-1s1 0.448 1 1v0z"></path>
<path d="M8.188 8c-0.001 0-0.002 0-0.003 0-0.376 0-0.704 0.208-0.875 0.515l-0.003 0.005-4.94 9.064c-0.231 0.415-0.367 0.909-0.368 1.436v1.98h-2v-1.98c0-0.836 0.21-1.66 0.61-2.394l4.944-9.062c0.519-0.939 1.504-1.564 2.634-1.564 0 0 0 0 0 0h15.624c0 0 0 0 0 0 1.13 0 2.115 0.625 2.626 1.549l0.008 0.015 4.944 9.060c0.4 0.736 0.61 1.56 0.61 2.396v1.98h-2v-1.98c0 0 0 0 0-0 0-0.526-0.136-1.021-0.374-1.451l0.008 0.015-4.944-9.064c-0.173-0.312-0.501-0.52-0.877-0.52-0 0-0 0-0.001 0h-15.624z"></path>
</svg>
