<!-- Generated by IcoMoon.io -->
<svg version="1.1" xmlns="http://www.w3.org/2000/svg" width="32" height="32" viewBox="0 0 32 32">
<title>image-alt</title>
<path d="M21.296 13.292c0.181-0.18 0.43-0.292 0.706-0.292 0.163 0 0.317 0.039 0.454 0.109l-0.006-0.003 9.554 7.894v9c0 1.105-0.895 2-2 2v0h-28c-1.105 0-2-0.895-2-2v0-4l7.292-8.708c0.181-0.18 0.43-0.292 0.706-0.292 0.207 0 0.398 0.063 0.558 0.17l-0.004-0.002 5.32 5.546 7.42-9.42z"></path>
<path d="M9 10c2.761 0 5-2.239 5-5s-2.239-5-5-5v0c-2.761 0-5 2.239-5 5s2.239 5 5 5v0z"></path>
</svg>
