<!-- Generated by IcoMoon.io -->
<svg version="1.1" xmlns="http://www.w3.org/2000/svg" width="32" height="32" viewBox="0 0 32 32">
<title>intersect</title>
<path d="M0 4c0-2.209 1.791-4 4-4v0h16c2.209 0 4 1.791 4 4v0 4h4c2.209 0 4 1.791 4 4v0 16c0 2.209-1.791 4-4 4v0h-16c-2.209 0-4-1.791-4-4v0-4h-4c-2.209 0-4-1.791-4-4v0-16zM10 24v4c0 1.105 0.895 2 2 2v0h16c1.105 0 2-0.895 2-2v0-16c0-1.105-0.895-2-2-2v0h-4v10c0 2.209-1.791 4-4 4v0h-10zM22 8v-4c0-1.105-0.895-2-2-2h-16c-1.105 0-2 0.895-2 2v16c0 1.105 0.895 2 2 2h4v-10c0-2.209 1.791-4 4-4h10z"></path>
</svg>
