<!-- Generated by IcoMoon.io -->
<svg version="1.1" xmlns="http://www.w3.org/2000/svg" width="32" height="32" viewBox="0 0 32 32">
<title>journal-minus</title>
<path d="M8 2h10v2h-10c-1.105 0-2 0.895-2 2v0h-2c0-2.209 1.791-4 4-4v0zM28 16v10c0 2.209-1.791 4-4 4v0h-16c-2.209 0-4-1.791-4-4v0h2c0 1.105 0.895 2 2 2v0h16c1.105 0 2-0.895 2-2v0-10h2zM4 10v-1c0-0.552 0.448-1 1-1s1 0.448 1 1v0 1h1c0.552 0 1 0.448 1 1s-0.448 1-1 1v0h-4c-0.552 0-1-0.448-1-1s0.448-1 1-1v0h1zM4 16v-1c0-0.552 0.448-1 1-1s1 0.448 1 1v0 1h1c0.552 0 1 0.448 1 1s-0.448 1-1 1v0h-4c-0.552 0-1-0.448-1-1s0.448-1 1-1v0h1zM4 22v-1c0-0.552 0.448-1 1-1s1 0.448 1 1v0 1h1c0.552 0 1 0.448 1 1s-0.448 1-1 1v0h-4c-0.552 0-1-0.448-1-1s0.448-1 1-1v0h1z"></path>
<path d="M22 7c0-0.552 0.448-1 1-1v0h8c0.552 0 1 0.448 1 1s-0.448 1-1 1v0h-8c-0.552 0-1-0.448-1-1v0z"></path>
</svg>
