<!-- Generated by IcoMoon.io -->
<svg version="1.1" xmlns="http://www.w3.org/2000/svg" width="32" height="32" viewBox="0 0 32 32">
<title>journal-richtext</title>
<path d="M8 2h16c2.209 0 4 1.791 4 4v0 20c0 2.209-1.791 4-4 4v0h-16c-2.209 0-4-1.791-4-4v0h2c0 1.105 0.895 2 2 2v0h16c1.105 0 2-0.895 2-2v0-20c0-1.105-0.895-2-2-2v0h-16c-1.105 0-2 0.895-2 2v0h-2c0-2.209 1.791-4 4-4v0z"></path>
<path d="M4 10v-1c0-0.552 0.448-1 1-1s1 0.448 1 1v0 1h1c0.552 0 1 0.448 1 1s-0.448 1-1 1v0h-4c-0.552 0-1-0.448-1-1s0.448-1 1-1v0h1zM4 16v-1c0-0.552 0.448-1 1-1s1 0.448 1 1v0 1h1c0.552 0 1 0.448 1 1s-0.448 1-1 1v0h-4c-0.552 0-1-0.448-1-1s0.448-1 1-1v0h1zM4 22v-1c0-0.552 0.448-1 1-1s1 0.448 1 1v0 1h1c0.552 0 1 0.448 1 1s-0.448 1-1 1v0h-4c-0.552 0-1-0.448-1-1s0.448-1 1-1v0h1z"></path>
<path d="M10 23c0-0.552 0.448-1 1-1v0h4c0.552 0 1 0.448 1 1s-0.448 1-1 1v0h-4c-0.552 0-1-0.448-1-1v0zM10 19c0-0.552 0.448-1 1-1v0h10c0.552 0 1 0.448 1 1s-0.448 1-1 1v0h-10c-0.552 0-1-0.448-1-1v0zM13.278 10.584l2.66 1.772 3.708-3.71c0.091-0.091 0.216-0.147 0.354-0.147 0.082 0 0.159 0.020 0.227 0.054l-0.003-0.001 1.776 0.948v4.5c0 0.552-0.448 1-1 1v0h-10c-0.552 0-1-0.448-1-1v0-1s3.080-2.548 3.278-2.416zM13.5 9c0.828 0 1.5-0.672 1.5-1.5s-0.672-1.5-1.5-1.5v0c-0.828 0-1.5 0.672-1.5 1.5s0.672 1.5 1.5 1.5v0z"></path>
</svg>
