<!-- Generated by IcoMoon.io -->
<svg version="1.1" xmlns="http://www.w3.org/2000/svg" width="32" height="32" viewBox="0 0 32 32">
<title>kanban</title>
<path d="M27 2v0c1.105 0 2 0.895 2 2v24c0 1.105-0.895 2-2 2h-22c-1.105 0-2-0.895-2-2v-24c0-1.105 0.895-2 2-2h22zM5 0c-2.209 0-4 1.791-4 4v0 24c0 2.209 1.791 4 4 4v0h22c2.209 0 4-1.791 4-4v0-24c0-2.209-1.791-4-4-4v0h-22z"></path>
<path d="M13 6c0-1.105 0.895-2 2-2v0h2c1.105 0 2 0.895 2 2v0 6c0 1.105-0.895 2-2 2v0h-2c-1.105 0-2-0.895-2-2v0-6zM5 6c0-1.105 0.895-2 2-2v0h2c1.105 0 2 0.895 2 2v0 14c0 1.105-0.895 2-2 2v0h-2c-1.105 0-2-0.895-2-2v0-14zM21 6c0-1.105 0.895-2 2-2v0h2c1.105 0 2 0.895 2 2v0 20c0 1.105-0.895 2-2 2v0h-2c-1.105 0-2-0.895-2-2v0-20z"></path>
</svg>
