<!-- Generated by IcoMoon.io -->
<svg version="1.1" xmlns="http://www.w3.org/2000/svg" width="32" height="32" viewBox="0 0 32 32">
<title>key</title>
<path d="M0 16c0-0.001 0-0.002 0-0.003 0-4.418 3.582-8 8-8 2.947 0 5.521 1.593 6.91 3.965l0.020 0.038h13.070c0.001 0 0.001 0 0.002 0 0.276 0 0.525 0.112 0.706 0.292l3 3c0.181 0.181 0.294 0.431 0.294 0.708s-0.112 0.527-0.294 0.708l-3 3c-0.181 0.181-0.431 0.294-0.708 0.294s-0.527-0.112-0.708-0.294l-0-0-1.292-1.294-1.292 1.294c-0.181 0.181-0.431 0.294-0.708 0.294s-0.527-0.112-0.708-0.294l-0-0-1.292-1.294-1.292 1.294c-0.181 0.181-0.431 0.294-0.708 0.294s-0.527-0.112-0.708-0.294l-0-0-1.292-1.294-1.292 1.294c-0.181 0.18-0.43 0.292-0.706 0.292-0.001 0-0.001 0-0.002 0h-1.070c-1.409 2.41-3.983 4.003-6.93 4.003-4.418 0-8-3.582-8-8 0-0.001 0-0.002 0-0.003v0zM8 10c-3.313 0.001-5.998 2.687-5.998 6s2.686 6 6 6c2.38 0 4.436-1.386 5.406-3.394l0.016-0.036c0.164-0.34 0.506-0.57 0.902-0.57h1.26l1.706-1.708c0.181-0.181 0.431-0.294 0.708-0.294s0.527 0.112 0.708 0.294l0 0 1.292 1.294 1.292-1.294c0.181-0.181 0.431-0.294 0.708-0.294s0.527 0.112 0.708 0.294l0 0 1.292 1.294 1.292-1.294c0.181-0.181 0.431-0.294 0.708-0.294s0.527 0.112 0.708 0.294l0 0 1.292 1.294 1.586-1.586-2-2h-13.26c-0.396-0-0.738-0.23-0.899-0.564l-0.003-0.006c-0.986-2.044-3.042-3.43-5.422-3.43-0.001 0-0.002 0-0.002 0h0z"></path>
<path d="M8 16c0 1.105-0.895 2-2 2s-2-0.895-2-2v0c0-1.105 0.895-2 2-2s2 0.895 2 2v0z"></path>
</svg>
