<!-- Generated by IcoMoon.io -->
<svg version="1.1" xmlns="http://www.w3.org/2000/svg" width="32" height="32" viewBox="0 0 32 32">
<title>keyboard</title>
<path d="M28 10v0c1.105 0 2 0.895 2 2v10c0 1.105-0.895 2-2 2h-24c-1.105 0-2-0.895-2-2v-10c0-1.105 0.895-2 2-2h24zM4 8c-2.209 0-4 1.791-4 4v0 10c0 2.209 1.791 4 4 4v0h24c2.209 0 4-1.791 4-4v0-10c0-2.209-1.791-4-4-4v0h-24z"></path>
<path d="M26 20.5c0-0.276 0.224-0.5 0.5-0.5v0h1c0.276 0 0.5 0.224 0.5 0.5v0 1c0 0.276-0.224 0.5-0.5 0.5v0h-1c-0.276 0-0.5-0.224-0.5-0.5v0-1zM26 16.5c0-0.276 0.224-0.5 0.5-0.5v0h1c0.276 0 0.5 0.224 0.5 0.5v0 1c0 0.276-0.224 0.5-0.5 0.5v0h-1c-0.276 0-0.5-0.224-0.5-0.5v0-1zM16 16.5c0-0.276 0.224-0.5 0.5-0.5v0h1c0.276 0 0.5 0.224 0.5 0.5v0 1c0 0.276-0.224 0.5-0.5 0.5v0h-1c-0.276 0-0.5-0.224-0.5-0.5v0-1zM20 16.5c0-0.276 0.224-0.5 0.5-0.5v0h3c0.276 0 0.5 0.224 0.5 0.5v0 1c0 0.276-0.224 0.5-0.5 0.5v0h-3c-0.276 0-0.5-0.224-0.5-0.5v0-1zM22 20.5c0-0.276 0.224-0.5 0.5-0.5v0h1c0.276 0 0.5 0.224 0.5 0.5v0 1c0 0.276-0.224 0.5-0.5 0.5v0h-1c-0.276 0-0.5-0.224-0.5-0.5v0-1zM12 16.5c0-0.276 0.224-0.5 0.5-0.5v0h1c0.276 0 0.5 0.224 0.5 0.5v0 1c0 0.276-0.224 0.5-0.5 0.5v0h-1c-0.276 0-0.5-0.224-0.5-0.5v0-1zM8 16.5c0-0.276 0.224-0.5 0.5-0.5v0h1c0.276 0 0.5 0.224 0.5 0.5v0 1c0 0.276-0.224 0.5-0.5 0.5v0h-1c-0.276 0-0.5-0.224-0.5-0.5v0-1zM4 16.5c0-0.276 0.224-0.5 0.5-0.5v0h1c0.276 0 0.5 0.224 0.5 0.5v0 1c0 0.276-0.224 0.5-0.5 0.5v0h-1c-0.276 0-0.5-0.224-0.5-0.5v0-1zM26 12.5c0-0.276 0.224-0.5 0.5-0.5v0h1c0.276 0 0.5 0.224 0.5 0.5v0 1c0 0.276-0.224 0.5-0.5 0.5v0h-1c-0.276 0-0.5-0.224-0.5-0.5v0-1zM22 12.5c0-0.276 0.224-0.5 0.5-0.5v0h1c0.276 0 0.5 0.224 0.5 0.5v0 1c0 0.276-0.224 0.5-0.5 0.5v0h-1c-0.276 0-0.5-0.224-0.5-0.5v0-1zM18 12.5c0-0.276 0.224-0.5 0.5-0.5v0h1c0.276 0 0.5 0.224 0.5 0.5v0 1c0 0.276-0.224 0.5-0.5 0.5v0h-1c-0.276 0-0.5-0.224-0.5-0.5v0-1zM14 12.5c0-0.276 0.224-0.5 0.5-0.5v0h1c0.276 0 0.5 0.224 0.5 0.5v0 1c0 0.276-0.224 0.5-0.5 0.5v0h-1c-0.276 0-0.5-0.224-0.5-0.5v0-1zM10 12.5c0-0.276 0.224-0.5 0.5-0.5v0h1c0.276 0 0.5 0.224 0.5 0.5v0 1c0 0.276-0.224 0.5-0.5 0.5v0h-1c-0.276 0-0.5-0.224-0.5-0.5v0-1zM4 12.5c0-0.276 0.224-0.5 0.5-0.5v0h3c0.276 0 0.5 0.224 0.5 0.5v0 1c0 0.276-0.224 0.5-0.5 0.5v0h-3c-0.276 0-0.5-0.224-0.5-0.5v0-1zM4 20.5c0-0.276 0.224-0.5 0.5-0.5v0h1c0.276 0 0.5 0.224 0.5 0.5v0 1c0 0.276-0.224 0.5-0.5 0.5v0h-1c-0.276 0-0.5-0.224-0.5-0.5v0-1zM8 20.5c0-0.276 0.224-0.5 0.5-0.5v0h11c0.276 0 0.5 0.224 0.5 0.5v0 1c0 0.276-0.224 0.5-0.5 0.5v0h-11c-0.276 0-0.5-0.224-0.5-0.5v0-1z"></path>
</svg>
