<!-- Generated by IcoMoon.io -->
<svg version="1.1" xmlns="http://www.w3.org/2000/svg" width="32" height="32" viewBox="0 0 32 32">
<title>lightning</title>
<path d="M22.502 0.136c0.3 0.176 0.498 0.498 0.498 0.865 0 0.105-0.016 0.207-0.046 0.302l0.002-0.007-3.602 11.704h6.646c0 0 0 0 0 0 0.552 0 1 0.448 1 1 0 0.266-0.104 0.507-0.273 0.686l0-0-16 17c-0.183 0.194-0.442 0.315-0.728 0.315-0.552 0-1-0.448-1-1 0-0.105 0.016-0.207 0.046-0.302l-0.002 0.007 3.602-11.706h-6.646c-0 0-0 0-0 0-0.552 0-1-0.448-1-1 0-0.266 0.104-0.507 0.273-0.686l-0 0 16-17c0.183-0.194 0.442-0.315 0.728-0.315 0.185 0 0.358 0.050 0.506 0.137l-0.005-0.003zM8.314 17h5.686c0 0 0 0 0 0 0.552 0 1 0.448 1 1 0 0.105-0.016 0.206-0.046 0.301l0.002-0.007-2.736 8.886 11.464-12.18h-5.684c-0 0-0 0-0 0-0.552 0-1-0.448-1-1 0-0.105 0.016-0.206 0.046-0.301l-0.002 0.007 2.736-8.886-11.466 12.18z"></path>
</svg>
