<!-- Generated by IcoMoon.io -->
<svg version="1.1" xmlns="http://www.w3.org/2000/svg" width="32" height="32" viewBox="0 0 32 32">
<title>link</title>
<path d="M12.708 11h-4.708c-3.314 0-6 2.686-6 6s2.686 6 6 6v0h6c0.001 0 0.002 0 0.003 0 3.314 0 6-2.686 6-6 0-0.717-0.126-1.404-0.356-2.042l0.013 0.042h-1.66c-0.172 0-0.34 0.020-0.5 0.062 0.315 0.559 0.501 1.227 0.501 1.938 0 2.209-1.791 4-4 4-0 0-0.001 0-0.001 0h-6c-2.209 0-4-1.791-4-4s1.791-4 4-4v0h3.070c0.436-0.752 0.99-1.428 1.64-2z"></path>
<path d="M18 11c-0.001 0-0.002 0-0.003 0-3.314 0-6 2.686-6 6 0 0.717 0.126 1.404 0.356 2.042l-0.013-0.042h2.196c-0.337-0.574-0.536-1.264-0.536-2 0-2.209 1.791-4 4-4h6c2.209 0 4 1.791 4 4s-1.791 4-4 4v0h-3.070c-0.452 0.772-0.997 1.432-1.631 1.993l-0.009 0.007h4.71c3.314 0 6-2.686 6-6s-2.686-6-6-6v0h-6z"></path>
</svg>
