<!-- Generated by IcoMoon.io -->
<svg version="1.1" xmlns="http://www.w3.org/2000/svg" width="32" height="32" viewBox="0 0 32 32">
<title>list-task</title>
<path d="M4 5h2c0.552 0 1 0.448 1 1v2c0 0.552-0.448 1-1 1h-2c-0.552 0-1-0.448-1-1v-2c0-0.552 0.448-1 1-1zM6 6h-2v2h2v-2z"></path>
<path d="M10 7c0-0.552 0.448-1 1-1v0h18c0.552 0 1 0.448 1 1s-0.448 1-1 1v0h-18c-0.552 0-1-0.448-1-1v0zM11 14c-0.552 0-1 0.448-1 1s0.448 1 1 1v0h18c0.552 0 1-0.448 1-1s-0.448-1-1-1v0h-18zM11 22c-0.552 0-1 0.448-1 1s0.448 1 1 1v0h18c0.552 0 1-0.448 1-1s-0.448-1-1-1v0h-18z"></path>
<path d="M3 14v2c0 0.552 0.448 1 1 1h2c0.552 0 1-0.448 1-1v-2c0-0.552-0.448-1-1-1h-2c-0.552 0-1 0.448-1 1zM4 14h2v2h-2v-2zM4 21h2c0.552 0 1 0.448 1 1v2c0 0.552-0.448 1-1 1h-2c-0.552 0-1-0.448-1-1v-2c0-0.552 0.448-1 1-1zM6 22h-2v2h2v-2z"></path>
</svg>
