<!-- Generated by IcoMoon.io -->
<svg version="1.1" xmlns="http://www.w3.org/2000/svg" width="32" height="32" viewBox="0 0 32 32">
<title>markdown</title>
<path d="M28 6v0c1.105 0 2 0.895 2 2v16c0 1.105-0.895 2-2 2h-24c-1.105 0-2-0.895-2-2v-16c0-1.105 0.895-2 2-2h24zM4 4c-2.209 0-4 1.791-4 4v0 16c0 2.209 1.791 4 4 4v0h24c2.209 0 4-1.791 4-4v0-16c0-2.209-1.791-4-4-4v0h-24z"></path>
<path d="M18.292 16.292c0.181-0.181 0.431-0.294 0.708-0.294s0.527 0.112 0.708 0.294l3.292 3.294 3.292-3.294c0.181-0.181 0.431-0.293 0.708-0.293 0.553 0 1.001 0.448 1.001 1.001 0 0.276-0.112 0.527-0.293 0.708v0l-4 4c-0.181 0.181-0.431 0.294-0.708 0.294s-0.527-0.112-0.708-0.294l-4-4c-0.181-0.181-0.294-0.431-0.294-0.708s0.112-0.527 0.294-0.708l0-0z"></path>
<path d="M23 10c0.552 0 1 0.448 1 1v0 8c0 0.552-0.448 1-1 1s-1-0.448-1-1v0-8c0-0.552 0.448-1 1-1v0z"></path>
<path d="M7.12 22v-7.98h0.112l2.856 6.478h1.548l2.84-6.48h0.112v7.982h2.146v-11.998h-2.4l-3.42 7.788h-0.078l-3.42-7.788h-2.416v11.998h2.12z"></path>
</svg>
