<!-- Generated by IcoMoon.io -->
<svg version="1.1" xmlns="http://www.w3.org/2000/svg" width="32" height="32" viewBox="0 0 32 32">
<title>menu-app</title>
<path d="M0 3c0-1.657 1.343-3 3-3v0h4c1.657 0 3 1.343 3 3v0 4c0 1.657-1.343 3-3 3v0h-4c-1.657 0-3-1.343-3-3v0-4zM3 2c-0.552 0-1 0.448-1 1v0 4c0 0.552 0.448 1 1 1v0h4c0.552 0 1-0.448 1-1v0-4c0-0.552-0.448-1-1-1v0h-4zM28 14v0c1.105 0 2 0.895 2 2v10c0 1.105-0.895 2-2 2h-24c-1.105 0-2-0.895-2-2v-10c0-1.105 0.895-2 2-2h24zM4 12c-2.209 0-4 1.791-4 4v0 10c0 2.209 1.791 4 4 4v0h24c2.209 0 4-1.791 4-4v0-10c0-2.209-1.791-4-4-4v0h-24z"></path>
<path d="M30 22h-28v-2h28v2zM4 25c0-0.552 0.448-1 1-1v0h12c0.552 0 1 0.448 1 1s-0.448 1-1 1v0h-12c-0.552 0-1-0.448-1-1v0zM4 17c0-0.552 0.448-1 1-1v0h18c0.552 0 1 0.448 1 1s-0.448 1-1 1v0h-18c-0.552 0-1-0.448-1-1v0z"></path>
</svg>
