<!-- Generated by IcoMoon.io -->
<svg version="1.1" xmlns="http://www.w3.org/2000/svg" width="32" height="32" viewBox="0 0 32 32">
<title>mouse3</title>
<path d="M10.946 0.926c0.846-0.612 1.868-0.926 3.054-0.926 2.52 0 5.962 0.246 8.806 1.65 1.44 0.71 2.75 1.728 3.7 3.18 0.95 1.456 1.494 3.284 1.494 5.544v11.25c0 5.694-4.44 10.376-10 10.376h-4c-5.56 0-10-4.684-10-10.376v-5.152c0-1.946 1.112-3.633 2.736-4.459l0.028-0.013 1.236-0.618v-1.006c0-2.62 0.248-5.138 1.086-7.034 0.426-0.964 1.024-1.812 1.86-2.416zM8.034 13.602l-0.376 0.186c-0.991 0.504-1.658 1.515-1.658 2.683 0 0 0 0.001 0 0.001v-0 5.152c0 4.668 3.62 8.376 8 8.376h4c4.38 0 8-3.71 8-8.376v-11.246c0-1.928-0.46-3.366-1.17-4.452-0.712-1.092-1.72-1.894-2.908-2.48-2.414-1.192-5.47-1.446-7.922-1.446-0.814 0-1.416 0.21-1.882 0.548-0.478 0.344-0.88 0.87-1.204 1.602-0.66 1.496-0.914 3.664-0.914 6.224v1.688c0.001 0.323 0.007 0.637 0.017 0.949l-0.001-0.053c0.014 0.6 0.046 1.43 0.106 2.35 0.126 1.874 0.372 4.010 0.826 5.376 0.041 0.105 0.064 0.226 0.064 0.352 0 0.552-0.448 1-1 1-0.453 0-0.835-0.301-0.958-0.713l-0.002-0.007c-0.546-1.634-0.8-4-0.924-5.874-0.035-0.462-0.068-1.101-0.091-1.743l-0.003-0.097z"></path>
<path d="M18 1c0.552 0 1 0.448 1 1v0 10.198l8.216 1.826c0.438 0.113 0.757 0.504 0.757 0.97 0 0.552-0.448 1-1 1-0.067 0-0.132-0.007-0.195-0.019l0.006 0.001-18-4c-0.465-0.092-0.811-0.497-0.811-0.982 0-0.552 0.448-1 1-1 0.086 0 0.17 0.011 0.25 0.031l-0.007-0.002 7.784 1.73v-9.754c0-0.552 0.448-1 1-1v0z"></path>
</svg>
