<!-- Generated by IcoMoon.io -->
<svg version="1.1" xmlns="http://www.w3.org/2000/svg" width="32" height="32" viewBox="0 0 32 32">
<title>music-player-fill</title>
<path d="M4 4v24c0 2.209 1.791 4 4 4h16c2.209 0 4-1.791 4-4v-24c0-2.209-1.791-4-4-4h-16c-2.209 0-4 1.791-4 4zM8 6c0-1.105 0.895-2 2-2v0h12c1.105 0 2 0.895 2 2v0 5c0 1.105-0.895 2-2 2v0h-12c-1.105 0-2-0.895-2-2v0-5zM22 22c0 3.314-2.686 6-6 6s-6-2.686-6-6v0c0-3.314 2.686-6 6-6s6 2.686 6 6v0z"></path>
<path d="M18 22c0 1.105-0.895 2-2 2s-2-0.895-2-2c0-1.105 0.895-2 2-2s2 0.895 2 2z"></path>
</svg>
