<!-- Generated by IcoMoon.io -->
<svg version="1.1" xmlns="http://www.w3.org/2000/svg" width="32" height="32" viewBox="0 0 32 32">
<title>music-note-list</title>
<path d="M24 26c0 2.21-2.24 4-5 4s-5-1.79-5-4 2.24-4 5-4 5 1.79 5 4z"></path>
<path d="M24 6v20h-2v-20h2z"></path>
<path d="M22 5.64c0.001-0.965 0.685-1.771 1.595-1.958l0.013-0.002 6-1.2c0.118-0.025 0.253-0.039 0.392-0.039 1.104 0 1.999 0.895 2 1.999v3.56l-10 2v-4.36z"></path>
<path d="M0 23c0-0.552 0.448-1 1-1v0h7c0.552 0 1 0.448 1 1s-0.448 1-1 1v0h-7c-0.552 0-1-0.448-1-1v0zM0 15c0-0.552 0.448-1 1-1v0h15c0.552 0 1 0.448 1 1s-0.448 1-1 1v0h-15c-0.552 0-1-0.448-1-1v0zM0 7c0-0.552 0.448-1 1-1v0h15c0.552 0 1 0.448 1 1s-0.448 1-1 1v0h-15c-0.552 0-1-0.448-1-1v0z"></path>
</svg>
