<!-- Generated by IcoMoon.io -->
<svg version="1.1" xmlns="http://www.w3.org/2000/svg" width="32" height="32" viewBox="0 0 32 32">
<title>newspaper</title>
<path d="M0 4c0-1.657 1.343-3 3-3v0h22c1.657 0 3 1.343 3 3v0 24c0 1.657-1.343 3-3 3v0h-22c-1.657 0-3-1.343-3-3v0-24zM3 3c-0.552 0-1 0.448-1 1v0 24c0 0.552 0.448 1 1 1v0h22c0.552 0 1-0.448 1-1v0-24c0-0.552-0.448-1-1-1v0h-22z"></path>
<path d="M31 6c0.552 0 1 0.448 1 1v0 21c0 1.657-1.343 3-3 3v0h-6v-2h6c0.552 0 1-0.448 1-1v0-21c0-0.552 0.448-1 1-1v0z"></path>
<path d="M4 6h20v4h-20v-4zM4 12h8v6h-8v-6zM4 20h8v2h-8v-2zM4 24h8v2h-8v-2zM14 12h4v2h-4v-2zM20 12h4v2h-4v-2zM14 16h4v2h-4v-2zM20 16h4v2h-4v-2zM14 20h4v2h-4v-2zM20 20h4v2h-4v-2zM14 24h4v2h-4v-2zM20 24h4v2h-4v-2z"></path>
</svg>
