<!-- Generated by IcoMoon.io -->
<svg version="1.1" xmlns="http://www.w3.org/2000/svg" width="32" height="32" viewBox="0 0 32 32">
<title>nut</title>
<path d="M22.84 4l6.856 12-6.856 12h-13.68l-6.856-12 6.856-12h13.68zM9.16 2c-0.739 0-1.385 0.402-1.731 0.998l-0.005 0.010-6.858 12c-0.166 0.285-0.263 0.627-0.263 0.992s0.098 0.707 0.268 1.002l-0.005-0.010 6.858 12c0.351 0.606 0.997 1.008 1.736 1.008h13.68c0.739-0 1.385-0.402 1.731-0.998l0.005-0.010 6.856-12c0.166-0.285 0.263-0.627 0.263-0.992s-0.098-0.707-0.268-1.002l0.005 0.010-6.856-12c-0.351-0.606-0.997-1.008-1.736-1.008h-13.68z"></path>
<path d="M13.696 11.866c-1.521 0.877-2.529 2.494-2.529 4.347 0 2.761 2.239 5 5 5 0.932 0 1.805-0.255 2.552-0.699l-0.023 0.013c1.489-0.884 2.471-2.484 2.471-4.313 0-2.761-2.239-5-5-5-0.909 0-1.761 0.242-2.495 0.666l0.024-0.013zM10.134 19.696c-0.604-1.014-0.961-2.235-0.961-3.54 0-3.866 3.134-7 7-7 2.594 0 4.858 1.411 6.067 3.506l0.018 0.034c0.575 0.994 0.915 2.187 0.915 3.46 0 3.866-3.134 7-7 7-2.561 0-4.801-1.375-6.021-3.428l-0.018-0.032z"></path>
</svg>
