<!-- Generated by IcoMoon.io -->
<svg version="1.1" xmlns="http://www.w3.org/2000/svg" width="32" height="32" viewBox="0 0 32 32">
<title>outlet</title>
<path d="M6.68 5.988c0.55-0.676 1.36-0.988 2.148-0.988h14.344c0.786 0 1.596 0.312 2.148 0.988 1.156 1.416 3.68 5.068 3.68 10.012s-2.524 8.594-3.68 10.012c-0.552 0.676-1.36 0.988-2.148 0.988h-14.344c-0.788 0-1.598-0.312-2.148-0.988-1.156-1.418-3.68-5.068-3.68-10.012s2.524-8.594 3.68-10.012zM8.828 7c-0.011-0.001-0.023-0.001-0.036-0.001-0.223 0-0.424 0.097-0.562 0.252l-0.001 0.001c-1.032 1.266-3.23 4.474-3.23 8.748s2.198 7.48 3.23 8.748c0.12 0.146 0.326 0.252 0.6 0.252h14.34c0.274 0 0.48-0.106 0.6-0.252 1.032-1.266 3.23-4.474 3.23-8.748s-2.198-7.48-3.23-8.748c-0.138-0.155-0.339-0.253-0.563-0.253-0.013 0-0.026 0-0.039 0.001l0.002-0h-14.34z"></path>
<path d="M12 11c0.552 0 1 0.448 1 1v0 3c0 0.552-0.448 1-1 1s-1-0.448-1-1v0-3c0-0.552 0.448-1 1-1v0zM20 11c0.552 0 1 0.448 1 1v0 3c0 0.552-0.448 1-1 1s-1-0.448-1-1v0-3c0-0.552 0.448-1 1-1v0z"></path>
<path d="M14 20v2h4v-2c0-1.105-0.895-2-2-2s-2 0.895-2 2v0z"></path>
</svg>
