<!-- Generated by IcoMoon.io -->
<svg version="1.1" xmlns="http://www.w3.org/2000/svg" width="32" height="32" viewBox="0 0 32 32">
<title>pencil</title>
<path d="M22.586 2.586l-18 18c-0.214 0.214-0.38 0.476-0.484 0.782l-1.996 5.986c-0.069 0.203-0.107 0.421-0.107 0.648 0 1.105 0.895 2 2 2 0.227 0 0.446-0.038 0.635-0.103l6.014-2.004c0.292-0.1 0.553-0.266 0.766-0.48l18-18c0.362-0.362 0.586-0.862 0.586-1.414s-0.224-1.052-0.586-1.414l-4-4c-0.362-0.362-0.862-0.586-1.414-0.586s-1.052 0.224-1.414 0.586zM24 4l4 4-18 18-6 2 2-6 18-18z"></path>
<path d="M24.292 12.708l-5-5 1.416-1.416 5 5-1.414 1.416zM6 20v1c0 0.552 0.448 1 1 1v0h1v1c0 0.552 0.448 1 1 1v0h1v1c0 0.552 0.448 1 1 1v0h1v-3c0-0.552-0.448-1-1-1v0h-1v-1c0-0.552-0.448-1-1-1v0h-3z"></path>
</svg>
