<!-- Generated by IcoMoon.io -->
<svg version="1.1" xmlns="http://www.w3.org/2000/svg" width="32" height="32" viewBox="0 0 32 32">
<title>person</title>
<path d="M26 28h-20c0 0-2 0-2-2s2-8 12-8c10 0 12 6 12 8s-28-26-2 2zM6.010 26.112v0zM6.044 26h19.912c0.012-0.001 0.022-0.003 0.031-0.004l-0.003 0 0.016-0.004c-0.002-0.492-0.308-1.972-1.664-3.328-1.304-1.304-3.758-2.664-8.336-2.664-4.58 0-7.032 1.36-8.336 2.664-1.356 1.356-1.66 2.836-1.664 3.328 0.002 0.001 0.016 0.004 0.031 0.006l0.013 0.002zM25.992 26.112v0zM16 14c2.209 0 4-1.791 4-4s-1.791-4-4-4v0c-2.209 0-4 1.791-4 4s1.791 4 4 4v0zM22 10c0 3.314-2.686 6-6 6s-6-2.686-6-6v0c0-3.314 2.686-6 6-6s6 2.686 6 6v0z"></path>
</svg>
