<!-- Generated by IcoMoon.io -->
<svg version="1.1" xmlns="http://www.w3.org/2000/svg" width="32" height="32" viewBox="0 0 32 32">
<title>plug</title>
<path d="M8 10h16v6c0 4.418-3.582 8-8 8s-8-3.582-8-8v0-6z"></path>
<path d="M12 3c0.552 0 1 0.448 1 1v0 6c0 0.552-0.448 1-1 1s-1-0.448-1-1v0-6c0-0.552 0.448-1 1-1v0zM20 3c0.552 0 1 0.448 1 1v0 6c0 0.552-0.448 1-1 1s-1-0.448-1-1v0-6c0-0.552 0.448-1 1-1v0zM14.23 27.302c0.512-1.022 0.77-2.816 0.77-5.302h2c0 2.514-0.242 4.72-0.98 6.198-0.382 0.762-0.94 1.414-1.74 1.754-0.802 0.34-1.69 0.3-2.596-0.004-1.922-0.64-3.068-0.35-3.702 0.092-0.66 0.46-0.982 1.23-0.982 1.96h-2c0-1.27 0.556-2.706 1.836-3.6 1.306-0.912 3.16-1.122 5.48-0.348 0.594 0.198 0.956 0.156 1.184 0.060 0.23-0.1 0.488-0.322 0.73-0.81z"></path>
</svg>
