<!-- Generated by IcoMoon.io -->
<svg version="1.1" xmlns="http://www.w3.org/2000/svg" width="32" height="32" viewBox="0 0 32 32">
<title>printer-fill</title>
<path d="M10 2c-2.209 0-4 1.791-4 4v0 2h20v-2c0-2.209-1.791-4-4-4v0h-12z"></path>
<path d="M22 18h-12c-1.105 0-2 0.895-2 2v0 6c0 1.105 0.895 2 2 2v0h12c1.105 0 2-0.895 2-2v0-6c0-1.105-0.895-2-2-2v0z"></path>
<path d="M0 14c0-2.209 1.791-4 4-4v0h24c2.209 0 4 1.791 4 4v0 6c0 2.209-1.791 4-4 4v0h-2v-4c0-2.209-1.791-4-4-4v0h-12c-2.209 0-4 1.791-4 4v0 4h-2c-2.209 0-4-1.791-4-4v0-6zM5 16c0.552 0 1-0.448 1-1s-0.448-1-1-1v0c-0.552 0-1 0.448-1 1s0.448 1 1 1v0z"></path>
</svg>
