<!-- Generated by IcoMoon.io -->
<svg version="1.1" xmlns="http://www.w3.org/2000/svg" width="32" height="32" viewBox="0 0 32 32">
<title>question-octagon-fill</title>
<path d="M22.92 0.292c-0.181-0.18-0.43-0.292-0.706-0.292h-12.428c-0.276 0-0.525 0.112-0.706 0.292l-8.788 8.788c-0.18 0.181-0.292 0.43-0.292 0.706v0 12.428c0 0.276 0.112 0.525 0.292 0.706l8.788 8.788c0.181 0.18 0.43 0.292 0.706 0.292h12.428c0.276-0 0.525-0.112 0.706-0.292l8.788-8.788c0.18-0.181 0.292-0.43 0.292-0.706v0-12.428c-0-0.276-0.112-0.525-0.292-0.706l-8.788-8.788zM13.14 12.066h-2.64c-0.060-3.772 2.86-5.066 5.512-5.066 2.794 0 5.346 1.46 5.346 4.48 0 2.16-1.27 3.188-2.488 4.114-1.474 1.118-2.020 1.536-2.020 2.972v0.71h-2.616l-0.014-0.926c-0.076-1.854 0.99-2.996 2.336-3.974 1.18-0.888 1.93-1.472 1.93-2.742 0-1.65-1.256-2.336-2.628-2.336-1.802 0-2.716 1.206-2.716 2.768zM15.642 24.952c-1.168 0-2.018-0.788-2.018-1.854 0-1.104 0.85-1.88 2.020-1.88 1.218 0 2.056 0.776 2.056 1.88 0 1.066-0.84 1.854-2.058 1.854z"></path>
</svg>
