<!-- Generated by IcoMoon.io -->
<svg version="1.1" xmlns="http://www.w3.org/2000/svg" width="32" height="32" viewBox="0 0 32 32">
<title>question-diamond</title>
<path d="M13.9 0.87c1.16-1.16 3.040-1.16 4.2 0l13.030 13.032c1.16 1.16 1.16 3.038 0 4.196l-13.030 13.032c-1.16 1.16-3.038 1.16-4.196 0l-13.034-13.030c-0.538-0.537-0.87-1.278-0.87-2.098s0.333-1.561 0.87-2.098l13.030-13.034zM16.7 2.27c-0.179-0.179-0.427-0.29-0.7-0.29s-0.521 0.111-0.7 0.29l-13.032 13.030c-0.179 0.179-0.29 0.427-0.29 0.7s0.111 0.521 0.29 0.7l13.032 13.032c0.179 0.179 0.427 0.29 0.7 0.29s0.521-0.111 0.7-0.29l13.032-13.032c0.179-0.179 0.29-0.427 0.29-0.7s-0.111-0.521-0.29-0.7l-13.032-13.032z"></path>
<path d="M10.5 12.066h2.64c0-1.562 0.916-2.768 2.72-2.768 1.37 0 2.626 0.686 2.626 2.336 0 1.27-0.748 1.854-1.93 2.742-1.346 0.978-2.412 2.12-2.336 3.974l0.014 0.926h2.614v-0.71c0-1.436 0.546-1.854 2.020-2.972 1.218-0.926 2.488-1.954 2.488-4.112 0-3.022-2.552-4.482-5.346-4.482-2.652 0-5.572 1.294-5.508 5.066zM13.624 23.098c0 1.066 0.85 1.854 2.020 1.854 1.218 0 2.056-0.788 2.056-1.854 0-1.104-0.84-1.88-2.058-1.88-1.168 0-2.018 0.776-2.018 1.88z"></path>
</svg>
