<!-- Generated by IcoMoon.io -->
<svg version="1.1" xmlns="http://www.w3.org/2000/svg" width="32" height="32" viewBox="0 0 32 32">
<title>reception-4</title>
<path d="M0 23c0-0.552 0.448-1 1-1v0h4c0.552 0 1 0.448 1 1v0 4c0 0.552-0.448 1-1 1v0h-4c-0.552 0-1-0.448-1-1v0-4zM8 17c0-0.552 0.448-1 1-1v0h4c0.552 0 1 0.448 1 1v0 10c0 0.552-0.448 1-1 1v0h-4c-0.552 0-1-0.448-1-1v0-10zM16 11c0-0.552 0.448-1 1-1v0h4c0.552 0 1 0.448 1 1v0 16c0 0.552-0.448 1-1 1v0h-4c-0.552 0-1-0.448-1-1v0-16zM24 5c0-0.552 0.448-1 1-1v0h4c0.552 0 1 0.448 1 1v0 22c0 0.552-0.448 1-1 1v0h-4c-0.552 0-1-0.448-1-1v0-22z"></path>
</svg>
