<!-- Generated by IcoMoon.io -->
<svg version="1.1" xmlns="http://www.w3.org/2000/svg" width="32" height="32" viewBox="0 0 32 32">
<title>shield-fill-exclamation</title>
<path d="M16 1c-1.324 0-3.54 0.498-5.626 1.050-2.726 0.717-4.577 1.275-6.408 1.875l0.864-0.245c-1.060 0.341-1.844 1.246-2.004 2.352l-0.002 0.016c-1.146 8.394 1.512 14.614 4.736 18.73 1.384 1.77 2.977 3.289 4.764 4.553l0.070 0.047c0.742 0.512 1.43 0.902 2.014 1.172 0.54 0.248 1.116 0.45 1.592 0.45s1.054-0.202 1.592-0.45c0.584-0.27 1.272-0.66 2.014-1.172 1.858-1.311 3.452-2.83 4.799-4.551l0.037-0.049c3.222-4.116 5.88-10.336 4.734-18.73-0.162-1.122-0.946-2.027-1.985-2.362l-0.021-0.006c-0.967-0.355-2.818-0.913-4.686-1.428l-0.858-0.202c-2.086-0.552-4.3-1.050-5.626-1.050zM16 8c-0.999 0.001-1.809 0.811-1.809 1.81 0 0.063 0.003 0.126 0.010 0.188l-0.001-0.008 0.7 7.014c0.060 0.559 0.53 0.991 1.1 0.991s1.040-0.432 1.1-0.986l0-0.005 0.7-7.014c0.006-0.054 0.009-0.117 0.009-0.18 0-0.999-0.81-1.809-1.809-1.81h-0zM16.004 20c-1.105 0-2 0.895-2 2s0.895 2 2 2v0c1.105 0 2-0.895 2-2s-0.895-2-2-2v0z"></path>
</svg>
