<!-- Generated by IcoMoon.io -->
<svg version="1.1" xmlns="http://www.w3.org/2000/svg" width="32" height="32" viewBox="0 0 32 32">
<title>shuffle</title>
<path d="M25.292 2.292c0.181-0.181 0.431-0.294 0.708-0.294s0.527 0.112 0.708 0.294l5 5c0.181 0.181 0.294 0.431 0.294 0.708s-0.112 0.527-0.294 0.708l-5 5c-0.181 0.181-0.431 0.293-0.708 0.293-0.553 0-1.001-0.448-1.001-1.001 0-0.277 0.112-0.527 0.293-0.708v0l4.294-4.292-4.294-4.292c-0.181-0.181-0.294-0.431-0.294-0.708s0.112-0.527 0.294-0.708l0-0zM25.292 18.292c0.181-0.181 0.431-0.294 0.708-0.294s0.527 0.112 0.708 0.294l5 5c0.181 0.181 0.294 0.431 0.294 0.708s-0.112 0.527-0.294 0.708l-5 5c-0.181 0.181-0.431 0.293-0.708 0.293-0.553 0-1.001-0.448-1.001-1.001 0-0.276 0.112-0.527 0.293-0.708v0l4.294-4.292-4.294-4.292c-0.181-0.181-0.294-0.431-0.294-0.708s0.112-0.527 0.294-0.708l0-0z"></path>
<path d="M0 8c0-0.552 0.448-1 1-1v0h4c6.106 0 9.128 4.516 11.712 8.452l0.16 0.246c1.272 1.94 2.448 3.73 3.864 5.078 1.436 1.364 3.076 2.224 5.264 2.224h4c0.552 0 1 0.448 1 1s-0.448 1-1 1v0h-4c-2.812 0-4.922-1.14-6.642-2.776-1.59-1.51-2.882-3.484-4.11-5.358l-0.21-0.318c-2.666-4.064-5.144-7.548-10.038-7.548h-4c-0.552 0-1-0.448-1-1v0z"></path>
<path d="M0 24c0 0.552 0.448 1 1 1v0h4c6.106 0 9.128-4.516 11.712-8.452l0.16-0.246c1.272-1.94 2.448-3.73 3.864-5.078 1.436-1.364 3.076-2.224 5.264-2.224h4c0.552 0 1-0.448 1-1s-0.448-1-1-1v0h-4c-2.812 0-4.922 1.14-6.642 2.776-1.59 1.51-2.882 3.484-4.11 5.358l-0.21 0.318c-2.666 4.064-5.144 7.548-10.038 7.548h-4c-0.552 0-1 0.448-1 1v0z"></path>
</svg>
