<!-- Generated by IcoMoon.io -->
<svg version="1.1" xmlns="http://www.w3.org/2000/svg" width="32" height="32" viewBox="0 0 32 32">
<title>slash-square</title>
<path d="M28 2v0c1.105 0 2 0.895 2 2v24c0 1.105-0.895 2-2 2h-24c-1.105 0-2-0.895-2-2v-24c0-1.105 0.895-2 2-2h24zM4 0c-2.209 0-4 1.791-4 4v0 24c0 2.209 1.791 4 4 4v0h24c2.209 0 4-1.791 4-4v0-24c0-2.209-1.791-4-4-4v0h-24z"></path>
<path d="M23.708 8.292c0.181 0.181 0.294 0.431 0.294 0.708s-0.112 0.527-0.294 0.708l-14 14c-0.181 0.181-0.431 0.293-0.708 0.293-0.553 0-1.001-0.448-1.001-1.001 0-0.276 0.112-0.527 0.293-0.708v0l14-14c0.181-0.181 0.431-0.294 0.708-0.294s0.527 0.112 0.708 0.294l0 0z"></path>
</svg>
