<!-- Generated by IcoMoon.io -->
<svg version="1.1" xmlns="http://www.w3.org/2000/svg" width="32" height="32" viewBox="0 0 32 32">
<title>smartwatch</title>
<path d="M28 10h1c0.552 0 1 0.448 1 1v0 4c0 0.552-0.448 1-1 1v0h-1v-6z"></path>
<path d="M17 9c0.552 0 1 0.448 1 1v0 7c0 0.552-0.448 1-1 1v0h-5c-0.552 0-1-0.448-1-1s0.448-1 1-1v0h4v-6c0-0.552 0.448-1 1-1v0z"></path>
<path d="M9 4h14c2.761 0 5 2.239 5 5v0 14c0 2.761-2.239 5-5 5v0h-14c-2.761 0-5-2.239-5-5v0-14c0-2.761 2.239-5 5-5v0zM9 6c-1.657 0-3 1.343-3 3v0 14c0 1.657 1.343 3 3 3v0h14c1.657 0 3-1.343 3-3v0-14c0-1.657-1.343-3-3-3v0h-14z"></path>
<path d="M8 4.1v-0.766c0-1.84 1.492-3.334 3.334-3.334h9.332c1.84 0 3.334 1.492 3.334 3.334v0.766c-0.3-0.064-0.644-0.1-0.997-0.1-0.001 0-0.002 0-0.003 0h-14c-0.342 0-0.676 0.034-1 0.1zM8 27.9c0.324 0.066 0.658 0.1 1 0.1h14c0.342 0 0.676-0.034 1-0.1v0.766c0 1.84-1.492 3.334-3.334 3.334h-9.332c-1.84 0-3.334-1.492-3.334-3.334v-0.766z"></path>
</svg>
