<!-- Generated by IcoMoon.io -->
<svg version="1.1" xmlns="http://www.w3.org/2000/svg" width="32" height="32" viewBox="0 0 32 32">
<title>sort-numeric-up-alt</title>
<path d="M8 28c0.552 0 1-0.448 1-1v0-22c0-0.552-0.448-1-1-1s-1 0.448-1 1v0 22c0 0.552 0.448 1 1 1v0z"></path>
<path d="M12.708 9.708c0.181-0.181 0.294-0.431 0.294-0.708s-0.112-0.527-0.294-0.708l-4-4c-0.181-0.181-0.431-0.294-0.708-0.294s-0.527 0.112-0.708 0.294l-4 4c-0.181 0.181-0.293 0.431-0.293 0.708 0 0.553 0.448 1.001 1.001 1.001 0.277 0 0.527-0.112 0.708-0.293v0l3.292-3.294 3.292 3.294c0.181 0.181 0.431 0.294 0.708 0.294s0.527-0.112 0.708-0.294l0-0z"></path>
<path d="M19.196 11.64c0.108 1.242 1.25 2.556 3.522 2.556 2.844 0 4.29-1.96 4.29-5.696 0-4.1-1.946-5.376-4.126-5.376-2.25 0-3.944 1.376-3.944 3.672 0 2.29 1.616 3.516 3.438 3.516 1.38 0 2.226-0.702 2.522-1.484h0.118c0.062 2.054-0.618 3.712-2.266 3.712-0.86 0-1.43-0.454-1.546-0.9h-2.008zM24.71 6.78c0 1.274-0.86 1.946-1.866 1.946-1.032 0-1.868-0.68-1.868-1.96 0-1.25 0.814-2 1.852-2 1.086 0 1.882 0.75 1.882 2.016zM24.876 28v-10.664h-2.096l-2.524 1.812v1.938l2.42-1.72h0.104v8.634h2.092z"></path>
</svg>
