<!-- Generated by IcoMoon.io -->
<svg version="1.1" xmlns="http://www.w3.org/2000/svg" width="32" height="32" viewBox="0 0 32 32">
<title>soundwave</title>
<path d="M17 4c0.552 0 1 0.448 1 1v0 22c0 0.552-0.448 1-1 1s-1-0.448-1-1v0-22c0-0.552 0.448-1 1-1v0zM13 8c0.552 0 1 0.448 1 1v0 14c0 0.552-0.448 1-1 1s-1-0.448-1-1v0-14c0-0.552 0.448-1 1-1v0zM21 8c0.552 0 1 0.448 1 1v0 14c0 0.552-0.448 1-1 1s-1-0.448-1-1v0-14c0-0.552 0.448-1 1-1v0zM9 11c0.552 0 1 0.448 1 1v0 8c0 0.552-0.448 1-1 1s-1-0.448-1-1v0-8c0-0.552 0.448-1 1-1v0zM25 11c0.552 0 1 0.448 1 1v0 8c0 0.552-0.448 1-1 1s-1-0.448-1-1v0-8c0-0.552 0.448-1 1-1v0zM5 13c0.552 0 1 0.448 1 1v0 4c0 0.552-0.448 1-1 1s-1-0.448-1-1v0-4c0-0.552 0.448-1 1-1v0zM29 13c0.552 0 1 0.448 1 1v0 4c0 0.552-0.448 1-1 1s-1-0.448-1-1v0-4c0-0.552 0.448-1 1-1v0z"></path>
</svg>
