<!-- Generated by IcoMoon.io -->
<svg version="1.1" xmlns="http://www.w3.org/2000/svg" width="32" height="32" viewBox="0 0 32 32">
<title>speaker</title>
<path d="M18 8c0 1.105-0.895 2-2 2s-2-0.895-2-2v0c0-1.105 0.895-2 2-2s2 0.895 2 2v0zM13 21c0-1.657 1.343-3 3-3s3 1.343 3 3v0c0 1.657-1.343 3-3 3s-3-1.343-3-3v0z"></path>
<path d="M8 0h16c2.209 0 4 1.791 4 4v24c0 2.209-1.791 4-4 4h-16c-2.209 0-4-1.791-4-4v-24c0-2.209 1.791-4 4-4zM20 8v0c0-2.209-1.791-4-4-4s-4 1.791-4 4v0c0 2.209 1.791 4 4 4s4-1.791 4-4zM16 14c-3.866 0-7 3.134-7 7s3.134 7 7 7v0c3.866 0 7-3.134 7-7s-3.134-7-7-7v0z"></path>
</svg>
