<!-- Generated by IcoMoon.io -->
<svg version="1.1" xmlns="http://www.w3.org/2000/svg" width="32" height="32" viewBox="0 0 32 32">
<title>star</title>
<path d="M5.732 29.7c-0.156 0.888 0.72 1.582 1.492 1.186l8.78-4.512 8.778 4.512c0.772 0.396 1.648-0.298 1.492-1.184l-1.66-9.46 7.046-6.712c0.658-0.628 0.316-1.776-0.566-1.9l-9.796-1.392-4.368-8.654c-0.169-0.349-0.52-0.586-0.927-0.586s-0.758 0.237-0.924 0.58l-0.003 0.006-4.368 8.656-9.796 1.392c-0.882 0.124-1.224 1.272-0.566 1.9l7.046 6.712-1.66 9.46zM15.542 24.166l-7.372 3.788 1.388-7.914c0.011-0.060 0.018-0.128 0.018-0.199 0-0.318-0.132-0.606-0.343-0.811l-0-0-5.812-5.54 8.104-1.152c0.347-0.054 0.634-0.271 0.783-0.57l0.003-0.006 3.694-7.316 3.692 7.316c0.152 0.305 0.439 0.522 0.78 0.575l0.006 0.001 8.104 1.15-5.812 5.54c-0.212 0.205-0.344 0.493-0.344 0.811 0 0.071 0.007 0.141 0.019 0.208l-0.001-0.007 1.388 7.914-7.372-3.788c-0.134-0.070-0.293-0.112-0.461-0.112s-0.327 0.041-0.467 0.114l0.006-0.003z"></path>
</svg>
