<!-- Generated by IcoMoon.io -->
<svg version="1.1" xmlns="http://www.w3.org/2000/svg" width="32" height="32" viewBox="0 0 32 32">
<title>star-half</title>
<path d="M10.708 10.238l4.368-8.654c0.17-0.347 0.519-0.582 0.924-0.584h0c0.366 0 0.732 0.194 0.93 0.584l4.368 8.654 9.796 1.392c0.5 0.081 0.881 0.497 0.906 1.008l0 0.002c0.002 0.027 0.004 0.059 0.004 0.091 0 0.314-0.132 0.598-0.343 0.798l-0 0-7.046 6.712 1.66 9.46c0.156 0.886-0.72 1.58-1.492 1.184l-8.782-4.512-8.778 4.512c-0.084 0.045-0.182 0.080-0.286 0.099l-0.006 0.001c-0.682 0.12-1.336-0.508-1.2-1.284l1.66-9.46-7.044-6.712c-0.211-0.201-0.342-0.484-0.342-0.797 0-0.003 0-0.006 0-0.009v0c0.001-0.223 0.063-0.432 0.171-0.609l-0.003 0.005c0.158-0.262 0.424-0.445 0.735-0.489l0.005-0.001 9.796-1.392zM16 24.054c0.16 0 0.32 0.036 0.464 0.112l7.372 3.788-1.388-7.914c-0.011-0.060-0.018-0.129-0.018-0.199 0-0.318 0.132-0.605 0.343-0.81l0-0 5.812-5.54-8.104-1.152c-0.347-0.054-0.634-0.271-0.783-0.57l-0.003-0.006-3.692-7.316-0.004 0.006v19.6z"></path>
</svg>
