<!-- Generated by IcoMoon.io -->
<svg version="1.1" xmlns="http://www.w3.org/2000/svg" width="32" height="32" viewBox="0 0 32 32">
<title>suit-diamond</title>
<path d="M16.768 2.452c-0.169-0.248-0.45-0.409-0.768-0.409s-0.599 0.161-0.766 0.405l-0.002 0.003-9.12 12.936c-0.12 0.171-0.191 0.383-0.191 0.612s0.072 0.441 0.194 0.615l-0.002-0.003 9.12 12.938c0.169 0.248 0.45 0.409 0.768 0.409s0.599-0.161 0.766-0.405l0.002-0.003 9.12-12.938c0.12-0.171 0.191-0.383 0.191-0.612s-0.072-0.441-0.194-0.615l0.002 0.003-9.12-12.936zM13.696 1.226c0.507-0.743 1.349-1.224 2.304-1.224s1.797 0.481 2.298 1.215l0.006 0.010 9.12 12.936c0.36 0.513 0.576 1.15 0.576 1.838s-0.216 1.325-0.583 1.848l0.007-0.010-9.12 12.936c-0.507 0.743-1.349 1.224-2.304 1.224s-1.797-0.481-2.298-1.215l-0.006-0.010-9.12-12.934c-0.361-0.513-0.576-1.15-0.576-1.838s0.216-1.325 0.583-1.848l-0.007 0.010 9.12-12.938z"></path>
</svg>
