<!-- Generated by IcoMoon.io -->
<svg version="1.1" xmlns="http://www.w3.org/2000/svg" width="32" height="32" viewBox="0 0 32 32">
<title>sun</title>
<path d="M7 16c0-4.971 4.029-9 9-9s9 4.029 9 9v0c0 4.971-4.029 9-9 9s-9-4.029-9-9v0z"></path>
<path d="M16.406 0.56l1.821 2.511c0.091 0.125 0.238 0.206 0.404 0.206 0.096 0 0.186-0.027 0.261-0.073l2.642-1.623c0.077-0.048 0.167-0.075 0.264-0.075 0.235 0 0.432 0.162 0.486 0.384l0.721 3.019c0.054 0.218 0.251 0.381 0.486 0.381 0.027 0 0.054-0.002 0.078-0.006l3.061-0.488c0.026-0.004 0.053-0.007 0.081-0.007 0.276 0 0.5 0.224 0.5 0.5 0 0.028-0.002 0.055-0.006 0.078l-0.49 3.064 0-0.003c-0.004 0.026-0.006 0.053-0.006 0.080 0 0.236 0.163 0.433 0.386 0.487l3.019 0.721c0.218 0.054 0.381 0.251 0.381 0.486 0 0.097-0.028 0.187-0.074 0.262l-1.623 2.642c-0.048 0.077-0.075 0.167-0.075 0.264 0 0.167 0.081 0.314 0.208 0.406l2.513 1.821c0.125 0.091 0.205 0.238 0.205 0.404s-0.081 0.313-0.207 0.405l-2.513 1.821c-0.125 0.091-0.206 0.238-0.206 0.404 0 0.096 0.027 0.186 0.073 0.261l1.623 2.642c0.048 0.077 0.075 0.167 0.075 0.264 0 0.235-0.162 0.432-0.384 0.486l-3.019 0.721c-0.218 0.054-0.381 0.251-0.381 0.486 0 0.027 0.002 0.054 0.006 0.078l0.488 3.064-0-0.003c0.004 0.026 0.007 0.053 0.007 0.081 0 0.276-0.224 0.5-0.5 0.5-0.028 0-0.055-0.002-0.078-0.006l-3.061-0.49c-0.026-0.004-0.053-0.006-0.080-0.006-0.236 0-0.433 0.163-0.487 0.386l-0.721 3.019c-0.054 0.218-0.251 0.381-0.486 0.381-0.097 0-0.187-0.028-0.262-0.074l-2.642-1.623c-0.077-0.048-0.167-0.075-0.264-0.075-0.167 0-0.314 0.081-0.406 0.208l-1.821 2.513c-0.091 0.125-0.238 0.205-0.404 0.205s-0.313-0.081-0.405-0.207l-1.821-2.513c-0.091-0.125-0.238-0.206-0.404-0.206-0.096 0-0.186 0.027-0.261 0.073l-2.642 1.623c-0.077 0.048-0.167 0.075-0.264 0.075-0.235 0-0.432-0.162-0.486-0.384l-0.721-3.019c-0.054-0.218-0.251-0.381-0.486-0.381-0.027 0-0.054 0.002-0.078 0.006l-3.061 0.488c-0.026 0.004-0.053 0.007-0.081 0.007-0.276 0-0.5-0.224-0.5-0.5 0-0.028 0.002-0.055 0.006-0.078l0.488-3.064-0 0.003c0.004-0.026 0.007-0.053 0.007-0.081 0-0.234-0.161-0.431-0.382-0.486l-3.023-0.721c-0.218-0.054-0.379-0.251-0.379-0.485 0-0.097 0.028-0.188 0.074-0.262l1.623-2.642c0.048-0.077 0.075-0.167 0.075-0.264 0-0.167-0.081-0.314-0.208-0.406l-2.513-1.821c-0.124-0.091-0.205-0.238-0.205-0.404s0.081-0.313 0.207-0.405l2.513-1.821c0.125-0.091 0.206-0.238 0.206-0.404 0-0.096-0.027-0.186-0.073-0.261l-1.623-2.642c-0.048-0.077-0.075-0.167-0.075-0.264 0-0.234 0.161-0.431 0.382-0.486l3.021-0.721c0.218-0.054 0.381-0.251 0.381-0.486 0-0.027-0.002-0.054-0.006-0.078l-0.488-3.064 0 0.003c-0.004-0.026-0.007-0.053-0.007-0.081 0-0.276 0.224-0.5 0.5-0.5 0.028 0 0.055 0.002 0.078 0.006l3.061 0.49c0.026 0.004 0.053 0.006 0.080 0.006 0.236 0 0.433-0.163 0.487-0.386l0.721-3.019c0.054-0.218 0.251-0.381 0.486-0.381 0.097 0 0.187 0.028 0.262 0.074l2.642 1.623c0.077 0.048 0.167 0.075 0.264 0.075 0.167 0 0.314-0.081 0.406-0.208l1.821-2.511c0.091-0.124 0.238-0.204 0.403-0.204s0.312 0.080 0.404 0.205zM16 5c-6.075 0-11 4.925-11 11s4.925 11 11 11v0c6.075 0 11-4.925 11-11s-4.925-11-11-11v0z"></path>
</svg>
