<!-- Generated by IcoMoon.io -->
<svg version="1.1" xmlns="http://www.w3.org/2000/svg" width="32" height="32" viewBox="0 0 32 32">
<title>sunglasses</title>
<path d="M16 14c-1.105 0-2 0.895-2 2v0h-2c0-2.209 1.791-4 4-4s4 1.791 4 4v0h-2c0-1.105-0.895-2-2-2v0zM0 16c0-0.552 0.448-1 1-1v0h2v2h-2c-0.552 0-1-0.448-1-1v0zM31 17h-2v-2h2c0.552 0 1 0.448 1 1s-0.448 1-1 1v0z"></path>
<path d="M6 10h4c2.209 0 4 1.791 4 4v2c0 3.314-2.686 6-6 6h-2c-2.209 0-4-1.791-4-4v-4c0-2.209 1.791-4 4-4zM6 12c-1.105 0-2 0.895-2 2v0 1.882c0 0.528 0.712 0.696 0.948 0.224l0.456-0.914c0.395-0.777 1.011-1.393 1.765-1.777l0.023-0.011 0.914-0.456c0.472-0.236 0.304-0.948-0.226-0.948h-1.88z"></path>
<path d="M4.046 13.568c-0.030 0.14-0.046 0.284-0.046 0.432v1.882c0 0.528 0.712 0.696 0.948 0.224l0.456-0.914c0.395-0.777 1.011-1.393 1.765-1.777l0.023-0.011 0.914-0.456c0.472-0.236 0.304-0.948-0.226-0.948h-1.88c-0.952 0-1.748 0.664-1.951 1.555l-0.003 0.013zM10.338 12.028c0.034 0.152 0.053 0.327 0.053 0.506 0 0.966-0.562 1.801-1.377 2.195l-0.015 0.006-0.914 0.456c-0.389 0.197-0.697 0.505-0.889 0.883l-0.005 0.011-0.456 0.914c-0.402 0.829-1.237 1.391-2.203 1.391-0.179 0-0.353-0.019-0.521-0.056l0.016 0.003c0.167 0.95 0.986 1.662 1.971 1.662 0 0 0.001 0 0.001 0h2c2.209 0 4-1.791 4-4v0-2c0-0 0-0.001 0-0.001 0-0.985-0.712-1.804-1.65-1.969l-0.012-0.002zM2 14c0-2.209 1.791-4 4-4v0h4c2.209 0 4 1.791 4 4v0 2c0 3.314-2.686 6-6 6v0h-2c-2.209 0-4-1.791-4-4v0-4z"></path>
<path d="M18 14c0-2.209 1.791-4 4-4v0h4c2.209 0 4 1.791 4 4v0 4c0 2.209-1.791 4-4 4v0h-2c-3.314 0-6-2.686-6-6v0-2z"></path>
<path d="M26 12v0c1.105 0 2 0.895 2 2v4c0 1.105-0.895 2-2 2h-2c-2.209 0-4-1.791-4-4v-2c0-1.105 0.895-2 2-2h4zM22 10c-2.209 0-4 1.791-4 4v0 2c0 3.314 2.686 6 6 6v0h2c2.209 0 4-1.791 4-4v0-4c0-2.209-1.791-4-4-4v0h-4z"></path>
</svg>
