<!-- Generated by IcoMoon.io -->
<svg version="1.1" xmlns="http://www.w3.org/2000/svg" width="32" height="32" viewBox="0 0 32 32">
<title>telephone-inbound-fill</title>
<path d="M4.534 1.96c0.592-0.592 1.41-0.958 2.314-0.958 1.046 0 1.978 0.491 2.577 1.255l0.005 0.007 3.362 4.324c0.618 0.792 0.836 1.826 0.592 2.8l-1.026 4.106c-0.024 0.093-0.038 0.199-0.038 0.309 0 0.351 0.142 0.669 0.372 0.899v0l4.608 4.606c0.23 0.23 0.548 0.372 0.899 0.372 0.11 0 0.216-0.014 0.318-0.040l-0.009 0.002 4.104-1.026c0.238-0.062 0.511-0.098 0.793-0.098 0.761 0 1.461 0.26 2.016 0.695l-0.007-0.005 4.324 3.362c1.554 1.208 1.698 3.506 0.306 4.896l-1.94 1.94c-1.386 1.386-3.46 1.996-5.394 1.316-5.144-1.842-9.536-4.672-13.141-8.287l-0.001-0.001c-3.617-3.606-6.447-7.998-8.213-12.899l-0.077-0.243c-0.68-1.934-0.070-4.008 1.316-5.396l1.94-1.938zM31.708 0.292c0.181 0.181 0.294 0.431 0.294 0.708s-0.112 0.527-0.294 0.708l-8.294 8.292h5.586c0.552 0 1 0.448 1 1s-0.448 1-1 1v0h-8c-0.552 0-1-0.448-1-1v0-8c0-0.552 0.448-1 1-1s1 0.448 1 1v0 5.586l8.292-8.294c0.181-0.181 0.431-0.294 0.708-0.294s0.527 0.112 0.708 0.294l0 0z"></path>
</svg>
