<!-- Generated by IcoMoon.io -->
<svg version="1.1" xmlns="http://www.w3.org/2000/svg" width="32" height="32" viewBox="0 0 32 32">
<title>textarea-resize</title>
<path d="M1 8c0-2.761 2.239-5 5-5v0h24c2.761 0 5 2.239 5 5v0 16c0 2.761-2.239 5-5 5v0h-24c-2.761 0-5-2.239-5-5v0-16zM6 5c-1.657 0-3 1.343-3 3v0 16c0 1.657 1.343 3 3 3v0h24c1.657 0 3-1.343 3-3v0-16c0-1.657-1.343-3-3-3v0h-24zM29.708 16.292c0.181 0.181 0.294 0.431 0.294 0.708s-0.112 0.527-0.294 0.708l-6 6c-0.181 0.181-0.431 0.293-0.708 0.293-0.553 0-1.001-0.448-1.001-1.001 0-0.276 0.112-0.527 0.293-0.708v0l6-6c0.181-0.181 0.431-0.294 0.708-0.294s0.527 0.112 0.708 0.294l0 0zM29.708 21.292c0.181 0.181 0.294 0.431 0.294 0.708s-0.112 0.527-0.294 0.708l-1 1c-0.181 0.181-0.431 0.293-0.708 0.293-0.553 0-1.001-0.448-1.001-1.001 0-0.276 0.112-0.527 0.293-0.708v0l1-1c0.181-0.181 0.431-0.294 0.708-0.294s0.527 0.112 0.708 0.294l0 0z"></path>
</svg>
