<!-- Generated by IcoMoon.io -->
<svg version="1.1" xmlns="http://www.w3.org/2000/svg" width="32" height="32" viewBox="0 0 32 32">
<title>thermometer-half</title>
<path d="M12 4c0-2.209 1.791-4 4-4s4 1.791 4 4v0 15.254c1.823 1.281 3 3.376 3 5.745 0 3.866-3.134 7-7 7s-7-3.134-7-7c0-2.369 1.177-4.463 2.978-5.73l0.022-0.015v-15.254zM16 2c-1.105 0-2 0.895-2 2v0 15.802c0 0.368-0.199 0.69-0.495 0.863l-0.005 0.003c-1.51 0.879-2.509 2.49-2.509 4.334 0 2.76 2.238 4.998 4.998 4.998 0.004 0 0.008 0 0.011 0h-0.001c0.001 0 0.002 0 0.003 0 2.761 0 5-2.239 5-5 0-1.842-0.996-3.452-2.48-4.319l-0.024-0.013c-0.301-0.176-0.5-0.498-0.5-0.866v0-15.802c0-1.105-0.895-2-2-2v0z"></path>
<path d="M19 25c0 1.657-1.343 3-3 3s-3-1.343-3-3v0c0-1.657 1.343-3 3-3s3 1.343 3 3v0z"></path>
<path d="M16 3.5c0.276 0 0.5 0.224 0.5 0.5v0 20c0 0.276-0.224 0.5-0.5 0.5s-0.5-0.224-0.5-0.5v0-20c0-0.276 0.224-0.5 0.5-0.5v0z"></path>
</svg>
