<!-- Generated by IcoMoon.io -->
<svg version="1.1" xmlns="http://www.w3.org/2000/svg" width="32" height="32" viewBox="0 0 32 32">
<title>toggle-off</title>
<path d="M22 8c4.418 0 8 3.582 8 8s-3.582 8-8 8v0h-6c2.44-1.841 4-4.734 4-7.992 0-0.003 0-0.006 0-0.008v0c0-0.002 0-0.005 0-0.008 0-3.258-1.56-6.151-3.975-7.974l-0.025-0.018h6zM10 24c-4.418 0-8-3.582-8-8s3.582-8 8-8v0c4.418 0 8 3.582 8 8s-3.582 8-8 8v0zM0 16c0 5.523 4.477 10 10 10v0h12c5.523 0 10-4.477 10-10s-4.477-10-10-10v0h-12c-5.523 0-10 4.477-10 10v0z"></path>
</svg>
