<!-- Generated by IcoMoon.io -->
<svg version="1.1" xmlns="http://www.w3.org/2000/svg" width="32" height="32" viewBox="0 0 32 32">
<title>toggles</title>
<path d="M9 18c-3.866 0-7 3.134-7 7s3.134 7 7 7v0h14c3.866 0 7-3.134 7-7s-3.134-7-7-7v0h-14zM23 30c2.761 0 5-2.239 5-5s-2.239-5-5-5v0c-2.761 0-5 2.239-5 5s2.239 5 5 5v0zM9 2c-2.761 0-5 2.239-5 5s2.239 5 5 5v0c2.761 0 5-2.239 5-5s-2.239-5-5-5v0zM13.9 2c1.296 1.268 2.1 3.036 2.1 4.991 0 0.003 0 0.007 0 0.010v-0.001c0 0.003 0 0.006 0 0.009 0 1.955-0.804 3.722-2.099 4.989l-0.001 0.001h9.1c2.761 0 5-2.239 5-5s-2.239-5-5-5v0h-9.1zM9 0h14c3.866 0 7 3.134 7 7s-3.134 7-7 7v0h-14c-3.866 0-7-3.134-7-7s3.134-7 7-7v0z"></path>
</svg>
