<!-- Generated by IcoMoon.io -->
<svg version="1.1" xmlns="http://www.w3.org/2000/svg" width="32" height="32" viewBox="0 0 32 32">
<title>toggle2-off</title>
<path d="M18 22c1.256-1.672 2-3.748 2-6 0-0.004 0-0.009 0-0.015 0-2.258-0.752-4.34-2.018-6.010l0.018 0.025h8c3.314 0 6 2.686 6 6s-2.686 6-6 6v0h-8z"></path>
<path d="M10 24v0c-4.418 0-8-3.582-8-8s3.582-8 8-8v0c4.418 0 8 3.582 8 8s-3.582 8-8 8zM10 26c5.523 0 10-4.477 10-10s-4.477-10-10-10v0c-5.523 0-10 4.477-10 10s4.477 10 10 10v0z"></path>
</svg>
