<!-- Generated by IcoMoon.io -->
<svg version="1.1" xmlns="http://www.w3.org/2000/svg" width="32" height="32" viewBox="0 0 32 32">
<title>tree</title>
<path d="M16 0c0.346 0 0.65 0.176 0.83 0.442l0.002 0.004 6 9c0.105 0.156 0.167 0.348 0.167 0.554 0 0.552-0.447 1-0.999 1h-0.196l4.044 6.47c0.095 0.15 0.152 0.334 0.152 0.53 0 0.552-0.448 1-1 1 0 0 0 0 0 0h-0.382l3.276 6.552c0.067 0.131 0.106 0.285 0.106 0.448 0 0.552-0.448 1-1 1h-22c-0.552-0-1-0.448-1-1 0-0.163 0.039-0.317 0.109-0.454l-0.003 0.006 3.274-6.552h-0.38c0 0 0 0 0 0-0.552 0-1-0.448-1-1 0-0.196 0.057-0.38 0.154-0.534l-0.002 0.004 4.044-6.47h-0.196c-0.552-0-0.999-0.448-0.999-1 0-0.206 0.063-0.398 0.17-0.558l-0.002 0.004 6-9c0.182-0.27 0.486-0.446 0.832-0.446h0zM11.868 9h0.132c0 0 0 0 0 0 0.552 0 1 0.448 1 1 0 0.196-0.057 0.38-0.154 0.534l0.002-0.004-4.044 6.47h0.196c0.552 0 1 0.448 1 1 0 0.163-0.039 0.317-0.109 0.454l0.003-0.006-3.274 6.552h18.764l-3.276-6.552c-0.067-0.131-0.106-0.285-0.106-0.448 0-0.552 0.447-0.999 0.998-1h0.196l-4.044-6.47c-0.095-0.15-0.152-0.334-0.152-0.53 0-0.552 0.448-1 1-1 0 0 0 0 0 0h0.132l-4.132-6.198-4.132 6.198z"></path>
<path d="M14 26h4v6h-4v-6z"></path>
</svg>
