<!-- Generated by IcoMoon.io -->
<svg version="1.1" xmlns="http://www.w3.org/2000/svg" width="32" height="32" viewBox="0 0 32 32">
<title>truck-flatbed</title>
<path d="M22 10h4.040c0.944 0.001 1.786 0.438 2.335 1.12l0.005 0.006 2.962 3.7c0.41 0.509 0.658 1.163 0.658 1.875 0 0 0 0.001 0 0.001v-0 4.298c0 1.657-1.343 3-3 3v0h-2v-2h2c0.552 0 1-0.448 1-1v0-4.3c-0-0.237-0.083-0.455-0.221-0.626l0.002 0.002-2.96-3.7c-0.184-0.23-0.465-0.376-0.78-0.376h-2.040v9h-2v-11zM6 26c1.105 0 2-0.895 2-2s-0.895-2-2-2v0c-1.105 0-2 0.895-2 2s0.895 2 2 2v0zM6 28c2.209 0 4-1.791 4-4s-1.791-4-4-4v0c-2.209 0-4 1.791-4 4s1.791 4 4 4v0z"></path>
<path d="M24 26v0c-1.105 0-2-0.895-2-2s0.895-2 2-2v0c1.105 0 2 0.895 2 2s-0.895 2-2 2zM24 28c2.209 0 4-1.791 4-4s-1.791-4-4-4v0c-2.209 0-4 1.791-4 4s1.791 4 4 4v0z"></path>
<path d="M0 20h22v4h-13v-2h-6v2h-1c-1.105 0-2-0.895-2-2v0-2zM22 8c1.105 0 2 0.895 2 2v0 12h-2v-14z"></path>
</svg>
