<!-- Generated by IcoMoon.io -->
<svg version="1.1" xmlns="http://www.w3.org/2000/svg" width="32" height="32" viewBox="0 0 32 32">
<title>type-bold</title>
<path d="M16.42 26c4.212 0 6.824-2.174 6.824-5.646 0-2.612-1.968-4.566-4.648-4.772v-0.11c2.101-0.325 3.692-2.115 3.704-4.279v-0.001c0-3.020-2.324-4.92-6.028-4.92h-8.586v19.728h8.734zM11.816 9.348h3.392c1.926 0 3.034 0.902 3.034 2.488 0 1.668-1.258 2.64-3.46 2.64h-2.966v-5.13zM11.816 22.924v-5.728h3.46c2.434 0 3.76 0.984 3.76 2.83 0 1.886-1.286 2.898-3.664 2.898h-3.558z"></path>
</svg>
