<!-- Generated by IcoMoon.io -->
<svg version="1.1" xmlns="http://www.w3.org/2000/svg" width="32" height="32" viewBox="0 0 32 32">
<title>type-h2</title>
<path d="M15.276 26v-18.662h-2.516v7.902h-9.242v-7.9h-2.518v18.66h2.516v-8.544h9.24v8.544h2.518zM21.32 12.534v-0.096c0-1.778 1.26-3.336 3.432-3.336 1.914 0 3.35 1.216 3.35 3.144 0 1.71-1.108 3.008-2.134 4.17l-7.026 7.998v1.586h12.058v-2.188h-8.49v-0.15l4.962-5.688c1.75-1.996 3.172-3.568 3.172-5.906 0-2.926-2.31-5.112-5.838-5.112-3.882 0-5.932 2.652-5.932 5.48v0.098h2.446z"></path>
</svg>
