<!-- Generated by IcoMoon.io -->
<svg version="1.1" xmlns="http://www.w3.org/2000/svg" width="32" height="32" viewBox="0 0 32 32">
<title>upc</title>
<path d="M6 9c0-0.552 0.448-1 1-1s1 0.448 1 1v0 14c0 0.552-0.448 1-1 1s-1-0.448-1-1v0-14zM10 9c0-0.552 0.448-1 1-1s1 0.448 1 1v0 14c0 0.552-0.448 1-1 1s-1-0.448-1-1v0-14zM14 9c0-0.552 0.448-1 1-1s1 0.448 1 1v0 14c0 0.552-0.448 1-1 1s-1-0.448-1-1v0-14zM18 9c0-0.552 0.448-1 1-1v0h2c0.552 0 1 0.448 1 1v0 14c0 0.552-0.448 1-1 1v0h-2c-0.552 0-1-0.448-1-1v0-14zM24 9c0-0.552 0.448-1 1-1s1 0.448 1 1v0 14c0 0.552-0.448 1-1 1s-1-0.448-1-1v0-14z"></path>
</svg>
