<!-- Generated by IcoMoon.io -->
<svg version="1.1" xmlns="http://www.w3.org/2000/svg" width="32" height="32" viewBox="0 0 32 32">
<title>volume-up</title>
<path d="M13.434 7.1c0.337 0.165 0.566 0.506 0.566 0.9v16c-0.001 0.552-0.448 0.999-1 0.999-0.237 0-0.455-0.082-0.626-0.22l0.002 0.002-4.726-3.78h-4.65c-0.552 0-1-0.448-1-1v0-8c0-0.552 0.448-1 1-1v0h4.65l4.726-3.78c0.169-0.136 0.387-0.219 0.624-0.219 0.158 0 0.307 0.037 0.44 0.101l-0.006-0.003zM12 10.080l-3.376 2.7c-0.169 0.137-0.387 0.22-0.624 0.22h-4v6h4c0.237 0 0.455 0.083 0.626 0.221l-0.002-0.002 3.376 2.7v-11.84z"></path>
<path d="M23.072 28.020c3.077-3.068 4.98-7.311 4.98-11.999 0-0.007 0-0.015 0-0.022v0.001c0-0.006 0-0.013 0-0.021 0-4.688-1.903-8.931-4.98-11.999l-0-0-1.416 1.414c2.715 2.707 4.394 6.451 4.394 10.587 0 0.007 0 0.013 0 0.020v-0.001c0 4.142-1.68 7.892-4.394 10.606l1.416 1.414z"></path>
<path d="M20.242 25.192c2.353-2.346 3.808-5.591 3.808-9.176 0-0.006 0-0.011 0-0.017v0.001c0-0.005 0-0.010 0-0.016 0-3.585-1.455-6.83-3.808-9.176l-0-0-1.414 1.414c1.991 1.985 3.222 4.731 3.222 7.764 0 0.005 0 0.010 0 0.015v-0.001c0 0.005 0 0.012 0 0.018 0 3.032-1.231 5.777-3.22 7.762l-0 0 1.412 1.412z"></path>
<path d="M17.414 22.364c1.628-1.624 2.636-3.871 2.636-6.352 0-0.004 0-0.008 0-0.012v0.001c0-0.003 0-0.008 0-0.012 0-2.482-1.008-4.728-2.636-6.352l-0-0-1.414 1.414c1.266 1.263 2.050 3.010 2.050 4.94 0 0.003 0 0.007 0 0.010v-0.001c0 0.003 0 0.006 0 0.009 0 1.93-0.784 3.678-2.050 4.941l-0 0 1.414 1.414z"></path>
</svg>
