<!-- Generated by IcoMoon.io -->
<svg version="1.1" xmlns="http://www.w3.org/2000/svg" width="32" height="32" viewBox="0 0 32 32">
<title>wallet</title>
<path d="M4 8v17c0 1.657 1.343 3 3 3v0h20c0.552 0 1-0.448 1-1v0-16c0-0.552 0.448-1 1-1s1 0.448 1 1v0 16c0 1.657-1.343 3-3 3v0h-20c-2.761 0-5-2.239-5-5v0-17h2z"></path>
<path d="M2 8c0-2.209 1.791-4 4-4v0h23c0.552 0 1 0.448 1 1s-0.448 1-1 1v0h-23c-1.105 0-2 0.895-2 2s0.895 2 2 2v0h23v2h-23c-2.209 0-4-1.791-4-4v0z"></path>
<path d="M26 10v-4h2v4h-2z"></path>
</svg>
