<!-- Generated by IcoMoon.io -->
<svg version="1.1" xmlns="http://www.w3.org/2000/svg" width="32" height="32" viewBox="0 0 32 32">
<title>watch</title>
<path d="M8 28.666v-3.72c-2.459-2.202-4-5.386-4-8.931 0-0.005 0-0.011 0-0.016v0.001c0-3.554 1.544-6.748 4-8.944v-3.722c0-1.84 1.492-3.334 3.334-3.334h9.332c1.84 0 3.334 1.492 3.334 3.334v3.72c2.459 2.202 4 5.386 4 8.931 0 0.005 0 0.011 0 0.016v-0.001c0 0.004 0 0.009 0 0.013 0 3.544-1.541 6.729-3.989 8.921l-0.011 0.010v3.722c0 1.84-1.492 3.334-3.334 3.334h-9.332c-1.84 0-3.334-1.492-3.334-3.334zM26 16c0-5.523-4.477-10-10-10s-10 4.477-10 10v0c0 5.523 4.477 10 10 10s10-4.477 10-10v0z"></path>
<path d="M27.836 17.986c0.048 0.008 0.104 0.013 0.16 0.013 0.553 0 1.001-0.447 1.004-0.999v-2c-0-0.552-0.448-1-1-1-0.058 0-0.115 0.005-0.17 0.014l0.006-0.001c0.105 0.597 0.164 1.285 0.164 1.986s-0.060 1.389-0.174 2.058l0.010-0.072z"></path>
<path d="M16 9c0.552 0 1 0.448 1 1v0 6c0 0.552-0.448 1-1 1v0h-4c-0.552 0-1-0.448-1-1s0.448-1 1-1v0h3v-5c0-0.552 0.448-1 1-1v0z"></path>
</svg>
