<!-- Generated by IcoMoon.io -->
<svg version="1.1" xmlns="http://www.w3.org/2000/svg" width="32" height="32" viewBox="0 0 32 32">
<title>wifi-1</title>
<path d="M22.092 20.908c0.452-0.452 0.37-1.21-0.2-1.5-1.708-0.887-3.729-1.408-5.871-1.408-0.007 0-0.014 0-0.022 0h0.001c-2.12 0-4.124 0.508-5.892 1.408-0.57 0.29-0.652 1.048-0.2 1.5l0.030 0.030c0.32 0.32 0.814 0.38 1.222 0.18 1.407-0.705 3.066-1.118 4.822-1.118 0.006 0 0.013 0 0.019 0h-0.001c1.736 0 3.38 0.402 4.84 1.12 0.406 0.2 0.9 0.14 1.222-0.182l0.030-0.030zM18.12 24.88c0.392-0.392 0.396-1.040-0.080-1.32-0.582-0.352-1.284-0.56-2.036-0.56-0.002 0-0.003 0-0.005 0h0c-0.001 0-0.003 0-0.004 0-0.751 0-1.454 0.208-2.054 0.57l0.018-0.010c-0.476 0.28-0.472 0.928-0.080 1.32l1.412 1.412c0.181 0.181 0.431 0.293 0.707 0.293s0.526-0.112 0.707-0.293v0l1.416-1.414z"></path>
</svg>
