<!-- Generated by IcoMoon.io -->
<svg version="1.1" xmlns="http://www.w3.org/2000/svg" width="32" height="32" viewBox="0 0 32 32">
<title>wifi-2</title>
<path d="M26.458 16.542c0.432-0.432 0.388-1.156-0.126-1.49-2.907-1.913-6.471-3.052-10.302-3.052-0.011 0-0.021 0-0.032 0h0.002c-3.81 0-7.36 1.12-10.332 3.052-0.257 0.175-0.423 0.466-0.423 0.796 0 0.273 0.114 0.519 0.297 0.694l0 0c0.189 0.185 0.448 0.299 0.733 0.299 0.212 0 0.41-0.063 0.575-0.171l-0.004 0.002c2.581-1.676 5.737-2.672 9.126-2.672 0.010 0 0.020 0 0.030 0h-0.002c0.008 0 0.018-0 0.028-0 3.389 0 6.545 0.996 9.192 2.712l-0.066-0.040c0.41 0.264 0.96 0.216 1.304-0.13zM22.092 20.908c0.452-0.452 0.37-1.21-0.2-1.5-1.708-0.887-3.729-1.408-5.871-1.408-0.007 0-0.014 0-0.022 0h0.001c-2.12 0-4.124 0.508-5.892 1.408-0.57 0.29-0.652 1.048-0.2 1.5l0.030 0.030c0.32 0.32 0.816 0.38 1.222 0.18 1.407-0.705 3.066-1.118 4.822-1.118 0.006 0 0.013 0 0.019 0h-0.001c1.736 0 3.38 0.402 4.84 1.12 0.406 0.2 0.9 0.14 1.222-0.182l0.030-0.030zM18.12 24.88c0.392-0.392 0.396-1.040-0.080-1.32-0.582-0.352-1.284-0.56-2.036-0.56-0.002 0-0.003 0-0.005 0h0c-0.001 0-0.003 0-0.004 0-0.751 0-1.454 0.208-2.054 0.57l0.018-0.010c-0.476 0.28-0.472 0.928-0.080 1.32l1.412 1.412c0.181 0.181 0.431 0.294 0.708 0.294s0.527-0.112 0.708-0.294l1.414-1.414z"></path>
</svg>
