<!-- Generated by IcoMoon.io -->
<svg version="1.1" xmlns="http://www.w3.org/2000/svg" width="32" height="32" viewBox="0 0 32 32">
<title>x-octagon-fill</title>
<path d="M22.92 0.292l8.788 8.788c0.18 0.181 0.292 0.43 0.292 0.706v12.428c-0 0.276-0.112 0.525-0.292 0.706l-8.788 8.788c-0.181 0.18-0.43 0.292-0.706 0.292h-12.428c-0.276-0-0.525-0.112-0.706-0.292l-8.788-8.788c-0.18-0.181-0.292-0.43-0.292-0.706v-12.428c0-0.276 0.112-0.525 0.292-0.706l8.788-8.788c0.181-0.18 0.43-0.292 0.706-0.292h12.428c0.276 0 0.525 0.112 0.706 0.292zM23.708 9.708c0.181-0.181 0.293-0.431 0.293-0.708 0-0.553-0.448-1.001-1.001-1.001-0.276 0-0.527 0.112-0.708 0.293v0l-6.292 6.294-6.292-6.294c-0.181-0.181-0.431-0.293-0.708-0.293-0.553 0-1.001 0.448-1.001 1.001 0 0.277 0.112 0.527 0.293 0.708v0l6.294 6.292-6.294 6.292c-0.181 0.181-0.293 0.431-0.293 0.708 0 0.553 0.448 1.001 1.001 1.001 0.277 0 0.527-0.112 0.708-0.293v0l6.292-6.294 6.292 6.294c0.181 0.181 0.431 0.293 0.708 0.293 0.553 0 1.001-0.448 1.001-1.001 0-0.276-0.112-0.527-0.293-0.708v0l-6.294-6.292 6.294-6.292z"></path>
</svg>
